<svg xmlns="http://www.w3.org/2000/svg" width="35.022" height="41.676" viewBox="0 0 35.022 41.676">
  <defs>
    <style>
      .cls-1 {
        fill: #efefef;
      }
    </style>
  </defs>
  <path id="apple" class="cls-1" d="M29.562,24.273c-.019-3.415,1.526-5.992,4.652-7.89a10,10,0,0,0-7.881-4.15c-3.3-.261-6.913,1.926-8.234,1.926-1.4,0-4.6-1.833-7.109-1.833C5.8,12.41.281,16.467.281,24.72a23.19,23.19,0,0,0,1.34,7.555C2.812,35.69,7.111,44.064,11.6,43.924c2.345-.056,4-1.665,7.053-1.665,2.959,0,4.494,1.665,7.109,1.665,4.522-.065,8.411-7.676,9.546-11.1-6.066-2.856-5.741-8.374-5.741-8.551ZM24.3,9A8.763,8.763,0,0,0,26.529,2.25,9.866,9.866,0,0,0,20.211,5.5a8.9,8.9,0,0,0-2.382,6.69C20.258,12.373,22.472,11.126,24.3,9Z" transform="translate(-0.281 -2.25)"/>
</svg>
