<svg xmlns="http://www.w3.org/2000/svg" xmlns:xlink="http://www.w3.org/1999/xlink" width="978" height="560" viewBox="0 0 978 560">
  <defs>
    <style>
      .cls-1 {
        fill: url(#linear-gradient);
      }

      .cls-11, .cls-2, .cls-5, .cls-6 {
        opacity: 0.1;
      }

      .cls-3 {
        fill: #3f3d56;
      }

      .cls-4, .cls-6 {
        fill: #13b493;
      }

      .cls-11, .cls-7 {
        fill: none;
        stroke-miterlimit: 10;
      }

      .cls-7 {
        stroke: #3f3d56;
        stroke-width: 4px;
      }

      .cls-8 {
        fill: url(#linear-gradient-2);
      }

      .cls-9 {
        fill: #be6f72;
      }

      .cls-10 {
        fill: #ff6f61;
      }

      .cls-11 {
        stroke: #000;
      }

      .cls-12 {
        fill: url(#linear-gradient-3);
      }

      .cls-13 {
        fill: #2f2e41;
      }

      .cls-14 {
        fill: #fbbebe;
      }

      .cls-15 {
        fill: #e8e8f0;
      }

      .cls-16 {
        fill: #f86d70;
      }
    </style>
    <linearGradient id="linear-gradient" x1="1" y1="0.474" x2="0.475" y2="0.722" gradientUnits="objectBoundingBox">
      <stop offset="0" stop-color="#3df2cd"/>
      <stop offset="1" stop-color="#fff"/>
    </linearGradient>
    <linearGradient id="linear-gradient-2" x1="0.5" y1="1" x2="0.5" gradientUnits="objectBoundingBox">
      <stop offset="0" stop-color="gray" stop-opacity="0.251"/>
      <stop offset="0.54" stop-color="gray" stop-opacity="0.122"/>
      <stop offset="1" stop-color="gray" stop-opacity="0.102"/>
    </linearGradient>
    <linearGradient id="linear-gradient-3" x1="0.5" y1="1" x2="0.5" y2="-0.001" xlink:href="#linear-gradient-2"/>
  </defs>
  <g id="bgcontact" transform="translate(-95.658 -84)">
    <rect id="Rectangle_107" data-name="Rectangle 107" class="cls-1" width="978" height="560" rx="8" transform="translate(95.658 84)"/>
    <g id="undraw_contact_us_15o2" transform="matrix(0.946, 0, 0.023, 0.998, 558.633, 272.221)">
      <g id="Group_41" data-name="Group 41" class="cls-2" transform="translate(135.89 12.785)">
        <ellipse id="Ellipse_53" data-name="Ellipse 53" class="cls-3" cx="3.637" cy="4.762" rx="3.637" ry="4.762" transform="translate(13.709 98.311)"/>
        <path id="Path_458" data-name="Path 458" class="cls-3" d="M526.529,444.664a5.753,5.753,0,0,0,.761-2.912c0-2.631-1.63-4.763-3.641-4.763s-3.65,2.138-3.65,4.769a5.753,5.753,0,0,0,.761,2.912,5.948,5.948,0,0,0,0,5.82,5.948,5.948,0,0,0,0,5.82,5.735,5.735,0,0,0-.761,2.912c0,2.627,1.63,4.762,3.637,4.762s3.641-2.135,3.641-4.762a5.735,5.735,0,0,0-.761-2.912,5.948,5.948,0,0,0,0-5.82,5.948,5.948,0,0,0,0-5.82Z" transform="translate(-506.303 -361.967)"/>
        <ellipse id="Ellipse_54" data-name="Ellipse 54" class="cls-3" cx="3.637" cy="4.762" rx="3.637" ry="4.762" transform="translate(13.709 69.209)"/>
        <ellipse id="Ellipse_55" data-name="Ellipse 55" class="cls-3" cx="3.637" cy="4.762" rx="3.637" ry="4.762" transform="translate(13.709 63.388)"/>
        <path id="Path_459" data-name="Path 459" class="cls-4" d="M480.879,230.587a16.962,16.962,0,0,1-1.355-1.994l9.557-1.569-10.337.077a17.458,17.458,0,0,1-.32-13.808l13.869,7.195-12.785-9.4a17.429,17.429,0,1,1,28.767,19.5,17.433,17.433,0,0,1,1.988,3.177l-12.411,6.463,13.229-4.44a17.429,17.429,0,0,1-2.809,16.365,17.426,17.426,0,1,1-27.392,0,17.426,17.426,0,0,1,0-21.549Z" transform="translate(-477.149 -202.271)"/>
        <path id="Path_460" data-name="Path 460" class="cls-5" d="M512,324.023a17.347,17.347,0,0,1-3.73,10.775,17.426,17.426,0,1,1-27.392,0C478.543,331.832,512,322.067,512,324.023Z" transform="translate(-477.149 -284.933)"/>
      </g>
      <g id="Group_42" data-name="Group 42" class="cls-2" transform="translate(182.738 28.713)">
        <ellipse id="Ellipse_56" data-name="Ellipse 56" class="cls-3" cx="2.72" cy="3.557" rx="2.72" ry="3.557" transform="translate(10.244 73.405)"/>
        <path id="Path_461" data-name="Path 461" class="cls-3" d="M660.631,433.054a4.294,4.294,0,0,0,.566-2.174c0-1.966-1.218-3.561-2.717-3.561s-2.72,1.6-2.72,3.561a4.263,4.263,0,0,0,.569,2.174,4.444,4.444,0,0,0,0,4.35,4.444,4.444,0,0,0,0,4.35,4.262,4.262,0,0,0-.569,2.173c0,1.966,1.218,3.561,2.72,3.561s2.717-1.6,2.717-3.561a4.294,4.294,0,0,0-.566-2.173,4.475,4.475,0,0,0,0-4.35A4.475,4.475,0,0,0,660.631,433.054Z" transform="translate(-645.519 -371.316)"/>
        <ellipse id="Ellipse_57" data-name="Ellipse 57" class="cls-3" cx="2.72" cy="3.557" rx="2.72" ry="3.557" transform="translate(10.244 51.657)"/>
        <ellipse id="Ellipse_58" data-name="Ellipse 58" class="cls-3" cx="2.72" cy="3.557" rx="2.72" ry="3.557" transform="translate(10.244 47.307)"/>
        <path id="Path_462" data-name="Path 462" class="cls-4" d="M626.507,273.2a12.448,12.448,0,0,1-1.013-1.49l7.144-1.173-7.725.058a13.054,13.054,0,0,1-.249-10.321l10.366,5.379-9.56-7.032A13.025,13.025,0,1,1,646.976,273.2a13.163,13.163,0,0,1,1.486,2.375l-9.269,4.817,9.886-3.318a13.028,13.028,0,0,1-2.1,12.229,13.022,13.022,0,1,1-20.456,0,13.022,13.022,0,0,1,0-16.1Z" transform="translate(-623.72 -252.103)"/>
        <path id="Path_463" data-name="Path 463" class="cls-5" d="M649.776,342.892a12.967,12.967,0,0,1-2.787,8.051,13.022,13.022,0,1,1-20.456,0C624.781,348.728,649.776,341.431,649.776,342.892Z" transform="translate(-623.733 -313.743)"/>
      </g>
      <g id="Group_43" data-name="Group 43" class="cls-2" transform="translate(314.368)">
        <ellipse id="Ellipse_59" data-name="Ellipse 59" class="cls-3" cx="3.637" cy="4.762" rx="3.637" ry="4.762" transform="translate(13.955 98.311)"/>
        <path id="Path_464" data-name="Path 464" class="cls-3" d="M1079.95,404.664a5.757,5.757,0,0,1-.761-2.912c0-2.631,1.63-4.762,3.641-4.762s3.637,2.132,3.637,4.762a5.756,5.756,0,0,1-.761,2.912,5.948,5.948,0,0,1,0,5.82,5.948,5.948,0,0,1,0,5.82,5.733,5.733,0,0,1,.761,2.912c0,2.627-1.63,4.762-3.637,4.762s-3.641-2.135-3.641-4.762a5.734,5.734,0,0,1,.761-2.912,5.948,5.948,0,0,1,0-5.82A5.948,5.948,0,0,1,1079.95,404.664Z" transform="translate(-1065.238 -321.967)"/>
        <ellipse id="Ellipse_60" data-name="Ellipse 60" class="cls-3" cx="3.637" cy="4.762" rx="3.637" ry="4.762" transform="translate(13.955 69.209)"/>
        <ellipse id="Ellipse_61" data-name="Ellipse 61" class="cls-3" cx="3.637" cy="4.762" rx="3.637" ry="4.762" transform="translate(13.955 63.388)"/>
        <path id="Path_465" data-name="Path 465" class="cls-4" d="M1066.749,190.587a16.985,16.985,0,0,0,1.355-1.994l-9.557-1.569,10.337.077a17.458,17.458,0,0,0,.32-13.808l-13.869,7.195,12.785-9.4a17.429,17.429,0,1,0-28.767,19.5,17.424,17.424,0,0,0-1.988,3.177l12.411,6.463-13.229-4.44a17.429,17.429,0,0,0,2.81,16.365,17.426,17.426,0,1,0,27.392,0,17.426,17.426,0,0,0,0-21.549Z" transform="translate(-1035.541 -162.271)"/>
        <path id="Path_466" data-name="Path 466" class="cls-5" d="M1035.809,284.023a17.349,17.349,0,0,0,3.73,10.775,17.426,17.426,0,1,0,27.392,0C1069.268,291.832,1035.809,282.067,1035.809,284.023Z" transform="translate(-1035.724 -244.933)"/>
      </g>
      <g id="Group_44" data-name="Group 44" class="cls-2" transform="translate(283.752 26.795)">
        <ellipse id="Ellipse_62" data-name="Ellipse 62" class="cls-3" cx="2.72" cy="3.557" rx="2.72" ry="3.557" transform="translate(10.373 73.405)"/>
        <path id="Path_467" data-name="Path 467" class="cls-3" d="M972.8,427.054a4.293,4.293,0,0,1-.566-2.173c0-1.966,1.218-3.561,2.717-3.561s2.72,1.6,2.72,3.561a4.263,4.263,0,0,1-.569,2.173,4.443,4.443,0,0,1,0,4.35,4.443,4.443,0,0,1,0,4.35,4.263,4.263,0,0,1,.569,2.173c0,1.966-1.218,3.561-2.72,3.561s-2.717-1.6-2.717-3.561a4.293,4.293,0,0,1,.566-2.173,4.475,4.475,0,0,1,0-4.35A4.475,4.475,0,0,1,972.8,427.054Z" transform="translate(-961.85 -365.316)"/>
        <ellipse id="Ellipse_63" data-name="Ellipse 63" class="cls-3" cx="2.72" cy="3.557" rx="2.72" ry="3.557" transform="translate(10.373 51.657)"/>
        <ellipse id="Ellipse_64" data-name="Ellipse 64" class="cls-3" cx="2.72" cy="3.557" rx="2.72" ry="3.557" transform="translate(10.373 47.307)"/>
        <path id="Path_468" data-name="Path 468" class="cls-4" d="M963.026,267.2a12.461,12.461,0,0,0,1.013-1.49l-7.144-1.173,7.725.058a13.053,13.053,0,0,0,.249-10.321l-10.365,5.379,9.56-7.032A13.025,13.025,0,1,0,942.557,267.2a13.156,13.156,0,0,0-1.486,2.375l9.269,4.817-9.867-3.315a13.028,13.028,0,0,0,2.1,12.229,13.022,13.022,0,1,0,20.456,0,13.022,13.022,0,0,0,0-16.1Z" transform="translate(-939.756 -246.103)"/>
        <path id="Path_469" data-name="Path 469" class="cls-5" d="M939.786,336.892a12.969,12.969,0,0,0,2.787,8.051,13.022,13.022,0,1,0,20.456,0C964.781,342.728,939.786,335.431,939.786,336.892Z" transform="translate(-939.772 -307.743)"/>
      </g>
      <g id="Group_45" data-name="Group 45" class="cls-2" transform="translate(2.336 0.054)">
        <ellipse id="Ellipse_65" data-name="Ellipse 65" class="cls-3" cx="3.637" cy="4.762" rx="3.637" ry="4.762" transform="translate(13.712 98.257)"/>
        <path id="Path_470" data-name="Path 470" class="cls-3" d="M108.723,404.664a5.753,5.753,0,0,0,.761-2.912c0-2.631-1.63-4.762-3.637-4.762s-3.637,2.132-3.637,4.762a5.753,5.753,0,0,0,.758,2.912,5.967,5.967,0,0,0,0,5.82,5.968,5.968,0,0,0,0,5.82,5.731,5.731,0,0,0-.758,2.912c0,2.627,1.627,4.762,3.637,4.762s3.647-2.129,3.647-4.756a5.734,5.734,0,0,0-.761-2.912,5.948,5.948,0,0,0,0-5.82,5.948,5.948,0,0,0,0-5.82Z" transform="translate(-88.497 -322.021)"/>
        <ellipse id="Ellipse_66" data-name="Ellipse 66" class="cls-3" cx="3.637" cy="4.762" rx="3.637" ry="4.762" transform="translate(13.712 69.155)"/>
        <ellipse id="Ellipse_67" data-name="Ellipse 67" class="cls-3" cx="3.637" cy="4.762" rx="3.637" ry="4.762" transform="translate(13.712 63.335)"/>
        <path id="Path_471" data-name="Path 471" class="cls-4" d="M63.046,190.7a17.362,17.362,0,0,1-1.355-1.994l9.56-1.569-10.346.093a17.458,17.458,0,0,1-.32-13.808l13.872,7.195-12.785-9.4a17.426,17.426,0,1,1,28.767,19.5,17.433,17.433,0,0,1,1.988,3.177l-12.414,6.447,13.233-4.44a17.449,17.449,0,0,1-2.813,16.365,17.426,17.426,0,1,1-27.392,0,17.426,17.426,0,0,1,0-21.549Z" transform="translate(-59.309 -162.439)"/>
        <path id="Path_472" data-name="Path 472" class="cls-5" d="M94.162,284.023a17.346,17.346,0,0,1-3.73,10.775,17.426,17.426,0,1,1-27.392,0C60.7,291.832,94.162,282.067,94.162,284.023Z" transform="translate(-59.309 -244.987)"/>
      </g>
      <g id="Group_46" data-name="Group 46" class="cls-2" transform="translate(41.833 26.795)">
        <ellipse id="Ellipse_68" data-name="Ellipse 68" class="cls-3" cx="2.72" cy="3.557" rx="2.72" ry="3.557" transform="translate(10.244 73.405)"/>
        <path id="Path_473" data-name="Path 473" class="cls-3" d="M219.8,427.054a4.293,4.293,0,0,0,.566-2.173c0-1.966-1.215-3.561-2.717-3.561s-2.72,1.6-2.72,3.561a4.292,4.292,0,0,0,.569,2.173,4.443,4.443,0,0,0,0,4.35,4.443,4.443,0,0,0,0,4.35,4.292,4.292,0,0,0-.569,2.173c0,1.966,1.218,3.561,2.72,3.561s2.717-1.6,2.717-3.561a4.293,4.293,0,0,0-.566-2.173,4.475,4.475,0,0,0,0-4.35,4.475,4.475,0,0,0,0-4.35Z" transform="translate(-204.686 -365.316)"/>
        <ellipse id="Ellipse_69" data-name="Ellipse 69" class="cls-3" cx="2.72" cy="3.557" rx="2.72" ry="3.557" transform="translate(10.244 51.657)"/>
        <ellipse id="Ellipse_70" data-name="Ellipse 70" class="cls-3" cx="2.72" cy="3.557" rx="2.72" ry="3.557" transform="translate(10.244 47.307)"/>
        <path id="Path_474" data-name="Path 474" class="cls-4" d="M185.667,267.2a12.851,12.851,0,0,1-1.013-1.489l7.144-1.173-7.725.058a13.054,13.054,0,0,1-.249-10.321l10.366,5.379-9.56-7.032A13.025,13.025,0,1,1,206.136,267.2a12.824,12.824,0,0,1,1.486,2.375l-9.269,4.817,9.886-3.318a13.028,13.028,0,0,1-2.1,12.229,13.022,13.022,0,1,1-20.456,0,13.022,13.022,0,0,1,0-16.1Z" transform="translate(-182.88 -246.103)"/>
        <path id="Path_475" data-name="Path 475" class="cls-5" d="M208.937,336.892a12.967,12.967,0,0,1-2.787,8.051,13.022,13.022,0,1,1-20.456,0C183.935,342.728,208.937,335.431,208.937,336.892Z" transform="translate(-182.893 -307.743)"/>
      </g>
      <ellipse id="Ellipse_71" data-name="Ellipse 71" class="cls-6" cx="175.156" cy="2.832" rx="175.156" ry="2.832" transform="translate(0 154.901)"/>
      <ellipse id="Ellipse_72" data-name="Ellipse 72" class="cls-6" cx="175.156" cy="2.832" rx="175.156" ry="2.832" transform="translate(0 178.154)"/>
      <ellipse id="Ellipse_73" data-name="Ellipse 73" class="cls-6" cx="175.156" cy="2.832" rx="175.156" ry="2.832" transform="translate(0 106.372)"/>
      <ellipse id="Ellipse_74" data-name="Ellipse 74" class="cls-6" cx="175.156" cy="2.832" rx="175.156" ry="2.832" transform="translate(0 130.635)"/>
      <path id="Path_476" data-name="Path 476" class="cls-6" d="M823.485,256.426a5.849,5.849,0,0,0-3.388.371,5,5,0,0,1-4.072,0,5.715,5.715,0,0,0-4.795.093,2.953,2.953,0,0,1-1.378.345c-1.943,0-3.558-1.956-3.893-4.536a3.8,3.8,0,0,0,.959-1.045,5.455,5.455,0,0,1,9.739-.035,3.734,3.734,0,0,0,3.225,1.771h.051C821.5,253.374,822.836,254.614,823.485,256.426Z" transform="translate(-564.973 -221.034)"/>
      <path id="Path_477" data-name="Path 477" class="cls-6" d="M829.388,232.961l-3.139,1.988,1.918-3.465a3.1,3.1,0,0,0-1.9-.674h-.051a3.63,3.63,0,0,1-.639-.048l-1.08.674.457-.831a3.767,3.767,0,0,1-1.863-1.413l-1.918,1.208,1.2-2.186a5.57,5.57,0,0,0-4.264-2.154,5.849,5.849,0,0,0-4.884,3.011A3.647,3.647,0,0,1,810,230.81H809.9c-2.186,0-3.957,2.477-3.957,5.533s1.771,5.536,3.957,5.536a3,3,0,0,0,1.378-.345,5.709,5.709,0,0,1,4.795-.1,4.97,4.97,0,0,0,4.072,0,5.728,5.728,0,0,1,4.75.093,2.973,2.973,0,0,0,1.362.339c2.186,0,3.957-2.48,3.957-5.536A7.009,7.009,0,0,0,829.388,232.961Z" transform="translate(-564.959 -205.671)"/>
      <path id="Path_478" data-name="Path 478" class="cls-6" d="M417.161,255.99a4.1,4.1,0,0,0-2.375.259,3.49,3.49,0,0,1-2.848,0,3.989,3.989,0,0,0-3.353.067,2.116,2.116,0,0,1-.959.24c-1.358,0-2.49-1.368-2.726-3.174a2.659,2.659,0,0,0,.681-.732,3.819,3.819,0,0,1,6.818-.026,2.618,2.618,0,0,0,2.26,1.24h.035A2.833,2.833,0,0,1,417.161,255.99Z" transform="translate(-292.103 -222.327)"/>
      <path id="Path_479" data-name="Path 479" class="cls-6" d="M421.287,239.573l-2.2,1.394,1.333-2.426a2.158,2.158,0,0,0-1.326-.473h-.038a2.4,2.4,0,0,1-.454-.035l-.745.473.32-.582a2.653,2.653,0,0,1-1.3-.988l-1.333.844.844-1.528a3.9,3.9,0,0,0-2.985-1.512,4.088,4.088,0,0,0-3.417,2.11,2.557,2.557,0,0,1-2.26,1.218h-.074c-1.531,0-2.771,1.732-2.771,3.874s1.24,3.874,2.771,3.874a2.078,2.078,0,0,0,.959-.243,4,4,0,0,1,3.35-.064,3.433,3.433,0,0,0,2.851.019,4.008,4.008,0,0,1,3.324.064,2.072,2.072,0,0,0,.959.237c1.528,0,2.768-1.736,2.768-3.874A4.9,4.9,0,0,0,421.287,239.573Z" transform="translate(-292.089 -211.577)"/>
      <path id="Path_480" data-name="Path 480" class="cls-6" d="M321.59,334.4a4.1,4.1,0,0,1,2.372.259,3.5,3.5,0,0,0,2.851,0,4,4,0,0,1,3.353.064,2.068,2.068,0,0,0,.959.243c1.358,0,2.49-1.371,2.723-3.177a2.6,2.6,0,0,1-.678-.732,3.823,3.823,0,0,0-6.821-.022,2.618,2.618,0,0,1-2.257,1.24h-.035A2.853,2.853,0,0,0,321.59,334.4Z" transform="translate(-235.421 -275.675)"/>
      <path id="Path_481" data-name="Path 481" class="cls-6" d="M307.424,318.02l2.2,1.394-1.336-2.423a2.17,2.17,0,0,1,1.33-.476h.035a2.735,2.735,0,0,0,.457-.032l.745.47-.32-.578a2.651,2.651,0,0,0,1.3-.988l1.333.844-.831-1.531a3.9,3.9,0,0,1,2.985-1.509,4.092,4.092,0,0,1,3.417,2.109A2.557,2.557,0,0,0,321,316.517h.077c1.528,0,2.768,1.736,2.768,3.874s-1.24,3.874-2.768,3.874a2.075,2.075,0,0,1-.959-.24,3.989,3.989,0,0,0-3.353-.067,3.472,3.472,0,0,1-1.432.32,3.514,3.514,0,0,1-1.419-.3,4,4,0,0,0-3.321.064,2.071,2.071,0,0,1-.959.237c-1.531,0-2.771-1.732-2.771-3.874A4.935,4.935,0,0,1,307.424,318.02Z" transform="translate(-225.398 -264.952)"/>
      <path id="Path_482" data-name="Path 482" class="cls-7" d="M708.675,580.444c.834-1.547-.112-3.439-1.2-4.817s-2.416-2.813-2.388-4.567c.042-2.522,2.72-4.015,4.858-5.351a23.741,23.741,0,0,0,4.363-3.516,6.433,6.433,0,0,0,1.339-1.8,7.266,7.266,0,0,0,.4-3.2q-.137-5.4-.534-10.791" transform="translate(-496.343 -423.628)"/>
      <path id="Path_483" data-name="Path 483" class="cls-4" d="M733.708,537.861a3.934,3.934,0,0,0-1.966-3.225l-.882,1.742.029-2.109a3.935,3.935,0,1,0,2.819,3.593Z" transform="translate(-510.464 -415.258)"/>
      <path id="Path_484" data-name="Path 484" class="cls-4" d="M712.666,617.035a3.935,3.935,0,0,1-7.428-1.6,3.836,3.836,0,0,1,.256-1.6,3.938,3.938,0,0,1,7.351.042l-2.458,2,2.7-.639A3.914,3.914,0,0,1,712.666,617.035Z" transform="translate(-496.441 -467.801)"/>
      <path id="Path_485" data-name="Path 485" class="cls-4" d="M713.64,588.523a3.935,3.935,0,0,1-1.247-7.719l-.022,1.621.892-1.764h0a3.936,3.936,0,1,1,.368,7.863Z" transform="translate(-499.357 -446.928)"/>
      <path id="Path_486" data-name="Path 486" class="cls-4" d="M743.492,568.64a3.935,3.935,0,1,1,1.739-7.351l-.694,1.918,1.416-1.4a3.935,3.935,0,0,1-2.474,6.83Z" transform="translate(-519.656 -433.403)"/>
      <path id="Path_487" data-name="Path 487" class="cls-5" d="M733.164,543.5c-.908.1-1.79.38-2.7.438a2.926,2.926,0,0,1-2.487-.869,12.653,12.653,0,0,1-.729-1.279,2.8,2.8,0,0,0-.991-.933,3.935,3.935,0,1,0,7.352,2.615C733.462,543.478,733.311,543.487,733.164,543.5Z" transform="translate(-510.451 -419.852)"/>
      <path id="Path_488" data-name="Path 488" class="cls-5" d="M743.529,573.433a3.934,3.934,0,0,1-3.743-5.613,2.914,2.914,0,0,1,.789.793,13.353,13.353,0,0,0,.78,1.3,3.209,3.209,0,0,0,2.611.911c.949-.048,1.867-.32,2.813-.4.131,0,.262-.019.4-.022A3.935,3.935,0,0,1,743.529,573.433Z" transform="translate(-519.693 -438.195)"/>
      <path id="Path_489" data-name="Path 489" class="cls-5" d="M713.643,593.479a3.935,3.935,0,0,1-3.775-5.539,3.2,3.2,0,0,1,.834.8,13.189,13.189,0,0,0,.853,1.326,3.564,3.564,0,0,0,2.784.959c1-.042,1.918-.259,2.877-.32A3.941,3.941,0,0,1,713.643,593.479Z" transform="translate(-499.36 -451.884)"/>
      <path id="Path_490" data-name="Path 490" class="cls-5" d="M712.666,622.366a3.935,3.935,0,0,1-7.428-1.6,3.835,3.835,0,0,1,.256-1.6,3.93,3.93,0,0,1,.863.77c.374.454.62.959,1.055,1.4a4.917,4.917,0,0,0,3.257,1.144,16.528,16.528,0,0,0,2-.115Z" transform="translate(-496.441 -473.132)"/>
      <path id="Path_491" data-name="Path 491" class="cls-7" d="M98.675,508.444c.834-1.547-.112-3.439-1.2-4.817s-2.416-2.819-2.388-4.568c.042-2.522,2.72-4.015,4.858-5.351a23.746,23.746,0,0,0,4.363-3.516,6.435,6.435,0,0,0,1.339-1.8,7.265,7.265,0,0,0,.4-3.2q-.141-5.4-.534-10.791" transform="translate(-81.316 -374.642)"/>
      <path id="Path_492" data-name="Path 492" class="cls-4" d="M123.708,465.861a3.935,3.935,0,0,0-1.966-3.225l-.882,1.742.029-2.11a3.935,3.935,0,1,0,2.819,3.593Z" transform="translate(-95.437 -366.272)"/>
      <path id="Path_493" data-name="Path 493" class="cls-4" d="M102.666,545.035a3.935,3.935,0,0,1-7.428-1.6,3.837,3.837,0,0,1,.256-1.6,3.938,3.938,0,0,1,7.351.042l-2.458,2,2.7-.639A3.912,3.912,0,0,1,102.666,545.035Z" transform="translate(-81.414 -418.814)"/>
      <path id="Path_494" data-name="Path 494" class="cls-4" d="M103.64,516.524a3.935,3.935,0,0,1-1.247-7.719l-.022,1.62.892-1.764h0a3.936,3.936,0,0,1,.368,7.863Z" transform="translate(-84.331 -397.942)"/>
      <path id="Path_495" data-name="Path 495" class="cls-4" d="M133.492,496.64a3.935,3.935,0,1,1,1.739-7.352l-.694,1.918,1.416-1.4a3.935,3.935,0,0,1-2.474,6.83Z" transform="translate(-104.63 -384.416)"/>
      <path id="Path_496" data-name="Path 496" class="cls-5" d="M123.165,471.5c-.908.1-1.79.38-2.7.438a2.926,2.926,0,0,1-2.487-.87,12.6,12.6,0,0,1-.729-1.279,2.8,2.8,0,0,0-.991-.933,3.935,3.935,0,1,0,7.351,2.615C123.462,471.478,123.312,471.487,123.165,471.5Z" transform="translate(-95.424 -370.865)"/>
      <path id="Path_497" data-name="Path 497" class="cls-5" d="M133.529,501.433a3.935,3.935,0,0,1-3.743-5.613,2.911,2.911,0,0,1,.789.793,13.326,13.326,0,0,0,.78,1.3,3.21,3.21,0,0,0,2.611.911c.949-.048,1.867-.32,2.813-.4.131,0,.262-.019.4-.022A3.934,3.934,0,0,1,133.529,501.433Z" transform="translate(-104.666 -389.208)"/>
      <path id="Path_498" data-name="Path 498" class="cls-5" d="M103.643,521.479a3.935,3.935,0,0,1-3.775-5.539,3.2,3.2,0,0,1,.834.8,13.209,13.209,0,0,0,.853,1.326,3.563,3.563,0,0,0,2.784.959c1-.042,1.918-.259,2.877-.32A3.941,3.941,0,0,1,103.643,521.479Z" transform="translate(-84.334 -402.897)"/>
      <path id="Path_499" data-name="Path 499" class="cls-5" d="M102.666,550.366a3.935,3.935,0,0,1-7.428-1.6,3.836,3.836,0,0,1,.256-1.6,3.933,3.933,0,0,1,.863.77c.374.454.62.959,1.055,1.4a4.916,4.916,0,0,0,3.257,1.144A16.516,16.516,0,0,0,102.666,550.366Z" transform="translate(-81.414 -424.145)"/>
      <path id="Path_500" data-name="Path 500" class="cls-7" d="M496.795,426.088c-.834-1.544.112-3.436,1.2-4.814s2.413-2.813,2.384-4.568c-.038-2.525-2.717-4.014-4.858-5.351a23.658,23.658,0,0,1-4.36-3.516,6.324,6.324,0,0,1-1.342-1.793,7.364,7.364,0,0,1-.4-3.2q.144-5.4.534-10.791" transform="translate(-349.6 -318.613)"/>
      <path id="Path_501" data-name="Path 501" class="cls-4" d="M478.381,383.5a3.932,3.932,0,0,1,1.962-3.225l.882,1.742-.026-2.11a4.036,4.036,0,0,1,1.294-.157,3.935,3.935,0,1,1-4.113,3.749Z" transform="translate(-342.095 -310.237)"/>
      <path id="Path_502" data-name="Path 502" class="cls-4" d="M499.415,462.607a3.935,3.935,0,1,0-.189-3.168l2.458,2-2.7-.639A3.912,3.912,0,0,0,499.415,462.607Z" transform="translate(-356.112 -362.711)"/>
      <path id="Path_503" data-name="Path 503" class="cls-4" d="M498.436,434.163a3.935,3.935,0,0,0,1.25-7.719l.019,1.62-.892-1.764h0a3.935,3.935,0,0,0-4.123,3.736,3.891,3.891,0,0,0,.169,1.342A3.932,3.932,0,0,0,498.436,434.163Z" transform="translate(-353.19 -341.905)"/>
      <path id="Path_504" data-name="Path 504" class="cls-4" d="M468.535,414.26a3.935,3.935,0,1,0-1.742-7.352l.7,1.918-1.432-1.371a3.9,3.9,0,0,0-1.279,2.717,3.805,3.805,0,0,0,.1,1.084A3.931,3.931,0,0,0,468.535,414.26Z" transform="translate(-332.839 -328.367)"/>
      <path id="Path_505" data-name="Path 505" class="cls-5" d="M479.111,389.143c.908.1,1.79.38,2.7.438a2.939,2.939,0,0,0,2.49-.869,12.588,12.588,0,0,0,.726-1.279,2.81,2.81,0,0,1,.994-.933,3.935,3.935,0,1,1-7.352,2.611C478.814,389.115,478.961,389.127,479.111,389.143Z" transform="translate(-342.294 -314.83)"/>
      <path id="Path_506" data-name="Path 506" class="cls-5" d="M468.777,419.053a3.938,3.938,0,0,0,3.743-5.613,2.925,2.925,0,0,0-.793.793,13.345,13.345,0,0,1-.78,1.3,3.2,3.2,0,0,1-2.608.911c-.949-.048-1.867-.32-2.813-.4-.131,0-.265-.019-.4-.022a3.931,3.931,0,0,0,3.647,3.03Z" transform="translate(-333.082 -333.159)"/>
      <path id="Path_507" data-name="Path 507" class="cls-5" d="M498.814,439.119a3.931,3.931,0,0,0,3.775-5.539,3.14,3.14,0,0,0-.831.8,13.186,13.186,0,0,1-.853,1.327,3.57,3.57,0,0,1-2.787.959c-1.007-.042-1.918-.259-2.877-.32a3.932,3.932,0,0,0,3.573,2.774Z" transform="translate(-353.568 -346.862)"/>
      <path id="Path_508" data-name="Path 508" class="cls-5" d="M500.34,468.006a3.935,3.935,0,0,0,7.176-3.2,3.779,3.779,0,0,0-.863.77c-.374.454-.639.959-1.055,1.4a4.925,4.925,0,0,1-3.26,1.144A17.218,17.218,0,0,1,500.34,468.006Z" transform="translate(-357.038 -368.11)"/>
      <circle id="Ellipse_75" data-name="Ellipse 75" class="cls-3" cx="31.95" cy="31.95" r="31.95" transform="translate(217.274 44.294)"/>
      <path id="Path_509" data-name="Path 509" class="cls-4" d="M814.448,378.051a24.209,24.209,0,0,0-5.114-3.417c-1.531-.735-2.094-.722-3.177.061-.9.639-1.486,1.256-2.522,1.029s-3.088-1.774-5.073-3.752-3.525-4.018-3.746-5.069.387-1.624,1.032-2.525c.78-1.084.8-1.646.061-3.177a24.51,24.51,0,0,0-3.42-5.114c-1.122-1.119-1.365-.873-1.978-.639a11.447,11.447,0,0,0-1.812.959,5.467,5.467,0,0,0-2.174,2.3c-.438.933-.933,2.666,1.614,7.2a40.172,40.172,0,0,0,7.064,9.419h0a40.237,40.237,0,0,0,9.451,7.077c4.532,2.557,6.268,2.049,7.2,1.614a5.366,5.366,0,0,0,2.295-2.174,11.3,11.3,0,0,0,.959-1.812C815.32,379.416,815.57,379.167,814.448,378.051Z" transform="translate(-551.508 -293.567)"/>
      <path id="Path_510" data-name="Path 510" class="cls-5" d="M763.659,300.86a31.963,31.963,0,1,0,31.947,31.952A31.963,31.963,0,0,0,763.659,300.86Zm0,59.649a27.7,27.7,0,1,1,27.7-27.7A27.7,27.7,0,0,1,763.659,360.509Z" transform="translate(-514.435 -256.563)"/>
      <circle id="Ellipse_76" data-name="Ellipse 76" class="cls-3" cx="31.95" cy="31.95" r="31.95" transform="translate(143.871 92.823)"/>
      <path id="Path_511" data-name="Path 511" class="cls-4" d="M580.9,522.3l-9.566,9.733a.173.173,0,0,0,0,.249l6.712,7.137a1.155,1.155,0,1,1-1.633,1.633l-6.677-7.112a.183.183,0,0,0-.256,0l-1.627,1.643a7.15,7.15,0,0,1-5.114,2.151,7.307,7.307,0,0,1-5.2-2.212l-1.563-1.6a.182.182,0,0,0-.256,0l-6.661,7.1a1.155,1.155,0,1,1-1.633-1.633l6.687-7.121a.192.192,0,0,0,0-.249l-9.566-9.733a.176.176,0,0,0-.3.125v19.475a2.851,2.851,0,0,0,2.842,2.841h31.282a2.851,2.851,0,0,0,2.841-2.841V522.42a.176.176,0,0,0-.307-.125Z" transform="translate(-386.906 -407.175)"/>
      <path id="Path_512" data-name="Path 512" class="cls-4" d="M565.047,528.889a4.839,4.839,0,0,0,3.49-1.438l13.933-14.182a2.78,2.78,0,0,0-1.758-.639h-31.3a2.76,2.76,0,0,0-1.758.639l13.936,14.182A4.821,4.821,0,0,0,565.047,528.889Z" transform="translate(-389.226 -400.645)"/>
      <path id="Path_513" data-name="Path 513" class="cls-5" d="M532.749,452.69A31.963,31.963,0,1,0,564.7,484.642,31.963,31.963,0,0,0,532.749,452.69Zm0,59.649a27.7,27.7,0,1,1,27.7-27.7,27.7,27.7,0,0,1-27.7,27.7Z" transform="translate(-357.33 -359.864)"/>
      <circle id="Ellipse_77" data-name="Ellipse 77" class="cls-3" cx="31.95" cy="31.95" r="31.95" transform="translate(68.046 68.963)"/>
      <path id="Path_514" data-name="Path 514" class="cls-4" d="M337.737,430.16,325,459.547l1.189,1.189,11.551-5.095,11.551,5.095,1.189-1.189Z" transform="translate(-237.741 -344.535)"/>
      <path id="Path_515" data-name="Path 515" class="cls-5" d="M296.779,378a31.944,31.944,0,1,0,.005,0Zm0,59.649a22.776,22.776,0,1,1,0,.013Z" transform="translate(-196.783 -309.047)"/>
      <path id="Path_516" data-name="Path 516" class="cls-8" d="M808.453,574.338q-.435-1.061-.892-2.116a6.278,6.278,0,0,0-1.09-1.883,2,2,0,0,0-.639-.479,2.727,2.727,0,0,0-.834-.166,6.67,6.67,0,0,0-1.31-.035c-.169-.051-.361-.118-.55-.195a4.564,4.564,0,0,0,3.4-4.235v-.2A4.555,4.555,0,0,0,802,560.46a4.475,4.475,0,0,0-2.381.681,4.273,4.273,0,0,0-4.794,2.311,5.283,5.283,0,0,0-1.63,3.931c0,.067,0,.137,0,.2.083,2.484,1.688,4.475,3.714,4.676a2.13,2.13,0,0,0-.588.393,3.638,3.638,0,0,0-.789,2.41l-.048.639-1.074.383a.2.2,0,0,0-.048.349l1.026.732v.182a.8.8,0,0,0,.019.208,1.468,1.468,0,0,0-.4.566,2.614,2.614,0,0,0-.093,1.036l.038.892a6.993,6.993,0,0,0,.272,1.985c.134.4.716,1.352,1.135,1.359a41.332,41.332,0,0,0-.489,5.466c-.048.048.086.093.32.131.23,1.764.981,6.712,2.314,8.889a18.725,18.725,0,0,1,.5,2.161,41.37,41.37,0,0,0,.882,6.1,31.041,31.041,0,0,1,.86,4.973.489.489,0,0,0-.355.364c-.252.761-1.889,1.918-1.889,1.918a7.905,7.905,0,0,0-1.413.9c-.515.464-.5.882,1.79.62,4.411-.508,5.165-1.918,5.165-1.918s-.07-.237-.176-.543a5.9,5.9,0,0,0-.579-1.365c-.064-.061-.128.042-.2.2a27.365,27.365,0,0,1-.3-6.172,10.016,10.016,0,0,0-.505-3.685,6.978,6.978,0,0,1,0-2.413c.252-1.016-1.007-5.974-1.007-5.974l-.722-3.65a1.048,1.048,0,0,1,.2.425l.019.074.019.105a.2.2,0,0,0,.051.1c.492,2.046,1.841,7.713,1.841,8.544a13.554,13.554,0,0,0,1.259,3.557s.5,4.194,1.384,5.843a8.471,8.471,0,0,1,.655,3.909h0a3.621,3.621,0,0,1-.4,1.3,3.086,3.086,0,0,0-.476.828l-.029.061s-.377.764-.125.892a6.192,6.192,0,0,0,3.024.38s.505-.639.505-.889a4.016,4.016,0,0,0-.057-.454c-.093-.6-.265-1.547-.269-1.557a4.363,4.363,0,0,0-.32-1.547l-.128-3.557a16.421,16.421,0,0,0-.882-7.118,11.809,11.809,0,0,1-.5-2.921c.138-.636-.252-7.371-.252-7.371l-.038-.1a7.293,7.293,0,0,1,.038-1.429,18.976,18.976,0,0,0-.505-4.826,4.193,4.193,0,0,1-.179-1.051c.029-.265.115-1.042.233-2.007a36.1,36.1,0,0,0,3.714-.32.464.464,0,0,0,.32-.128.448.448,0,0,0,.073-.259A12.4,12.4,0,0,0,808.453,574.338Zm-2.535,4.031c.131-.911.272-1.793.412-2.448l.019.058a17.806,17.806,0,0,1,.607,2.014A6.834,6.834,0,0,1,805.919,578.369Z" transform="translate(-556.289 -433.187)"/>
      <path id="Path_517" data-name="Path 517" class="cls-9" d="M802.37,648.149s.754,6.786,2.388,9.423a18.267,18.267,0,0,1,.5,2.135,40.349,40.349,0,0,0,.879,6.028,33.259,33.259,0,0,1,.879,5.152s1.758,2.007,2.388.377a26.47,26.47,0,0,1-.377-6.533,9.837,9.837,0,0,0-.5-3.644,6.814,6.814,0,0,1,0-2.384c.249-1.007-1.007-5.9-1.007-5.9l-1-4.9Z" transform="translate(-562.53 -492.679)"/>
      <path id="Path_518" data-name="Path 518" class="cls-10" d="M811.789,720.875s-.754,1.381-5.149,1.883c-2.282.259-2.3-.153-1.784-.614a7.954,7.954,0,0,1,1.406-.895s1.633-1.128,1.883-1.883,1.132-.125,1.132-.125c1.256,1.883,1.509-.5,1.758-.252a5.673,5.673,0,0,1,.578,1.346C811.719,720.639,811.789,720.875,811.789,720.875Z" transform="translate(-564.035 -541.034)"/>
      <path id="Path_519" data-name="Path 519" class="cls-5" d="M811.789,723.78s-.754,1.381-5.149,1.883c-2.282.259-2.3-.154-1.784-.614.358.227,1.08.32,2.535-.265,2.094-.857,3.612-1.352,4.222-1.544C811.719,723.544,811.789,723.78,811.789,723.78Z" transform="translate(-564.035 -543.938)"/>
      <path id="Path_520" data-name="Path 520" class="cls-5" d="M816,664.732a9.84,9.84,0,0,0-.5-3.644,6.812,6.812,0,0,1,0-2.384c.249-1.007-1.007-5.9-1.007-5.9l-1-4.9-.869.051.994,4.849s1.256,4.9,1.007,5.9a6.812,6.812,0,0,0,0,2.384,9.553,9.553,0,0,1,.5,3.644,26.47,26.47,0,0,0,.377,6.533,1.1,1.1,0,0,1-.364.518.821.821,0,0,0,1.243-.518A26.47,26.47,0,0,1,816,664.732Z" transform="translate(-569.504 -492.679)"/>
      <path id="Path_521" data-name="Path 521" class="cls-3" d="M801.921,562.42a4.475,4.475,0,0,0-2.372.674,4.267,4.267,0,0,0-4.794,2.285,5.2,5.2,0,0,0-1.627,3.887c0,2.672,1.8,4.836,4.018,4.836a4.057,4.057,0,0,0,3.641-2.784,4.406,4.406,0,0,0,1.131.147,4.523,4.523,0,1,0,0-9.045Z" transform="translate(-556.241 -434.521)"/>
      <path id="Path_522" data-name="Path 522" class="cls-9" d="M821.5,650.65l.377,1s.377,6.658.249,7.288a11.878,11.878,0,0,0,.505,2.877,16.081,16.081,0,0,1,.879,7.032l.125,3.516s.5,1.381.252,1.633-2.145-.224-2.145-.224a8.959,8.959,0,0,0-.639-4.27c-.892-1.633-1.381-5.779-1.381-5.779a13.332,13.332,0,0,1-1.256-3.516c0-1-2.01-9.17-2.01-9.17Z" transform="translate(-572.117 -494.55)"/>
      <path id="Path_523" data-name="Path 523" class="cls-3" d="M801.56,633.428a31.677,31.677,0,0,1,.639-5.9,9.372,9.372,0,0,0,.559-2s7.6,1.374,8.234.873a10.914,10.914,0,0,0,.252,1.883,18.063,18.063,0,0,1,.5,4.775c-.137,1.509,0,1.505,0,1.505s-5.152.754-5.277,0-.5-.751-.5-.751S801.31,633.664,801.56,633.428Z" transform="translate(-561.972 -477.452)"/>
      <g id="Group_47" data-name="Group 47" class="cls-2" transform="translate(239.587 148.94)">
        <path id="Path_524" data-name="Path 524" d="M805.725,649.709s-3.177-.086-4.136-.259v.259c-.249.249,4.4.377,4.4.377a.319.319,0,0,1,.173.07C805.991,649.709,805.725,649.709,805.725,649.709Z" transform="translate(-801.58 -642.674)"/>
        <path id="Path_525" data-name="Path 525" d="M821.6,630.133a10.913,10.913,0,0,1-.252-1.883.541.541,0,0,1-.214.077,6.346,6.346,0,0,0,.214,1.429,19.957,19.957,0,0,1,.5,4.775c-.137,1.508,0,1.505,0,1.505s-4.075.6-5.063.2a1.5,1.5,0,0,0,.038.179c.125.754,5.277,0,5.277,0s-.128,0,0-1.505A18.661,18.661,0,0,0,821.6,630.133Z" transform="translate(-811.928 -628.25)"/>
        <path id="Path_526" data-name="Path 526" d="M805.725,649.709s-3.177-.086-4.136-.259v.259c-.249.249,4.4.377,4.4.377a.319.319,0,0,1,.173.07C805.991,649.709,805.725,649.709,805.725,649.709Z" transform="translate(-801.58 -642.674)"/>
        <path id="Path_527" data-name="Path 527" d="M821.6,630.133a10.913,10.913,0,0,1-.252-1.883.541.541,0,0,1-.214.077,6.346,6.346,0,0,0,.214,1.429,19.957,19.957,0,0,1,.5,4.775c-.137,1.508,0,1.505,0,1.505s-4.075.6-5.063.2a1.5,1.5,0,0,0,.038.179c.125.754,5.277,0,5.277,0s-.128,0,0-1.505A18.661,18.661,0,0,0,821.6,630.133Z" transform="translate(-811.928 -628.25)"/>
      </g>
      <path id="Path_528" data-name="Path 528" class="cls-9" d="M813.144,584.431a1.664,1.664,0,0,0,.479.62,1.074,1.074,0,0,0,.451.2c-.281.163-.588.284-.869.447a15.454,15.454,0,0,0-1.279.959,2.6,2.6,0,0,1-1.467.569,1.8,1.8,0,0,0,.2-1.787,1.671,1.671,0,0,1-.224-.62,1.114,1.114,0,0,1,.617-.831c.24-.163.486-.32.735-.476.2-.121.489-.377.735-.368s.275.227.32.451A3.545,3.545,0,0,0,813.144,584.431Z" transform="translate(-568.021 -448.618)"/>
      <path id="Path_529" data-name="Path 529" class="cls-5" d="M813.144,584.431a1.664,1.664,0,0,0,.479.62,1.074,1.074,0,0,0,.451.2c-.281.163-.588.284-.869.447a15.454,15.454,0,0,0-1.279.959,2.6,2.6,0,0,1-1.467.569,1.8,1.8,0,0,0,.2-1.787,1.671,1.671,0,0,1-.224-.62,1.114,1.114,0,0,1,.617-.831c.24-.163.486-.32.735-.476.2-.121.489-.377.735-.368s.275.227.32.451A3.545,3.545,0,0,0,813.144,584.431Z" transform="translate(-568.021 -448.618)"/>
      <circle id="Ellipse_78" data-name="Ellipse 78" class="cls-9" cx="2.889" cy="2.889" r="2.889" transform="translate(245.178 137.446)"/>
      <path id="Path_530" data-name="Path 530" class="cls-10" d="M833.211,723.279c0,.253-.5.879-.5.879a6.219,6.219,0,0,1-3.014-.377c-.253-.125.125-.879.125-.879l.029-.061a3.052,3.052,0,0,1,.476-.818,3.575,3.575,0,0,0,.4-1.278c.78-1.279,2.164.553,2.164.553s.176.959.268,1.541A4.4,4.4,0,0,1,833.211,723.279Z" transform="translate(-581.062 -541.932)"/>
      <path id="Path_531" data-name="Path 531" class="cls-5" d="M833.211,728.688c0,.252-.5.879-.5.879a6.221,6.221,0,0,1-3.014-.377c-.253-.125.125-.879.125-.879l.029-.061a6.074,6.074,0,0,0,2.736.563l.572-.572C833.188,728.454,833.211,728.624,833.211,728.688Z" transform="translate(-581.062 -547.34)"/>
      <circle id="Ellipse_79" data-name="Ellipse 79" class="cls-9" cx="2.826" cy="2.826" r="2.826" transform="translate(239.463 131.479)"/>
      <path id="Path_532" data-name="Path 532" class="cls-9" d="M800.952,598.531a3.548,3.548,0,0,0-.786,2.381l-.1,1.25a6.318,6.318,0,0,0-.022,1.013c0,.208.051.419.07.639s.025.5.029.751v1.848a2.18,2.18,0,0,0,.2,1.109.754.754,0,0,0,.959.345,1.092,1.092,0,0,0,.4-.614,9.536,9.536,0,0,0,.639-2.34c.026-.278.029-.556.054-.834s.074-.569.115-.85c.179-1.176.259-2.365.339-3.551.022-.352.339-1.736-.121-1.889-.224-.073-.687.157-.9.233A2.538,2.538,0,0,0,800.952,598.531Z" transform="translate(-560.943 -458.576)"/>
      <path id="Path_533" data-name="Path 533" class="cls-5" d="M800.952,598.531a3.548,3.548,0,0,0-.786,2.381l-.1,1.25a6.318,6.318,0,0,0-.022,1.013c0,.208.051.419.07.639s.025.5.029.751v1.848a2.18,2.18,0,0,0,.2,1.109.754.754,0,0,0,.959.345,1.092,1.092,0,0,0,.4-.614,9.536,9.536,0,0,0,.639-2.34c.026-.278.029-.556.054-.834s.074-.569.115-.85c.179-1.176.259-2.365.339-3.551.022-.352.339-1.736-.121-1.889-.224-.073-.687.157-.9.233A2.538,2.538,0,0,0,800.952,598.531Z" transform="translate(-560.943 -458.576)"/>
      <path id="Path_534" data-name="Path 534" class="cls-10" d="M809.827,588.16a15.491,15.491,0,0,1-3.391,2.01s-.745.85-.872,1.055-.384,2.461-.639,2.966a2.4,2.4,0,0,0,0,2.762,4.787,4.787,0,0,1,.125,1.509c-.125.377-.582,1.758-.166,1.822s1.675.94,2.8.69,5.341.959,5.341.959.7-6.472,1.2-7.617l-1.131-.377s-3.139-1.883-1.256-4.772C811.837,589.167,810.073,588.79,809.827,588.16Z" transform="translate(-563.959 -452.034)"/>
      <path id="Path_535" data-name="Path 535" class="cls-3" d="M796.669,610.1l2.6,1.838a.192.192,0,0,0,.227,0l.7-.527a.2.2,0,0,0,0-.3l-2-1.774a.192.192,0,0,0-.2-.038l-1.282.46a.195.195,0,0,0-.051.342Z" transform="translate(-558.597 -466.406)"/>
      <path id="Path_536" data-name="Path 536" class="cls-9" d="M798.876,618.622a6.953,6.953,0,0,1-.272-1.959l-.038-.885a2.556,2.556,0,0,1,.093-1.023,1.672,1.672,0,0,1,1.077-.943,3.72,3.72,0,0,1,1.467-.105.376.376,0,0,1,.188.051.351.351,0,0,1,.1.173,1.157,1.157,0,0,1,.057.924.957.957,0,0,1-.294.3c-.348.249-.754.415-1.083.687a.394.394,0,0,0-.147.185.432.432,0,0,0,0,.2,3.209,3.209,0,0,0,.166.515.509.509,0,0,0,.144.217c.061.051.141.07.2.118.138.112.425.259.409.435a14.307,14.307,0,0,1-.582,1.988C800.081,620.741,799.062,619.162,798.876,618.622Z" transform="translate(-559.931 -469.394)"/>
      <g id="Group_48" data-name="Group 48" class="cls-2" transform="translate(242.911 142.094)">
        <path id="Path_537" data-name="Path 537" d="M812.05,628.186h-.07a2.153,2.153,0,0,0,.822,0h.08A2.876,2.876,0,0,0,812.05,628.186Z" transform="translate(-811.98 -621.339)"/>
        <path id="Path_538" data-name="Path 538" d="M830.2,606.83c-.451,1.013-1.115,6.5-1.234,7.591.441.115.732.2.732.2s.69-6.457,1.2-7.6Z" transform="translate(-823.54 -606.83)"/>
      </g>
      <path id="Path_539" data-name="Path 539" class="cls-9" d="M817.185,594.275a.958.958,0,0,0,.412.623,5.525,5.525,0,0,1,.732.742,5.253,5.253,0,0,1,.726,1.454,17.849,17.849,0,0,1,.6,1.988c-1.6.742-3.414.706-5.114,1.2a4.084,4.084,0,0,0-1.918,1.135,2.643,2.643,0,0,0-.706,2.081.217.217,0,0,0,.262.214,1.918,1.918,0,0,0,1.173-.4,5.588,5.588,0,0,0,.9-.882,1.447,1.447,0,0,1,.639-.473,10.461,10.461,0,0,1,2.877-.281,36.278,36.278,0,0,0,4.286-.339.345.345,0,0,0,.384-.383,12.293,12.293,0,0,0-1.279-5.475q-.432-1.051-.889-2.094a6.2,6.2,0,0,0-1.087-1.86,1.92,1.92,0,0,0-.639-.473,2.71,2.71,0,0,0-.857-.16,6.079,6.079,0,0,0-1.4-.025,2.98,2.98,0,0,0-.134.726,6.283,6.283,0,0,0,.773,2.451C816.974,594.154,817.112,594.16,817.185,594.275Z" transform="translate(-569.019 -453.85)"/>
      <path id="Path_540" data-name="Path 540" class="cls-11" d="M811.729,606.67a2.343,2.343,0,0,0-.32,1.221,1.647,1.647,0,0,0,.08.5,1.618,1.618,0,0,0,1.019.959" transform="translate(-568.68 -464.627)"/>
      <path id="Path_541" data-name="Path 541" class="cls-3" d="M805.185,571.677a1.471,1.471,0,0,0-.464.074,3.065,3.065,0,0,0-2.557-1.08c-1.528,0-2.765.789-2.765,1.761s1.237,1.758,2.765,1.758a3.889,3.889,0,0,0,1.659-.352,1.505,1.505,0,1,0,1.355-2.161Z" transform="translate(-560.51 -440.134)"/>
      <path id="Path_542" data-name="Path 542" class="cls-5" d="M805.3,576.886a1.5,1.5,0,0,1-1.355-.854,3.89,3.89,0,0,1-1.659.352c-1.525,0-2.762-.786-2.762-1.758a1.083,1.083,0,0,1,0-.176,1.193,1.193,0,0,0-.141.553c0,.959,1.237,1.758,2.765,1.758a3.891,3.891,0,0,0,1.659-.352,1.505,1.505,0,0,0,2.835-.374A1.5,1.5,0,0,1,805.3,576.886Z" transform="translate(-560.496 -442.706)"/>
      <path id="Path_543" data-name="Path 543" class="cls-5" d="M794.73,566.122a4.267,4.267,0,0,1,4.794-2.285,4.52,4.52,0,0,1,6.878,3.471v-.377a4.52,4.52,0,0,0-6.894-3.835,4.267,4.267,0,0,0-4.794,2.285,5.2,5.2,0,0,0-1.627,3.887v.377A5.115,5.115,0,0,1,794.73,566.122Z" transform="translate(-556.214 -434.521)"/>
      <path id="Path_544" data-name="Path 544" class="cls-7" d="M880.755,504.561c.834-1.544-.112-3.439-1.2-4.817s-2.413-2.81-2.384-4.567c.038-2.522,2.717-4.011,4.858-5.351a23.629,23.629,0,0,0,4.36-3.516,6.37,6.37,0,0,0,1.343-1.793,7.366,7.366,0,0,0,.4-3.2q-.14-5.4-.534-10.791" transform="translate(-613.421 -372.002)"/>
      <path id="Path_545" data-name="Path 545" class="cls-4" d="M905.778,461.946a3.928,3.928,0,0,0-1.962-3.222l-.882,1.742.026-2.11a3.862,3.862,0,0,0-1.294-.157,3.935,3.935,0,1,0,4.113,3.746Z" transform="translate(-627.535 -363.61)"/>
      <path id="Path_546" data-name="Path 546" class="cls-4" d="M884.746,541.054a3.935,3.935,0,1,1,.189-3.171l-2.458,2,2.7-.639A3.914,3.914,0,0,1,884.746,541.054Z" transform="translate(-613.519 -416.083)"/>
      <path id="Path_547" data-name="Path 547" class="cls-4" d="M885.711,512.611a3.935,3.935,0,0,1-1.25-7.719l-.019,1.621.892-1.761h0a3.936,3.936,0,1,1,.368,7.863Z" transform="translate(-616.428 -395.282)"/>
      <path id="Path_548" data-name="Path 548" class="cls-4" d="M915.568,492.73a3.935,3.935,0,1,1,1.742-7.351l-.7,1.918,1.432-1.374a3.912,3.912,0,0,1,1.279,2.717,3.792,3.792,0,0,1-.1,1.084A3.934,3.934,0,0,1,915.568,492.73Z" transform="translate(-636.734 -381.755)"/>
      <path id="Path_549" data-name="Path 549" class="cls-5" d="M905.242,467.583c-.908.1-1.793.383-2.7.441a2.931,2.931,0,0,1-2.49-.873,12.23,12.23,0,0,1-.726-1.279,2.829,2.829,0,0,0-.991-.933,3.935,3.935,0,1,0,7.352,2.611C905.536,467.558,905.389,467.567,905.242,467.583Z" transform="translate(-627.526 -368.198)"/>
      <path id="Path_550" data-name="Path 550" class="cls-5" d="M915.6,497.523a3.938,3.938,0,0,1-3.743-5.613,2.912,2.912,0,0,1,.793.789,12.572,12.572,0,0,0,.78,1.3,3.2,3.2,0,0,0,2.608.914c.949-.045,1.867-.32,2.813-.4.131,0,.265-.022.4-.026A3.935,3.935,0,0,1,915.6,497.523Z" transform="translate(-636.768 -386.548)"/>
      <path id="Path_551" data-name="Path 551" class="cls-5" d="M885.712,517.546A3.932,3.932,0,0,1,881.938,512a3.246,3.246,0,0,1,.831.8c.32.432.5.93.853,1.326a3.642,3.642,0,0,0,2.787.978c1.007-.022,1.918-.262,2.877-.336A3.935,3.935,0,0,1,885.712,517.546Z" transform="translate(-616.428 -400.217)"/>
      <path id="Path_552" data-name="Path 552" class="cls-5" d="M884.794,546.456a3.938,3.938,0,0,1-7.176-3.2,3.857,3.857,0,0,1,.863.77c.377.457.623.959,1.055,1.4a4.941,4.941,0,0,0,3.26,1.144A17.192,17.192,0,0,0,884.794,546.456Z" transform="translate(-613.566 -421.485)"/>
      <path id="Path_553" data-name="Path 553" class="cls-7" d="M1039.755,656.561c.834-1.544-.112-3.439-1.2-4.817s-2.413-2.81-2.384-4.568c.038-2.522,2.717-4.011,4.858-5.351a23.619,23.619,0,0,0,4.36-3.516,6.372,6.372,0,0,0,1.343-1.793,7.363,7.363,0,0,0,.4-3.2q-.138-5.4-.534-10.791" transform="translate(-721.6 -475.418)"/>
      <path id="Path_554" data-name="Path 554" class="cls-4" d="M1064.812,613.948a3.927,3.927,0,0,0-1.962-3.222l-.882,1.742.026-2.109a3.861,3.861,0,0,0-1.278-.157,3.935,3.935,0,1,0,4.114,3.746Z" transform="translate(-735.748 -467.027)"/>
      <path id="Path_555" data-name="Path 555" class="cls-4" d="M1043.746,693.055a3.935,3.935,0,1,1,.188-3.171l-2.458,2,2.7-.639A3.911,3.911,0,0,1,1043.746,693.055Z" transform="translate(-721.698 -519.5)"/>
      <path id="Path_556" data-name="Path 556" class="cls-4" d="M1044.711,664.611a3.935,3.935,0,0,1-1.25-7.719l-.019,1.621.892-1.761h0a3.936,3.936,0,1,1,.368,7.863Z" transform="translate(-724.607 -498.698)"/>
      <path id="Path_557" data-name="Path 557" class="cls-4" d="M1074.568,644.73a3.935,3.935,0,1,1,1.742-7.351l-.7,1.918,1.432-1.374a3.912,3.912,0,0,1,1.278,2.717,3.8,3.8,0,0,1-.1,1.083A3.935,3.935,0,0,1,1074.568,644.73Z" transform="translate(-744.913 -485.172)"/>
      <path id="Path_558" data-name="Path 558" class="cls-5" d="M1064.242,619.583c-.908.1-1.793.384-2.7.441a2.931,2.931,0,0,1-2.49-.873,12.163,12.163,0,0,1-.725-1.279,2.832,2.832,0,0,0-.991-.933,3.935,3.935,0,1,0,7.351,2.611C1064.536,619.558,1064.389,619.567,1064.242,619.583Z" transform="translate(-735.705 -471.615)"/>
      <path id="Path_559" data-name="Path 559" class="cls-5" d="M1074.6,649.523a3.938,3.938,0,0,1-3.743-5.613,2.911,2.911,0,0,1,.793.789,12.6,12.6,0,0,0,.78,1.3,3.2,3.2,0,0,0,2.608.914c.949-.045,1.867-.32,2.813-.4.131,0,.265-.022.4-.026A3.935,3.935,0,0,1,1074.6,649.523Z" transform="translate(-744.947 -489.965)"/>
      <path id="Path_560" data-name="Path 560" class="cls-5" d="M1044.713,669.546a3.932,3.932,0,0,1-3.775-5.546,3.248,3.248,0,0,1,.831.8c.32.432.5.93.854,1.327a3.643,3.643,0,0,0,2.787.978c1.007-.023,1.918-.262,2.877-.336A3.935,3.935,0,0,1,1044.713,669.546Z" transform="translate(-724.608 -503.633)"/>
      <path id="Path_561" data-name="Path 561" class="cls-5" d="M1043.794,698.456a3.938,3.938,0,0,1-7.176-3.2,3.864,3.864,0,0,1,.863.77c.377.457.639.959,1.055,1.4a4.942,4.942,0,0,0,3.26,1.144A17.253,17.253,0,0,0,1043.794,698.456Z" transform="translate(-721.746 -524.902)"/>
      <path id="Path_562" data-name="Path 562" class="cls-12" d="M438.779,568.805a3.136,3.136,0,0,0-1.25-2.531,173.712,173.712,0,0,0-5.517-6.338h0a3.116,3.116,0,0,0-.454-.105h-.54a3.6,3.6,0,0,0-3.477,3.075c-1.122-.259-2.148.077-2.336.786a.959.959,0,0,0,.032.569,2.474,2.474,0,0,0,1.649,1.336l.109.032.163.042h.035a2.826,2.826,0,0,0-.268,1.211,2.793,2.793,0,0,0,1.505,2.493l-.074.045a1,1,0,0,0-.243.339,5.07,5.07,0,0,0-.47,1.132c-.08.339-.093.69-.192,1.026-.185.617-.658,1.138-.713,1.78-.026.288.022.639-.182.825a1,1,0,0,1-.163.115,1.319,1.319,0,0,0-.355.374,1.243,1.243,0,0,1-.249.358c-.185.137-.489.125-.578.339s.144.467.089.7-.253.278-.4.409a1.422,1.422,0,0,0-.342.639,2.1,2.1,0,0,1-1.726-.441,3.222,3.222,0,0,1,.179.639,2.8,2.8,0,0,0-.93-.467,2.939,2.939,0,0,1-.991-.735l.531-.074-2.343-3.577-.694-.144.62,1.192a.38.38,0,0,0-.211.253,1.082,1.082,0,0,0-.022.406,7.27,7.27,0,0,0,.16.959l.179.837c.016.077.035.157.058.233a2.206,2.206,0,0,0-.694.077,6.038,6.038,0,0,0-1.442-.342.8.8,0,0,0-.32,0,.827.827,0,0,0-.3.246,9.82,9.82,0,0,0-1.071,1.509,52.679,52.679,0,0,1-4.52,6.089c-1.087.441-2.183.86-3.279,1.279l-2.359.9a3.574,3.574,0,0,1-1.464.32c-.224,0-.5-.048-.639.144a1.345,1.345,0,0,0-.144.32l-.243.026h0a2.8,2.8,0,0,0-.566-1.042.358.358,0,0,0-.265.2c-.057.106-.093.221-.16.32-.125.185-.345.275-.5.432s-.256.4-.428.559a1.693,1.693,0,0,1-.8.32,5.069,5.069,0,0,0-1.256.476,2.015,2.015,0,0,1-.463.214,1.746,1.746,0,0,1-.547.019l-1.247-.093a.981.981,0,0,0-.336.016.639.639,0,0,0-.4.639,1.006,1.006,0,0,0,.4.687,2.539,2.539,0,0,0,.71.368,20.836,20.836,0,0,0,3.324.985v.253a5.674,5.674,0,0,0,2.557.607.4.4,0,0,0,.192-.035.422.422,0,0,0,.16-.249,10.279,10.279,0,0,0,.5-2.448h0a1.281,1.281,0,0,0,.451-.115c.428-.118.857.176,1.3.224a3.554,3.554,0,0,0,1.569-.454l.224-.074a2.456,2.456,0,0,1-.518.5c-.214.153-.454.268-.662.428a4.56,4.56,0,0,1-.563.435,3.512,3.512,0,0,1-.432.166,2.85,2.85,0,0,0-.617.32,1.248,1.248,0,0,0-.419.409.613.613,0,0,0-.035.575.607.607,0,0,0,.412.288,1.692,1.692,0,0,0,.508,0c.678-.051,1.352-.112,2.026-.173a5.4,5.4,0,0,0,.847-.121c.147-.035.294-.083.441-.125a3.934,3.934,0,0,1,.77-.115.641.641,0,0,1,.224.022c.157.051.268.211.428.243a.639.639,0,0,0,.32-.042,7.117,7.117,0,0,1,1.5-.16.619.619,0,0,0,.582-.259c.1-.2-.083-.534-.166-.805a2.46,2.46,0,0,1-.07-.53,3.322,3.322,0,0,0-.371-1.259,3.285,3.285,0,0,1-.278-.575,14.539,14.539,0,0,0,2.758-1.4,4.932,4.932,0,0,1,1.573-.757,4.275,4.275,0,0,1,1.975.23,44.892,44.892,0,0,1,4.529,1.579c.706.291,1.41.6,2.138.818a3.335,3.335,0,0,0,.761.738,3.516,3.516,0,0,0,1.646.451,21.546,21.546,0,0,0,2.317.086,3.908,3.908,0,0,0,1.726-.32,1.775,1.775,0,0,0,.361-.24,1.432,1.432,0,0,0,1.138-.419,2.758,2.758,0,0,0,.866-1.368c.189-.729.045-1.6.492-2.18.118-.16.275-.288.393-.447a1.26,1.26,0,0,0,.2-.738.143.143,0,0,1,.019-.029,2.709,2.709,0,0,0,.192-.735,4.216,4.216,0,0,1,.208-.582,17.97,17.97,0,0,0,.595-1.723,10.049,10.049,0,0,0,.275-1.183c.048-.32.077-.639.1-.959a5.959,5.959,0,0,1,.291-1.48,12.044,12.044,0,0,0,.671-3.541v-.07a2.375,2.375,0,0,0,2.1-2.416,2.522,2.522,0,0,0-.22-1.032,3.2,3.2,0,0,0,.428-1.611ZM427.342,582.7c.035.125.077.246.118.368-.189-.182-.371-.371-.559-.556.074.026.15.048.221.077a1.193,1.193,0,0,1,.211.112Zm-.9-.614c-1.106-.959-2.384-1.7-3.516-2.634.617.3,1.218.658,1.812,1q1.058.6,2.145,1.16a1.754,1.754,0,0,1-.451.476Zm.47-2.416.054-.054V580l-.3-.1a2.623,2.623,0,0,0,.233-.224Zm-9.726,2.589a9.154,9.154,0,0,0,1.176-1.678,11.293,11.293,0,0,0,1.755,1.959C419.138,582.415,418.16,582.309,417.182,582.258Z" transform="translate(-285.996 -432.759)"/>
      <path id="Path_563" data-name="Path 563" class="cls-13" d="M415.35,438.25l.7.141,2.375,3.513-1.045.141Z" transform="translate(-282.592 -298.058)"/>
      <path id="Path_564" data-name="Path 564" class="cls-14" d="M414.49,645.386a13.685,13.685,0,0,0,.7,1.812,17.234,17.234,0,0,0,2.317-.662,7.352,7.352,0,0,0-.483-.639,2.386,2.386,0,0,0-.655-.5,1.8,1.8,0,0,0-.8,0C415.212,645.386,414.851,645.392,414.49,645.386Z" transform="translate(-298.628 -490.945)"/>
      <path id="Path_565" data-name="Path 565" class="cls-13" d="M403.659,644.179a1.445,1.445,0,0,1-.793-.9,2.9,2.9,0,0,0-.6-1.077.345.345,0,0,0-.269.2c-.058.1-.093.217-.157.32-.128.182-.352.272-.511.425s-.256.393-.428.55a1.7,1.7,0,0,1-.809.32,5.242,5.242,0,0,0-1.279.47,2.209,2.209,0,0,1-.47.211,1.86,1.86,0,0,1-.55,0l-1.259-.09a.985.985,0,0,0-.32,0,.611.611,0,0,0-.4.639.959.959,0,0,0,.4.678,2.654,2.654,0,0,0,.716.364,21.065,21.065,0,0,0,3.375.959v.249a5.842,5.842,0,0,0,2.573.6.434.434,0,0,0,.192-.032.422.422,0,0,0,.16-.249,9.972,9.972,0,0,0,.527-2.736,2.177,2.177,0,0,0-.054-.706c-.07-.227.166-.131-.051-.221" transform="translate(-285.918 -488.801)"/>
      <path id="Path_566" data-name="Path 566" class="cls-13" d="M443.162,631.419c-3.733.224-7.422-.869-11.161-.984a5.45,5.45,0,0,0-1.387.086,6.989,6.989,0,0,0-1.374.534c-2,.933-4.078,1.707-6.15,2.477l-2.381.885a3.606,3.606,0,0,1-1.473.32c-.227,0-.505-.048-.639.141a2.332,2.332,0,0,0,.051,2.062c.083.208.224.435.448.457a1.3,1.3,0,0,0,.454-.115c.431-.115.863.176,1.31.224a3.682,3.682,0,0,0,1.582-.447,13.715,13.715,0,0,1,2.71-.46,12.145,12.145,0,0,0,4.245-1.761,4.953,4.953,0,0,1,1.582-.748,4.379,4.379,0,0,1,1.991.227,45.722,45.722,0,0,1,4.567,1.553,21.282,21.282,0,0,0,2.384.873,8.628,8.628,0,0,0,5.347-.32c.6-.236,1.247-.639,1.279-1.3.022-.368-.265-.69-.454-1.007-.121-.2-.246-.4-.377-.6C445.077,632.592,444.3,631.352,443.162,631.419Z" transform="translate(-301.269 -480.789)"/>
      <path id="Path_567" data-name="Path 567" class="cls-5" d="M443.162,631.419c-3.733.224-7.422-.869-11.161-.984a5.45,5.45,0,0,0-1.387.086,6.989,6.989,0,0,0-1.374.534c-2,.933-4.078,1.707-6.15,2.477l-2.381.885a3.606,3.606,0,0,1-1.473.32c-.227,0-.505-.048-.639.141a2.332,2.332,0,0,0,.051,2.062c.083.208.224.435.448.457a1.3,1.3,0,0,0,.454-.115c.431-.115.863.176,1.31.224a3.682,3.682,0,0,0,1.582-.447,13.715,13.715,0,0,1,2.71-.46,12.145,12.145,0,0,0,4.245-1.761,4.953,4.953,0,0,1,1.582-.748,4.379,4.379,0,0,1,1.991.227,45.722,45.722,0,0,1,4.567,1.553,21.282,21.282,0,0,0,2.384.873,8.628,8.628,0,0,0,5.347-.32c.6-.236,1.247-.639,1.279-1.3.022-.368-.265-.69-.454-1.007-.121-.2-.246-.4-.377-.6C445.077,632.592,444.3,631.352,443.162,631.419Z" transform="translate(-301.269 -480.789)"/>
      <path id="Path_568" data-name="Path 568" class="cls-14" d="M436.92,642.691q.876.3,1.768.55c.32-.547.959-.927,1.1-1.553a.147.147,0,0,0,0-.083.153.153,0,0,0-.067-.061,3.351,3.351,0,0,0-1.387-.406c-.383-.022-.559.377-.732.659C437.53,641.921,437.077,642.752,436.92,642.691Z" transform="translate(-313.889 -488.078)"/>
      <path id="Path_569" data-name="Path 569" class="cls-13" d="M427.191,642.893a1.279,1.279,0,0,1-.86-.566c-.08-.144-.169-.339-.336-.32s-.221.192-.256.342a9.588,9.588,0,0,1-.483,1.659,3.113,3.113,0,0,1-1.032,1.358c-.217.15-.457.262-.671.422a4.611,4.611,0,0,1-.566.428,3.378,3.378,0,0,1-.435.16,3.015,3.015,0,0,0-.62.32,1.231,1.231,0,0,0-.425.406.585.585,0,0,0-.032.566.6.6,0,0,0,.412.281,1.739,1.739,0,0,0,.515,0c.681-.048,1.362-.109,2.042-.169a5.905,5.905,0,0,0,.853-.118l.444-.121a3.528,3.528,0,0,1,.777-.115.6.6,0,0,1,.227.022c.157.051.268.208.432.24a.721.721,0,0,0,.32-.042,7.051,7.051,0,0,1,1.512-.156.638.638,0,0,0,.588-.256c.128-.249-.083-.527-.169-.8a2.553,2.553,0,0,1-.07-.521,3.177,3.177,0,0,0-.374-1.24c-.173-.32-.409-.671-.288-1.01a.959.959,0,0,0,.115-.348C428.764,642.768,427.5,642.963,427.191,642.893Z" transform="translate(-303.342 -488.669)"/>
      <path id="Path_570" data-name="Path 570" class="cls-14" d="M471.725,607.813a2.916,2.916,0,0,1-1.489-1.477c-.061-.141-.112-.291-.173-.432a3.28,3.28,0,0,0-.889-1.237.438.438,0,0,0-.32-.137.348.348,0,0,0-.24.259.989.989,0,0,0-.026.4,7.134,7.134,0,0,0,.16.933l.182.825a1.809,1.809,0,0,0,.112.367,1.278,1.278,0,0,0,.3.361c.166.153.336.3.505.448a1.728,1.728,0,0,0,.32.22,1.857,1.857,0,0,0,.566.166,4.816,4.816,0,0,1,2.122.818v-.614a.811.811,0,0,0-.16-.444A2.834,2.834,0,0,0,471.725,607.813Z" transform="translate(-335.429 -463.171)"/>
      <path id="Path_571" data-name="Path 571" class="cls-5" d="M471.725,607.813a2.916,2.916,0,0,1-1.489-1.477c-.061-.141-.112-.291-.173-.432a3.28,3.28,0,0,0-.889-1.237.438.438,0,0,0-.32-.137.348.348,0,0,0-.24.259.989.989,0,0,0-.026.4,7.134,7.134,0,0,0,.16.933l.182.825a1.809,1.809,0,0,0,.112.367,1.278,1.278,0,0,0,.3.361c.166.153.336.3.505.448a1.728,1.728,0,0,0,.32.22,1.857,1.857,0,0,0,.566.166,4.816,4.816,0,0,1,2.122.818v-.614a.811.811,0,0,0-.16-.444A2.834,2.834,0,0,0,471.725,607.813Z" transform="translate(-335.429 -463.171)"/>
      <ellipse id="Ellipse_80" data-name="Ellipse 80" class="cls-13" cx="0.908" cy="0.914" rx="0.908" ry="0.914" transform="translate(142.989 136.503)"/>
      <path id="Path_572" data-name="Path 572" class="cls-13" d="M487.071,590.422a.982.982,0,0,0-.716.1,1,1,0,0,0-.246.336,4.871,4.871,0,0,0-.473,1.112c-.08.32-.093.681-.195,1.01-.185.607-.662,1.122-.716,1.755-.026.284.022.617-.185.809a1.189,1.189,0,0,1-.163.118,1.228,1.228,0,0,0-.358.368,1.2,1.2,0,0,1-.253.348c-.185.137-.492.125-.582.32s.144.46.09.69-.256.275-.4.4a1.4,1.4,0,0,0-.345.639A2.132,2.132,0,0,1,480.79,598a5.536,5.536,0,0,1,.272,1.988.812.812,0,0,1-.16.614,11.064,11.064,0,0,1,2.132.371,1.471,1.471,0,0,0,.93,0,1.552,1.552,0,0,0,.428-.339,2.73,2.73,0,0,0,.879-1.355,7.946,7.946,0,0,0,.016-.917,5.176,5.176,0,0,1,.233-1.116,13.273,13.273,0,0,0,.406-2.295c.041-.479.457-.863.674-1.279a6.26,6.26,0,0,0,.86-2.557C487.473,590.822,487.371,590.454,487.071,590.422Z" transform="translate(-343.736 -453.555)"/>
      <path id="Path_573" data-name="Path 573" class="cls-5" d="M487.071,590.422a.982.982,0,0,0-.716.1,1,1,0,0,0-.246.336,4.871,4.871,0,0,0-.473,1.112c-.08.32-.093.681-.195,1.01-.185.607-.662,1.122-.716,1.755-.026.284.022.617-.185.809a1.189,1.189,0,0,1-.163.118,1.228,1.228,0,0,0-.358.368,1.2,1.2,0,0,1-.253.348c-.185.137-.492.125-.582.32s.144.46.09.69-.256.275-.4.4a1.4,1.4,0,0,0-.345.639A2.132,2.132,0,0,1,480.79,598a5.536,5.536,0,0,1,.272,1.988.812.812,0,0,1-.16.614,11.064,11.064,0,0,1,2.132.371,1.471,1.471,0,0,0,.93,0,1.552,1.552,0,0,0,.428-.339,2.73,2.73,0,0,0,.879-1.355,7.946,7.946,0,0,0,.016-.917,5.176,5.176,0,0,1,.233-1.116,13.273,13.273,0,0,0,.406-2.295c.041-.479.457-.863.674-1.279a6.26,6.26,0,0,0,.86-2.557C487.473,590.822,487.371,590.454,487.071,590.422Z" transform="translate(-343.736 -453.555)"/>
      <path id="Path_574" data-name="Path 574" class="cls-13" d="M458.1,619.633a8.427,8.427,0,0,1-1.975-1.649c-1.2-1.128-2.666-1.918-3.928-2.982a27.687,27.687,0,0,0-2.5-2.1,6.253,6.253,0,0,0-2.682-.937.712.712,0,0,0-.32,0,.735.735,0,0,0-.3.24,9.659,9.659,0,0,0-1.083,1.486c-1.6,2.717-3.871,5-5.753,7.524a.478.478,0,0,0-.093.179.444.444,0,0,0,.07.278l.384.748c.214.422.559.911,1.02.828a1.116,1.116,0,0,0,.534-.342l1.72-1.646,1.8-1.723a13.83,13.83,0,0,0,2.819-3.331,24.834,24.834,0,0,0,2.145,2.4c.249.32.454.681.678,1.026.355.55.761,1.068,1.163,1.6l2.068,2.637a3.956,3.956,0,0,0,.959.959,3.661,3.661,0,0,0,1.659.444,21.936,21.936,0,0,0,2.337.083,4.029,4.029,0,0,0,1.742-.32,1.579,1.579,0,0,0,.943-1.4,2.057,2.057,0,0,0-.3-.873A7.122,7.122,0,0,0,458.1,619.633Z" transform="translate(-315.614 -468.215)"/>
      <ellipse id="Ellipse_81" data-name="Ellipse 81" class="cls-15" cx="0.7" cy="0.703" rx="0.7" ry="0.703" transform="translate(143.756 137.347)"/>
      <path id="Path_575" data-name="Path 575" class="cls-14" d="M501.429,587.856a1.346,1.346,0,0,1,.077,1.01,4.1,4.1,0,0,1-.451.93,4.427,4.427,0,0,1-.585.831,6.021,6.021,0,0,0,3.075-.882,4.467,4.467,0,0,0,1.94-1.691.9.9,0,0,1-.716-.134,2.558,2.558,0,0,1-.547-.508l-.54-.607a2.436,2.436,0,0,1-.32-.438,1.209,1.209,0,0,1-.144-.707,4.112,4.112,0,0,1-.716.595c-.387.252-.812.435-1.2.684-.134.089-.441.23-.361.409S501.32,587.664,501.429,587.856Z" transform="translate(-357.126 -450.333)"/>
      <path id="Path_576" data-name="Path 576" class="cls-5" d="M501.429,587.856a1.346,1.346,0,0,1,.077,1.01,4.1,4.1,0,0,1-.451.93,4.427,4.427,0,0,1-.585.831,6.021,6.021,0,0,0,3.075-.882,4.467,4.467,0,0,0,1.94-1.691.9.9,0,0,1-.716-.134,2.558,2.558,0,0,1-.547-.508l-.54-.607a2.436,2.436,0,0,1-.32-.438,1.209,1.209,0,0,1-.144-.707,4.112,4.112,0,0,1-.716.595c-.387.252-.812.435-1.2.684-.134.089-.441.23-.361.409S501.32,587.664,501.429,587.856Z" transform="translate(-357.126 -450.333)"/>
      <path id="Path_577" data-name="Path 577" class="cls-15" d="M494.454,592.619a.911.911,0,0,0,0,1.055c.032.038.147.278.195.281a.176.176,0,0,0,.121-.064,8.014,8.014,0,0,0,.684-.815,1.521,1.521,0,0,1,.869-.569,1.88,1.88,0,0,1,1.2.374,1.139,1.139,0,0,1,.412.32,1.115,1.115,0,0,1,.134.457,22.018,22.018,0,0,1,.121,2.905,11.444,11.444,0,0,1-.137,2.094c-.07.355-.173.7-.22,1.064a6.778,6.778,0,0,0-.045.959v1.336a3.519,3.519,0,0,0,.051.732c.064.291.2.563.294.847a5.541,5.541,0,0,1,.2,1l.182,1.381a1.747,1.747,0,0,1-.163,1.279c-.118.156-.275.284-.4.441-.451.588-.32,1.429-.5,2.148a2.677,2.677,0,0,1-.876,1.342,1.448,1.448,0,0,1-1.154.412,1.581,1.581,0,0,1-1.052-1.243,4.971,4.971,0,0,0-.54-1.62,4.3,4.3,0,0,0-1.068-.892,1.844,1.844,0,0,1-.834-1.083c-.035-.2,0-.409-.035-.614a1.448,1.448,0,0,0-.892-1.173c-.288-.112-.639-.153-.805-.415a1.94,1.94,0,0,0,.841-1.128,5.8,5.8,0,0,0,.2-1.426l.1-1.6a5.338,5.338,0,0,1,.38-2.074c.141-.288.32-.559.464-.844a9.158,9.158,0,0,0,.5-1.237c.23-.658.46-1.317.665-1.982a3.729,3.729,0,0,1,.364-.924C493.882,593.044,494.131,592.683,494.454,592.619Z" transform="translate(-350.139 -454.99)"/>
      <path id="Path_578" data-name="Path 578" class="cls-13" d="M492.263,602.435h.425l.089-.639a1.332,1.332,0,0,1,.09-.374,2.226,2.226,0,0,1,.246-.358,4.671,4.671,0,0,0,.489-2.094,10.657,10.657,0,0,1,.933-2.736l.825-1.838a2.544,2.544,0,0,0,.179-.47,2.824,2.824,0,0,0,.051-.543c0-.284.089-1.32.1-1.6,0-.106-.233-.048-.281-.141-.1-.2-.243.349-.438.47a1.074,1.074,0,0,0-.38.556c-.179.46-.288.959-.454,1.416a2.892,2.892,0,0,1-.77,1.253c-.169.147-.364.265-.524.425a2.869,2.869,0,0,0-.579,2.03C492.25,598.235,492.167,602.435,492.263,602.435Z" transform="translate(-351.511 -454.374)"/>
      <path id="Path_579" data-name="Path 579" class="cls-13" d="M503.247,590.378a1.451,1.451,0,0,0-.758,1.039,5.257,5.257,0,0,1-.384,1.279c-.518.9-1.838,1.163-2.205,2.138a3.93,3.93,0,0,0-.147,1.007c-.064.7-.294,1.374-.364,2.071a9.23,9.23,0,0,0,.038,1.627l.464,5.5a7.351,7.351,0,0,1-.138,2.423,2.334,2.334,0,0,0,1.387-.23c.432-.2.828-.47,1.247-.7a12.85,12.85,0,0,0,2.138-1.2,1.307,1.307,0,0,0,.288-.32,2.756,2.756,0,0,0,.192-.722,3.893,3.893,0,0,1,.208-.569,16.767,16.767,0,0,0,.6-1.7,9.784,9.784,0,0,0,.275-1.163c.051-.32.08-.639.105-.959a5.623,5.623,0,0,1,.294-1.454,11.719,11.719,0,0,0,.674-3.49,1.826,1.826,0,0,0-.035-.511,2.733,2.733,0,0,0-.281-.585c-.192-.361-.32-.758-.486-1.125a5.533,5.533,0,0,0-1.889-1.985A1.439,1.439,0,0,0,503.247,590.378Z" transform="translate(-356.377 -453.513)"/>
      <path id="Path_580" data-name="Path 580" class="cls-14" d="M470.637,614.619a3.331,3.331,0,0,1-.879-.668c-.115-.134-.211-.284-.32-.419a2.176,2.176,0,0,0-1.106-.639,5.406,5.406,0,0,0-1.279-.125,2.321,2.321,0,0,0-.853.1.869.869,0,0,0-.566.607,1.007,1.007,0,0,0,.432.9,2.034,2.034,0,0,0,.86.415,6.888,6.888,0,0,0,.777.093,11.309,11.309,0,0,1,4.232,1.748q1.764,1,3.6,1.867a7.483,7.483,0,0,0,.061-1.1c0-.275-.022-.7-.281-.86a5.639,5.639,0,0,0-1.144-.342,17.993,17.993,0,0,1-2.3-.933A11.436,11.436,0,0,1,470.637,614.619Z" transform="translate(-333.424 -468.773)"/>
      <ellipse id="Ellipse_82" data-name="Ellipse 82" class="cls-14" cx="2.723" cy="2.739" rx="2.723" ry="2.739" transform="translate(141.174 131.731)"/>
      <path id="Path_581" data-name="Path 581" class="cls-13" d="M499.637,599.441a4.366,4.366,0,0,0-.527.988c-.32.69-.863,1.279-1.128,2.01s-.268,1.672-.815,2.269a.8.8,0,0,0-.24.345,1.653,1.653,0,0,1-.026.249c-.08.217-.435.227-.5.451-.019.064,0,.134-.032.2-.054.144-.246.166-.371.253-.265.179-.211.595-.4.853a.719.719,0,0,1-.681.24,2.4,2.4,0,0,1-.706-.265.683.683,0,0,0-.256-.08.528.528,0,0,0-.294.1,1.813,1.813,0,0,0-.735,1.55,5.063,5.063,0,0,0,.422,1.736.7.7,0,0,0,.137.259.611.611,0,0,0,.678.051,3.2,3.2,0,0,1,.662-.3c.422-.077.834.214,1.262.189a1.754,1.754,0,0,0,.85-.374,4.7,4.7,0,0,0,1.144-.959c.185-.246.32-.524.486-.786a10.1,10.1,0,0,1,.687-.917l1.573-1.918a4.41,4.41,0,0,0,.422-.582,4.1,4.1,0,0,0,.32-.879,6.731,6.731,0,0,0,.32-1.563,6,6,0,0,0-.115-1.31,4.632,4.632,0,0,0-.32-1.25C501.111,599.281,500.28,598.693,499.637,599.441Z" transform="translate(-351.991 -459.473)"/>
      <path id="Path_582" data-name="Path 582" class="cls-16" d="M501.865,570.083a3.068,3.068,0,0,0-1.259-2.493,3.647,3.647,0,0,0-3.1-3.551,3.538,3.538,0,0,0-6.971.189c-1.132-.256-2.167.077-2.356.774s.611,1.6,1.8,1.918a3.359,3.359,0,0,0,1.157.115,3.542,3.542,0,0,0,2.436,1.518,3.634,3.634,0,0,0,2.659,2.742,3.053,3.053,0,0,0,.821,1.135v.265a2.3,2.3,0,0,0,4.609,0,2.462,2.462,0,0,0-.221-1.02A3.081,3.081,0,0,0,501.865,570.083Z" transform="translate(-348.747 -433.688)"/>
      <path id="Path_583" data-name="Path 583" class="cls-5" d="M488.942,565.144c.189-.7,1.224-1.029,2.356-.773a3.6,3.6,0,0,1,3.516-3.03h.233a3.465,3.465,0,0,0-1-.15,3.6,3.6,0,0,0-3.516,3.03c-1.132-.256-2.167.077-2.356.774s.61,1.6,1.8,1.918a3.513,3.513,0,0,0,.684.118C489.517,566.688,488.753,565.857,488.942,565.144Z" transform="translate(-348.74 -433.684)"/>
      <path id="Path_584" data-name="Path 584" class="cls-5" d="M504.32,585.507a2.392,2.392,0,0,1,0-.262,2.983,2.983,0,0,1-.821-1.135,3.625,3.625,0,0,1-2.659-2.746,3.532,3.532,0,0,1-2.439-1.515,3.064,3.064,0,0,1-.681-.019,3.552,3.552,0,0,0,2.349,1.4,3.634,3.634,0,0,0,2.659,2.742,3.051,3.051,0,0,0,.821,1.135v.265a2.346,2.346,0,0,0,2.292,2.384A2.384,2.384,0,0,1,504.32,585.507Z" transform="translate(-355.255 -446.366)"/>
      <ellipse id="Ellipse_83" data-name="Ellipse 83" class="cls-14" cx="0.419" cy="0.559" rx="0.419" ry="0.559" transform="translate(144.136 134.838) rotate(-37.22)"/>
    </g>
  </g>
</svg>
