<svg xmlns="http://www.w3.org/2000/svg" xmlns:xlink="http://www.w3.org/1999/xlink" width="978" height="560" viewBox="0 0 978 560">
  <defs>
    <style>
      .cls-1 {
        fill: url(#linear-gradient);
      }

      .cls-11, .cls-2, .cls-5, .cls-6 {
        opacity: 0.1;
      }

      .cls-3 {
        fill: #3f3d56;
      }

      .cls-4, .cls-6 {
        fill: #13b493;
      }

      .cls-11, .cls-7 {
        fill: none;
        stroke-miterlimit: 10;
      }

      .cls-7 {
        stroke: #3f3d56;
        stroke-width: 4px;
      }

      .cls-8 {
        fill: url(#linear-gradient-2);
      }

      .cls-9 {
        fill: #be6f72;
      }

      .cls-10 {
        fill: #ff6f61;
      }

      .cls-11 {
        stroke: #000;
      }

      .cls-12 {
        fill: url(#linear-gradient-3);
      }

      .cls-13 {
        fill: #2f2e41;
      }

      .cls-14 {
        fill: #fbbebe;
      }

      .cls-15 {
        fill: #e8e8f0;
      }

      .cls-16 {
        fill: #f86d70;
      }
    </style>
    <linearGradient id="linear-gradient" x1="1" y1="0.474" x2="0.619" y2="1" gradientUnits="objectBoundingBox">
      <stop offset="0" stop-color="#3df2cd"/>
      <stop offset="1" stop-color="#fff"/>
    </linearGradient>
    <linearGradient id="linear-gradient-2" x1="0.5" y1="1" x2="0.5" gradientUnits="objectBoundingBox">
      <stop offset="0" stop-color="gray" stop-opacity="0.251"/>
      <stop offset="0.54" stop-color="gray" stop-opacity="0.122"/>
      <stop offset="1" stop-color="gray" stop-opacity="0.102"/>
    </linearGradient>
    <linearGradient id="linear-gradient-3" x1="0.5" y1="1" x2="0.5" y2="-0.001" xlink:href="#linear-gradient-2"/>
  </defs>
  <g id="bgcontact2" transform="translate(-95.658 -84)">
    <rect id="Rectangle_107" data-name="Rectangle 107" class="cls-1" width="978" height="560" rx="8" transform="translate(95.658 84)"/>
    <g id="undraw_contact_us_15o2_1_" data-name="undraw_contact_us_15o2 (1)" transform="translate(389.658 139.359)">
      <g id="Group_49" data-name="Group 49" class="cls-2" transform="translate(134.937 12.337)">
        <ellipse id="Ellipse_84" data-name="Ellipse 84" class="cls-3" cx="3.612" cy="4.729" rx="3.612" ry="4.729" transform="translate(13.613 97.622)"/>
        <path id="Path_585" data-name="Path 585" class="cls-3" d="M526.484,444.611a5.714,5.714,0,0,0,.755-2.891c0-2.612-1.619-4.729-3.615-4.729S520,439.113,520,441.725a5.714,5.714,0,0,0,.755,2.891,5.907,5.907,0,0,0,0,5.78,5.907,5.907,0,0,0,0,5.78,5.694,5.694,0,0,0-.755,2.891c0,2.609,1.619,4.729,3.612,4.729s3.615-2.12,3.615-4.729a5.7,5.7,0,0,0-.755-2.891,5.907,5.907,0,0,0,0-5.78,5.906,5.906,0,0,0,0-5.78Z" transform="translate(-506.399 -362.493)"/>
        <ellipse id="Ellipse_85" data-name="Ellipse 85" class="cls-3" cx="3.612" cy="4.729" rx="3.612" ry="4.729" transform="translate(13.613 68.724)"/>
        <ellipse id="Ellipse_86" data-name="Ellipse 86" class="cls-3" cx="3.612" cy="4.729" rx="3.612" ry="4.729" transform="translate(13.613 62.944)"/>
        <path id="Path_586" data-name="Path 586" class="cls-4" d="M480.853,230.388a16.839,16.839,0,0,1-1.346-1.981l9.49-1.558-10.264.076a17.336,17.336,0,0,1-.317-13.711l13.772,7.144-12.7-9.338a17.307,17.307,0,1,1,28.565,19.361,17.307,17.307,0,0,1,1.974,3.155l-12.324,6.418,13.137-4.408a17.307,17.307,0,0,1-2.79,16.25,17.3,17.3,0,1,1-27.2,0,17.3,17.3,0,0,1,0-21.4Z" transform="translate(-477.149 -202.271)"/>
        <path id="Path_587" data-name="Path 587" class="cls-5" d="M511.758,324.021a17.224,17.224,0,0,1-3.7,10.7,17.3,17.3,0,1,1-27.2,0C478.533,331.775,511.758,322.079,511.758,324.021Z" transform="translate(-477.149 -285.205)"/>
      </g>
      <g id="Group_50" data-name="Group 50" class="cls-2" transform="translate(181.457 28.153)">
        <ellipse id="Ellipse_87" data-name="Ellipse 87" class="cls-3" cx="2.701" cy="3.533" rx="2.701" ry="3.533" transform="translate(10.172 72.89)"/>
        <path id="Path_588" data-name="Path 588" class="cls-3" d="M660.6,433.014a4.262,4.262,0,0,0,.562-2.158c0-1.952-1.209-3.536-2.7-3.536s-2.7,1.587-2.7,3.536a4.23,4.23,0,0,0,.565,2.158,4.412,4.412,0,0,0,0,4.32,4.411,4.411,0,0,0,0,4.32,4.229,4.229,0,0,0-.565,2.158c0,1.952,1.209,3.536,2.7,3.536s2.7-1.587,2.7-3.536a4.263,4.263,0,0,0-.562-2.158,4.443,4.443,0,0,0,0-4.32A4.444,4.444,0,0,0,660.6,433.014Z" transform="translate(-645.59 -371.708)"/>
        <ellipse id="Ellipse_88" data-name="Ellipse 88" class="cls-3" cx="2.701" cy="3.533" rx="2.701" ry="3.533" transform="translate(10.172 51.295)"/>
        <ellipse id="Ellipse_89" data-name="Ellipse 89" class="cls-3" cx="2.701" cy="3.533" rx="2.701" ry="3.533" transform="translate(10.172 46.976)"/>
        <path id="Path_589" data-name="Path 589" class="cls-4" d="M626.488,273.053a12.37,12.37,0,0,1-1.006-1.479l7.094-1.165-7.671.057a12.962,12.962,0,0,1-.248-10.249l10.293,5.342-9.493-6.983a12.934,12.934,0,1,1,21.357,14.473,13.073,13.073,0,0,1,1.476,2.358l-9.2,4.783L648.9,276.9a12.937,12.937,0,0,1-2.085,12.143,12.93,12.93,0,1,1-20.313,0,12.93,12.93,0,0,1,0-15.99Z" transform="translate(-623.72 -252.103)"/>
        <path id="Path_590" data-name="Path 590" class="cls-5" d="M649.594,342.891a12.876,12.876,0,0,1-2.768,8,12.93,12.93,0,1,1-20.313,0C624.774,348.686,649.594,341.44,649.594,342.891Z" transform="translate(-623.733 -313.946)"/>
      </g>
      <g id="Group_51" data-name="Group 51" class="cls-2" transform="translate(312.165 -0.359)">
        <ellipse id="Ellipse_90" data-name="Ellipse 90" class="cls-3" cx="3.612" cy="4.729" rx="3.612" ry="4.729" transform="translate(13.857 97.622)"/>
        <path id="Path_591" data-name="Path 591" class="cls-3" d="M1079.945,404.611a5.714,5.714,0,0,1-.755-2.891c0-2.612,1.619-4.729,3.615-4.729s3.612,2.117,3.612,4.729a5.713,5.713,0,0,1-.755,2.891,5.908,5.908,0,0,1,0,5.78,5.908,5.908,0,0,1,0,5.78,5.692,5.692,0,0,1,.755,2.891c0,2.609-1.619,4.729-3.612,4.729s-3.615-2.12-3.615-4.729a5.7,5.7,0,0,1,.755-2.891,5.906,5.906,0,0,1,0-5.78A5.907,5.907,0,0,1,1079.945,404.611Z" transform="translate(-1065.336 -322.493)"/>
        <ellipse id="Ellipse_91" data-name="Ellipse 91" class="cls-3" cx="3.612" cy="4.729" rx="3.612" ry="4.729" transform="translate(13.857 68.724)"/>
        <ellipse id="Ellipse_92" data-name="Ellipse 92" class="cls-3" cx="3.612" cy="4.729" rx="3.612" ry="4.729" transform="translate(13.857 62.944)"/>
        <path id="Path_592" data-name="Path 592" class="cls-4" d="M1066.53,190.388a16.847,16.847,0,0,0,1.346-1.981l-9.49-1.558,10.264.076a17.336,17.336,0,0,0,.317-13.711l-13.771,7.144,12.7-9.338a17.307,17.307,0,1,0-28.565,19.361,17.313,17.313,0,0,0-1.974,3.155l12.324,6.418-13.137-4.409a17.308,17.308,0,0,0,2.79,16.25,17.3,17.3,0,1,0,27.2,0,17.3,17.3,0,0,0,0-21.4Z" transform="translate(-1035.541 -162.271)"/>
        <path id="Path_593" data-name="Path 593" class="cls-5" d="M1035.809,284.021a17.224,17.224,0,0,0,3.7,10.7,17.3,17.3,0,1,0,27.2,0C1069.034,291.775,1035.809,282.079,1035.809,284.021Z" transform="translate(-1035.724 -245.205)"/>
      </g>
      <g id="Group_52" data-name="Group 52" class="cls-2" transform="translate(281.764 26.249)">
        <ellipse id="Ellipse_93" data-name="Ellipse 93" class="cls-3" cx="2.701" cy="3.533" rx="2.701" ry="3.533" transform="translate(10.3 72.89)"/>
        <path id="Path_594" data-name="Path 594" class="cls-3" d="M972.791,427.014a4.26,4.26,0,0,1-.562-2.158c0-1.952,1.209-3.536,2.7-3.536s2.7,1.587,2.7,3.536a4.23,4.23,0,0,1-.565,2.158,4.412,4.412,0,0,1,0,4.32,4.412,4.412,0,0,1,0,4.32,4.233,4.233,0,0,1,.565,2.158c0,1.952-1.209,3.536-2.7,3.536s-2.7-1.587-2.7-3.536a4.26,4.26,0,0,1,.562-2.158,4.443,4.443,0,0,1,0-4.32A4.443,4.443,0,0,1,972.791,427.014Z" transform="translate(-961.923 -365.708)"/>
        <ellipse id="Ellipse_94" data-name="Ellipse 94" class="cls-3" cx="2.701" cy="3.533" rx="2.701" ry="3.533" transform="translate(10.3 51.295)"/>
        <ellipse id="Ellipse_95" data-name="Ellipse 95" class="cls-3" cx="2.701" cy="3.533" rx="2.701" ry="3.533" transform="translate(10.3 46.976)"/>
        <path id="Path_595" data-name="Path 595" class="cls-4" d="M962.863,267.053a12.336,12.336,0,0,0,1.006-1.479l-7.094-1.165,7.671.057a12.963,12.963,0,0,0,.248-10.248L954.4,259.559l9.493-6.983a12.934,12.934,0,1,0-21.357,14.473,13.073,13.073,0,0,0-1.476,2.358l9.2,4.783-9.8-3.291a12.937,12.937,0,0,0,2.085,12.143,12.93,12.93,0,1,0,20.313,0,12.93,12.93,0,0,0,0-15.99Z" transform="translate(-939.756 -246.103)"/>
        <path id="Path_596" data-name="Path 596" class="cls-5" d="M939.786,336.891a12.877,12.877,0,0,0,2.768,8,12.93,12.93,0,1,0,20.313,0C964.606,342.686,939.786,335.44,939.786,336.891Z" transform="translate(-939.772 -307.946)"/>
      </g>
      <g id="Group_53" data-name="Group 53" class="cls-2" transform="translate(2.32 -0.306)">
        <ellipse id="Ellipse_96" data-name="Ellipse 96" class="cls-3" cx="3.612" cy="4.729" rx="3.612" ry="4.729" transform="translate(13.616 97.569)"/>
        <path id="Path_597" data-name="Path 597" class="cls-3" d="M108.678,404.611a5.713,5.713,0,0,0,.755-2.891c0-2.612-1.619-4.729-3.612-4.729s-3.612,2.117-3.612,4.729a5.713,5.713,0,0,0,.752,2.891,5.926,5.926,0,0,0,0,5.78,5.926,5.926,0,0,0,0,5.78,5.691,5.691,0,0,0-.752,2.891c0,2.609,1.616,4.729,3.612,4.729s3.621-2.114,3.621-4.723a5.694,5.694,0,0,0-.755-2.891,5.907,5.907,0,0,0,0-5.78,5.907,5.907,0,0,0,0-5.78Z" transform="translate(-88.593 -322.546)"/>
        <ellipse id="Ellipse_97" data-name="Ellipse 97" class="cls-3" cx="3.612" cy="4.729" rx="3.612" ry="4.729" transform="translate(13.616 68.671)"/>
        <ellipse id="Ellipse_98" data-name="Ellipse 98" class="cls-3" cx="3.612" cy="4.729" rx="3.612" ry="4.729" transform="translate(13.616 62.891)"/>
        <path id="Path_598" data-name="Path 598" class="cls-4" d="M63.02,190.5a17.245,17.245,0,0,1-1.346-1.98l9.493-1.558-10.274.092a17.336,17.336,0,0,1-.317-13.711l13.775,7.144-12.7-9.338A17.3,17.3,0,1,1,90.22,190.512a17.311,17.311,0,0,1,1.974,3.155l-12.327,6.4,13.14-4.409a17.326,17.326,0,0,1-2.793,16.25,17.3,17.3,0,1,1-27.2,0,17.3,17.3,0,0,1,0-21.4Z" transform="translate(-59.309 -162.439)"/>
        <path id="Path_599" data-name="Path 599" class="cls-5" d="M93.917,284.021a17.225,17.225,0,0,1-3.7,10.7,17.3,17.3,0,1,1-27.2,0C60.693,291.775,93.917,282.079,93.917,284.021Z" transform="translate(-59.309 -245.258)"/>
      </g>
      <g id="Group_54" data-name="Group 54" class="cls-2" transform="translate(41.54 26.248)">
        <ellipse id="Ellipse_99" data-name="Ellipse 99" class="cls-3" cx="2.701" cy="3.533" rx="2.701" ry="3.533" transform="translate(10.172 72.891)"/>
        <path id="Path_600" data-name="Path 600" class="cls-3" d="M219.767,427.014a4.263,4.263,0,0,0,.562-2.158c0-1.952-1.206-3.536-2.7-3.536s-2.7,1.587-2.7,3.536a4.262,4.262,0,0,0,.565,2.158,4.412,4.412,0,0,0,0,4.32,4.411,4.411,0,0,0,0,4.32,4.262,4.262,0,0,0-.565,2.158c0,1.952,1.209,3.536,2.7,3.536s2.7-1.587,2.7-3.536a4.263,4.263,0,0,0-.562-2.158,4.443,4.443,0,0,0,0-4.32A4.443,4.443,0,0,0,219.767,427.014Z" transform="translate(-204.757 -365.708)"/>
        <ellipse id="Ellipse_100" data-name="Ellipse 100" class="cls-3" cx="2.701" cy="3.533" rx="2.701" ry="3.533" transform="translate(10.172 51.295)"/>
        <ellipse id="Ellipse_101" data-name="Ellipse 101" class="cls-3" cx="2.701" cy="3.533" rx="2.701" ry="3.533" transform="translate(10.172 46.976)"/>
        <path id="Path_601" data-name="Path 601" class="cls-4" d="M185.648,267.053a12.76,12.76,0,0,1-1.006-1.479l7.094-1.165-7.671.057a12.962,12.962,0,0,1-.248-10.248l10.293,5.342-9.493-6.983a12.934,12.934,0,1,1,21.357,14.473,12.736,12.736,0,0,1,1.476,2.358l-9.2,4.783,9.817-3.294a12.937,12.937,0,0,1-2.085,12.143,12.93,12.93,0,1,1-20.313,0,12.93,12.93,0,0,1,0-15.99Z" transform="translate(-182.88 -246.103)"/>
        <path id="Path_602" data-name="Path 602" class="cls-5" d="M208.754,336.891a12.877,12.877,0,0,1-2.768,8,12.93,12.93,0,1,1-20.313,0C183.928,342.686,208.754,335.44,208.754,336.891Z" transform="translate(-182.893 -307.946)"/>
      </g>
      <ellipse id="Ellipse_102" data-name="Ellipse 102" class="cls-6" cx="173.929" cy="2.812" rx="173.929" ry="2.812" transform="translate(0 153.457)"/>
      <ellipse id="Ellipse_103" data-name="Ellipse 103" class="cls-6" cx="173.929" cy="2.812" rx="173.929" ry="2.812" transform="translate(0 176.547)"/>
      <ellipse id="Ellipse_104" data-name="Ellipse 104" class="cls-6" cx="173.929" cy="2.812" rx="173.929" ry="2.812" transform="translate(0 105.268)"/>
      <ellipse id="Ellipse_105" data-name="Ellipse 105" class="cls-6" cx="173.929" cy="2.812" rx="173.929" ry="2.812" transform="translate(0 129.361)"/>
      <path id="Path_603" data-name="Path 603" class="cls-6" d="M823.362,256.372a5.807,5.807,0,0,0-3.364.368,4.967,4.967,0,0,1-4.044,0,5.675,5.675,0,0,0-4.761.092,2.932,2.932,0,0,1-1.368.343c-1.93,0-3.533-1.942-3.866-4.5a3.769,3.769,0,0,0,.952-1.038,5.417,5.417,0,0,1,9.671-.035,3.707,3.707,0,0,0,3.2,1.758h.051C821.388,253.341,822.718,254.572,823.362,256.372Z" transform="translate(-566.662 -221.586)"/>
      <path id="Path_604" data-name="Path 604" class="cls-6" d="M829.224,232.912l-3.117,1.974,1.9-3.44a3.08,3.08,0,0,0-1.885-.67h-.051a3.6,3.6,0,0,1-.635-.048l-1.073.67.454-.825a3.742,3.742,0,0,1-1.85-1.4l-1.9,1.2,1.193-2.171a5.53,5.53,0,0,0-4.234-2.139,5.808,5.808,0,0,0-4.85,2.99,3.621,3.621,0,0,1-3.2,1.727h-.1c-2.171,0-3.929,2.46-3.929,5.494s1.758,5.5,3.929,5.5a2.981,2.981,0,0,0,1.368-.343,5.668,5.668,0,0,1,4.761-.1,4.935,4.935,0,0,0,4.043,0,5.687,5.687,0,0,1,4.716.092,2.952,2.952,0,0,0,1.352.336c2.171,0,3.929-2.463,3.929-5.5A6.96,6.96,0,0,0,829.224,232.912Z" transform="translate(-566.648 -206.173)"/>
      <path id="Path_605" data-name="Path 605" class="cls-6" d="M417.075,255.951a4.075,4.075,0,0,0-2.358.257,3.466,3.466,0,0,1-2.828,0,3.961,3.961,0,0,0-3.329.067,2.1,2.1,0,0,1-.952.238c-1.349,0-2.472-1.358-2.707-3.152a2.641,2.641,0,0,0,.676-.727,3.793,3.793,0,0,1,6.77-.025,2.6,2.6,0,0,0,2.244,1.232h.035A2.813,2.813,0,0,1,417.075,255.951Z" transform="translate(-292.894 -222.883)"/>
      <path id="Path_606" data-name="Path 606" class="cls-6" d="M421.172,239.539l-2.18,1.384,1.324-2.409a2.142,2.142,0,0,0-1.317-.47h-.038a2.376,2.376,0,0,1-.451-.035l-.74.47.317-.578a2.634,2.634,0,0,1-1.295-.981l-1.324.838.838-1.517a3.875,3.875,0,0,0-2.964-1.5,4.06,4.06,0,0,0-3.393,2.095,2.539,2.539,0,0,1-2.244,1.209h-.073c-1.52,0-2.752,1.72-2.752,3.847s1.231,3.847,2.752,3.847a2.063,2.063,0,0,0,.952-.241,3.967,3.967,0,0,1,3.326-.063,3.409,3.409,0,0,0,2.831.019,3.98,3.98,0,0,1,3.3.063,2.056,2.056,0,0,0,.952.235c1.517,0,2.749-1.723,2.749-3.847A4.865,4.865,0,0,0,421.172,239.539Z" transform="translate(-292.88 -212.098)"/>
      <path id="Path_607" data-name="Path 607" class="cls-6" d="M321.59,334.361a4.069,4.069,0,0,1,2.355.257,3.472,3.472,0,0,0,2.831,0,3.974,3.974,0,0,1,3.329.064,2.055,2.055,0,0,0,.952.241c1.349,0,2.472-1.362,2.7-3.155a2.587,2.587,0,0,1-.673-.727,3.8,3.8,0,0,0-6.773-.022,2.6,2.6,0,0,1-2.241,1.231h-.035A2.833,2.833,0,0,0,321.59,334.361Z" transform="translate(-236.025 -276.407)"/>
      <path id="Path_608" data-name="Path 608" class="cls-6" d="M307.42,317.986l2.184,1.384-1.327-2.406a2.155,2.155,0,0,1,1.32-.473h.035a2.7,2.7,0,0,0,.454-.032l.74.467-.317-.574a2.63,2.63,0,0,0,1.292-.981l1.324.838-.825-1.52a3.872,3.872,0,0,1,2.964-1.5,4.064,4.064,0,0,1,3.393,2.095,2.539,2.539,0,0,0,2.241,1.209h.076c1.517,0,2.749,1.723,2.749,3.847s-1.232,3.847-2.749,3.847a2.06,2.06,0,0,1-.952-.238,3.961,3.961,0,0,0-3.329-.067,3.447,3.447,0,0,1-1.422.317,3.492,3.492,0,0,1-1.409-.3,3.973,3.973,0,0,0-3.3.063,2.056,2.056,0,0,1-.952.235c-1.52,0-2.752-1.72-2.752-3.847A4.9,4.9,0,0,1,307.42,317.986Z" transform="translate(-225.969 -265.649)"/>
      <path id="Path_609" data-name="Path 609" class="cls-7" d="M708.65,580.206c.828-1.536-.111-3.415-1.19-4.783s-2.4-2.793-2.371-4.536c.041-2.5,2.7-3.986,4.824-5.313a23.586,23.586,0,0,0,4.332-3.491,6.389,6.389,0,0,0,1.33-1.784,7.211,7.211,0,0,0,.4-3.174q-.136-5.361-.53-10.715" transform="translate(-497.806 -424.847)"/>
      <path id="Path_610" data-name="Path 610" class="cls-4" d="M733.653,537.835a3.907,3.907,0,0,0-1.952-3.2l-.876,1.73.029-2.095a3.907,3.907,0,1,0,2.8,3.567Z" transform="translate(-511.973 -416.45)"/>
      <path id="Path_611" data-name="Path 611" class="cls-4" d="M712.614,616.995a3.907,3.907,0,0,1-7.376-1.587,3.811,3.811,0,0,1,.254-1.587,3.91,3.91,0,0,1,7.3.041l-2.441,1.987,2.685-.635A3.886,3.886,0,0,1,712.614,616.995Z" transform="translate(-497.904 -469.165)"/>
      <path id="Path_612" data-name="Path 612" class="cls-4" d="M713.611,588.468a3.907,3.907,0,0,1-1.238-7.665l-.022,1.609.885-1.752h0a3.908,3.908,0,0,1,.365,7.808Z" transform="translate(-500.83 -448.224)"/>
      <path id="Path_613" data-name="Path 613" class="cls-4" d="M743.463,568.585a3.907,3.907,0,1,1,1.727-7.3l-.689,1.9,1.406-1.39a3.907,3.907,0,0,1-2.457,6.783Z" transform="translate(-521.196 -434.654)"/>
      <path id="Path_614" data-name="Path 614" class="cls-5" d="M733.113,543.485c-.9.1-1.777.378-2.685.435a2.905,2.905,0,0,1-2.469-.863,12.533,12.533,0,0,1-.724-1.27,2.78,2.78,0,0,0-.984-.927,3.907,3.907,0,1,0,7.3,2.6C733.408,543.459,733.259,543.469,733.113,543.485Z" transform="translate(-511.96 -421.059)"/>
      <path id="Path_615" data-name="Path 615" class="cls-5" d="M743.5,573.393a3.907,3.907,0,0,1-3.717-5.573,2.893,2.893,0,0,1,.784.787,13.225,13.225,0,0,0,.774,1.292,3.188,3.188,0,0,0,2.593.9c.943-.048,1.853-.318,2.793-.4.13,0,.26-.019.394-.022A3.907,3.907,0,0,1,743.5,573.393Z" transform="translate(-521.232 -439.462)"/>
      <path id="Path_616" data-name="Path 616" class="cls-5" d="M713.614,593.44a3.907,3.907,0,0,1-3.748-5.5,3.171,3.171,0,0,1,.828.794,13.1,13.1,0,0,0,.847,1.317,3.538,3.538,0,0,0,2.764.952c1-.041,1.9-.257,2.857-.317A3.913,3.913,0,0,1,713.614,593.44Z" transform="translate(-500.833 -453.196)"/>
      <path id="Path_617" data-name="Path 617" class="cls-5" d="M712.614,622.344a3.907,3.907,0,0,1-7.376-1.587,3.81,3.81,0,0,1,.254-1.587,3.9,3.9,0,0,1,.857.765c.371.451.616.952,1.047,1.387a4.883,4.883,0,0,0,3.234,1.136A16.4,16.4,0,0,0,712.614,622.344Z" transform="translate(-497.904 -474.514)"/>
      <path id="Path_618" data-name="Path 618" class="cls-7" d="M98.65,508.206c.828-1.536-.111-3.415-1.19-4.783s-2.4-2.8-2.371-4.535c.041-2.5,2.7-3.986,4.824-5.313a23.587,23.587,0,0,0,4.332-3.491,6.39,6.39,0,0,0,1.33-1.784,7.214,7.214,0,0,0,.4-3.174q-.14-5.361-.53-10.715" transform="translate(-81.413 -375.699)"/>
      <path id="Path_619" data-name="Path 619" class="cls-4" d="M123.653,465.835a3.907,3.907,0,0,0-1.952-3.2l-.876,1.73.029-2.095a3.907,3.907,0,1,0,2.8,3.567Z" transform="translate(-95.58 -367.302)"/>
      <path id="Path_620" data-name="Path 620" class="cls-4" d="M102.614,544.995a3.907,3.907,0,0,1-7.376-1.587,3.81,3.81,0,0,1,.254-1.587,3.91,3.91,0,0,1,7.3.041l-2.441,1.987,2.685-.635A3.885,3.885,0,0,1,102.614,544.995Z" transform="translate(-81.511 -420.017)"/>
      <path id="Path_621" data-name="Path 621" class="cls-4" d="M103.611,516.468a3.907,3.907,0,0,1-1.238-7.665l-.022,1.609.885-1.752h0a3.908,3.908,0,1,1,.365,7.808Z" transform="translate(-84.437 -399.076)"/>
      <path id="Path_622" data-name="Path 622" class="cls-4" d="M133.463,496.585a3.907,3.907,0,1,1,1.727-7.3l-.689,1.9,1.406-1.39a3.907,3.907,0,0,1-2.457,6.783Z" transform="translate(-104.803 -385.506)"/>
      <path id="Path_623" data-name="Path 623" class="cls-5" d="M123.113,471.485c-.9.1-1.777.378-2.685.435a2.9,2.9,0,0,1-2.469-.863,12.54,12.54,0,0,1-.724-1.27,2.78,2.78,0,0,0-.984-.927,3.907,3.907,0,1,0,7.3,2.6C123.408,471.459,123.259,471.469,123.113,471.485Z" transform="translate(-95.567 -371.911)"/>
      <path id="Path_624" data-name="Path 624" class="cls-5" d="M133.5,501.393a3.907,3.907,0,0,1-3.717-5.573,2.892,2.892,0,0,1,.784.787,13.237,13.237,0,0,0,.774,1.292,3.188,3.188,0,0,0,2.593.9c.943-.048,1.854-.318,2.793-.4.13,0,.26-.019.394-.022A3.907,3.907,0,0,1,133.5,501.393Z" transform="translate(-104.839 -390.314)"/>
      <path id="Path_625" data-name="Path 625" class="cls-5" d="M103.614,521.44a3.907,3.907,0,0,1-3.748-5.5,3.172,3.172,0,0,1,.828.793,13.086,13.086,0,0,0,.847,1.317,3.538,3.538,0,0,0,2.764.952c1-.041,1.9-.257,2.856-.317A3.913,3.913,0,0,1,103.614,521.44Z" transform="translate(-84.44 -404.048)"/>
      <path id="Path_626" data-name="Path 626" class="cls-5" d="M102.614,550.344a3.907,3.907,0,0,1-7.376-1.587,3.809,3.809,0,0,1,.254-1.587,3.9,3.9,0,0,1,.857.765c.371.451.616.952,1.047,1.387a4.883,4.883,0,0,0,3.234,1.136A16.372,16.372,0,0,0,102.614,550.344Z" transform="translate(-81.511 -425.366)"/>
      <path id="Path_627" data-name="Path 627" class="cls-7" d="M496.743,425.849c-.828-1.533.111-3.412,1.193-4.78s2.4-2.793,2.368-4.536c-.038-2.507-2.7-3.986-4.824-5.313a23.486,23.486,0,0,1-4.329-3.491,6.276,6.276,0,0,1-1.333-1.781,7.314,7.314,0,0,1-.4-3.174q.143-5.361.53-10.715" transform="translate(-350.579 -319.486)"/>
      <path id="Path_628" data-name="Path 628" class="cls-4" d="M478.381,383.475a3.9,3.9,0,0,1,1.949-3.2l.876,1.73-.025-2.095a4.006,4.006,0,0,1,1.285-.155,3.907,3.907,0,1,1-4.085,3.723Z" transform="translate(-343.05 -311.083)"/>
      <path id="Path_629" data-name="Path 629" class="cls-4" d="M499.412,462.567a3.907,3.907,0,1,0-.187-3.145l2.441,1.987-2.685-.635A3.884,3.884,0,0,0,499.412,462.567Z" transform="translate(-357.114 -363.73)"/>
      <path id="Path_630" data-name="Path 630" class="cls-4" d="M498.41,434.107a3.907,3.907,0,0,0,1.241-7.665l.019,1.609-.886-1.752h0a3.907,3.907,0,0,0-4.094,3.71,3.864,3.864,0,0,0,.168,1.333A3.9,3.9,0,0,0,498.41,434.107Z" transform="translate(-354.182 -342.856)"/>
      <path id="Path_631" data-name="Path 631" class="cls-4" d="M468.508,414.2a3.907,3.907,0,1,0-1.73-7.3l.692,1.9-1.422-1.362a3.875,3.875,0,0,0-1.27,2.7,3.782,3.782,0,0,0,.1,1.076A3.9,3.9,0,0,0,468.508,414.2Z" transform="translate(-333.764 -329.272)"/>
      <path id="Path_632" data-name="Path 632" class="cls-5" d="M479.108,389.125c.9.1,1.777.378,2.682.435a2.918,2.918,0,0,0,2.472-.863,12.491,12.491,0,0,0,.72-1.27,2.79,2.79,0,0,1,.987-.927,3.907,3.907,0,1,1-7.3,2.593C478.813,389.1,478.959,389.109,479.108,389.125Z" transform="translate(-343.25 -315.691)"/>
      <path id="Path_633" data-name="Path 633" class="cls-5" d="M468.751,419.013a3.91,3.91,0,0,0,3.717-5.573,2.905,2.905,0,0,0-.787.787,13.227,13.227,0,0,1-.774,1.292,3.177,3.177,0,0,1-2.59.9c-.943-.048-1.854-.317-2.793-.4-.13,0-.263-.019-.394-.022a3.9,3.9,0,0,0,3.621,3.009Z" transform="translate(-334.007 -334.081)"/>
      <path id="Path_634" data-name="Path 634" class="cls-5" d="M498.789,439.08a3.9,3.9,0,0,0,3.748-5.5,3.115,3.115,0,0,0-.825.793,13.111,13.111,0,0,1-.847,1.317,3.546,3.546,0,0,1-2.768.952c-1-.041-1.9-.257-2.857-.317a3.9,3.9,0,0,0,3.548,2.755Z" transform="translate(-354.561 -347.828)"/>
      <path id="Path_635" data-name="Path 635" class="cls-5" d="M500.34,467.984a3.907,3.907,0,0,0,7.125-3.174,3.752,3.752,0,0,0-.857.765c-.371.451-.635.952-1.047,1.387a4.89,4.89,0,0,1-3.237,1.136,17.113,17.113,0,0,1-1.984-.114Z" transform="translate(-358.042 -369.146)"/>
      <circle id="Ellipse_106" data-name="Ellipse 106" class="cls-3" cx="31.726" cy="31.726" r="31.726" transform="translate(215.751 43.625)"/>
      <path id="Path_636" data-name="Path 636" class="cls-4" d="M814.249,377.891a24.035,24.035,0,0,0-5.078-3.393c-1.52-.73-2.079-.717-3.155.06-.9.635-1.476,1.247-2.5,1.022s-3.066-1.761-5.037-3.726-3.5-3.99-3.72-5.034.384-1.612,1.025-2.507c.774-1.076.8-1.635.06-3.155a24.337,24.337,0,0,0-3.4-5.078c-1.114-1.111-1.355-.866-1.965-.635a11.37,11.37,0,0,0-1.8.952,5.43,5.43,0,0,0-2.158,2.282c-.435.927-.927,2.647,1.6,7.151a39.9,39.9,0,0,0,7.014,9.353h0a39.955,39.955,0,0,0,9.385,7.027c4.5,2.539,6.224,2.034,7.151,1.6a5.33,5.33,0,0,0,2.279-2.158,11.211,11.211,0,0,0,.952-1.8C815.116,379.247,815.363,379,814.249,377.891Z" transform="translate(-553.153 -294.358)"/>
      <path id="Path_637" data-name="Path 637" class="cls-5" d="M763.435,300.86a31.739,31.739,0,1,0,31.723,31.728A31.739,31.739,0,0,0,763.435,300.86Zm0,59.231a27.508,27.508,0,1,1,27.508-27.508A27.508,27.508,0,0,1,763.435,360.091Z" transform="translate(-515.957 -257.232)"/>
      <circle id="Ellipse_107" data-name="Ellipse 107" class="cls-3" cx="31.726" cy="31.726" r="31.726" transform="translate(142.863 91.814)"/>
      <path id="Path_638" data-name="Path 638" class="cls-4" d="M580.641,522.3l-9.5,9.664a.171.171,0,0,0,0,.248l6.665,7.087a1.147,1.147,0,1,1-1.622,1.622l-6.63-7.062a.181.181,0,0,0-.254,0l-1.616,1.631a7.1,7.1,0,0,1-5.078,2.136,7.256,7.256,0,0,1-5.167-2.2l-1.552-1.587a.181.181,0,0,0-.254,0l-6.614,7.046a1.147,1.147,0,1,1-1.622-1.622l6.64-7.071a.191.191,0,0,0,0-.248l-9.5-9.664a.175.175,0,0,0-.3.124v19.338a2.831,2.831,0,0,0,2.821,2.822h31.063a2.831,2.831,0,0,0,2.821-2.822V522.419a.174.174,0,0,0-.3-.124Z" transform="translate(-388.009 -408.34)"/>
      <path id="Path_639" data-name="Path 639" class="cls-4" d="M564.925,528.775a4.805,4.805,0,0,0,3.466-1.428l13.835-14.082a2.762,2.762,0,0,0-1.746-.635H549.4a2.742,2.742,0,0,0-1.746.635l13.838,14.082A4.786,4.786,0,0,0,564.925,528.775Z" transform="translate(-390.336 -401.789)"/>
      <path id="Path_640" data-name="Path 640" class="cls-5" d="M532.525,452.69a31.739,31.739,0,1,0,31.723,31.728A31.739,31.739,0,0,0,532.525,452.69Zm0,59.231a27.508,27.508,0,1,1,27.508-27.508A27.508,27.508,0,0,1,532.525,511.921Z" transform="translate(-358.336 -360.873)"/>
      <circle id="Ellipse_108" data-name="Ellipse 108" class="cls-3" cx="31.726" cy="31.726" r="31.726" transform="translate(67.569 68.121)"/>
      <path id="Path_641" data-name="Path 641" class="cls-4" d="M337.648,430.16,325,459.341l1.181,1.181,11.47-5.059,11.47,5.059,1.181-1.181Z" transform="translate(-238.353 -345.494)"/>
      <path id="Path_642" data-name="Path 642" class="cls-5" d="M296.555,378a31.72,31.72,0,1,0,.005,0Zm0,59.231a22.685,22.685,0,1,1,0,.013Z" transform="translate(-197.26 -309.889)"/>
      <path id="Path_643" data-name="Path 643" class="cls-8" d="M808.346,574.241q-.432-1.053-.886-2.1a6.236,6.236,0,0,0-1.082-1.869,1.981,1.981,0,0,0-.635-.476,2.71,2.71,0,0,0-.828-.165,6.614,6.614,0,0,0-1.3-.035c-.168-.051-.359-.117-.546-.194a4.532,4.532,0,0,0,3.377-4.205c0-.063,0-.13,0-.194a4.523,4.523,0,0,0-4.5-4.542,4.442,4.442,0,0,0-2.365.676,4.243,4.243,0,0,0-4.761,2.295,5.247,5.247,0,0,0-1.619,3.9v.2c.083,2.466,1.676,4.443,3.688,4.643a2.116,2.116,0,0,0-.584.39,3.613,3.613,0,0,0-.784,2.393l-.048.635-1.066.381a.2.2,0,0,0-.048.346l1.019.727v.181a.8.8,0,0,0,.019.206A1.456,1.456,0,0,0,795,578a2.593,2.593,0,0,0-.092,1.028l.038.885a6.953,6.953,0,0,0,.27,1.971c.133.394.711,1.343,1.127,1.349a41.051,41.051,0,0,0-.486,5.427c-.048.048.086.092.317.13.229,1.752.974,6.665,2.3,8.827a18.625,18.625,0,0,1,.5,2.145,41.077,41.077,0,0,0,.876,6.056,30.836,30.836,0,0,1,.854,4.939.485.485,0,0,0-.352.362c-.251.755-1.876,1.9-1.876,1.9a7.857,7.857,0,0,0-1.4.9c-.511.46-.492.876,1.777.616,4.38-.5,5.129-1.9,5.129-1.9s-.07-.235-.174-.54a5.863,5.863,0,0,0-.575-1.355c-.063-.06-.127.041-.2.2a27.182,27.182,0,0,1-.3-6.129,9.94,9.94,0,0,0-.5-3.659,6.927,6.927,0,0,1,0-2.4c.251-1.009-1-5.932-1-5.932l-.717-3.625a1.039,1.039,0,0,1,.2.422l.019.073.019.1a.2.2,0,0,0,.051.1c.489,2.031,1.828,7.659,1.828,8.484a13.462,13.462,0,0,0,1.25,3.533s.5,4.164,1.374,5.8a8.412,8.412,0,0,1,.651,3.882h0a3.594,3.594,0,0,1-.4,1.289,3.068,3.068,0,0,0-.473.822l-.029.06s-.374.759-.124.885a6.147,6.147,0,0,0,3,.378s.5-.635.5-.882a3.943,3.943,0,0,0-.057-.451c-.092-.6-.263-1.536-.267-1.546a4.33,4.33,0,0,0-.317-1.536l-.127-3.532a16.308,16.308,0,0,0-.876-7.068,11.725,11.725,0,0,1-.5-2.9c.136-.632-.251-7.319-.251-7.319l-.038-.1a7.239,7.239,0,0,1,.038-1.419,18.835,18.835,0,0,0-.5-4.793,4.164,4.164,0,0,1-.178-1.044c.029-.264.114-1.035.232-1.993a35.8,35.8,0,0,0,3.688-.317.461.461,0,0,0,.317-.127.444.444,0,0,0,.073-.257A12.315,12.315,0,0,0,808.346,574.241Zm-2.517,4c.13-.9.27-1.781.409-2.431l.019.057a17.7,17.7,0,0,1,.6,2A6.809,6.809,0,0,1,805.83,578.243Z" transform="translate(-557.949 -434.438)"/>
      <path id="Path_644" data-name="Path 644" class="cls-9" d="M802.37,648.147s.749,6.738,2.371,9.357a18.132,18.132,0,0,1,.5,2.12,40.067,40.067,0,0,0,.873,5.986,33.027,33.027,0,0,1,.873,5.116s1.746,1.993,2.371.375a26.279,26.279,0,0,1-.375-6.487,9.771,9.771,0,0,0-.5-3.618,6.769,6.769,0,0,1,0-2.368c.248-1-1-5.862-1-5.862l-1-4.866Z" transform="translate(-564.211 -494.126)"/>
      <path id="Path_645" data-name="Path 645" class="cls-10" d="M811.739,720.862s-.749,1.371-5.113,1.87c-2.266.257-2.282-.152-1.771-.609a7.885,7.885,0,0,1,1.4-.889s1.622-1.12,1.869-1.869,1.123-.124,1.123-.124c1.247,1.869,1.5-.5,1.746-.251a5.619,5.619,0,0,1,.575,1.336C811.669,720.627,811.739,720.862,811.739,720.862Z" transform="translate(-565.721 -542.639)"/>
      <path id="Path_646" data-name="Path 646" class="cls-5" d="M811.739,723.776s-.749,1.371-5.113,1.869c-2.266.257-2.282-.152-1.771-.609.356.225,1.073.317,2.517-.264,2.079-.851,3.587-1.342,4.193-1.533C811.669,723.541,811.739,723.776,811.739,723.776Z" transform="translate(-565.721 -545.554)"/>
      <path id="Path_647" data-name="Path 647" class="cls-5" d="M815.978,664.614a9.771,9.771,0,0,0-.5-3.618,6.763,6.763,0,0,1,0-2.368c.248-1-1-5.862-1-5.862l-1-4.865-.863.051.987,4.815s1.247,4.862,1,5.862a6.769,6.769,0,0,0,0,2.368,9.485,9.485,0,0,1,.5,3.618,26.288,26.288,0,0,0,.375,6.487,1.093,1.093,0,0,1-.362.514.815.815,0,0,0,1.235-.514A26.285,26.285,0,0,1,815.978,664.614Z" transform="translate(-571.208 -494.126)"/>
      <path id="Path_648" data-name="Path 648" class="cls-3" d="M801.859,562.42a4.442,4.442,0,0,0-2.355.67,4.237,4.237,0,0,0-4.761,2.269,5.166,5.166,0,0,0-1.615,3.859c0,2.653,1.787,4.8,3.99,4.8a4.029,4.029,0,0,0,3.615-2.765,4.378,4.378,0,0,0,1.123.146,4.491,4.491,0,0,0,0-8.982Z" transform="translate(-557.902 -435.776)"/>
      <path id="Path_649" data-name="Path 649" class="cls-9" d="M821.468,650.65l.375,1s.375,6.611.248,7.236a11.787,11.787,0,0,0,.5,2.857,15.968,15.968,0,0,1,.873,6.983l.124,3.491s.5,1.371.251,1.622-2.13-.222-2.13-.222a8.9,8.9,0,0,0-.635-4.24c-.885-1.622-1.371-5.738-1.371-5.738a13.24,13.24,0,0,1-1.247-3.491c0-1-2-9.106-2-9.106Z" transform="translate(-573.829 -496.003)"/>
      <path id="Path_650" data-name="Path 650" class="cls-3" d="M801.559,633.372a31.453,31.453,0,0,1,.635-5.862,9.307,9.307,0,0,0,.556-1.99s7.551,1.365,8.176.866a10.84,10.84,0,0,0,.251,1.869,17.935,17.935,0,0,1,.5,4.742c-.137,1.5,0,1.495,0,1.495s-5.116.749-5.24,0-.5-.746-.5-.746S801.312,633.607,801.559,633.372Z" transform="translate(-563.651 -478.849)"/>
      <g id="Group_55" data-name="Group 55" class="cls-2" transform="translate(237.908 147.538)">
        <path id="Path_651" data-name="Path 651" d="M805.7,649.707s-3.155-.086-4.107-.257v.257c-.247.248,4.367.375,4.367.375a.317.317,0,0,1,.171.07C805.96,649.707,805.7,649.707,805.7,649.707Z" transform="translate(-801.58 -642.721)"/>
        <path id="Path_652" data-name="Path 652" d="M821.57,630.119a10.816,10.816,0,0,1-.251-1.869.537.537,0,0,1-.213.076,6.308,6.308,0,0,0,.213,1.419,19.8,19.8,0,0,1,.5,4.742c-.136,1.5,0,1.495,0,1.495s-4.047.594-5.027.2a1.521,1.521,0,0,0,.038.178c.124.749,5.24,0,5.24,0s-.127,0,0-1.495A18.547,18.547,0,0,0,821.57,630.119Z" transform="translate(-811.962 -628.25)"/>
        <path id="Path_653" data-name="Path 653" d="M805.7,649.707s-3.155-.086-4.107-.257v.257c-.247.248,4.367.375,4.367.375a.317.317,0,0,1,.171.07C805.96,649.707,805.7,649.707,805.7,649.707Z" transform="translate(-801.58 -642.721)"/>
        <path id="Path_654" data-name="Path 654" d="M821.57,630.119a10.816,10.816,0,0,1-.251-1.869.537.537,0,0,1-.213.076,6.308,6.308,0,0,0,.213,1.419,19.8,19.8,0,0,1,.5,4.742c-.136,1.5,0,1.495,0,1.495s-4.047.594-5.027.2a1.521,1.521,0,0,0,.038.178c.124.749,5.24,0,5.24,0s-.127,0,0-1.495A18.547,18.547,0,0,0,821.57,630.119Z" transform="translate(-811.962 -628.25)"/>
      </g>
      <path id="Path_655" data-name="Path 655" class="cls-9" d="M813.125,584.422a1.653,1.653,0,0,0,.476.616,1.065,1.065,0,0,0,.448.194c-.279.162-.584.282-.863.444a15.367,15.367,0,0,0-1.27.952,2.584,2.584,0,0,1-1.457.565,1.784,1.784,0,0,0,.2-1.774,1.658,1.658,0,0,1-.222-.616,1.107,1.107,0,0,1,.613-.825c.238-.162.482-.317.73-.473.193-.121.485-.375.73-.365s.273.225.317.448A3.523,3.523,0,0,0,813.125,584.422Z" transform="translate(-569.72 -449.919)"/>
      <path id="Path_656" data-name="Path 656" class="cls-5" d="M813.125,584.422a1.653,1.653,0,0,0,.476.616,1.065,1.065,0,0,0,.448.194c-.279.162-.584.282-.863.444a15.367,15.367,0,0,0-1.27.952,2.584,2.584,0,0,1-1.457.565,1.784,1.784,0,0,0,.2-1.774,1.658,1.658,0,0,1-.222-.616,1.107,1.107,0,0,1,.613-.825c.238-.162.482-.317.73-.473.193-.121.485-.375.73-.365s.273.225.317.448A3.523,3.523,0,0,0,813.125,584.422Z" transform="translate(-569.72 -449.919)"/>
      <circle id="Ellipse_109" data-name="Ellipse 109" class="cls-9" cx="2.869" cy="2.869" r="2.869" transform="translate(243.459 136.124)"/>
      <path id="Path_657" data-name="Path 657" class="cls-10" d="M833.185,723.259c0,.251-.5.873-.5.873a6.176,6.176,0,0,1-2.993-.374c-.251-.124.124-.873.124-.873l.029-.06a3.024,3.024,0,0,1,.473-.813,3.555,3.555,0,0,0,.4-1.27c.774-1.27,2.149.549,2.149.549s.175.952.267,1.53A4.4,4.4,0,0,1,833.185,723.259Z" transform="translate(-582.804 -543.541)"/>
      <path id="Path_658" data-name="Path 658" class="cls-5" d="M833.185,728.684c0,.251-.5.873-.5.873a6.178,6.178,0,0,1-2.993-.375c-.251-.124.124-.873.124-.873l.029-.06a6.029,6.029,0,0,0,2.717.559l.568-.568C833.163,728.453,833.185,728.621,833.185,728.684Z" transform="translate(-582.804 -548.967)"/>
      <circle id="Ellipse_110" data-name="Ellipse 110" class="cls-9" cx="2.806" cy="2.806" r="2.806" transform="translate(237.784 130.199)"/>
      <path id="Path_659" data-name="Path 659" class="cls-9" d="M800.945,598.526a3.523,3.523,0,0,0-.781,2.365l-.1,1.241a6.273,6.273,0,0,0-.022,1.006c0,.206.051.416.07.635s.025.5.028.746v1.835a2.166,2.166,0,0,0,.2,1.1.749.749,0,0,0,.952.343,1.086,1.086,0,0,0,.394-.609,9.479,9.479,0,0,0,.635-2.323c.025-.276.029-.552.054-.828s.073-.565.114-.844c.178-1.168.257-2.349.336-3.526.022-.349.336-1.723-.12-1.876-.222-.073-.682.156-.9.232a2.52,2.52,0,0,0-.873.5Z" transform="translate(-562.618 -459.91)"/>
      <path id="Path_660" data-name="Path 660" class="cls-5" d="M800.945,598.526a3.523,3.523,0,0,0-.781,2.365l-.1,1.241a6.273,6.273,0,0,0-.022,1.006c0,.206.051.416.07.635s.025.5.028.746v1.835a2.166,2.166,0,0,0,.2,1.1.749.749,0,0,0,.952.343,1.086,1.086,0,0,0,.394-.609,9.479,9.479,0,0,0,.635-2.323c.025-.276.029-.552.054-.828s.073-.565.114-.844c.178-1.168.257-2.349.336-3.526.022-.349.336-1.723-.12-1.876-.222-.073-.682.156-.9.232a2.52,2.52,0,0,0-.873.5Z" transform="translate(-562.618 -459.91)"/>
      <path id="Path_661" data-name="Path 661" class="cls-10" d="M809.789,588.16a15.384,15.384,0,0,1-3.368,2s-.739.844-.866,1.047-.381,2.444-.635,2.945a2.384,2.384,0,0,0,0,2.742,4.755,4.755,0,0,1,.124,1.5c-.124.375-.578,1.746-.165,1.809s1.663.933,2.783.686,5.3.952,5.3.952.692-6.427,1.193-7.563l-1.124-.375s-3.117-1.869-1.247-4.739C811.786,589.16,810.034,588.785,809.789,588.16Z" transform="translate(-565.645 -453.346)"/>
      <path id="Path_662" data-name="Path 662" class="cls-3" d="M796.669,610.092l2.577,1.825a.191.191,0,0,0,.226,0l.7-.524a.2.2,0,0,0,0-.3l-1.984-1.761a.19.19,0,0,0-.194-.038l-1.273.457a.194.194,0,0,0-.051.34Z" transform="translate(-560.265 -467.766)"/>
      <path id="Path_663" data-name="Path 663" class="cls-9" d="M798.874,618.587a6.912,6.912,0,0,1-.27-1.946l-.038-.879a2.54,2.54,0,0,1,.092-1.016,1.659,1.659,0,0,1,1.07-.936,3.693,3.693,0,0,1,1.457-.1.375.375,0,0,1,.187.051.349.349,0,0,1,.1.171,1.149,1.149,0,0,1,.057.917.954.954,0,0,1-.292.3c-.346.247-.749.413-1.076.682a.389.389,0,0,0-.146.184.429.429,0,0,0,0,.2,3.2,3.2,0,0,0,.165.511.505.505,0,0,0,.143.216c.06.051.14.07.2.117.137.111.422.257.406.432a14.2,14.2,0,0,1-.578,1.974C800.07,620.691,799.058,619.124,798.874,618.587Z" transform="translate(-561.604 -470.764)"/>
      <g id="Group_56" data-name="Group 56" class="cls-2" transform="translate(241.209 140.739)">
        <path id="Path_664" data-name="Path 664" d="M812.05,628.186h-.07a2.14,2.14,0,0,0,.816,0h.079a2.854,2.854,0,0,0-.825,0Z" transform="translate(-811.98 -621.387)"/>
        <path id="Path_665" data-name="Path 665" d="M830.2,606.83c-.447,1.006-1.108,6.456-1.225,7.538.438.114.727.2.727.2s.686-6.411,1.187-7.547Z" transform="translate(-823.578 -606.83)"/>
      </g>
      <path id="Path_666" data-name="Path 666" class="cls-9" d="M817.148,594.251a.952.952,0,0,0,.409.619,5.514,5.514,0,0,1,.727.736,5.215,5.215,0,0,1,.72,1.444,17.688,17.688,0,0,1,.6,1.974c-1.587.736-3.39.7-5.078,1.187a4.054,4.054,0,0,0-1.9,1.127,2.624,2.624,0,0,0-.7,2.066.216.216,0,0,0,.26.213,1.9,1.9,0,0,0,1.165-.4,5.554,5.554,0,0,0,.892-.876,1.435,1.435,0,0,1,.635-.47,10.393,10.393,0,0,1,2.856-.279,36.015,36.015,0,0,0,4.256-.336.343.343,0,0,0,.381-.381,12.209,12.209,0,0,0-1.27-5.437q-.428-1.044-.882-2.079a6.16,6.16,0,0,0-1.079-1.847,1.907,1.907,0,0,0-.635-.47,2.683,2.683,0,0,0-.851-.159,6.035,6.035,0,0,0-1.393-.025,2.969,2.969,0,0,0-.133.721,6.242,6.242,0,0,0,.768,2.434C816.939,594.13,817.075,594.137,817.148,594.251Z" transform="translate(-570.721 -455.169)"/>
      <path id="Path_667" data-name="Path 667" class="cls-11" d="M811.727,606.67a2.326,2.326,0,0,0-.317,1.212,1.627,1.627,0,0,0,.079.5,1.606,1.606,0,0,0,1.013.952" transform="translate(-570.381 -465.982)"/>
      <path id="Path_668" data-name="Path 668" class="cls-3" d="M805.145,571.67a1.456,1.456,0,0,0-.46.073,3.043,3.043,0,0,0-2.539-1.073c-1.517,0-2.745.784-2.745,1.749s1.228,1.746,2.745,1.746a3.862,3.862,0,0,0,1.647-.349,1.495,1.495,0,1,0,1.346-2.146Z" transform="translate(-562.184 -441.408)"/>
      <path id="Path_669" data-name="Path 669" class="cls-5" d="M805.255,576.868a1.492,1.492,0,0,1-1.346-.848,3.866,3.866,0,0,1-1.647.349c-1.514,0-2.742-.781-2.742-1.746a1.083,1.083,0,0,1,0-.175,1.183,1.183,0,0,0-.139.549c0,.952,1.228,1.746,2.745,1.746a3.862,3.862,0,0,0,1.647-.349,1.495,1.495,0,0,0,2.815-.371,1.488,1.488,0,0,1-1.333.844Z" transform="translate(-562.17 -443.988)"/>
      <path id="Path_670" data-name="Path 670" class="cls-5" d="M794.719,566.1a4.237,4.237,0,0,1,4.761-2.269,4.488,4.488,0,0,1,6.83,3.447V566.9a4.488,4.488,0,0,0-6.846-3.809,4.237,4.237,0,0,0-4.761,2.269,5.168,5.168,0,0,0-1.615,3.859v.375A5.077,5.077,0,0,1,794.719,566.1Z" transform="translate(-557.874 -435.776)"/>
      <path id="Path_671" data-name="Path 671" class="cls-7" d="M880.73,504.322c.828-1.533-.111-3.415-1.193-4.783s-2.4-2.79-2.368-4.536c.038-2.5,2.7-3.983,4.824-5.313a23.459,23.459,0,0,0,4.329-3.491,6.323,6.323,0,0,0,1.333-1.781,7.316,7.316,0,0,0,.4-3.174q-.14-5.364-.53-10.715" transform="translate(-615.269 -373.051)"/>
      <path id="Path_672" data-name="Path 672" class="cls-4" d="M905.723,461.92a3.9,3.9,0,0,0-1.949-3.2l-.876,1.73.025-2.095a3.837,3.837,0,0,0-1.285-.155,3.907,3.907,0,1,0,4.085,3.72Z" transform="translate(-629.43 -364.631)"/>
      <path id="Path_673" data-name="Path 673" class="cls-4" d="M884.694,541.014a3.907,3.907,0,1,1,.187-3.148l-2.441,1.987,2.685-.635A3.886,3.886,0,0,1,884.694,541.014Z" transform="translate(-615.367 -417.278)"/>
      <path id="Path_674" data-name="Path 674" class="cls-4" d="M885.683,512.556a3.907,3.907,0,0,1-1.241-7.665l-.019,1.609.885-1.749h0a3.908,3.908,0,1,1,.365,7.808Z" transform="translate(-618.286 -396.408)"/>
      <path id="Path_675" data-name="Path 675" class="cls-4" d="M915.539,492.675a3.907,3.907,0,1,1,1.73-7.3l-.692,1.9L918,485.914a3.885,3.885,0,0,1,1.269,2.7,3.769,3.769,0,0,1-.1,1.076A3.907,3.907,0,0,1,915.539,492.675Z" transform="translate(-638.659 -382.837)"/>
      <path id="Path_676" data-name="Path 676" class="cls-5" d="M905.191,467.565c-.9.1-1.781.381-2.685.438a2.911,2.911,0,0,1-2.472-.866,12.1,12.1,0,0,1-.721-1.27,2.809,2.809,0,0,0-.984-.927,3.907,3.907,0,1,0,7.3,2.593C905.483,467.539,905.337,467.549,905.191,467.565Z" transform="translate(-629.421 -369.235)"/>
      <path id="Path_677" data-name="Path 677" class="cls-5" d="M915.574,497.483a3.91,3.91,0,0,1-3.717-5.573,2.892,2.892,0,0,1,.787.784,12.56,12.56,0,0,0,.774,1.292,3.179,3.179,0,0,0,2.59.908c.943-.044,1.854-.317,2.793-.4.13,0,.263-.022.393-.025A3.907,3.907,0,0,1,915.574,497.483Z" transform="translate(-638.693 -387.645)"/>
      <path id="Path_678" data-name="Path 678" class="cls-5" d="M885.683,517.507A3.9,3.9,0,0,1,881.935,512a3.224,3.224,0,0,1,.825.794c.317.428.492.924.847,1.317a3.617,3.617,0,0,0,2.768.971c1-.022,1.9-.26,2.857-.333A3.907,3.907,0,0,1,885.683,517.507Z" transform="translate(-618.287 -401.359)"/>
      <path id="Path_679" data-name="Path 679" class="cls-5" d="M884.742,546.434a3.91,3.91,0,0,1-7.125-3.174,3.827,3.827,0,0,1,.857.765c.375.454.619.952,1.048,1.39a4.906,4.906,0,0,0,3.237,1.136,17.142,17.142,0,0,0,1.984-.117Z" transform="translate(-615.415 -422.697)"/>
      <path id="Path_680" data-name="Path 680" class="cls-7" d="M1039.73,656.322c.828-1.533-.111-3.415-1.193-4.783s-2.4-2.79-2.368-4.535c.038-2.5,2.7-3.983,4.824-5.313a23.458,23.458,0,0,0,4.329-3.491,6.333,6.333,0,0,0,1.333-1.781,7.314,7.314,0,0,0,.4-3.174q-.136-5.364-.53-10.715" transform="translate(-723.804 -476.808)"/>
      <path id="Path_681" data-name="Path 681" class="cls-4" d="M1064.757,613.921a3.9,3.9,0,0,0-1.949-3.2l-.876,1.73.025-2.095a3.834,3.834,0,0,0-1.269-.155,3.907,3.907,0,1,0,4.085,3.72Z" transform="translate(-737.999 -468.389)"/>
      <path id="Path_682" data-name="Path 682" class="cls-4" d="M1043.694,693.014a3.907,3.907,0,1,1,.187-3.148l-2.441,1.987,2.685-.635A3.882,3.882,0,0,1,1043.694,693.014Z" transform="translate(-723.902 -521.035)"/>
      <path id="Path_683" data-name="Path 683" class="cls-4" d="M1044.683,664.555a3.907,3.907,0,0,1-1.241-7.665l-.019,1.609.885-1.749h0a3.908,3.908,0,1,1,.365,7.808Z" transform="translate(-726.821 -500.165)"/>
      <path id="Path_684" data-name="Path 684" class="cls-4" d="M1074.539,644.675a3.907,3.907,0,1,1,1.73-7.3l-.692,1.9,1.422-1.365a3.885,3.885,0,0,1,1.27,2.7,3.772,3.772,0,0,1-.1,1.076A3.907,3.907,0,0,1,1074.539,644.675Z" transform="translate(-747.194 -486.594)"/>
      <path id="Path_685" data-name="Path 685" class="cls-5" d="M1064.191,619.565c-.9.1-1.781.381-2.685.438a2.911,2.911,0,0,1-2.472-.866,12.155,12.155,0,0,1-.72-1.27,2.809,2.809,0,0,0-.984-.927,3.907,3.907,0,1,0,7.3,2.593C1064.483,619.539,1064.337,619.549,1064.191,619.565Z" transform="translate(-737.956 -472.992)"/>
      <path id="Path_686" data-name="Path 686" class="cls-5" d="M1074.574,649.483a3.91,3.91,0,0,1-3.717-5.573,2.888,2.888,0,0,1,.787.784,12.543,12.543,0,0,0,.775,1.292,3.178,3.178,0,0,0,2.59.908c.943-.044,1.854-.317,2.793-.4.13,0,.263-.022.393-.025A3.907,3.907,0,0,1,1074.574,649.483Z" transform="translate(-747.229 -491.402)"/>
      <path id="Path_687" data-name="Path 687" class="cls-5" d="M1044.683,669.507a3.9,3.9,0,0,1-3.748-5.507,3.224,3.224,0,0,1,.825.793c.318.428.492.924.848,1.317a3.617,3.617,0,0,0,2.768.971c1-.022,1.9-.26,2.856-.333A3.907,3.907,0,0,1,1044.683,669.507Z" transform="translate(-726.822 -505.116)"/>
      <path id="Path_688" data-name="Path 688" class="cls-5" d="M1043.742,698.434a3.91,3.91,0,0,1-7.126-3.174,3.824,3.824,0,0,1,.857.765c.374.454.635.952,1.047,1.39a4.907,4.907,0,0,0,3.237,1.136A17.163,17.163,0,0,0,1043.742,698.434Z" transform="translate(-723.951 -526.454)"/>
      <path id="Path_689" data-name="Path 689" class="cls-12" d="M438.478,568.742a3.113,3.113,0,0,0-1.241-2.514,171.787,171.787,0,0,0-5.478-6.294h0a3.073,3.073,0,0,0-.451-.1h-.536a3.574,3.574,0,0,0-3.453,3.053c-1.114-.257-2.133.076-2.32.781a.953.953,0,0,0,.032.565,2.457,2.457,0,0,0,1.638,1.327l.108.032.162.041h.035a2.808,2.808,0,0,0-.267,1.2,2.774,2.774,0,0,0,1.495,2.476l-.073.044a.99.99,0,0,0-.241.336,5.029,5.029,0,0,0-.467,1.124c-.079.336-.092.686-.19,1.019-.184.613-.654,1.13-.708,1.768-.025.286.022.635-.181.819a.982.982,0,0,1-.162.114,1.31,1.31,0,0,0-.352.371,1.233,1.233,0,0,1-.248.355c-.184.136-.486.124-.574.337s.143.463.089.7-.251.276-.394.406a1.411,1.411,0,0,0-.34.635,2.082,2.082,0,0,1-1.714-.438,3.2,3.2,0,0,1,.178.635,2.782,2.782,0,0,0-.924-.463,2.921,2.921,0,0,1-.984-.73l.527-.073-2.326-3.552-.689-.143.616,1.184a.377.377,0,0,0-.209.251,1.074,1.074,0,0,0-.022.4,7.218,7.218,0,0,0,.159.952l.178.832c.016.076.035.156.057.232a2.185,2.185,0,0,0-.689.076,5.991,5.991,0,0,0-1.431-.34.8.8,0,0,0-.317,0,.822.822,0,0,0-.3.245,9.753,9.753,0,0,0-1.063,1.5,52.3,52.3,0,0,1-4.488,6.046c-1.079.438-2.168.854-3.256,1.27l-2.342.895a3.552,3.552,0,0,1-1.454.318c-.222,0-.5-.048-.635.143a1.343,1.343,0,0,0-.143.317l-.241.025h0a2.775,2.775,0,0,0-.562-1.035.355.355,0,0,0-.263.2c-.057.1-.092.219-.159.318-.124.184-.343.273-.5.428s-.254.4-.425.555a1.682,1.682,0,0,1-.8.317,5.025,5.025,0,0,0-1.247.473,2.011,2.011,0,0,1-.46.213,1.729,1.729,0,0,1-.543.019l-1.238-.092a.98.98,0,0,0-.333.016.635.635,0,0,0-.394.635,1,1,0,0,0,.394.682,2.519,2.519,0,0,0,.7.365,20.675,20.675,0,0,0,3.3.978v.251a5.635,5.635,0,0,0,2.539.6.4.4,0,0,0,.19-.035.419.419,0,0,0,.159-.247,10.217,10.217,0,0,0,.5-2.431h0a1.269,1.269,0,0,0,.447-.114c.425-.117.851.175,1.292.222a3.528,3.528,0,0,0,1.558-.451l.222-.073a2.442,2.442,0,0,1-.514.492c-.213.152-.451.267-.657.425a4.516,4.516,0,0,1-.559.432,3.462,3.462,0,0,1-.428.165,2.837,2.837,0,0,0-.613.317,1.241,1.241,0,0,0-.416.406.548.548,0,0,0,.375.857,1.689,1.689,0,0,0,.5,0c.673-.051,1.342-.111,2.012-.172a5.369,5.369,0,0,0,.841-.12c.146-.035.292-.083.438-.124a3.9,3.9,0,0,1,.765-.114.634.634,0,0,1,.222.022c.155.051.267.21.425.241a.636.636,0,0,0,.317-.041,7.091,7.091,0,0,1,1.489-.159.614.614,0,0,0,.578-.257c.1-.2-.083-.53-.165-.8a2.448,2.448,0,0,1-.07-.527,3.3,3.3,0,0,0-.368-1.251,3.259,3.259,0,0,1-.276-.571,14.431,14.431,0,0,0,2.739-1.39,4.895,4.895,0,0,1,1.562-.752,4.246,4.246,0,0,1,1.961.228,44.635,44.635,0,0,1,4.5,1.568c.7.289,1.4.594,2.123.813a3.311,3.311,0,0,0,.755.733,3.492,3.492,0,0,0,1.635.447,21.388,21.388,0,0,0,2.3.086,3.884,3.884,0,0,0,1.714-.317,1.766,1.766,0,0,0,.359-.238,1.422,1.422,0,0,0,1.13-.416,2.74,2.74,0,0,0,.86-1.359c.187-.724.044-1.587.489-2.165.117-.159.273-.286.39-.444a1.25,1.25,0,0,0,.2-.733.151.151,0,0,1,.019-.029,2.687,2.687,0,0,0,.19-.73,4.161,4.161,0,0,1,.206-.578,17.82,17.82,0,0,0,.59-1.711,9.986,9.986,0,0,0,.273-1.174c.048-.317.076-.635.1-.952a5.914,5.914,0,0,1,.289-1.47,11.961,11.961,0,0,0,.666-3.517v-.07a2.359,2.359,0,0,0,2.089-2.4,2.506,2.506,0,0,0-.219-1.025A3.174,3.174,0,0,0,438.478,568.742Zm-11.356,13.8c.035.124.076.244.117.365-.187-.181-.368-.368-.555-.552.073.025.149.048.219.076a1.191,1.191,0,0,1,.209.111Zm-.9-.609c-1.1-.952-2.368-1.692-3.491-2.615.613.3,1.209.654,1.8.99q1.051.6,2.13,1.152a1.741,1.741,0,0,1-.448.473Zm.467-2.4.054-.054v.378l-.3-.1a2.637,2.637,0,0,0,.232-.222Zm-9.658,2.571a9.092,9.092,0,0,0,1.168-1.666,11.213,11.213,0,0,0,1.742,1.945C418.975,582.257,418,582.152,417.033,582.1Z" transform="translate(-286.767 -434.008)"/>
      <path id="Path_690" data-name="Path 690" class="cls-13" d="M415.35,438.25l.692.14,2.358,3.488-1.038.14Z" transform="translate(-283.523 -299.399)"/>
      <path id="Path_691" data-name="Path 691" class="cls-14" d="M414.49,645.385a13.577,13.577,0,0,0,.692,1.8,17.138,17.138,0,0,0,2.3-.657,7.253,7.253,0,0,0-.479-.635,2.368,2.368,0,0,0-.651-.5,1.791,1.791,0,0,0-.79,0C415.207,645.385,414.849,645.392,414.49,645.385Z" transform="translate(-299.44 -492.386)"/>
      <path id="Path_692" data-name="Path 692" class="cls-13" d="M403.6,644.165a1.435,1.435,0,0,1-.787-.9,2.882,2.882,0,0,0-.6-1.07.343.343,0,0,0-.267.2c-.057.1-.092.216-.156.317-.127.181-.349.27-.508.422s-.254.39-.425.546a1.688,1.688,0,0,1-.8.317,5.2,5.2,0,0,0-1.27.467,2.192,2.192,0,0,1-.467.209,1.847,1.847,0,0,1-.546,0l-1.25-.089a.975.975,0,0,0-.317,0,.606.606,0,0,0-.4.635.953.953,0,0,0,.4.673,2.637,2.637,0,0,0,.711.362,20.907,20.907,0,0,0,3.352.952v.248a5.8,5.8,0,0,0,2.555.593.431.431,0,0,0,.19-.032.419.419,0,0,0,.159-.248,9.907,9.907,0,0,0,.524-2.717,2.164,2.164,0,0,0-.054-.7c-.07-.225.165-.13-.051-.219" transform="translate(-286.688 -490.235)"/>
      <path id="Path_693" data-name="Path 693" class="cls-13" d="M442.988,631.412c-3.707.222-7.37-.863-11.083-.978a5.413,5.413,0,0,0-1.377.086,6.942,6.942,0,0,0-1.365.53c-1.99.927-4.05,1.7-6.106,2.46l-2.365.879a3.58,3.58,0,0,1-1.463.317c-.225,0-.5-.048-.635.14a2.315,2.315,0,0,0,.051,2.047c.083.206.222.432.444.454a1.3,1.3,0,0,0,.451-.114c.428-.114.857.174,1.3.222a3.657,3.657,0,0,0,1.571-.444,13.639,13.639,0,0,1,2.691-.457,12.058,12.058,0,0,0,4.215-1.749,4.919,4.919,0,0,1,1.571-.743,4.348,4.348,0,0,1,1.977.225,45.394,45.394,0,0,1,4.535,1.542,21.11,21.11,0,0,0,2.368.867,8.569,8.569,0,0,0,5.31-.317c.594-.235,1.238-.635,1.27-1.289.022-.365-.263-.686-.451-1-.121-.2-.244-.4-.375-.593C444.89,632.577,444.115,631.346,442.988,631.412Z" transform="translate(-302.09 -482.196)"/>
      <path id="Path_694" data-name="Path 694" class="cls-5" d="M442.988,631.412c-3.707.222-7.37-.863-11.083-.978a5.413,5.413,0,0,0-1.377.086,6.942,6.942,0,0,0-1.365.53c-1.99.927-4.05,1.7-6.106,2.46l-2.365.879a3.58,3.58,0,0,1-1.463.317c-.225,0-.5-.048-.635.14a2.315,2.315,0,0,0,.051,2.047c.083.206.222.432.444.454a1.3,1.3,0,0,0,.451-.114c.428-.114.857.174,1.3.222a3.657,3.657,0,0,0,1.571-.444,13.639,13.639,0,0,1,2.691-.457,12.058,12.058,0,0,0,4.215-1.749,4.919,4.919,0,0,1,1.571-.743,4.348,4.348,0,0,1,1.977.225,45.394,45.394,0,0,1,4.535,1.542,21.11,21.11,0,0,0,2.368.867,8.569,8.569,0,0,0,5.31-.317c.594-.235,1.238-.635,1.27-1.289.022-.365-.263-.686-.451-1-.121-.2-.244-.4-.375-.593C444.89,632.577,444.115,631.346,442.988,631.412Z" transform="translate(-302.09 -482.196)"/>
      <path id="Path_695" data-name="Path 695" class="cls-14" d="M436.92,642.681q.87.295,1.755.546c.317-.543.952-.921,1.089-1.543a.147.147,0,0,0,0-.082.153.153,0,0,0-.067-.06,3.324,3.324,0,0,0-1.377-.4c-.381-.022-.555.374-.727.654C437.526,641.916,437.076,642.741,436.92,642.681Z" transform="translate(-314.751 -489.509)"/>
      <path id="Path_696" data-name="Path 696" class="cls-13" d="M427.151,642.886a1.27,1.27,0,0,1-.854-.562c-.079-.143-.168-.336-.333-.317s-.219.19-.254.339a9.523,9.523,0,0,1-.479,1.647,3.092,3.092,0,0,1-1.025,1.349c-.216.149-.454.26-.667.419a4.562,4.562,0,0,1-.562.425,3.35,3.35,0,0,1-.432.159,2.991,2.991,0,0,0-.616.317,1.22,1.22,0,0,0-.422.4.581.581,0,0,0-.032.562.6.6,0,0,0,.409.279,1.732,1.732,0,0,0,.511,0c.676-.048,1.352-.108,2.028-.168a5.865,5.865,0,0,0,.847-.118l.441-.121a3.513,3.513,0,0,1,.771-.114.6.6,0,0,1,.225.022c.155.051.267.206.428.238a.719.719,0,0,0,.317-.041,7.011,7.011,0,0,1,1.5-.156.634.634,0,0,0,.584-.254c.127-.248-.083-.524-.168-.79a2.541,2.541,0,0,1-.07-.517,3.155,3.155,0,0,0-.371-1.231c-.171-.318-.406-.667-.286-1a.955.955,0,0,0,.114-.346C428.713,642.763,427.462,642.956,427.151,642.886Z" transform="translate(-304.169 -490.102)"/>
      <path id="Path_697" data-name="Path 697" class="cls-14" d="M471.7,607.79a2.9,2.9,0,0,1-1.479-1.466c-.06-.14-.111-.289-.171-.428a3.258,3.258,0,0,0-.882-1.228.435.435,0,0,0-.317-.136.346.346,0,0,0-.238.257.982.982,0,0,0-.025.4,7.072,7.072,0,0,0,.159.927l.181.819a1.8,1.8,0,0,0,.111.365,1.267,1.267,0,0,0,.3.359c.165.152.333.3.5.444a1.72,1.72,0,0,0,.317.219,1.845,1.845,0,0,0,.562.165,4.782,4.782,0,0,1,2.107.813v-.609a.806.806,0,0,0-.159-.441A2.815,2.815,0,0,0,471.7,607.79Z" transform="translate(-336.362 -464.521)"/>
      <path id="Path_698" data-name="Path 698" class="cls-5" d="M471.7,607.79a2.9,2.9,0,0,1-1.479-1.466c-.06-.14-.111-.289-.171-.428a3.258,3.258,0,0,0-.882-1.228.435.435,0,0,0-.317-.136.346.346,0,0,0-.238.257.982.982,0,0,0-.025.4,7.072,7.072,0,0,0,.159.927l.181.819a1.8,1.8,0,0,0,.111.365,1.267,1.267,0,0,0,.3.359c.165.152.333.3.5.444a1.72,1.72,0,0,0,.317.219,1.845,1.845,0,0,0,.562.165,4.782,4.782,0,0,1,2.107.813v-.609a.806.806,0,0,0-.159-.441A2.815,2.815,0,0,0,471.7,607.79Z" transform="translate(-336.362 -464.521)"/>
      <ellipse id="Ellipse_111" data-name="Ellipse 111" class="cls-13" cx="0.901" cy="0.908" rx="0.901" ry="0.908" transform="translate(141.987 135.188)"/>
      <path id="Path_699" data-name="Path 699" class="cls-13" d="M487.027,590.422a.974.974,0,0,0-.711.1.987.987,0,0,0-.244.333,4.838,4.838,0,0,0-.47,1.1c-.079.317-.092.676-.194,1-.184.6-.657,1.114-.711,1.742-.025.282.022.612-.184.8a1.162,1.162,0,0,1-.162.117,1.218,1.218,0,0,0-.355.365,1.2,1.2,0,0,1-.251.346c-.184.136-.489.124-.578.317s.143.457.089.685-.254.273-.4.4a1.386,1.386,0,0,0-.343.635,2.117,2.117,0,0,1-1.727-.428,5.5,5.5,0,0,1,.27,1.974.806.806,0,0,1-.159.609,11,11,0,0,1,2.117.368,1.46,1.46,0,0,0,.924,0,1.541,1.541,0,0,0,.425-.336,2.712,2.712,0,0,0,.873-1.346,7.916,7.916,0,0,0,.016-.911,5.14,5.14,0,0,1,.232-1.108,13.174,13.174,0,0,0,.4-2.279c.041-.476.454-.857.67-1.269a6.219,6.219,0,0,0,.854-2.539C487.427,590.819,487.325,590.454,487.027,590.422Z" transform="translate(-344.697 -454.872)"/>
      <path id="Path_700" data-name="Path 700" class="cls-5" d="M487.027,590.422a.974.974,0,0,0-.711.1.987.987,0,0,0-.244.333,4.838,4.838,0,0,0-.47,1.1c-.079.317-.092.676-.194,1-.184.6-.657,1.114-.711,1.742-.025.282.022.612-.184.8a1.162,1.162,0,0,1-.162.117,1.218,1.218,0,0,0-.355.365,1.2,1.2,0,0,1-.251.346c-.184.136-.489.124-.578.317s.143.457.089.685-.254.273-.4.4a1.386,1.386,0,0,0-.343.635,2.117,2.117,0,0,1-1.727-.428,5.5,5.5,0,0,1,.27,1.974.806.806,0,0,1-.159.609,11,11,0,0,1,2.117.368,1.46,1.46,0,0,0,.924,0,1.541,1.541,0,0,0,.425-.336,2.712,2.712,0,0,0,.873-1.346,7.916,7.916,0,0,0,.016-.911,5.14,5.14,0,0,1,.232-1.108,13.174,13.174,0,0,0,.4-2.279c.041-.476.454-.857.67-1.269a6.219,6.219,0,0,0,.854-2.539C487.427,590.819,487.325,590.454,487.027,590.422Z" transform="translate(-344.697 -454.872)"/>
      <path id="Path_701" data-name="Path 701" class="cls-13" d="M457.967,619.579a8.365,8.365,0,0,1-1.961-1.638c-1.19-1.12-2.647-1.9-3.9-2.961a27.511,27.511,0,0,0-2.485-2.089,6.213,6.213,0,0,0-2.663-.93.709.709,0,0,0-.317,0,.731.731,0,0,0-.3.238,9.6,9.6,0,0,0-1.076,1.476c-1.587,2.7-3.844,4.964-5.713,7.471a.476.476,0,0,0-.092.178.441.441,0,0,0,.07.276l.381.743c.213.419.555.9,1.013.822a1.107,1.107,0,0,0,.53-.34l1.708-1.635,1.79-1.711a13.732,13.732,0,0,0,2.8-3.307,24.671,24.671,0,0,0,2.13,2.38c.248.317.451.676.673,1.019.352.546.755,1.06,1.155,1.587l2.053,2.619a3.931,3.931,0,0,0,.952.952,3.633,3.633,0,0,0,1.647.441,21.823,21.823,0,0,0,2.32.083,4,4,0,0,0,1.73-.318,1.568,1.568,0,0,0,.936-1.393,2.045,2.045,0,0,0-.3-.866A7.074,7.074,0,0,0,457.967,619.579Z" transform="translate(-316.481 -469.581)"/>
      <ellipse id="Ellipse_112" data-name="Ellipse 112" class="cls-15" cx="0.695" cy="0.698" rx="0.695" ry="0.698" transform="translate(142.749 136.026)"/>
      <path id="Path_702" data-name="Path 702" class="cls-14" d="M501.422,587.84a1.336,1.336,0,0,1,.076,1,4.067,4.067,0,0,1-.448.924,4.394,4.394,0,0,1-.581.825,5.977,5.977,0,0,0,3.053-.876,4.436,4.436,0,0,0,1.927-1.679.889.889,0,0,1-.711-.133,2.548,2.548,0,0,1-.543-.5l-.536-.6a2.414,2.414,0,0,1-.317-.435,1.2,1.2,0,0,1-.143-.7,4.087,4.087,0,0,1-.711.59c-.384.251-.806.432-1.193.679-.133.089-.438.229-.359.406S501.314,587.65,501.422,587.84Z" transform="translate(-358.131 -451.64)"/>
      <path id="Path_703" data-name="Path 703" class="cls-5" d="M501.422,587.84a1.336,1.336,0,0,1,.076,1,4.067,4.067,0,0,1-.448.924,4.394,4.394,0,0,1-.581.825,5.977,5.977,0,0,0,3.053-.876,4.436,4.436,0,0,0,1.927-1.679.889.889,0,0,1-.711-.133,2.548,2.548,0,0,1-.543-.5l-.536-.6a2.414,2.414,0,0,1-.317-.435,1.2,1.2,0,0,1-.143-.7,4.087,4.087,0,0,1-.711.59c-.384.251-.806.432-1.193.679-.133.089-.438.229-.359.406S501.314,587.65,501.422,587.84Z" transform="translate(-358.131 -451.64)"/>
      <path id="Path_704" data-name="Path 704" class="cls-15" d="M494.424,592.618a.9.9,0,0,0,0,1.047c.032.038.146.276.194.279a.174.174,0,0,0,.121-.064,7.971,7.971,0,0,0,.679-.809,1.51,1.51,0,0,1,.863-.565,1.865,1.865,0,0,1,1.19.371,1.129,1.129,0,0,1,.409.317,1.109,1.109,0,0,1,.133.454,21.879,21.879,0,0,1,.121,2.885,11.363,11.363,0,0,1-.136,2.079c-.07.352-.171.7-.219,1.057a6.751,6.751,0,0,0-.044.952v1.327a3.493,3.493,0,0,0,.051.727c.063.289.2.558.292.841a5.5,5.5,0,0,1,.194.993l.181,1.371a1.734,1.734,0,0,1-.162,1.27c-.117.155-.273.282-.394.438-.448.584-.317,1.419-.492,2.133a2.66,2.66,0,0,1-.87,1.333,1.437,1.437,0,0,1-1.146.409,1.57,1.57,0,0,1-1.044-1.234,4.937,4.937,0,0,0-.536-1.609,4.269,4.269,0,0,0-1.06-.885,1.831,1.831,0,0,1-.828-1.076c-.035-.2,0-.406-.035-.609a1.438,1.438,0,0,0-.885-1.165c-.286-.111-.635-.152-.8-.412a1.927,1.927,0,0,0,.835-1.12,5.76,5.76,0,0,0,.2-1.416l.1-1.587a5.3,5.3,0,0,1,.378-2.06c.14-.286.317-.555.46-.838a9.1,9.1,0,0,0,.492-1.228c.228-.654.457-1.308.66-1.968a3.71,3.71,0,0,1,.362-.917C493.856,593.04,494.1,592.682,494.424,592.618Z" transform="translate(-351.12 -456.313)"/>
      <path id="Path_705" data-name="Path 705" class="cls-13" d="M492.263,602.359h.422l.089-.635a1.319,1.319,0,0,1,.089-.371,2.211,2.211,0,0,1,.244-.355,4.638,4.638,0,0,0,.486-2.079,10.577,10.577,0,0,1,.927-2.717l.819-1.825a2.517,2.517,0,0,0,.178-.467,2.793,2.793,0,0,0,.051-.54c0-.282.089-1.311.1-1.587,0-.1-.232-.048-.279-.14-.1-.2-.241.346-.435.467a1.068,1.068,0,0,0-.378.552c-.178.457-.286.952-.451,1.406a2.872,2.872,0,0,1-.765,1.244c-.168.146-.362.264-.521.422a2.849,2.849,0,0,0-.574,2.015C492.25,598.189,492.167,602.359,492.263,602.359Z" transform="translate(-352.497 -455.694)"/>
      <path id="Path_706" data-name="Path 706" class="cls-13" d="M503.22,590.377a1.441,1.441,0,0,0-.752,1.031,5.221,5.221,0,0,1-.381,1.27c-.514.9-1.825,1.155-2.19,2.123a3.9,3.9,0,0,0-.146,1c-.064.7-.292,1.365-.362,2.057a9.164,9.164,0,0,0,.038,1.616l.46,5.465a7.3,7.3,0,0,1-.136,2.406,2.316,2.316,0,0,0,1.377-.229c.428-.2.822-.466,1.238-.7a12.749,12.749,0,0,0,2.123-1.193,1.3,1.3,0,0,0,.286-.317,2.748,2.748,0,0,0,.19-.717,3.865,3.865,0,0,1,.206-.565,16.627,16.627,0,0,0,.6-1.688,9.68,9.68,0,0,0,.273-1.155c.051-.317.079-.635.1-.952a5.585,5.585,0,0,1,.292-1.444,11.629,11.629,0,0,0,.67-3.466,1.811,1.811,0,0,0-.035-.508,2.723,2.723,0,0,0-.279-.581c-.19-.359-.317-.752-.482-1.117a5.5,5.5,0,0,0-1.876-1.971A1.428,1.428,0,0,0,503.22,590.377Z" transform="translate(-357.38 -454.831)"/>
      <path id="Path_707" data-name="Path 707" class="cls-14" d="M470.6,614.606a3.309,3.309,0,0,1-.873-.663c-.114-.133-.21-.283-.317-.416a2.162,2.162,0,0,0-1.1-.635,5.359,5.359,0,0,0-1.27-.124,2.3,2.3,0,0,0-.847.1.864.864,0,0,0-.562.6,1,1,0,0,0,.429.889,2.017,2.017,0,0,0,.854.413,6.9,6.9,0,0,0,.771.092,11.23,11.23,0,0,1,4.2,1.736q1.752,1,3.574,1.854a7.414,7.414,0,0,0,.06-1.095c0-.273-.022-.692-.279-.854a5.6,5.6,0,0,0-1.136-.34,17.9,17.9,0,0,1-2.288-.927A11.365,11.365,0,0,1,470.6,614.606Z" transform="translate(-334.351 -470.141)"/>
      <ellipse id="Ellipse_113" data-name="Ellipse 113" class="cls-14" cx="2.704" cy="2.72" rx="2.704" ry="2.72" transform="translate(140.184 130.449)"/>
      <path id="Path_708" data-name="Path 708" class="cls-13" d="M499.59,599.439a4.336,4.336,0,0,0-.524.981c-.317.685-.857,1.27-1.12,2s-.267,1.66-.809,2.254a.791.791,0,0,0-.238.343,1.636,1.636,0,0,1-.025.248c-.079.216-.432.225-.5.447-.019.063,0,.133-.032.2-.054.143-.244.165-.368.251-.263.178-.21.59-.4.847a.714.714,0,0,1-.676.238,2.379,2.379,0,0,1-.7-.263.679.679,0,0,0-.254-.079.526.526,0,0,0-.292.1,1.8,1.8,0,0,0-.73,1.539,5.026,5.026,0,0,0,.419,1.723.691.691,0,0,0,.136.257.606.606,0,0,0,.673.051,3.179,3.179,0,0,1,.657-.3c.419-.076.828.213,1.254.187a1.741,1.741,0,0,0,.844-.371,4.664,4.664,0,0,0,1.136-.952c.184-.245.317-.521.482-.781a10.037,10.037,0,0,1,.682-.911l1.562-1.9a4.384,4.384,0,0,0,.419-.578,4.076,4.076,0,0,0,.317-.873,6.683,6.683,0,0,0,.317-1.552,5.96,5.96,0,0,0-.114-1.3,4.6,4.6,0,0,0-.317-1.241C501.053,599.28,500.228,598.7,499.59,599.439Z" transform="translate(-352.979 -460.81)"/>
      <path id="Path_709" data-name="Path 709" class="cls-16" d="M501.769,570.02a3.047,3.047,0,0,0-1.25-2.476,3.621,3.621,0,0,0-3.076-3.526,3.513,3.513,0,0,0-6.922.187c-1.124-.254-2.152.076-2.339.768s.606,1.587,1.79,1.9a3.336,3.336,0,0,0,1.149.114,3.517,3.517,0,0,0,2.418,1.508,3.609,3.609,0,0,0,2.641,2.723A3.032,3.032,0,0,0,497,572.35v.263a2.288,2.288,0,1,0,4.577,0,2.445,2.445,0,0,0-.219-1.013A3.059,3.059,0,0,0,501.769,570.02Z" transform="translate(-349.724 -434.94)"/>
      <path id="Path_710" data-name="Path 710" class="cls-5" d="M488.936,565.116c.187-.692,1.216-1.022,2.339-.768a3.574,3.574,0,0,1,3.491-3.009H495a3.439,3.439,0,0,0-1-.149,3.574,3.574,0,0,0-3.491,3.009c-1.124-.254-2.152.076-2.339.768s.606,1.587,1.79,1.9a3.469,3.469,0,0,0,.679.117C489.507,566.649,488.749,565.824,488.936,565.116Z" transform="translate(-349.717 -434.937)"/>
      <path id="Path_711" data-name="Path 711" class="cls-5" d="M504.274,585.467a2.4,2.4,0,0,1,0-.26,2.965,2.965,0,0,1-.816-1.127,3.6,3.6,0,0,1-2.641-2.726,3.507,3.507,0,0,1-2.422-1.5,3.04,3.04,0,0,1-.676-.019,3.526,3.526,0,0,0,2.333,1.387,3.609,3.609,0,0,0,2.641,2.723,3.032,3.032,0,0,0,.816,1.127v.263a2.33,2.33,0,0,0,2.276,2.368A2.368,2.368,0,0,1,504.274,585.467Z" transform="translate(-356.254 -447.66)"/>
      <ellipse id="Ellipse_114" data-name="Ellipse 114" class="cls-14" cx="0.416" cy="0.555" rx="0.416" ry="0.555" transform="translate(143.126 133.535) rotate(-37.22)"/>
    </g>
  </g>
</svg>
