<svg xmlns="http://www.w3.org/2000/svg" xmlns:xlink="http://www.w3.org/1999/xlink" width="570" height="396" viewBox="0 0 570 396">
  <defs>
    <style>
      .cls-1 {
        fill: #0e4b7a;
      }

      .cls-1, .cls-8 {
        opacity: 0.1;
      }

      .cls-2 {
        fill: #3f3d56;
      }

      .cls-3 {
        fill: #fff;
      }

      .cls-4 {
        fill: #192534;
      }

      .cls-5 {
        fill: #fbbebe;
      }

      .cls-6 {
        fill: #f2f2f2;
      }

      .cls-7 {
        fill: #0c7268;
      }

      .cls-9 {
        fill: url(#linear-gradient);
      }

      .cls-10 {
        fill: #447e68;
      }

      .cls-11 {
        fill: url(#linear-gradient-2);
      }
    </style>
    <linearGradient id="linear-gradient" x1="0.5" x2="0.5" y2="1" gradientUnits="objectBoundingBox">
      <stop offset="0" stop-color="#63cfa4"/>
      <stop offset="1" stop-color="#1e1a20"/>
    </linearGradient>
    <linearGradient id="linear-gradient-2" x1="0.5" x2="0.5" y2="1" gradientUnits="objectBoundingBox">
      <stop offset="0" stop-color="#9ad9c4"/>
      <stop offset="1" stop-color="#5bc217"/>
    </linearGradient>
  </defs>
  <g id="career" transform="translate(-0.047)">
    <rect id="Rectangle_1" data-name="Rectangle 1" class="cls-1" width="68.141" height="20.599" rx="7.43" transform="translate(80.792 158.727)"/>
    <rect id="Rectangle_2" data-name="Rectangle 2" class="cls-1" width="68.141" height="20.599" rx="7.43" transform="translate(152.103 179.332)"/>
    <rect id="Rectangle_3" data-name="Rectangle 3" class="cls-1" width="68.141" height="20.599" rx="7.43" transform="translate(223.418 199.931)"/>
    <rect id="Rectangle_4" data-name="Rectangle 4" class="cls-1" width="68.141" height="20.599" rx="7.43" transform="translate(80.792 127.828)"/>
    <rect id="Rectangle_5" data-name="Rectangle 5" class="cls-1" width="68.141" height="20.599" rx="7.43" transform="translate(152.103 148.428)"/>
    <rect id="Rectangle_6" data-name="Rectangle 6" class="cls-1" width="68.141" height="20.599" rx="7.43" transform="translate(223.418 169.032)"/>
    <rect id="Rectangle_7" data-name="Rectangle 7" class="cls-1" width="68.141" height="20.599" rx="7.43" transform="translate(302.652 158.727)"/>
    <rect id="Rectangle_8" data-name="Rectangle 8" class="cls-1" width="68.141" height="20.599" rx="7.43" transform="translate(373.962 179.332)"/>
    <rect id="Rectangle_9" data-name="Rectangle 9" class="cls-1" width="68.141" height="20.599" rx="7.43" transform="translate(445.278 199.931)"/>
    <rect id="Rectangle_10" data-name="Rectangle 10" class="cls-1" width="68.141" height="20.599" rx="7.43" transform="translate(302.652 127.828)"/>
    <rect id="Rectangle_11" data-name="Rectangle 11" class="cls-1" width="68.141" height="20.599" rx="7.43" transform="translate(373.962 148.428)"/>
    <rect id="Rectangle_12" data-name="Rectangle 12" class="cls-1" width="68.141" height="20.599" rx="7.43" transform="translate(445.278 169.032)"/>
    <rect id="Rectangle_13" data-name="Rectangle 13" class="cls-1" width="68.141" height="20.599" rx="7.43" transform="translate(80.792 86.625)"/>
    <rect id="Rectangle_14" data-name="Rectangle 14" class="cls-1" width="68.141" height="20.599" rx="7.43" transform="translate(152.103 107.224)"/>
    <rect id="Rectangle_15" data-name="Rectangle 15" class="cls-1" width="68.141" height="20.599" rx="7.43" transform="translate(223.418 127.828)"/>
    <rect id="Rectangle_16" data-name="Rectangle 16" class="cls-1" width="68.141" height="20.599" rx="7.43" transform="translate(80.792 55.72)"/>
    <rect id="Rectangle_17" data-name="Rectangle 17" class="cls-1" width="68.141" height="20.599" rx="7.43" transform="translate(152.103 76.325)"/>
    <rect id="Rectangle_18" data-name="Rectangle 18" class="cls-1" width="68.141" height="20.599" rx="7.43" transform="translate(223.418 96.924)"/>
    <rect id="Rectangle_19" data-name="Rectangle 19" class="cls-1" width="68.141" height="20.599" rx="7.43" transform="translate(302.652 86.625)"/>
    <rect id="Rectangle_20" data-name="Rectangle 20" class="cls-1" width="68.141" height="20.599" rx="7.43" transform="translate(373.962 107.224)"/>
    <rect id="Rectangle_21" data-name="Rectangle 21" class="cls-1" width="68.141" height="20.599" rx="7.43" transform="translate(445.278 127.828)"/>
    <rect id="Rectangle_22" data-name="Rectangle 22" class="cls-1" width="68.141" height="20.599" rx="7.43" transform="translate(302.652 55.72)"/>
    <rect id="Rectangle_23" data-name="Rectangle 23" class="cls-1" width="68.141" height="20.599" rx="7.43" transform="translate(373.962 76.325)"/>
    <rect id="Rectangle_24" data-name="Rectangle 24" class="cls-1" width="68.141" height="20.599" rx="7.43" transform="translate(445.278 96.924)"/>
    <ellipse id="Ellipse_1" data-name="Ellipse 1" class="cls-1" cx="285" cy="52" rx="285" ry="52" transform="translate(0.047 292)"/>
    <path id="Path_1" data-name="Path 1" class="cls-2" d="M217.977,320.761,194,467.75l108.418-11.467-4.691-12.51-84.7,7.037L232.832,320.5Z" transform="translate(-92.88 -153.443)"/>
    <path id="Path_2" data-name="Path 2" class="cls-2" d="M186,.521,331.947,0l42.22,319.519L227.7,339.326Z" transform="translate(-89.05)"/>
    <path id="Path_3" data-name="Path 3" class="cls-3" d="M216.5,24.5H334.3l41.178,297.106-121.449,16.68Z" transform="translate(-103.652 -11.73)"/>
    <path id="Path_4" data-name="Path 4" class="cls-2" d="M466.012,635.71a29.05,29.05,0,0,0,2.257,4.227c2.815,3.763,8.157,4.352,12.166,6.807a1.12,1.12,0,0,1,.474.459c.182.433-.224.886-.615,1.157-3.039,2.132-7.026,2.179-10.743,2.153a14.325,14.325,0,0,1-3.716-.354c-1.965-.521-3.649-1.892-5.588-2.45a14.822,14.822,0,0,0-3.07-.433L453.106,647a9.594,9.594,0,0,1-3.174-.589,3.211,3.211,0,0,1-2-2.372,6.815,6.815,0,0,1,.474-2.549c.521-2,.36-4.42,1.918-5.786a5.917,5.917,0,0,1,2.163-1.043,69,69,0,0,1,8.658-2.3C463.557,631.884,464.943,633.657,466.012,635.71Z" transform="translate(-242.067 -339.199)"/>
    <path id="Path_5" data-name="Path 5" class="cls-2" d="M380.25,647.555c.1,1.11.136,2.382-.667,3.159a3.561,3.561,0,0,1-1.746.782c-3.852.9-8.147.959-11.5-1.136a3.174,3.174,0,0,1-.907-.777,2.831,2.831,0,0,1-.459-1.433,12.3,12.3,0,0,1,.745-4.352,76.376,76.376,0,0,0,2.215-10.294c.042-.287,9.836,1.564,10.487,2.533.818,1.2.824,4.076,1.043,5.5Q379.958,644.532,380.25,647.555Z" transform="translate(-202.351 -339.769)"/>
    <path id="Path_6" data-name="Path 6" class="cls-4" d="M411.734,384.768,414.34,409a84.358,84.358,0,0,1,.709,14.9c-.417,5.734-2.022,11.467-1.345,17.149.266,2.21.871,4.378.959,6.6a35.97,35.97,0,0,1-.224,4.431c-1.178,14.7,2.549,29.294,4.634,43.893a19.044,19.044,0,0,1,.219,5.463c-.271,1.85-.813,4.279.834,5.155l-15.47,5.609c-1.976-2.476-.667-6.328-1.043-9.471-.344-2.83-1.9-5.353-2.726-8.079a38.159,38.159,0,0,1-1.152-7.574c-1.35-13.849-5.494-27.339-6.463-41.22a18.763,18.763,0,0,0-.521-3.977,36.988,36.988,0,0,0-2.325-4.853,34.222,34.222,0,0,1-2.3-7.74l-3.31-15.507c-3.346,4.983-3.211,11.467-3.873,17.441-.928,8.34-3,16.539-4.691,24.774a49.223,49.223,0,0,0-.881,5.369c-.438,4.832.433,9.711-.031,14.537-.521,5.593-2.872,11.05-2.3,16.643.313,3.1,1.5,6.026,2.3,9.028s1.2,6.3-.026,9.158a28.147,28.147,0,0,0-13.4-1.48c-4.967-5.082-5.848-12.171-6.187-19.286s.48-14.24-.407-21.287c-.261-2.085-.667-4.118-.735-6.2-.219-6.667,2.987-12.906,4.582-19.385a41.022,41.022,0,0,0,.4-17.8c-.782-3.894-2.127-7.673-2.606-11.618-.652-5.53.453-11.1,1.564-16.565.745-3.685,1.486-7.37,2.33-11.035.907-3.935,1.986-7.954,4.41-11.175,3.878-5.155,10.764-7.443,17.2-6.943s12.447,3.43,17.764,7.078A66.967,66.967,0,0,1,411.734,384.768Z" transform="translate(-197.38 -212.619)"/>
    <path id="Path_7" data-name="Path 7" class="cls-5" d="M413.085,213.656a4.5,4.5,0,0,0-.6,1.532,5.162,5.162,0,0,0,1.042,2.981,16.235,16.235,0,0,1,1.527,3.805,6.253,6.253,0,0,1,.224,2.538,6.126,6.126,0,0,1-.678,1.824,9.282,9.282,0,0,1-4.524,4.54,7.97,7.97,0,0,1-4.894.2,14.861,14.861,0,0,1-4.477-2.127,13.608,13.608,0,0,1-3.065-2.658,18.373,18.373,0,0,1-2.116-3.649c-1.084-2.267-2.184-4.691-1.986-7.177a2.4,2.4,0,0,1,.125-.662,3.559,3.559,0,0,1,.7-1.042,13.6,13.6,0,0,0,3.19-9.46l7.594,1.725c1.673.38,3.346.761,5,1.235,1.355.391,3.44.933,4.321,2.142S413.684,212.551,413.085,213.656Z" transform="translate(-216.026 -134.298)"/>
    <circle id="Ellipse_2" data-name="Ellipse 2" class="cls-5" cx="13.802" cy="13.802" r="13.802" transform="translate(179.191 50.461)"/>
    <path id="Path_8" data-name="Path 8" class="cls-6" d="M400.352,238.314a7.984,7.984,0,0,1,3-2.888,5.34,5.34,0,0,0,2.544-3.221,2.308,2.308,0,0,1,.229-.907c.443-.667,1.5-.334,2.127.156a16.333,16.333,0,0,1,3.591,4.54,38.794,38.794,0,0,1,3.362,6.354c1.465,3.862,1.642,8.079,1.8,12.2.146,3.753.287,7.563-.626,11.2-.573,2.3-1.564,4.54-1.621,6.912-.172,8.616-3.164,16.852-3.372,25.468a66.075,66.075,0,0,0,.375,7.459l.49,5.593q-11.368-.652-22.674-2a43.372,43.372,0,0,0-1.626-7.563,164.153,164.153,0,0,1-5.27-31.139c-.4-5.588-.813-11.155-1.433-16.721-.558-5.061-1.652-10.154-1-15.2a20.99,20.99,0,0,1,2.137-6.578,4.337,4.337,0,0,1,1.668-2,4.508,4.508,0,0,1,1.178-.381,21.861,21.861,0,0,1,3.586-.422,2.47,2.47,0,0,1,.876.083,2.746,2.746,0,0,1,1.194,1.157,21.642,21.642,0,0,0,9.461,7.892Z" transform="translate(-209.579 -146.206)"/>
    <path id="Path_9" data-name="Path 9" class="cls-7" d="M406.72,243.6c.969,1.387,3.023,1.715,3.92,3.127a8.2,8.2,0,0,1,.683,1.861c.547,1.746,1.652,3.263,2.325,4.967a21.3,21.3,0,0,1,1.006,7.793,25.787,25.787,0,0,1-.48,6.255c-.313,1.287-.824,2.512-1.2,3.784a18.5,18.5,0,0,0-.7,6.672,2.732,2.732,0,0,0,.375,1.381,3,3,0,0,0,1.335.907,9.879,9.879,0,0,0,4.8,1.2,1.756,1.756,0,0,0,.954-.318,2.122,2.122,0,0,0,.469-.62l1.042-1.762c.943-1.611,1.929-3.414,1.564-5.254a10.425,10.425,0,0,0-1.183-2.695,31.673,31.673,0,0,1-1.7-4.206c-1.663-4.78-3.346-9.627-3.722-14.673a12.9,12.9,0,0,1,.626-5.692,16.213,16.213,0,0,1,1.835-3.174,1.36,1.36,0,0,0-1.465-.5,8.712,8.712,0,0,0-1.517.631,7.2,7.2,0,0,1-4.78-.031,8.353,8.353,0,0,0-2.189-.74C408.5,242.544,406.756,243.66,406.72,243.6Z" transform="translate(-222.348 -152.594)"/>
    <path id="Path_10" data-name="Path 10" class="cls-6" d="M425.35,237.131c-.313-.25-.8-.48-1.074-.188a1.208,1.208,0,0,0-.2.422,2.805,2.805,0,0,1-1.793,1.371c-.725.281-1.506.438-1.944-.1a1.178,1.178,0,0,1,.068-1.392,4.253,4.253,0,0,1,1.142-.964,11.144,11.144,0,0,0,4.545-7.151,3.4,3.4,0,0,1,1.246,2.153c.172.829.193,1.684.365,2.512a35.221,35.221,0,0,1,.954,3.5,18.312,18.312,0,0,1,0,1.929,11.842,11.842,0,0,0,.219,1.866C427.659,239.8,426.8,238.283,425.35,237.131Z" transform="translate(-228.775 -146.185)"/>
    <path id="Path_11" data-name="Path 11" class="cls-6" d="M402.522,228.991c-.521-.5-1.042-.964-1.564-1.47a20.276,20.276,0,0,1-5.04-8A3.008,3.008,0,0,0,394.5,221.6a3.2,3.2,0,0,0,.688,1.694,26.416,26.416,0,0,1,3.821,10.221,3.044,3.044,0,0,1,2.632-1.4c.824,0,4.519,2.189,4.785,1.637C406.817,232.89,403.147,229.58,402.522,228.991Z" transform="translate(-216.497 -141.584)"/>
    <path id="Path_12" data-name="Path 12" class="cls-2" d="M385.7,225.838a43.262,43.262,0,0,0,17.5,10.6,3.93,3.93,0,0,1,1.767.9,3.612,3.612,0,0,1,.735,1.616,91.728,91.728,0,0,1,2.121,15.231,8.487,8.487,0,0,1-.052,2.544,8.025,8.025,0,0,1-2.231,3.5c-2.992,3.206-6.406,6.557-6.912,10.915a17.437,17.437,0,0,1-.3,2.5c-.261.969-.839,1.824-1.194,2.768-1.741,4.644,2.194,10.268-.2,14.595a26.341,26.341,0,0,1,2.638,7.954,10.352,10.352,0,0,0,.714,3.065c.714,1.491,2.184,2.439,3.341,3.649,3.529,3.617,3.961,9.153,4.17,14.2.13,2.846.089,6.114-2.085,7.98a9.124,9.124,0,0,1-4.613,1.715c-2.184.365-4.561.625-6.495-.453a10.435,10.435,0,0,1-3.232-3.424c-1.71-2.486-3.424-4.967-5.046-7.516-2.565-4.019-4.983-8.611-4.243-13.323a30.949,30.949,0,0,1-3.591,13.881,19.1,19.1,0,0,1-10.8,9.1,13.854,13.854,0,0,1-13.474-2.971,18.21,18.21,0,0,1-2.872-3.873,37.8,37.8,0,0,1-4.243-10.795,4.2,4.2,0,0,1,.1-2.966c.235-.417.594-.745.839-1.157.824-1.4.031-3.169-.766-4.6-1.214.115-2.085-1.313-1.976-2.533a10.692,10.692,0,0,1,1.355-3.388c1.512-3.273,1.178-7.084.448-10.612s-1.819-7.037-1.736-10.638c.089-3.81-2.653-7.24-4.743-10.425-1.168-1.793-2.528-3.461-3.544-5.343a17.237,17.237,0,0,1-1.366-12.906,33.818,33.818,0,0,1,2.856-6.37l1.72-3.226a5.322,5.322,0,0,1,3.649-3.127l11.9-4.691a17.905,17.905,0,0,0,4.295-2.147c1.454-1.095,2.538-2.606,3.925-3.774a2.2,2.2,0,0,1,1.564-.683c1.115.1,1.512,1.506,1.626,2.606.261,2.46,2.085,4.545,2.705,6.938,3.357,13.213,10.461,25.4,12.411,38.89a141.366,141.366,0,0,1,7.183-15.481,12.856,12.856,0,0,0,1.11-2.247,9.591,9.591,0,0,0,.37-3.487,45.6,45.6,0,0,0-1.934-9.987C387.944,234.37,386.9,230.258,385.7,225.838Z" transform="translate(-188.033 -142.58)"/>
    <path id="Path_13" data-name="Path 13" class="cls-2" d="M463.136,296.082c.229,2.22.453,4.446.865,6.641.48,2.538,1.209,5.02,1.934,7.5a19.518,19.518,0,0,0,1.512,4.029,5.182,5.182,0,0,1,.558,1.194c.255,1.043-.328,2.085-.579,3.127-.751,3.127,1.5,6.6.083,9.487a18.116,18.116,0,0,0-1.454,2.538,7.61,7.61,0,0,0,.172,3.346c.443,3.127-.625,6.307-1.678,9.314l-1.793,5.077a47.1,47.1,0,0,0-5.551-8.731c-.808-.938-1.689-1.809-2.434-2.8a19.629,19.629,0,0,1-2.606-5.077,44.008,44.008,0,0,1-2.695-13.406,9.168,9.168,0,0,1,.443-3.857,20.518,20.518,0,0,1,1.157-2.085,16.855,16.855,0,0,0,1.658-8.376,69.044,69.044,0,0,1,0-8.626,19.735,19.735,0,0,1,2.085-6.844,9.711,9.711,0,0,1,2.83-3.529,5.1,5.1,0,0,1,3.127-1.016c1.7.1,1.314,1.564,1.459,2.976Z" transform="translate(-242.793 -172.45)"/>
    <path id="Path_14" data-name="Path 14" class="cls-2" d="M323.426,281.055q-1.595,4.691-2.877,9.466-1.251,4.691-2.236,9.434a20.207,20.207,0,0,0-.563,4.243,18.985,18.985,0,0,0,.85,4.9c3.357,12.1,9.476,23.258,16.367,33.75a30.38,30.38,0,0,1,6.932-6.328,1.486,1.486,0,0,0,.521-.521,1.413,1.413,0,0,0-.167-1.22c-1.9-3.9-4.915-7.334-5.864-11.571-.4-1.762-.412-3.6-.86-5.348-.579-2.267-1.871-4.342-2.168-6.667-.318-2.533.521-5.3-.667-7.542,2.424-.943,3.826-3.44,4.853-5.833a31.945,31.945,0,0,0,2.335-7.667,23.07,23.07,0,0,0-2.82-14.673,23.456,23.456,0,0,0-4.717-5.921c-.62-.558-2.085-2.158-2.987-2.142-1.2.026-1.59,1.975-1.934,2.851C326.033,273.847,324.656,277.428,323.426,281.055Z" transform="translate(-179.752 -164.517)"/>
    <path id="Path_15" data-name="Path 15" class="cls-5" d="M359.92,400.979c.156.115.334.271.292.459s-.193.235-.328.313a4.045,4.045,0,0,0-1.5,2.033,56.723,56.723,0,0,0-2.262,5.989A26.257,26.257,0,0,0,352.033,405a11.565,11.565,0,0,1-3.153-3.612c0-.042,2.731-2.059,2.982-2.278.766-.683,1.73-2.575,2.523-2.992.9-.469,1.751,1.371,2.434,2.111a20.7,20.7,0,0,0,3.1,2.747Z" transform="translate(-194.656 -226.098)"/>
    <path id="Path_16" data-name="Path 16" class="cls-4" d="M421.135,169.807a2.559,2.559,0,0,0-.646-1.882,2.465,2.465,0,0,0-1.564-.433c-3.039-.1-6.182.412-9.049-.61-1.887-.672-3.5-1.965-5.337-2.768s-4.2-1.016-5.682.334c-1.126,1.042-1.433,2.643-1.824,4.118a24.144,24.144,0,0,1-4.5,8.924,5.537,5.537,0,0,1-3.075-3.023c-2.215-4.514-1.126-9.9.448-14.688.521-1.605,1.1-3.2,1.678-4.78l1.272-3.5a6.839,6.839,0,0,0,4.358-2.168l.547,1.329a6.932,6.932,0,0,0,3.909-1.381,2.119,2.119,0,0,0,2.476.777c.912-.266,1.7-.777,2.606-1.042,2.424-.782,5.009.422,7.553.558a30.226,30.226,0,0,1,3.226.094c3,.485,5.124,3.31,6.041,6.208.61,1.929,1.115,4.3,3.018,4.983.042.73-1.251.87-1.36,1.564a1.2,1.2,0,0,0,.156.662l1.746,3.748a4.337,4.337,0,0,1-2.523-.125C423.825,168.551,421.213,171.219,421.135,169.807Z" transform="translate(-213.484 -107.701)"/>
    <path id="Path_17" data-name="Path 17" class="cls-5" d="M617.741,189.769a68.46,68.46,0,0,1,2.085,8.72c.375,2.21.594,4.665-.672,6.51,4.827-7.261,9.867-14.741,17.2-19.427a15.7,15.7,0,0,1-4.092-12.114c.042-.438-6.02,1.85-6.484,2.111-2.127,1.183-4.076,2.653-6.151,3.92-1.074.652-5.546,2.194-5.588,3.127,0,.6,1.777,2.434,2.111,3.065A23.8,23.8,0,0,1,617.741,189.769Z" transform="translate(-321.605 -119.506)"/>
    <path id="Path_18" data-name="Path 18" class="cls-3" d="M636.347,726.521a8.079,8.079,0,0,0-8.256-.625c-2.361,1.22-3.951,3.529-6.1,5.092-3.69,2.679-8.564,2.893-12.885,4.342a4.392,4.392,0,0,0-2.851,2.085,3.7,3.7,0,0,0,.214,2.9A7.516,7.516,0,0,0,610.045,744a14.941,14.941,0,0,0,6.317,1l18.66.219a152.851,152.851,0,0,1,17.2.85,6.442,6.442,0,0,0,3.941-.3c1.908-1.042,2.127-3.68,1.981-5.854a53.724,53.724,0,0,0-3.649-16.054c-.224-.568-.521-1.214-1.152-1.319a1.877,1.877,0,0,0-1.241.4c-5.265,3.127-11.931,4.894-17.529,2.393" transform="translate(-317.782 -382.409)"/>
    <path id="Path_19" data-name="Path 19" class="cls-2" d="M671.934,500.667c-2.085,12.108-.725,24.55,1.621,36.607a63.8,63.8,0,0,0,1.7,7.11c.839,2.658,1.97,5.212,2.757,7.886,2,6.776,1.72,14.021,1.423,21.094l-1.366,32.186a23.345,23.345,0,0,0,.594,8.037c.328,1.042.73,2.346-.1,3.049a2.324,2.324,0,0,1-1.1.422,17.023,17.023,0,0,1-10.946-1.642l-.37-32.515c-.115-10.023-.235-20.089-1.777-29.987-1.225-7.871-3.352-15.637-3.492-23.6-.146-8.34,1.9-16.57,3.982-24.655.448-1.731,2.085-3,3.43-4.17a4.216,4.216,0,0,1,1.668-1.011C670.589,499.307,671.548,500.141,671.934,500.667Z" transform="translate(-344.028 -275.607)"/>
    <path id="Path_20" data-name="Path 20" class="cls-8" d="M671.934,500.667c-2.085,12.108-.725,24.55,1.621,36.607a63.8,63.8,0,0,0,1.7,7.11c.839,2.658,1.97,5.212,2.757,7.886,2,6.776,1.72,14.021,1.423,21.094l-1.366,32.186a23.345,23.345,0,0,0,.594,8.037c.328,1.042.73,2.346-.1,3.049a2.324,2.324,0,0,1-1.1.422,17.023,17.023,0,0,1-10.946-1.642l-.37-32.515c-.115-10.023-.235-20.089-1.777-29.987-1.225-7.871-3.352-15.637-3.492-23.6-.146-8.34,1.9-16.57,3.982-24.655.448-1.731,2.085-3,3.43-4.17a4.216,4.216,0,0,1,1.668-1.011C670.589,499.307,671.548,500.141,671.934,500.667Z" transform="translate(-344.028 -275.607)"/>
    <path id="Path_21" data-name="Path 21" class="cls-2" d="M606.809,424.506c-.771,3.174.865,6.463.683,9.726-.1,1.975-.881,3.946-.521,5.885s1.746,3.4,2.486,5.176a14.042,14.042,0,0,1,.844,4.629c.214,3.9.042,7.819-.1,11.7a115.163,115.163,0,0,0,.433,19.526,61.086,61.086,0,0,0,4.519,16.237,28.142,28.142,0,0,1,1.684,4.373,31.213,31.213,0,0,1,.573,4.243,43.109,43.109,0,0,0,3.685,13.4c1.329,2.9,3.649,5.212,4.384,8.293.7,2.95.229,6.062.735,9.049.37,2.215,1.272,4.311,1.772,6.5a77.195,77.195,0,0,1,.964,8.652c.938,8.34,4.728,16.68,2.466,24.769-.453,1.626-1.157,3.279-.839,4.936a6.157,6.157,0,0,1,.375,2.424A11.481,11.481,0,0,1,630,585.9a3.439,3.439,0,0,0,.959,3.612,10.265,10.265,0,0,0,3.388,2c3.841,1.642,7.819,3.31,11.988,3.273a3.222,3.222,0,0,0,1.475-.271,3.653,3.653,0,0,0,1.439-2.022l2.137-5.285a2.266,2.266,0,0,0,.162-1.986,3.7,3.7,0,0,0-.9-.834c-1.725-1.454-1.334-4.17-.876-6.354a92.71,92.71,0,0,0,1.939-17.044c.229-11.426-1.652-22.783-3.529-34.058a70.967,70.967,0,0,0-2.606-11.608c-1.3-3.753-3.211-7.365-2.9-11.264.334-4.212-.761-8.626,0-12.781s1.965-8.22,2.742-12.369a127.866,127.866,0,0,0,1.564-16.336,15.8,15.8,0,0,1,1.34-6.515c.61-1.157,1.5-2.147,2.179-3.268,1.762-2.914,2.043-6.526,3.727-9.487a33.174,33.174,0,0,0,2.481-4.139,11.566,11.566,0,0,0,.636-3.68,43.781,43.781,0,0,0-.521-9.408,61.22,61.22,0,0,0-28.668-6.651,34.008,34.008,0,0,0-11.238,1.767C613.512,422.457,610.406,424.235,606.809,424.506Z" transform="translate(-318.043 -237.288)"/>
    <path id="Path_22" data-name="Path 22" class="cls-3" d="M623.592,744.377c-1.532,1.908-1.428,4.634-2.408,6.88-1.188,2.726-3.836,4.472-6.349,6.062l-15.637,9.9a4.358,4.358,0,0,0-2.085,2.132,3.42,3.42,0,0,0,.078,1.871,8.121,8.121,0,0,0,5.463,5.546,16.16,16.16,0,0,0,4.227.433l7.031.094a41.169,41.169,0,0,0,6.416-.25c1.949-.282,3.847-.839,5.786-1.194,3.529-.641,7.157-.584,10.691-1.2a56.542,56.542,0,0,0,6.4-1.652,25.528,25.528,0,0,0,7.344-3.081,3.811,3.811,0,0,0,1.413-1.522,4.5,4.5,0,0,0-.042-2.757l-3.357-14.751a8.792,8.792,0,0,0-1.314-3.445A3.008,3.008,0,0,0,644,746.218a6.887,6.887,0,0,0-1.35.813,8.29,8.29,0,0,1-5.958.964,9.385,9.385,0,0,1-4.107-1.465c-.8-.662-1.042-1.689-1.725-2.439a4.895,4.895,0,0,0-7.271.287Z" transform="translate(-313.455 -392.02)"/>
    <circle id="Ellipse_3" data-name="Ellipse 3" class="cls-5" cx="18.832" cy="18.832" r="18.832" transform="translate(281.166 30.565)"/>
    <path id="Path_23" data-name="Path 23" class="cls-4" d="M600.141,138.734c1.8-1.011,1.8-3.925,3.649-4.894s3.941.714,5.124,2.413a22.2,22.2,0,0,1,3.518,8.272,4.162,4.162,0,0,0,.959,2.356,3.69,3.69,0,0,0,2.283.745q3.57.354,7.151.646c2.658.214,5.463.386,7.876-.756a5.733,5.733,0,0,0,2.366-1.96,8.818,8.818,0,0,0,1.011-2.648c1.246-4.738,2.5-9.533,2.606-14.433a11.653,11.653,0,0,0-1.11-5.89,11.958,11.958,0,0,1-1.637-3.1c-.235-1.147.521-2.606,1.71-2.481a7.016,7.016,0,0,1-3.127-.594,2.4,2.4,0,0,1-1.308-2.664c-2.648.339-4.576-2.278-6.641-3.972a1.8,1.8,0,0,0-1.261-.521,4.55,4.55,0,0,0-1.042.4c-1.042.365-2.132-.328-3.2-.631-2.867-.8-6.51,1.136-8.637-.949.2,1.329-1.428,2.22-2.773,2.194s-2.731-.521-4-.073a2.606,2.606,0,0,1-1.491,3.732l.631,1.376a3.555,3.555,0,0,0-2.736,2.564c-.693,2.737-.521,6.625-.354,9.44C599.786,128.549,600.991,138.27,600.141,138.734Z" transform="translate(-314.669 -88.231)"/>
    <path id="Path_24" data-name="Path 24" class="cls-9" d="M613.4,202.17c-9.461,10.638-11.869,25.614-13.886,39.713L596.542,262.7c-.771,5.4-1.564,10.8-2.236,16.216a42.714,42.714,0,0,0-.4,11.17,60.935,60.935,0,0,0,2.189,8.543,80.565,80.565,0,0,1,3.127,22.669c.631-1.856,2.815-2.606,4.733-3.023a76.528,76.528,0,0,1,47.881,5.113c2.632-7.376,2.137-15.444,2.872-23.242,1.043-11.118,4.634-21.892,5.7-32.989.391-4.133.438-8.288.479-12.442a41.646,41.646,0,0,0-.573-9.116,38.265,38.265,0,0,0-3.753-9.382,244.525,244.525,0,0,0-14.24-24.2q-3.93-5.88-8.2-11.525-2.163-2.862-4.415-5.661c-1.454-1.809-2.085-3.378-4.394-2.293C620.952,194.586,616.573,198.6,613.4,202.17Z" transform="translate(-311.857 -128.498)"/>
    <path id="Path_25" data-name="Path 25" class="cls-5" d="M628.466,377.713a51.086,51.086,0,0,1-6.917-.219,15.008,15.008,0,0,0-5.108,0,5.316,5.316,0,0,0-1.986.975,1.5,1.5,0,0,0,.85,2.606l1.783.156a5.012,5.012,0,0,1,3.19,1.042,1.991,1.991,0,0,1,.646,1.256c.109,1.214-.943,1.876-1.887,2.382a14.952,14.952,0,0,0-3.68,2.45,5.1,5.1,0,0,0-1.527,3.127.6.6,0,0,0,.886.558c2.085-1.042,3.445-4.133,5.734-3.617a9.289,9.289,0,0,0-5.035,3.873,2.335,2.335,0,0,0,3.127,3.3,10.3,10.3,0,0,0,.98-.651,24.088,24.088,0,0,0,4.133-4.3c-1.668,3.518-3.357,7.636-1.439,11.134a1.11,1.11,0,0,0,1.042.615c.6-.063.782-.631.881-1.131a15.768,15.768,0,0,1,1.183-4.743c1.835-3.326,6.359-3.649,9.8-5.27,4.133-1.918,6.964-6.046,8.105-10.456a8.038,8.038,0,0,0,.2-3.972c-.766-2.966-4.425-3.649-6.776-2.215C633.777,376.447,632.1,377.6,628.466,377.713Z" transform="translate(-321.504 -215.493)"/>
    <path id="Path_26" data-name="Path 26" class="cls-8" d="M632.284,246.2c3.649,5.635,9.982,8.809,15.413,12.765a12.922,12.922,0,0,1,3.409,3.242,11.129,11.129,0,0,1,1.282,7.3,46.228,46.228,0,0,1-2.46,9.591l-2.278,6.8c-1.444,4.316-2.935,8.72-5.682,12.348a5.212,5.212,0,0,0-1.491,3.065,3.962,3.962,0,0,0,.667,1.866,12.551,12.551,0,0,0,7.97,5.692,6.078,6.078,0,0,0,3,0,8.119,8.119,0,0,0,3.445-2.648c4.691-5.176,9.382-10.425,12.77-16.5,3.31-5.926,5.291-12.51,7.115-19.03a40.054,40.054,0,0,0,1.564-7.365,26.917,26.917,0,0,0-2.856-13.62,67.214,67.214,0,0,0-7.631-11.8,82.126,82.126,0,0,0-8.939-10.258c-5.671-5.3-12.609-8.418-20.2-5.41-5.358,2.127-7.365,6.562-7.845,12.244A18.629,18.629,0,0,0,632.284,246.2Z" transform="translate(-328.981 -142.325)"/>
    <path id="Path_27" data-name="Path 27" class="cls-10" d="M635.9,243.513c3.649,5.635,9.987,8.809,15.413,12.765a12.962,12.962,0,0,1,3.393,3.263,11.123,11.123,0,0,1,1.282,7.3,46.233,46.233,0,0,1-2.465,9.591l-2.278,6.776c-1.444,4.316-2.935,8.715-5.681,12.348a5.219,5.219,0,0,0-1.486,3.065,3.868,3.868,0,0,0,.667,1.861,12.546,12.546,0,0,0,7.965,5.7,6.1,6.1,0,0,0,3,0,8.139,8.139,0,0,0,3.445-2.643c4.691-5.181,9.382-10.425,12.77-16.5,3.31-5.926,5.291-12.51,7.115-19.036a39.664,39.664,0,0,0,1.564-7.36,27,27,0,0,0-2.851-13.625,66.729,66.729,0,0,0-7.631-11.8,82.176,82.176,0,0,0-8.96-10.2c-5.666-5.3-12.6-8.418-20.193-5.405-5.364,2.127-7.365,6.557-7.85,12.244a18.644,18.644,0,0,0,2.778,11.66Z" transform="translate(-330.703 -141.064)"/>
    <path id="Path_28" data-name="Path 28" class="cls-2" d="M838.091,611.107a19.28,19.28,0,0,1-.417,4.045c-.052.25-.109.521-.167.735-1.48,5.937-5.655,10.279-10.638,10.555h-.521c-5.27,0-9.726-4.545-11.2-10.805-.042-.167-.078-.334-.115-.521a19.291,19.291,0,0,1-.417-4.045c0-8.481,5.249-15.351,11.728-15.351S838.091,602.642,838.091,611.107Z" transform="translate(-417.635 -321.695)"/>
    <path id="Path_29" data-name="Path 29" class="cls-8" d="M838.111,611.131a19.285,19.285,0,0,1-.417,4.045c-.052.25-.109.521-.167.735h-.521a23.867,23.867,0,0,1-3.836-.521,23.424,23.424,0,0,1-3.419.782,23.881,23.881,0,0,1-2.679.25h-.907a24.192,24.192,0,0,1-3.213-.214,23.539,23.539,0,0,1-5.038-1.251,23.752,23.752,0,0,1-2.721.73c-.042-.167-.078-.334-.115-.521a19.284,19.284,0,0,1-.417-4.045c0-8.481,5.249-15.351,11.728-15.351S838.111,602.666,838.111,611.131Z" transform="translate(-417.654 -321.719)"/>
    <path id="Path_30" data-name="Path 30" class="cls-11" d="M837.3,538.642A23.736,23.736,0,0,0,834.75,527.9l-13.792,4.29,12.108-7.12a23.836,23.836,0,0,0-17.91-10.206,23.806,23.806,0,0,0-1.861-2.46l-19.807,6.166,16.247-9.554a23.836,23.836,0,0,0-37.529,12.713l16.966,19.531-18.4-13.312A23.841,23.841,0,0,0,792.1,570.01a23.935,23.935,0,0,0,15.262.422,23.862,23.862,0,0,0,28.991-23.278c0-.521,0-1.042-.052-1.564a23.785,23.785,0,0,0,1-6.948Z" transform="translate(-391.828 -277.824)"/>
    <path id="Path_31" data-name="Path 31" class="cls-8" d="M836.86,573.831a63.538,63.538,0,0,0-22.069-.281c-8.282,1.371-16.747,4.384-24.847,2.184-4.754-1.293-8.861-4.285-13.505-5.947a25.635,25.635,0,0,0-13.943-.834,23.852,23.852,0,0,0,29.549,31.827,23.935,23.935,0,0,0,15.262.422A23.862,23.862,0,0,0,836.3,577.922c0-.521,0-1.042-.052-1.564A23.548,23.548,0,0,0,836.86,573.831Z" transform="translate(-391.795 -308.593)"/>
  </g>
</svg>
