<svg xmlns="http://www.w3.org/2000/svg" xmlns:xlink="http://www.w3.org/1999/xlink" width="638.4" height="387.308" viewBox="0 0 638.4 387.308">
  <defs>
    <style>
      .cls-1, .cls-2, .cls-9 {
        fill: #3f3d56;
      }

      .cls-1 {
        opacity: 0.24;
      }

      .cls-2 {
        opacity: 0.3;
      }

      .cls-3 {
        fill: #f2f2f2;
      }

      .cls-4 {
        fill: #2f2e41;
      }

      .cls-5 {
        fill: #ffb9b9;
      }

      .cls-6 {
        opacity: 0.1;
      }

      .cls-7 {
        fill: #d0cde1;
      }

      .cls-8 {
        fill: #a0616a;
      }

      .cls-10 {
        fill: #575a89;
      }

      .cls-11 {
        fill: #63cfa4;
      }

      .cls-12 {
        fill: #57b894;
      }

      .cls-13 {
        fill: #ffc1c7;
      }

      .cls-14 {
        fill: #cbceda;
      }

      .cls-15 {
        fill: url(#linear-gradient);
      }

      .cls-16 {
        fill: url(#linear-gradient-2);
      }

      .cls-17 {
        fill: #a8a8a8;
      }

      .cls-18 {
        opacity: 0.2;
      }
    </style>
    <linearGradient id="linear-gradient" x1="0.5" x2="0.5" y2="1" gradientUnits="objectBoundingBox">
      <stop offset="0" stop-color="#63cfa4"/>
      <stop offset="1" stop-color="#0b100e"/>
    </linearGradient>
    <linearGradient id="linear-gradient-2" x1="0.5" x2="0.5" y2="1" gradientUnits="objectBoundingBox">
      <stop offset="0" stop-color="#63cfa4"/>
      <stop offset="1" stop-color="#1f312a"/>
    </linearGradient>
  </defs>
  <g id="hiring" transform="translate(0 0)">
    <path id="Path_384" data-name="Path 384" class="cls-1" d="M232.4,0c128.35,0,232.4,9.362,232.4,20.91S360.749,41.82,232.4,41.82,0,32.458,0,20.91,104.049,0,232.4,0Z" transform="translate(173.602 345.489)"/>
    <rect id="Rectangle_67" data-name="Rectangle 67" class="cls-2" width="252.252" height="170.851" transform="translate(544.659 170.852) rotate(180)"/>
    <rect id="Rectangle_68" data-name="Rectangle 68" class="cls-3" width="74.691" height="81.401" transform="translate(453.867 15.654)"/>
    <rect id="Rectangle_69" data-name="Rectangle 69" class="cls-3" width="72.008" height="4.92" transform="translate(407.799 20.574) rotate(180)"/>
    <rect id="Rectangle_70" data-name="Rectangle 70" class="cls-3" width="25.494" height="4.92" transform="translate(479.36 114.498) rotate(180)"/>
    <rect id="Rectangle_71" data-name="Rectangle 71" class="cls-3" width="72.903" height="4.92" transform="translate(527.664 123.443) rotate(180)"/>
    <rect id="Rectangle_72" data-name="Rectangle 72" class="cls-3" width="103.763" height="4.92" transform="translate(424.795 38.464) rotate(180)"/>
    <rect id="Rectangle_73" data-name="Rectangle 73" class="cls-3" width="103.763" height="4.92" transform="translate(424.795 52.329) rotate(180)"/>
    <rect id="Rectangle_74" data-name="Rectangle 74" class="cls-3" width="103.763" height="4.92" transform="translate(424.795 66.194) rotate(180)"/>
    <rect id="Rectangle_75" data-name="Rectangle 75" class="cls-3" width="103.763" height="4.92" transform="translate(424.795 80.059) rotate(180)"/>
    <rect id="Rectangle_76" data-name="Rectangle 76" class="cls-3" width="103.763" height="4.92" transform="translate(424.795 93.924) rotate(180)"/>
    <rect id="Rectangle_77" data-name="Rectangle 77" class="cls-3" width="103.763" height="4.92" transform="translate(424.795 107.788) rotate(180)"/>
    <rect id="Rectangle_78" data-name="Rectangle 78" class="cls-3" width="103.763" height="4.92" transform="translate(424.795 121.654) rotate(180)"/>
    <path id="Path_331" data-name="Path 331" class="cls-4" d="M842.932,224.79a13.211,13.211,0,0,1,3.617-1.814,92.224,92.224,0,0,1,25.483-5.547c7.577-.537,15.79.1,21.708,4.863a7.465,7.465,0,0,1,2.2,2.565c.745,1.607.519,3.474.278,5.229a5.907,5.907,0,0,1-.507,1.968c-.8,1.516-2.757,2.048-4.46,1.866s-3.3-.9-4.981-1.237a22.266,22.266,0,0,0-3.146-.32l-10.536-.57c-6.552-.355-13.189-.7-19.616.619a19.539,19.539,0,0,0-5.667,1.953c-1.468.824-2.456,2.007-3.818.484C841.095,232.175,839.771,227.26,842.932,224.79Z" transform="translate(-377.848 -162.654)"/>
    <path id="Path_332" data-name="Path 332" class="cls-3" d="M869.538,235.935s14.171-6.353,19.546.977-2.932,4.4-2.932,4.4l-9.284,2.932-10.262-1.955Z" transform="translate(-388.129 -169.14)"/>
    <path id="Path_333" data-name="Path 333" class="cls-5" d="M872.741,226.921s1.955,9.284.489,11.728,8.307,5.864,8.307,5.864l9.284-3.909s-2.443-15.148,0-18.08Z" transform="translate(-390.598 -164.769)"/>
    <path id="Path_334" data-name="Path 334" class="cls-6" d="M872.741,226.921s1.955,9.284.489,11.728,8.307,5.864,8.307,5.864l9.284-3.909s-2.443-15.148,0-18.08Z" transform="translate(-390.598 -164.769)"/>
    <path id="Path_335" data-name="Path 335" class="cls-5" d="M890.609,204.466a14.672,14.672,0,0,1-14.66,14.66,14.306,14.306,0,0,1-2.6-.235,14.659,14.659,0,1,1,17.264-14.425Z" transform="translate(-385.989 -151.598)"/>
    <path id="Path_336" data-name="Path 336" class="cls-3" d="M893.679,268.2H846.927l1.06-4.6,4.589-20,5.3-3.583,0,0,2.491-1.686,1.239-.836s.733.335,1.579.792c.246.139.5.282.747.434,0,0,0,0,0,0a8.755,8.755,0,0,1,1.154.8c.067.063.125.116.183.174.93.93,3.645,5.868,8.135,3.341a6.835,6.835,0,0,0,.657-.411,32.527,32.527,0,0,0,3.341-2.652c.944-.863,1.556-1.53,2.057-1.99a3.251,3.251,0,0,1,.76-.564,1.446,1.446,0,0,1,.684-.165c1.467,0,3.422,2.93,3.422,2.93l.058.17,0,.013,6.168,18.516Z" transform="translate(-380.206 -170.698)"/>
    <path id="Path_337" data-name="Path 337" class="cls-4" d="M841.052,266.129h14.169a34.479,34.479,0,0,0-.255-4.9c-.434-3.269-1.5-6.418-2.169-9.647a40.577,40.577,0,0,1-.854-8.605c0-.4.013-.8.049-1.2a5.508,5.508,0,0,1,.774-2.612c.335-.514.8-.953,1.154-1.445a3.322,3.322,0,0,0,.327-.514v0a2.968,2.968,0,0,0,.121-.273,2.211,2.211,0,0,0,.134-.666c.08-1.476-1.257-2.9-2.7-3.506a10.1,10.1,0,0,0-6.329-.255,30.125,30.125,0,0,0-5.949,2.433c-.64.313-1.275.635-1.887.993a9.368,9.368,0,0,0-2,1.521,12.656,12.656,0,0,0-2.724,5.872,12.416,12.416,0,0,0-.514,5.009c0,.054.018.112.027.165.532,2.786,2.8,4.88,4.016,7.447,1.4,2.979,1.31,6.449.751,9.7-.027.165-.058.331-.089.5h3.949Z" transform="translate(-374.331 -168.627)"/>
    <path id="Path_338" data-name="Path 338" class="cls-4" d="M925.164,245.956a110.732,110.732,0,0,0-3.86,17.895h-20.2q-.792-2.16-1.579-4.325a32.422,32.422,0,0,1-1.078-3.328A15.928,15.928,0,0,1,898,252.19c0-.322.013-.648.04-.971a.014.014,0,0,0,0-.018,16.007,16.007,0,0,1,1.167-4.951,18.474,18.474,0,0,1,1.029-2.089c.939-1.7,2.075-3.3,3.086-4.965a22.791,22.791,0,0,0,1.641-3.184.016.016,0,0,1,0-.013,11.43,11.43,0,0,0,.926-4.45c-.031-1.972-3.368-5.412.259-5.081,4.951.447,9.2,3.3,13.082,6.543,1.033.868,2.044,1.767,3.032,2.652,1.53,1.378,3.144,2.88,3.6,4.888a5.213,5.213,0,0,1,.13.975A13.386,13.386,0,0,1,925.164,245.956Z" transform="translate(-400.766 -166.349)"/>
    <path id="Path_339" data-name="Path 339" class="cls-5" d="M881.606,245.889a10.921,10.921,0,0,0-2.293-3.7,8.508,8.508,0,0,0-3.5-1.775,19.158,19.158,0,0,0-5.139-.736c-2.069-.013-4.469.542-5.348,2.416-.7,1.488-.157,3.25.546,4.735a4.643,4.643,0,0,0,1.449,1.957,8.041,8.041,0,0,0,3.1.786,14.32,14.32,0,0,1,4.589,2.079l3.625,2.191,6.226,3.763c-.164-.1-.106-4.369-.3-5.068C883.948,250.286,882.562,248.024,881.606,245.889Z" transform="translate(-387.481 -171.676)"/>
    <path id="Path_340" data-name="Path 340" class="cls-4" d="M887.039,191.687a3.721,3.721,0,0,0-1.614-2.107,8.542,8.542,0,0,0-.341-2.78c-.888-2.625-2.991-2.474-4.975-3.635-.861-.5-.808-.948-1.256-1.775a6.589,6.589,0,0,0-2.539-2.59,9.135,9.135,0,0,0-4.123-1.749c-3.165-.216-5.592,2.761-8.617,3.717-1.333.421-2.766.438-4.106.837a3.777,3.777,0,0,0-2.877,2.733c-.092.639.07,1.294-.023,1.933-.186,1.27-1.3,2.159-2.045,3.2-1.649,2.309-1.46,5.571-.142,8.083a11.358,11.358,0,0,0,.951,1.488,9.152,9.152,0,0,0,1,3.4,16.939,16.939,0,0,0,5.958,5.949,14.055,14.055,0,0,1-.351-2.537,1.75,1.75,0,0,1,.108-.841c.264-.552.961-.7,1.493-1a3.773,3.773,0,0,0,1.565-3.278c.032-1.266-.236-2.535-.1-3.795a2.073,2.073,0,0,1,.71-1.525,2.452,2.452,0,0,1,1.338-.319c2.257-.092,4.615-.134,6.605-1.2a9.788,9.788,0,0,1,2.056-1.04c1.692-.441,3.421.745,4.4,2.2s1.461,3.178,2.361,4.677,2.453,2.836,4.193,2.658a.7.7,0,0,0,.519-.231.778.778,0,0,0,.1-.443l.1-6.648A10.047,10.047,0,0,0,887.039,191.687Z" transform="translate(-382.788 -146.459)"/>
    <path id="Path_341" data-name="Path 341" class="cls-4" d="M837.134,265.238q.476,3.925.577,7.876h-12.3V262.778c.063-.25.13-.5.21-.742.769-2.37,2.384-4.356,3.784-6.418.067-.1.139-.206.206-.309a16.8,16.8,0,0,0,1.53-2.759c.2-.474.523-2.769.863-2.965,1.458-.845,2.643,2.768,2.844,3.574.716,2.867,1.337,5.761,1.807,8.681Q836.93,263.536,837.134,265.238Z" transform="translate(-371.545 -175.612)"/>
    <path id="Path_342" data-name="Path 342" class="cls-4" d="M924.426,271.258H896.191c-.242-.568-.479-1.136-.729-1.7a49.689,49.689,0,0,0-6.771-11.105,2.939,2.939,0,0,1-.836-1.659,1.4,1.4,0,0,1,.183-.747,4.879,4.879,0,0,1,2.487-1.65,8.568,8.568,0,0,0,2.585-1.628,5.543,5.543,0,0,0,1.494-2.2,4.833,4.833,0,0,0,.188-.76l.394.514c.318.42.64.836.966,1.252,3.131,4.021,6.57,7.983,10.9,10.367a18.332,18.332,0,0,0,3.56,1.516.934.934,0,0,0,.751,0,.909.909,0,0,0,.326-.6c.385-1.61.519-3.269.8-4.9a27.922,27.922,0,0,1,2.948-8.489c.8-1.489,3.4-6.932,5.054-3.5q.711,1.483,1.431,2.974c.3.631.6,1.257.908,1.887A11.739,11.739,0,0,1,924.3,257.4Q924.363,264.334,924.426,271.258Z" transform="translate(-396.682 -173.756)"/>
    <path id="Path_343" data-name="Path 343" class="cls-6" d="M844.471,281.484h2.447l-1.386-4.6-2-6.633a21.635,21.635,0,0,1-.192,3.359,22.367,22.367,0,0,1-1.95,6.637c-.192.407-.4.818-.564,1.239h3.645Z" transform="translate(-377.75 -183.983)"/>
    <path id="Path_344" data-name="Path 344" class="cls-6" d="M928.827,265.38a4.778,4.778,0,0,0,.234,2.9,29.248,29.248,0,0,1,1.066,8.487.309.309,0,0,1-.361.37c-1.128.069-2.419.076-3.184-.755Z" transform="translate(-412.273 -182.022)"/>
    <rect id="Rectangle_79" data-name="Rectangle 79" class="cls-2" width="252.252" height="170.851" transform="translate(0 1.759)"/>
    <rect id="Rectangle_80" data-name="Rectangle 80" class="cls-3" width="74.691" height="81.401" transform="translate(16.101 17.413)"/>
    <rect id="Rectangle_81" data-name="Rectangle 81" class="cls-3" width="72.008" height="4.92" transform="translate(136.86 17.413)"/>
    <rect id="Rectangle_82" data-name="Rectangle 82" class="cls-3" width="25.494" height="4.92" transform="translate(16.996 111.336)"/>
    <rect id="Rectangle_83" data-name="Rectangle 83" class="cls-3" width="72.903" height="4.92" transform="translate(16.996 120.281)"/>
    <rect id="Rectangle_84" data-name="Rectangle 84" class="cls-3" width="103.763" height="4.92" transform="translate(119.865 35.303)"/>
    <rect id="Rectangle_85" data-name="Rectangle 85" class="cls-3" width="103.763" height="4.92" transform="translate(119.865 49.168)"/>
    <rect id="Rectangle_86" data-name="Rectangle 86" class="cls-3" width="103.763" height="4.92" transform="translate(119.865 63.033)"/>
    <rect id="Rectangle_87" data-name="Rectangle 87" class="cls-3" width="103.763" height="4.92" transform="translate(119.865 76.897)"/>
    <rect id="Rectangle_88" data-name="Rectangle 88" class="cls-3" width="103.763" height="4.92" transform="translate(119.865 90.762)"/>
    <rect id="Rectangle_89" data-name="Rectangle 89" class="cls-3" width="103.763" height="4.92" transform="translate(119.865 104.627)"/>
    <rect id="Rectangle_90" data-name="Rectangle 90" class="cls-3" width="103.763" height="4.92" transform="translate(119.865 118.492)"/>
    <path id="Path_345" data-name="Path 345" class="cls-7" d="M202.7,272.956h-9.71q-1.12-3.012-1.99-6.1a12.187,12.187,0,0,0-3.167-6.454,11.97,11.97,0,0,1-1.364-1.852,8.7,8.7,0,0,1-.859-5.273,13.7,13.7,0,0,1,.25-1.494c.425-1.91,1.136-3.743,1.731-5.6a2.126,2.126,0,0,1,1.735-1.436,3.442,3.442,0,0,1,1.9.219,2.356,2.356,0,0,1,.38.2,5.87,5.87,0,0,1,2.053,3.14q3.039,8.158,6.074,16.316.59,1.583,1.181,3.176c.581,1.556,1.158,3.113,1.65,4.7C202.611,272.647,202.656,272.8,202.7,272.956Z" transform="translate(-113.938 -173.695)"/>
    <path id="Path_346" data-name="Path 346" class="cls-4" d="M134.77,171.291a7.435,7.435,0,0,0-5.1,5.222c-.229,1.159-.089,2.363-.282,3.529-.447,2.7-2.569,4.767-4.526,6.684s-3.977,4.145-4.12,6.881c-.156,3,2.016,5.8,1.64,8.778-.437,3.458-4.089,5.7-4.991,9.064a8.72,8.72,0,0,0,1.351,6.654,19.042,19.042,0,0,0,10.49,7.726,43.7,43.7,0,0,0,13.14,1.712c5.4.057,11.262-.407,15.318-3.971a12.272,12.272,0,0,0,4.074-7.989c.385-4.128-1.337-8.393-.149-12.365.748-2.5,2.623-4.782,2.344-7.377-.274-2.536-2.489-4.334-4.009-6.383a25.947,25.947,0,0,1-3.124-6.4l-2.887-7.621a8.846,8.846,0,0,0-2.456-4.057c-2.368-1.841-6.176-1.479-8.944-1.1C139.975,170.631,137.24,170.456,134.77,171.291Z" transform="translate(-86.43 -143.613)"/>
    <path id="Path_347" data-name="Path 347" class="cls-8" d="M149.9,213.093s.283,8.478-.565,9.326,3.391,6.5,3.391,6.5l7.63-.283,3.956-3.109-3.391-4.522s-1.413-7.348-.283-9.043S149.9,213.093,149.9,213.093Z" transform="translate(-99.331 -160.3)"/>
    <path id="Path_348" data-name="Path 348" class="cls-6" d="M149.9,213.093s.283,8.478-.565,9.326,3.391,6.5,3.391,6.5l7.63-.283,3.956-3.109-3.391-4.522s-1.413-7.348-.283-9.043S149.9,213.093,149.9,213.093Z" transform="translate(-99.331 -160.3)"/>
    <circle id="Ellipse_43" data-name="Ellipse 43" class="cls-8" cx="10.174" cy="10.174" r="10.174" transform="translate(45.063 35.696)"/>
    <path id="Path_349" data-name="Path 349" class="cls-7" d="M144.254,265.084H152.5c.309-.559.6-1.141.935-1.668v0a4.566,4.566,0,0,1,1.5-1.574,5.921,5.921,0,0,0,1.114-.666,2.873,2.873,0,0,0,.68-1.27,19.683,19.683,0,0,0,.93-5.483c.013-.626,0-1.261.036-1.887a7.936,7.936,0,0,1,.188-1.454,11.447,11.447,0,0,1,1.221-2.764q1.677-3.053,3.363-6.105a4.267,4.267,0,0,0,.228-1.789,4.41,4.41,0,0,0-.725-2.294c-.157-.282-.327-.564-.505-.836a18.575,18.575,0,0,0-2.4-3.059,19.394,19.394,0,0,0-6.825-4.62,3.961,3.961,0,0,1-.917-.447,3.805,3.805,0,0,1-.841-1.006c-.895-1.346-1.986-2.862-3.6-2.777a2.214,2.214,0,0,0-1.709-.116,2.339,2.339,0,0,0-.25.081,15.9,15.9,0,0,0-1.793.935,8.325,8.325,0,0,1-4.83.877,1.635,1.635,0,0,1-.564-.143,2.888,2.888,0,0,1-.519-.42,2.982,2.982,0,0,0-2.965-.474,2.692,2.692,0,0,0-1.181.832c-.3.371-.5.818-.827,1.167-.845.9-2.241.939-3.475.935a32.117,32.117,0,0,0-7.635.7,14.513,14.513,0,0,0-6.011,2.907l0,0c-.242.206-.465.416-.689.64a5.106,5.106,0,0,0-1.19,1.7c-.34.877-.3,1.865-.6,2.755-.34,1-1.1,1.811-1.4,2.813a11.312,11.312,0,0,1-.586,2.29c.018.013.031.027.049.04,1.628,1.431,3.019,3.31,4.651,4.727a9.387,9.387,0,0,1,2.362,2.639,4.359,4.359,0,0,1,.291.716,11,11,0,0,1,.242,2.6c.206,4.182,2.473,7.975,5.009,11.3.049.067.1.134.152.2Z" transform="translate(-83.803 -165.823)"/>
    <path id="Path_350" data-name="Path 350" class="cls-7" d="M112.81,261.008q-.577,4.005-1.163,8.006a34.879,34.879,0,0,1-.8,4.24c-.233.863-.532,1.709-.742,2.572H98.461a11.157,11.157,0,0,1,.112-1.445,23.883,23.883,0,0,1,1.454-5.014q2.033-5.488,4.061-10.985c.577-1.561,1.073-3.193,1.709-4.741.112-.286.233-.572.362-.85.675-1.485,2.549-.877,3.936-.653a3.737,3.737,0,0,1,1.1.313,2.839,2.839,0,0,1,1.033.975c1.315,1.946,1.029,4.517.689,6.843Q112.863,260.639,112.81,261.008Z" transform="translate(-78.894 -176.565)"/>
    <path id="Path_351" data-name="Path 351" class="cls-4" d="M176.076,289.2c.018.063.21.729.528,1.668h-9.71c4.812-.827,9.182-1.673,9.182-1.673Z" transform="translate(-106.443 -191.611)"/>
    <ellipse id="Ellipse_44" data-name="Ellipse 44" class="cls-4" cx="11.022" cy="5.935" rx="11.022" ry="5.935" transform="translate(45.063 34)"/>
    <rect id="Rectangle_91" data-name="Rectangle 91" class="cls-9" width="252.252" height="170.851" transform="translate(161.597 64.655)"/>
    <ellipse id="Ellipse_45" data-name="Ellipse 45" class="cls-6" cx="29.519" cy="3.131" rx="29.519" ry="3.131" transform="translate(347.656 217.616)"/>
    <rect id="Rectangle_92" data-name="Rectangle 92" class="cls-3" width="74.691" height="81.401" transform="translate(177.699 80.309)"/>
    <path id="Path_352" data-name="Path 352" class="cls-4" d="M398.534,305.087a1.1,1.1,0,0,0,1.285-.531c1.033-1.628-.869-3.726-.457-5.61.33-1.509,2.044-2.4,2.4-3.909.341-1.462-.709-3.109,0-4.431a2.943,2.943,0,0,1,3.106-1.127c1.162.182,2.264.692,3.438.764,1.564.1,3.054-.593,4.584-.934s3.394-.208,4.294,1.075c1.155,1.647-.017,3.94.386,5.911.319,1.565,1.63,2.861,1.658,4.458.01.568-1.482.11-1.4.673s-.626.067-.062,0a1.117,1.117,0,0,0,.848-1.009c.067-.468.947-.624.937-1.1-.024-1.108,1.98-.361,2.31-1.419a10.732,10.732,0,0,0-.439-7.487,15,15,0,0,1-1.278-3.045c-.294-1.47.169-3.047-.317-4.465-.654-1.911-2.819-2.885-4.829-3.083s-4.053.156-6.051-.135c-1.79-.261-3.524-1.037-5.33-.925-2.167.135-4.052,1.531-5.555,3.1a46.671,46.671,0,0,1-4.482,4.714,8.792,8.792,0,0,0-1.437,1.237,4.827,4.827,0,0,0-.715,3.915c.242,1.348.768,2.634.99,3.986.209,1.27.144,2.568.234,3.852a6.77,6.77,0,0,0,1.13,3.636,3.431,3.431,0,0,0,2.67,1.4c.362.008.667-.317,1.032-.232C397.931,304.468,398.129,304.9,398.534,305.087Z" transform="translate(-196.784 -187.404)"/>
    <path id="Path_353" data-name="Path 353" class="cls-10" d="M375.913,388.257c.327-4.477.572-7.822.572-7.822l2.111-5.564,6.776,13.386Z" transform="translate(-190.589 -226.1)"/>
    <path id="Path_354" data-name="Path 354" class="cls-6" d="M375.913,388.257c.327-4.477.572-7.822.572-7.822l2.111-5.564,6.776,13.386Z" transform="translate(-190.589 -226.1)"/>
    <path id="Path_355" data-name="Path 355" class="cls-8" d="M402.2,320.959s6.318,16.083,2.68,19.146,20.295-5.169,20.295-5.169l-.574-2.106s-7.85-3.063-4.021-11.871S402.2,320.959,402.2,320.959Z" transform="translate(-201.17 -202.821)"/>
    <path id="Path_356" data-name="Path 356" class="cls-6" d="M402.2,320.959s6.318,16.083,2.68,19.146,20.295-5.169,20.295-5.169l-.574-2.106s-7.85-3.063-4.021-11.871S402.2,320.959,402.2,320.959Z" transform="translate(-201.17 -202.821)"/>
    <circle id="Ellipse_46" data-name="Ellipse 46" class="cls-8" cx="13.402" cy="13.402" r="13.402" transform="translate(196.624 97.843)"/>
    <path id="Path_357" data-name="Path 357" class="cls-10" d="M433.538,352.71s-.054,1.064-.148,2.925c-.192,3.788-.537,10.886-.881,19.075H380.557a25.757,25.757,0,0,1-3.305-5.917,6.385,6.385,0,0,1-.389-1.905c-.286-5.076,4.262-12.161,7.474-12.836,3.636-.769,10.528-8.042,10.528-8.042a1.64,1.64,0,0,0,.877,1.324v0a3.564,3.564,0,0,0,1.8.394c2.245,0,12.121-4.558,15.292-6.047.622-.291.984-.465.984-.465a74.319,74.319,0,0,0,11.3,3.833A12.016,12.016,0,0,1,433.538,352.71Z" transform="translate(-190.966 -212.553)"/>
    <path id="Path_358" data-name="Path 358" class="cls-4" d="M394.688,302.844a1.1,1.1,0,0,0,1.285-.531c1.033-1.628-.869-3.726-.457-5.61.33-1.509,2.044-2.4,2.4-3.909.341-1.462-.709-3.109,0-4.431a2.943,2.943,0,0,1,3.106-1.127c1.162.181,2.264.692,3.438.764,1.564.1,3.054-.593,4.584-.934s3.394-.208,4.294,1.075c1.155,1.647-.017,3.94.386,5.911.319,1.565,3.958,2.664,4.288,1.605a10.732,10.732,0,0,0-.439-7.487,14.994,14.994,0,0,1-1.278-3.045c-.294-1.47.169-3.047-.317-4.465-.654-1.911-2.819-2.885-4.829-3.083s-4.053.156-6.051-.135c-1.79-.261-3.524-1.037-5.33-.925-2.167.135-4.052,1.531-5.555,3.1a46.669,46.669,0,0,1-4.482,4.714,8.789,8.789,0,0,0-1.437,1.237,4.827,4.827,0,0,0-.715,3.915c.242,1.348.768,2.634.99,3.986.209,1.27.144,2.568.234,3.852a6.771,6.771,0,0,0,1.13,3.636,3.431,3.431,0,0,0,2.67,1.4c.362.008.667-.317,1.032-.232C394.085,302.225,394.283,302.658,394.688,302.844Z" transform="translate(-195.236 -186.501)"/>
    <path id="Path_359" data-name="Path 359" class="cls-6" d="M471.219,382.452H456.057c-1.154-8.462-2.107-17.309-2.107-17.309l3.064-1.342,6.226-3.35s.456,1.082,1.19,2.925C466,367.317,468.835,374.733,471.219,382.452Z" transform="translate(-222.005 -220.296)"/>
    <path id="Path_360" data-name="Path 360" class="cls-10" d="M470.169,381.033H453.057c-2.536-9.258-5.036-19.321-5.036-19.321l6.512-4.786,7.657,2.107S466.672,369.7,470.169,381.033Z" transform="translate(-219.618 -218.876)"/>
    <rect id="Rectangle_93" data-name="Rectangle 93" class="cls-11" width="72.008" height="4.92" transform="translate(298.457 80.309)"/>
    <rect id="Rectangle_94" data-name="Rectangle 94" class="cls-11" width="25.494" height="4.92" transform="translate(178.593 174.232)"/>
    <rect id="Rectangle_95" data-name="Rectangle 95" class="cls-11" width="72.903" height="4.92" transform="translate(178.593 183.178)"/>
    <rect id="Rectangle_96" data-name="Rectangle 96" class="cls-3" width="103.763" height="4.92" transform="translate(281.462 98.199)"/>
    <rect id="Rectangle_97" data-name="Rectangle 97" class="cls-3" width="103.763" height="4.92" transform="translate(281.462 112.064)"/>
    <rect id="Rectangle_98" data-name="Rectangle 98" class="cls-3" width="103.763" height="4.92" transform="translate(281.462 125.929)"/>
    <rect id="Rectangle_99" data-name="Rectangle 99" class="cls-3" width="103.763" height="4.92" transform="translate(281.462 139.794)"/>
    <rect id="Rectangle_100" data-name="Rectangle 100" class="cls-3" width="103.763" height="4.92" transform="translate(281.462 153.659)"/>
    <rect id="Rectangle_101" data-name="Rectangle 101" class="cls-3" width="103.763" height="4.92" transform="translate(281.462 167.524)"/>
    <rect id="Rectangle_102" data-name="Rectangle 102" class="cls-3" width="103.763" height="4.92" transform="translate(281.462 181.388)"/>
    <path id="Path_361" data-name="Path 361" class="cls-12" d="M712,429.655l-28.365,28.365L671.712,446.1a4.075,4.075,0,0,0-5.763,0l-.428-.641c-1.592,1.592-1.163,4.813.428,6.4l15.468,15.468a3.109,3.109,0,0,0,4.4,0l31.946-31.912c1.593-1.591,2.17-4.508.578-6.1h0C716.747,427.727,713.59,428.064,712,429.655Z" transform="translate(-306.774 -247.602)"/>
    <path id="Path_362" data-name="Path 362" class="cls-6" d="M712,429.655l-28.365,28.365L671.712,446.1a4.075,4.075,0,0,0-5.763,0l-.428-.641c-1.592,1.592-1.163,4.813.428,6.4l15.468,15.468a3.109,3.109,0,0,0,4.4,0l31.946-31.912c1.593-1.591,2.17-4.508.578-6.1h0C716.747,427.727,713.59,428.064,712,429.655Z" transform="translate(-306.774 -247.602)"/>
    <path id="Path_363" data-name="Path 363" class="cls-12" d="M712.158,427.672l-28.365,28.365-11.922-11.922a4.075,4.075,0,0,0-5.763,0h0a4.075,4.075,0,0,0,0,5.763l15.468,15.468a3.11,3.11,0,0,0,4.4,0l31.946-31.912a4.074,4.074,0,0,0,0-5.763h0a4.074,4.074,0,0,0-5.762,0Z" transform="translate(-306.933 -246.876)"/>
    <path id="Path_364" data-name="Path 364" class="cls-6" d="M960.1,677.233c0,31.982-44.58,22.09-99.163,22.09s-98.5,9.893-98.5-22.09,44.573-38.938,99.157-38.938S960.1,645.251,960.1,677.233Z" transform="translate(-346.192 -332.148)"/>
    <path id="Path_365" data-name="Path 365" class="cls-9" d="M960.1,667.233c0,31.982-44.58,22.09-99.163,22.09s-98.5,9.893-98.5-22.09,44.573-38.938,99.157-38.938S960.1,635.251,960.1,667.233Z" transform="translate(-346.192 -328.122)"/>
    <path id="Path_366" data-name="Path 366" class="cls-13" d="M764.1,525.762l-2.02,2.346s-24.561,2.306-23.564,6.293,29.572-5.316,29.572-5.316Z" transform="translate(-336.552 -286.845)"/>
    <path id="Path_367" data-name="Path 367" class="cls-11" d="M828.573,522.425s-26.249,9.3-40.536,5.316l6.645,13.291s33.891-1,39.872-6.978S828.573,522.425,828.573,522.425Z" transform="translate(-356.499 -285.502)"/>
    <path id="Path_368" data-name="Path 368" class="cls-6" d="M828.573,522.425s-26.249,9.3-40.536,5.316l6.645,13.291s33.891-1,39.872-6.978S828.573,522.425,828.573,522.425Z" transform="translate(-356.499 -285.502)"/>
    <circle id="Ellipse_47" data-name="Ellipse 47" class="cls-13" cx="17.61" cy="17.61" r="17.61" transform="translate(436.688 130.432)"/>
    <path id="Path_369" data-name="Path 369" class="cls-13" d="M832.932,395.9a13.737,13.737,0,0,0,2.281,3.162,28.8,28.8,0,0,0,8.488,6.352,289.259,289.259,0,0,1-30.244,4.5c1.072-3.775-.339-7.813-2.236-11.249s-4.314-6.638-5.5-10.379l11.9.32c2.16.058,4.326.123,6.486.017,1.614-.079,4.3-1.046,5.809-.69C833.1,388.687,831.541,393.079,832.932,395.9Z" transform="translate(-363.618 -231.328)"/>
    <path id="Path_370" data-name="Path 370" class="cls-4" d="M831.3,536.307l9.968,11.961s16.613,38.875-19.6,42.862-63.13-2.99-63.13-2.99-14.62-6.978-14.952-1.661-1.661,20.268-9.636,34.888l-6.978,15.949s-3.655,3.655-2.658,8.639-22.262,6.645-21.929,0c0,0,3.323-5.648,3.323-8.971s5.316-11.3,5.316-11.3l9.636-47.846S720,553.253,742.59,557.9s54.823-1,54.823-1l7.31-25.584Z" transform="translate(-322.017 -289.084)"/>
    <path id="Path_371" data-name="Path 371" class="cls-6" d="M831.3,536.307l9.968,11.961s16.613,38.875-19.6,42.862-63.13-2.99-63.13-2.99-14.62-6.978-14.952-1.661-1.661,20.268-9.636,34.888l-6.978,15.949s-3.655,3.655-2.658,8.639-22.262,6.645-21.929,0c0,0,3.323-5.648,3.323-8.971s5.316-11.3,5.316-11.3l9.636-47.846S720,553.253,742.59,557.9s54.823-1,54.823-1l7.31-25.584Z" transform="translate(-322.017 -289.084)"/>
    <path id="Path_372" data-name="Path 372" class="cls-4" d="M773.249,536.391s30.4-11.419,47.348,12.837c0,0,4.319,37.546-12.958,39.207s-39.872,1.329-45.188-4.319-38.875-21.6-38.875-21.6-16.7-8.521-19.982,2.551-3.609,13.73-3.609,13.73-17.278,12.626-24.255,14.952c0,0-4.652,6.645-7.31,6.645s-18.939,3.655-17.278-8.639l26.913-24.588,26.913-26.249s7.642-11.3,27.246-5.316a405.318,405.318,0,0,0,39.539,9.636Z" transform="translate(-301.341 -290.043)"/>
    <path id="Path_373" data-name="Path 373" class="cls-14" d="M705.5,721.427s6.313,15.949,1,17.942-16.613.665-16.613.665-13.291-1.661-16.613-1.329-16.945-2.326-14.952-7.642,12.294-3.987,12.294-3.987l9.3-4.32s1-3.323,3.323-1.994S692.209,727.075,705.5,721.427Z" transform="translate(-304.198 -365.221)"/>
    <path id="Path_374" data-name="Path 374" class="cls-14" d="M653.6,638.185s6.978,15.616-4.319,14.287-19.936-3.655-23.258-3.987c-3.2-.32-12.233-3.406-10.847-9.555a5.469,5.469,0,0,0,.09-1.207c0-.825,1.121-2.445,10.093-2.2,0,0,6.645,0,9.3-4.652C634.658,630.876,644.625,643.5,653.6,638.185Z" transform="translate(-286.85 -329.161)"/>
    <path id="Path_375" data-name="Path 375" class="cls-15" d="M805.834,416.17s23.923-14.952,43.859,0,33.226,83.066,33.226,83.066l-46.185-10.3s-1.994-7.974-4.652-9.3-2.99-6.978-2.99-6.978-14.287-4.319-13.291-20.933S805.834,416.17,805.834,416.17Z" transform="translate(-363.663 -240.051)"/>
    <path id="Path_376" data-name="Path 376" class="cls-16" d="M806.531,421.76H794.238s-7.31,8.307-8.307,29.239l-3.987,16.613s-8.307,19.936-3.323,23.258,14.62,2.99,16.613-3.655,15.616-45.188,15.616-45.188Z" transform="translate(-352.067 -244.977)"/>
    <path id="Path_377" data-name="Path 377" class="cls-4" d="M798.535,334.394a17.8,17.8,0,0,1,18.414,3.019c6.381,5.695,7.668,14.984,9.282,23.384s4.858,17.753,12.774,20.991a33.282,33.282,0,0,1-10.724-.312l11.963,10.72-20.151-6.568c-6.324-2.061-12.967-4.149-19.516-2.985-10.85,1.929-18.4,12.128-28.824,15.712l1.158-5.651-6.991-.054a13.694,13.694,0,0,0,4.006-4.693,3.877,3.877,0,0,0-2.674-1.4c-2.914-18.179,7.88-36.149,21.948-48.025,2.767-2.336,5.829-4.58,9.4-5.164s7.746,1.014,8.989,4.415" transform="translate(-347.594 -209.27)"/>
    <path id="Path_378" data-name="Path 378" class="cls-9" d="M310.2,614.159c0,38.245,23.993,69.192,53.643,69.192" transform="translate(-164.133 -322.432)"/>
    <path id="Path_379" data-name="Path 379" class="cls-11" d="M399.987,682.828c0-38.675,26.775-69.969,59.863-69.969" transform="translate(-200.28 -321.908)"/>
    <path id="Path_380" data-name="Path 380" class="cls-11" d="M342.729,619.963c0,36.329,15.3,65.725,34.207,65.725" transform="translate(-177.23 -324.768)"/>
    <path id="Path_381" data-name="Path 381" class="cls-9" d="M399.987,669.731c0-49.418,30.947-89.405,69.192-89.405" transform="translate(-200.28 -308.811)"/>
    <path id="Path_382" data-name="Path 382" class="cls-17" d="M381.1,728.023s7.607-.234,9.9-1.867,11.7-3.582,12.271-.964,11.433,13.022,2.844,13.092-19.957-1.338-22.245-2.732S381.1,728.023,381.1,728.023Z" transform="translate(-192.676 -366.615)"/>
    <path id="Path_383" data-name="Path 383" class="cls-18" d="M406.265,740.136c-8.589.069-19.957-1.338-22.245-2.732-1.743-1.062-2.437-4.87-2.669-6.628l-.254.01s.482,6.135,2.77,7.529,13.656,2.8,22.245,2.732c2.479-.02,3.336-.9,3.289-2.208C409.057,739.628,408.111,740.121,406.265,740.136Z" transform="translate(-192.676 -369.379)"/>
  </g>
</svg>
