<svg xmlns="http://www.w3.org/2000/svg" width="609.11" height="493.809" viewBox="0 0 609.11 493.809">
  <defs>
    <style>
      .cls-1 {
        fill: #ccc;
      }

      .cls-2 {
        fill: #e6e6e6;
      }

      .cls-3 {
        fill: #fff;
      }

      .cls-11, .cls-4 {
        fill: #3f3d56;
      }

      .cls-5 {
        fill: #2f2e41;
      }

      .cls-6 {
        fill: #2872a4;
      }

      .cls-7 {
        opacity: 0.2;
      }

      .cls-8 {
        fill: #f2f2f2;
      }

      .cls-9 {
        fill: none;
      }

      .cls-11, .cls-9 {
        stroke: #3f3d56;
        stroke-miterlimit: 10;
        stroke-width: 2px;
      }

      .cls-10 {
        fill: #ff6584;
      }
    </style>
  </defs>
  <g id="laptopworking" transform="translate(-53 -1495)">
    <g id="undraw_content_team_3epn" transform="translate(55.679 1495)">
      <path id="Path_1445" data-name="Path 1445" class="cls-1" d="M761.478,711.168H248.218a17.21,17.21,0,0,1-17.21-17.21h0q279.085-32.435,547.679,0h0A17.21,17.21,0,0,1,761.478,711.168Z" transform="translate(-183.229 -329.514)"/>
      <path id="Path_1446" data-name="Path 1446" class="cls-2" d="M778.685,539.349l-547.677-1.013,63.474-106.8.3-.506V195.648a21.754,21.754,0,0,1,21.757-21.755H690.117a21.754,21.754,0,0,1,21.755,21.757v237Z" transform="translate(-183.229 -173.893)"/>
      <path id="Path_1447" data-name="Path 1447" class="cls-3" d="M350.881,195.864a7.094,7.094,0,0,0-7.086,7.086V417.568a7.1,7.1,0,0,0,7.086,7.086H728.486a7.1,7.1,0,0,0,7.086-7.086V202.95a7.1,7.1,0,0,0-7.086-7.086Z" transform="translate(-218.065 -180.679)"/>
      <path id="Path_1448" data-name="Path 1448" class="cls-1" d="M347.541,567.913a3.045,3.045,0,0,0-2.759,1.768L325.223,612.2a3.037,3.037,0,0,0,2.759,4.307h411.3a3.037,3.037,0,0,0,2.716-4.4L720.74,569.592a3.022,3.022,0,0,0-2.716-1.679Z" transform="translate(-212.243 -295.592)"/>
      <circle id="Ellipse_358" data-name="Ellipse 358" class="cls-3" cx="4.556" cy="4.556" r="4.556" transform="translate(315.544 2.531)"/>
      <path id="Path_1449" data-name="Path 1449" class="cls-1" d="M562.984,649.94a3.041,3.041,0,0,0-2.932,2.247l-4.906,18.222a3.037,3.037,0,0,0,2.932,3.827h93.3a3.036,3.036,0,0,0,2.869-4.031l-6.307-18.222a3.039,3.039,0,0,0-2.87-2.044Z" transform="translate(-283.312 -320.927)"/>
      <path id="Path_1450" data-name="Path 1450" class="cls-1" d="M579.56,366.922v4.05H162.169l.314-.507v-3.543Z" transform="translate(-50.916 -113.33)"/>
      <path id="Path_1451" data-name="Path 1451" class="cls-1" d="M851.363,554.237a.741.741,0,0,0-.714.547l-1.195,4.437a.74.74,0,0,0,.714.932h22.72a.739.739,0,0,0,.7-.982l-1.536-4.437a.74.74,0,0,0-.7-.5Z" transform="translate(-374.238 -291.368)"/>
      <path id="Path_1452" data-name="Path 1452" class="cls-1" d="M803.363,554.237a.741.741,0,0,0-.714.547l-1.195,4.437a.74.74,0,0,0,.714.932h22.72a.739.739,0,0,0,.7-.982l-1.536-4.437a.74.74,0,0,0-.7-.5Z" transform="translate(-359.413 -291.368)"/>
      <path id="Path_1453" data-name="Path 1453" class="cls-4" d="M643.409,488.662h1.781l-3.561-238.018h-1.781l.071,4.749H600.008l.071-4.749H598.3l-3.561,238.018h1.781l.231-15.433h46.43Zm-2.567-171.539H599.085l.435-29.085h40.888Zm.027,1.781.435,29.085H598.623l.435-29.085Zm.462,30.865.435,29.085H598.161l.435-29.085Zm.462,30.865.435,29.085H597.7l.435-29.085Zm.462,30.865.435,29.085H597.238l.435-29.085Zm-2.309-154.326.435,29.085H599.547l.435-29.085Zm-43.17,214.276.435-29.085h45.506l.435,29.085Z" transform="translate(-295.573 -197.599)"/>
      <circle id="Ellipse_359" data-name="Ellipse 359" class="cls-5" cx="29.036" cy="29.036" r="29.036" transform="translate(286.534 76.955)"/>
      <rect id="Rectangle_555" data-name="Rectangle 555" class="cls-5" width="8.821" height="15.805" transform="translate(323.97 127.631) rotate(-10.261)"/>
      <rect id="Rectangle_556" data-name="Rectangle 556" class="cls-5" width="8.821" height="15.805" transform="translate(306.61 130.773) rotate(-10.261)"/>
      <ellipse id="Ellipse_360" data-name="Ellipse 360" class="cls-5" cx="7.351" cy="2.757" rx="7.351" ry="2.757" transform="matrix(0.763, -0.646, 0.646, 0.763, 304.86, 150.14)"/>
      <ellipse id="Ellipse_361" data-name="Ellipse 361" class="cls-5" cx="7.351" cy="2.757" rx="7.351" ry="2.757" transform="matrix(0.763, -0.646, 0.646, 0.763, 321.859, 147.063)"/>
      <circle id="Ellipse_362" data-name="Ellipse 362" class="cls-3" cx="9.924" cy="9.924" r="9.924" transform="translate(303.613 88.964)"/>
      <circle id="Ellipse_363" data-name="Ellipse 363" class="cls-4" cx="3.308" cy="3.308" r="3.308" transform="translate(306.151 92.023)"/>
      <path id="Path_1454" data-name="Path 1454" class="cls-6" d="M632.407,272.448c.437-10.75-8.828-19.855-20.693-20.337s-21.838,7.842-22.274,18.591,7.811,13.192,19.676,13.674S631.97,283.2,632.407,272.448Z" transform="translate(-293.931 -198.046)"/>
      <ellipse id="Ellipse_364" data-name="Ellipse 364" class="cls-5" cx="4.558" cy="14.518" rx="4.558" ry="14.518" transform="matrix(0.223, -0.975, 0.975, 0.223, 273.588, 101.899)"/>
      <ellipse id="Ellipse_365" data-name="Ellipse 365" class="cls-5" cx="4.558" cy="14.518" rx="4.558" ry="14.518" transform="matrix(0.223, -0.975, 0.975, 0.223, 330.585, 111.379)"/>
      <path id="Path_1455" data-name="Path 1455" class="cls-3" d="M624.152,342.265a6.616,6.616,0,1,1-13.018,2.37l0-.013c-.651-3.6,2.129-4.868,5.724-5.519S623.5,338.67,624.152,342.265Z" transform="translate(-300.607 -224.832)"/>
      <ellipse id="Ellipse_366" data-name="Ellipse 366" class="cls-5" cx="14.883" cy="4.672" rx="14.883" ry="4.672" transform="matrix(0.357, -0.934, 0.934, 0.357, 203.183, 215.175)"/>
      <circle id="Ellipse_367" data-name="Ellipse 367" class="cls-5" cx="29.765" cy="29.765" r="29.765" transform="translate(151.201 250.029) rotate(-80.783)"/>
      <rect id="Rectangle_557" data-name="Rectangle 557" class="cls-5" width="9.043" height="16.201" transform="translate(171.785 248.777)"/>
      <rect id="Rectangle_558" data-name="Rectangle 558" class="cls-5" width="9.043" height="16.201" transform="translate(189.871 248.777)"/>
      <ellipse id="Ellipse_368" data-name="Ellipse 368" class="cls-5" cx="7.536" cy="2.826" rx="7.536" ry="2.826" transform="translate(171.785 262.342)"/>
      <ellipse id="Ellipse_369" data-name="Ellipse 369" class="cls-5" cx="7.536" cy="2.826" rx="7.536" ry="2.826" transform="translate(189.871 261.965)"/>
      <path id="Path_1456" data-name="Path 1456" class="cls-6" d="M388.085,448.878c-2.4-10.764,5.279-21.64,17.16-24.293s23.46,3.922,25.863,14.686-5.47,14.733-17.351,17.386S390.488,459.642,388.085,448.878Z" transform="translate(-231.609 -251.142)"/>
      <ellipse id="Ellipse_370" data-name="Ellipse 370" class="cls-5" cx="4.672" cy="14.883" rx="4.672" ry="14.883" transform="translate(136.376 209.45) rotate(-64.626)"/>
      <circle id="Ellipse_371" data-name="Ellipse 371" class="cls-5" cx="29.765" cy="29.765" r="29.765" transform="translate(26.703 225.79)"/>
      <rect id="Rectangle_559" data-name="Rectangle 559" class="cls-5" width="9.043" height="16.201" transform="translate(42.904 278.916)"/>
      <rect id="Rectangle_560" data-name="Rectangle 560" class="cls-5" width="9.043" height="16.201" transform="translate(60.989 278.916)"/>
      <ellipse id="Ellipse_372" data-name="Ellipse 372" class="cls-5" cx="7.536" cy="2.826" rx="7.536" ry="2.826" transform="translate(42.904 292.48)"/>
      <ellipse id="Ellipse_373" data-name="Ellipse 373" class="cls-5" cx="7.536" cy="2.826" rx="7.536" ry="2.826" transform="translate(60.99 292.103)"/>
      <circle id="Ellipse_374" data-name="Ellipse 374" class="cls-3" cx="10.173" cy="10.173" r="10.173" transform="translate(47.049 237.847)"/>
      <circle id="Ellipse_375" data-name="Ellipse 375" class="cls-4" cx="3.391" cy="3.391" r="3.391" transform="translate(53.831 244.629)"/>
      <path id="Path_1457" data-name="Path 1457" class="cls-2" d="M201.607,492.485c-2.4-10.764,5.279-21.64,17.16-24.293s23.46,3.922,25.863,14.686-5.47,14.733-17.351,17.386S204.01,503.249,201.607,492.485Z" transform="translate(-174.012 -264.61)"/>
      <ellipse id="Ellipse_376" data-name="Ellipse 376" class="cls-5" cx="14.883" cy="4.672" rx="14.883" ry="4.672" transform="matrix(0.357, -0.934, 0.934, 0.357, 64.129, 159.785)"/>
      <circle id="Ellipse_377" data-name="Ellipse 377" class="cls-5" cx="29.765" cy="29.765" r="29.765" transform="translate(12.146 194.64) rotate(-80.783)"/>
      <rect id="Rectangle_561" data-name="Rectangle 561" class="cls-5" width="9.043" height="16.201" transform="translate(32.731 193.388)"/>
      <rect id="Rectangle_562" data-name="Rectangle 562" class="cls-5" width="9.043" height="16.201" transform="translate(50.816 193.388)"/>
      <ellipse id="Ellipse_378" data-name="Ellipse 378" class="cls-5" cx="7.536" cy="2.826" rx="7.536" ry="2.826" transform="translate(32.731 206.952)"/>
      <ellipse id="Ellipse_379" data-name="Ellipse 379" class="cls-5" cx="7.536" cy="2.826" rx="7.536" ry="2.826" transform="translate(50.817 206.575)"/>
      <circle id="Ellipse_380" data-name="Ellipse 380" class="cls-3" cx="10.173" cy="10.173" r="10.173" transform="translate(36.876 152.32)"/>
      <circle id="Ellipse_381" data-name="Ellipse 381" class="cls-4" cx="3.391" cy="3.391" r="3.391" transform="translate(43.658 159.101)"/>
      <path id="Path_1458" data-name="Path 1458" class="cls-6" d="M186.888,368.735c-2.4-10.764,5.279-21.64,17.16-24.293s23.46,3.922,25.863,14.686-5.47,14.733-17.351,17.386S189.291,379.5,186.888,368.735Z" transform="translate(-169.466 -226.388)"/>
      <ellipse id="Ellipse_382" data-name="Ellipse 382" class="cls-5" cx="4.672" cy="14.883" rx="4.672" ry="14.883" transform="translate(-2.679 154.06) rotate(-64.626)"/>
      <path id="Path_1459" data-name="Path 1459" class="cls-3" d="M207.707,433.828c0,2.913,7.5,8.666,15.825,8.666s16.128-8.2,16.128-11.115-7.8.565-16.128.565S207.707,430.915,207.707,433.828Z" transform="translate(-176.032 -253.062)"/>
      <path id="Path_1460" data-name="Path 1460" class="cls-6" d="M270.277,255.461a2.076,2.076,0,0,0-2.073,2.073v85.7a2.076,2.076,0,0,0,2.073,2.073H468.633a2.076,2.076,0,0,0,2.073-2.073v-85.7a2.076,2.076,0,0,0-2.073-2.073Z" transform="translate(-194.718 -199.086)"/>
      <circle id="Ellipse_383" data-name="Ellipse 383" class="cls-3" cx="20.127" cy="20.127" r="20.127" transform="translate(108.992 81.172)"/>
      <path id="Path_40" data-name="Path 40" class="cls-3" d="M413.371,316.587a2.353,2.353,0,1,0,0,4.707h63.547a2.354,2.354,0,0,0,.077-4.706H413.371Z" transform="translate(-238.828 -217.966)"/>
      <path id="Path_40-2" data-name="Path 40" class="cls-3" d="M413.371,296.86a2.353,2.353,0,1,0,0,4.707h31.734a2.354,2.354,0,1,0,.077-4.706H413.371Z" transform="translate(-238.828 -211.873)"/>
      <path id="Path_40-3" data-name="Path 40" class="cls-3" d="M413.371,337.253a2.353,2.353,0,1,0,0,4.707h63.547a2.353,2.353,0,0,0,.077-4.706H413.371Z" transform="translate(-238.828 -224.349)"/>
      <ellipse id="Ellipse_384" data-name="Ellipse 384" class="cls-5" cx="4.672" cy="14.883" rx="4.672" ry="14.883" transform="matrix(0.934, -0.357, 0.357, 0.934, 468.174, 245.288)"/>
      <circle id="Ellipse_385" data-name="Ellipse 385" class="cls-5" cx="29.765" cy="29.765" r="29.765" transform="translate(464.998 261.61) rotate(-9.217)"/>
      <path id="Path_1461" data-name="Path 1461" class="cls-5" d="M738.994,447.932h-9.042l1.769,19.4,7.289-1.98Z" transform="translate(-226.285 -138.351)"/>
      <path id="Path_1462" data-name="Path 1462" class="cls-5" d="M710.471,448h-9.043l1.769,19.4,6.96-2.031Z" transform="translate(-217.475 -138.373)"/>
      <ellipse id="Ellipse_386" data-name="Ellipse 386" class="cls-5" cx="7.536" cy="2.826" rx="7.536" ry="2.826" transform="translate(477.54 324.858) rotate(-4.182)"/>
      <circle id="Ellipse_387" data-name="Ellipse 387" class="cls-3" cx="10.173" cy="10.173" r="10.173" transform="translate(488.22 268.512)"/>
      <circle id="Ellipse_388" data-name="Ellipse 388" class="cls-4" cx="3.391" cy="3.391" r="3.391" transform="translate(495.002 275.294)"/>
      <ellipse id="Ellipse_389" data-name="Ellipse 389" class="cls-5" cx="14.883" cy="4.672" rx="14.883" ry="4.672" transform="translate(517.994 274.695) rotate(-53.55)"/>
      <path id="Path_1463" data-name="Path 1463" class="cls-3" d="M863.077,607.039c0-2.4,6.182-7.142,13.042-7.142s13.292,6.76,13.292,9.161-6.432-.466-13.292-.466S863.077,609.44,863.077,607.039Z" transform="translate(-378.454 -305.471)"/>
      <path id="Path_1464" data-name="Path 1464" class="cls-6" d="M930.18,478.99,767.246,456.4a4.844,4.844,0,0,1-4.128-5.456l18.316-132.126a4.844,4.844,0,0,1,5.456-4.128L949.823,337.28a4.844,4.844,0,0,1,4.128,5.456L935.633,474.862a4.843,4.843,0,0,1-5.453,4.128Z" transform="translate(-347.566 -217.367)"/>
      <path id="Path_1465" data-name="Path 1465" class="cls-3" d="M883.091,459.084l-83.181-11.531a1.7,1.7,0,0,1-.307-.068l48.788-62.69a2.781,2.781,0,0,1,4.795.665l20.063,49.39.962,2.364Z" transform="translate(-358.849 -238.696)"/>
      <path id="Path_1466" data-name="Path 1466" class="cls-7" d="M747.03,308.049l-28.4-3.937,16.749-18.318,1.206-1.319.6-.66.961,2.364Z" transform="translate(-222.788 -87.661)"/>
      <path id="Path_1467" data-name="Path 1467" class="cls-3" d="M955.263,477.7l-71.945-9.974,16.749-18.318,1.206-1.32L923.1,424.221a3.711,3.711,0,0,1,5.5.43,3.322,3.322,0,0,1,.216.362Z" transform="translate(-384.705 -250.895)"/>
      <circle id="Ellipse_390" data-name="Ellipse 390" class="cls-3" cx="12.44" cy="12.44" r="12.44" transform="translate(512.814 142.501)"/>
      <rect id="Rectangle_563" data-name="Rectangle 563" class="cls-4" width="15.205" height="15.205" transform="translate(442.104 107.483) rotate(7.893)"/>
      <path id="Path_1468" data-name="Path 1468" class="cls-8" d="M906.446,536.854c2.4-10.764-5.279-21.64-17.16-24.293s-23.46,3.922-25.863,14.686,5.47,14.733,17.351,17.386S904.043,547.618,906.446,536.854Z" transform="translate(-378.427 -278.314)"/>
      <ellipse id="Ellipse_391" data-name="Ellipse 391" class="cls-5" cx="7.536" cy="2.826" rx="7.536" ry="2.826" transform="translate(497.37 324.811) rotate(-4.182)"/>
    </g>
    <g id="undraw_good_team_m7uu_1_" data-name="undraw_good_team_m7uu (1)" transform="translate(389 1788)">
      <line id="Line_6" data-name="Line 6" class="cls-9" x2="34.732" transform="translate(94.055 61.572)"/>
      <ellipse id="Ellipse_392" data-name="Ellipse 392" class="cls-5" cx="9.527" cy="2.991" rx="9.527" ry="2.991" transform="matrix(0.357, -0.934, 0.934, 0.357, 43.689, 106.668)"/>
      <path id="Path_1469" data-name="Path 1469" class="cls-8" d="M846.908,335.007c3.779,28.12-1.367,56.272-27.537,67.233A51.375,51.375,0,0,1,752.138,374.7c-10.962-26.17,14.9-41.829,27.537-67.233C805.332,255.881,835.174,247.68,846.908,335.007Z" transform="translate(-578.862 -212.168)"/>
      <ellipse id="Ellipse_393" data-name="Ellipse 393" class="cls-4" cx="41.003" cy="5.578" rx="41.003" ry="5.578" transform="translate(179.93 186.034)"/>
      <rect id="Rectangle_564" data-name="Rectangle 564" class="cls-5" width="5.789" height="10.371" transform="translate(195.65 182.995) rotate(-105.453)"/>
      <ellipse id="Ellipse_394" data-name="Ellipse 394" class="cls-5" cx="1.809" cy="4.824" rx="1.809" ry="4.824" transform="translate(190.485 175.164) rotate(-15.453)"/>
      <ellipse id="Ellipse_395" data-name="Ellipse 395" class="cls-5" cx="9.527" cy="2.991" rx="9.527" ry="2.991" transform="translate(218.454 166.863) rotate(-82.281)"/>
      <circle id="Ellipse_396" data-name="Ellipse 396" class="cls-5" cx="19.054" cy="19.054" r="19.054" transform="translate(201.779 156.607)"/>
      <rect id="Rectangle_565" data-name="Rectangle 565" class="cls-5" width="5.789" height="10.371" transform="translate(195.65 179.618) rotate(-105.453)"/>
      <ellipse id="Ellipse_397" data-name="Ellipse 397" class="cls-5" cx="1.809" cy="4.824" rx="1.809" ry="4.824" transform="translate(190.485 171.787) rotate(-15.453)"/>
      <circle id="Ellipse_398" data-name="Ellipse 398" class="cls-3" cx="6.512" cy="6.512" r="6.512" transform="translate(219.324 158.233)"/>
      <circle id="Ellipse_399" data-name="Ellipse 399" class="cls-4" cx="2.171" cy="2.171" r="2.171" transform="translate(225.748 159.698)"/>
      <path id="Path_1470" data-name="Path 1470" class="cls-6" d="M1019.768,727.59c7.051-.353,12.451-6.948,12.062-14.731s-6.421-13.806-13.473-13.453-8.158,5.888-7.768,13.671S1012.716,727.943,1019.768,727.59Z" transform="translate(-776.931 -538.835)"/>
      <path id="Path_1471" data-name="Path 1471" class="cls-3" d="M910.58,701.321a4.342,4.342,0,0,1-.7-8.655c2.39-.193,3.042,1.7,3.235,4.094S912.97,701.128,910.58,701.321Z" transform="translate(-697.534 -533.722)"/>
      <path id="Path_1472" data-name="Path 1472" class="cls-9" d="M49.464,325.256H156.19l16.547,8.061L199.1,346.162l17.238-32.275h48.779" transform="translate(-37.534 -238.18)"/>
      <circle id="Ellipse_400" data-name="Ellipse 400" class="cls-6" cx="3.301" cy="3.301" r="3.301" transform="translate(50.44 87.153)"/>
      <circle id="Ellipse_401" data-name="Ellipse 401" class="cls-6" cx="3.301" cy="3.301" r="3.301" transform="translate(81.247 83.776)"/>
      <circle id="Ellipse_402" data-name="Ellipse 402" class="cls-6" cx="3.301" cy="3.301" r="3.301" transform="translate(131.86 91.845)"/>
      <circle id="Ellipse_403" data-name="Ellipse 403" class="cls-6" cx="3.301" cy="3.301" r="3.301" transform="translate(203.011 72.407)"/>
      <circle id="Ellipse_404" data-name="Ellipse 404" class="cls-6" cx="3.301" cy="3.301" r="3.301" transform="translate(168.536 85.243)"/>
      <circle id="Ellipse_405" data-name="Ellipse 405" class="cls-9" cx="3.559" cy="3.559" r="3.559" transform="translate(99.569 136.681)"/>
      <ellipse id="Ellipse_406" data-name="Ellipse 406" class="cls-4" cx="41.003" cy="5.578" rx="41.003" ry="5.578" transform="translate(0 189.652)"/>
      <circle id="Ellipse_407" data-name="Ellipse 407" class="cls-5" cx="19.054" cy="19.054" r="19.054" transform="translate(19.731 148.921)"/>
      <rect id="Rectangle_566" data-name="Rectangle 566" class="cls-5" width="5.789" height="10.371" transform="translate(30.102 182.93)"/>
      <rect id="Rectangle_567" data-name="Rectangle 567" class="cls-5" width="5.789" height="10.371" transform="translate(41.679 182.93)"/>
      <ellipse id="Ellipse_408" data-name="Ellipse 408" class="cls-5" cx="4.824" cy="1.809" rx="4.824" ry="1.809" transform="translate(30.102 191.613)"/>
      <ellipse id="Ellipse_409" data-name="Ellipse 409" class="cls-5" cx="4.824" cy="1.809" rx="4.824" ry="1.809" transform="translate(41.679 191.371)"/>
      <circle id="Ellipse_410" data-name="Ellipse 410" class="cls-3" cx="6.512" cy="6.512" r="6.512" transform="translate(32.755 156.64)"/>
      <circle id="Ellipse_411" data-name="Ellipse 411" class="cls-4" cx="2.171" cy="2.171" r="2.171" transform="translate(37.097 160.981)"/>
      <path id="Path_1473" data-name="Path 1473" class="cls-6" d="M125.329,606.579c-1.539-6.89,3.38-13.853,10.985-15.551s15.018,2.511,16.556,9.4-3.5,9.432-11.107,11.13S126.867,613.469,125.329,606.579Z" transform="translate(-105.027 -456.323)"/>
      <circle id="Ellipse_412" data-name="Ellipse 412" class="cls-5" cx="19.054" cy="19.054" r="19.054" transform="translate(13.219 94.171)"/>
      <rect id="Rectangle_568" data-name="Rectangle 568" class="cls-5" width="5.789" height="10.371" transform="translate(23.59 128.179)"/>
      <rect id="Rectangle_569" data-name="Rectangle 569" class="cls-5" width="5.789" height="10.371" transform="translate(35.167 128.179)"/>
      <ellipse id="Ellipse_413" data-name="Ellipse 413" class="cls-5" cx="4.824" cy="1.809" rx="4.824" ry="1.809" transform="translate(23.59 136.862)"/>
      <ellipse id="Ellipse_414" data-name="Ellipse 414" class="cls-5" cx="4.824" cy="1.809" rx="4.824" ry="1.809" transform="translate(35.167 136.621)"/>
      <circle id="Ellipse_415" data-name="Ellipse 415" class="cls-3" cx="6.512" cy="6.512" r="6.512" transform="translate(26.243 101.889)"/>
      <circle id="Ellipse_416" data-name="Ellipse 416" class="cls-4" cx="2.171" cy="2.171" r="2.171" transform="translate(30.585 106.23)"/>
      <path id="Path_1474" data-name="Path 1474" class="cls-6" d="M98.329,379.579c-1.539-6.89,3.38-13.853,10.985-15.551s15.018,2.511,16.556,9.4-3.5,9.432-11.107,11.13S99.867,386.469,98.329,379.579Z" transform="translate(-84.539 -284.074)"/>
      <ellipse id="Ellipse_417" data-name="Ellipse 417" class="cls-5" cx="2.991" cy="9.527" rx="2.991" ry="9.527" transform="translate(0.922 103.003) rotate(-64.626)"/>
      <path id="Path_1475" data-name="Path 1475" class="cls-3" d="M137.043,524.381c0,1.865,4.8,5.547,10.13,5.547s10.324-5.25,10.324-7.115-5,.362-10.324.362S137.043,522.516,137.043,524.381Z" transform="translate(-114.13 -404.282)"/>
      <rect id="Rectangle_570" data-name="Rectangle 570" class="cls-6" width="30.421" height="15.475" transform="translate(201.511 136.204)"/>
      <rect id="Rectangle_571" data-name="Rectangle 571" class="cls-9" width="30.421" height="15.475" transform="translate(199.13 138.717)"/>
      <rect id="Rectangle_572" data-name="Rectangle 572" class="cls-10" width="8.683" height="8.683" transform="translate(54.655 47.997)"/>
      <rect id="Rectangle_573" data-name="Rectangle 573" class="cls-9" width="8.683" height="8.683" transform="translate(52.484 45.103)"/>
      <circle id="Ellipse_418" data-name="Ellipse 418" class="cls-5" cx="19.054" cy="19.054" r="19.054" transform="translate(199.479 26.645)"/>
      <rect id="Rectangle_574" data-name="Rectangle 574" class="cls-5" width="5.789" height="10.371" transform="translate(231.588 69.071) rotate(169.739)"/>
      <rect id="Rectangle_575" data-name="Rectangle 575" class="cls-5" width="5.789" height="10.371" transform="translate(220.196 71.134) rotate(169.739)"/>
      <ellipse id="Ellipse_419" data-name="Ellipse 419" class="cls-5" cx="4.824" cy="1.809" rx="4.824" ry="1.809" transform="matrix(0.763, -0.646, 0.646, 0.763, 211.506, 74.671)"/>
      <ellipse id="Ellipse_420" data-name="Ellipse 420" class="cls-5" cx="4.824" cy="1.809" rx="4.824" ry="1.809" transform="matrix(0.763, -0.646, 0.646, 0.763, 222.661, 72.651)"/>
      <circle id="Ellipse_421" data-name="Ellipse 421" class="cls-3" cx="6.512" cy="6.512" r="6.512" transform="translate(210.687 34.526)"/>
      <circle id="Ellipse_422" data-name="Ellipse 422" class="cls-4" cx="2.171" cy="2.171" r="2.171" transform="translate(212.352 36.533)"/>
      <path id="Path_1476" data-name="Path 1476" class="cls-6" d="M921.679,95.219c.286-7.054-5.793-13.029-13.579-13.345s-14.331,5.146-14.617,12.2,5.126,8.657,12.912,8.973S921.391,102.273,921.679,95.219Z" transform="translate(-688.113 -70.249)"/>
      <ellipse id="Ellipse_423" data-name="Ellipse 423" class="cls-5" cx="2.991" cy="9.527" rx="2.991" ry="9.527" transform="matrix(0.223, -0.975, 0.975, 0.223, 190.985, 43.014)"/>
      <ellipse id="Ellipse_424" data-name="Ellipse 424" class="cls-5" cx="2.991" cy="9.527" rx="2.991" ry="9.527" transform="matrix(0.223, -0.975, 0.975, 0.223, 228.387, 49.235)"/>
      <path id="Path_1477" data-name="Path 1477" class="cls-3" d="M942.717,247.2a4.341,4.341,0,1,1-8.544,1.547c-.427-2.359,1.4-3.194,3.756-3.621S942.29,244.84,942.717,247.2Z" transform="translate(-718.95 -193.992)"/>
      <line id="Line_7" data-name="Line 7" class="cls-9" x2="21.949" y2="16.884" transform="translate(171.875 23.878)"/>
      <circle id="Ellipse_425" data-name="Ellipse 425" class="cls-10" cx="16.401" cy="16.401" r="16.401" transform="translate(145.103)"/>
      <ellipse id="Ellipse_426" data-name="Ellipse 426" class="cls-5" cx="9.527" cy="2.991" rx="9.527" ry="2.991" transform="translate(211.302 171.391) rotate(-82.281)"/>
      <circle id="Ellipse_427" data-name="Ellipse 427" class="cls-6" cx="3.301" cy="3.301" r="3.301" transform="translate(13.296 186.283)"/>
      <rect id="Rectangle_576" data-name="Rectangle 576" class="cls-10" width="8.683" height="8.683" transform="translate(61.891 185.719)"/>
      <circle id="Ellipse_428" data-name="Ellipse 428" class="cls-6" cx="3.301" cy="3.301" r="3.301" transform="translate(58.64 188.213)"/>
      <circle id="Ellipse_429" data-name="Ellipse 429" class="cls-6" cx="3.301" cy="3.301" r="3.301" transform="translate(108.12 58.209)"/>
      <circle id="Ellipse_430" data-name="Ellipse 430" class="cls-10" cx="1.576" cy="1.576" r="1.576" transform="translate(173.945 162.255)"/>
      <line id="Line_8" data-name="Line 8" class="cls-11" y1="17.948" transform="translate(183.244 172.046)"/>
      <circle id="Ellipse_431" data-name="Ellipse 431" class="cls-4" cx="2.538" cy="2.538" r="2.538" transform="translate(180.706 169.508)"/>
      <path id="Path_1478" data-name="Path 1478" class="cls-4" d="M777.257,770.98s-.363-7.8-7.8-6.892" transform="translate(-594.013 -587.872)"/>
    </g>
  </g>
</svg>
