<svg xmlns="http://www.w3.org/2000/svg" xmlns:xlink="http://www.w3.org/1999/xlink" width="742.296" height="679.024" viewBox="0 0 742.296 679.024">
  <defs>
    <style>
      .cls-1 {
        fill: url(#linear-gradient);
      }

      .cls-2 {
        fill: #3f3d56;
      }

      .cls-3 {
        fill: #0e4b7a;
      }

      .cls-4 {
        fill: url(#linear-gradient-2);
      }

      .cls-5 {
        fill: #e7effd;
      }

      .cls-6 {
        opacity: 0.3;
      }

      .cls-7 {
        opacity: 0.4;
      }

      .cls-8 {
        fill: url(#linear-gradient-3);
      }

      .cls-9 {
        fill: #65617d;
      }

      .cls-10 {
        opacity: 0.1;
      }

      .cls-11 {
        fill: #fbbebe;
      }

      .cls-12 {
        opacity: 0.2;
      }

      .cls-13 {
        fill: #d4dfec;
      }
    </style>
    <linearGradient id="linear-gradient" x1="0.5" y1="0.5" x2="0.5" y2="1" gradientUnits="objectBoundingBox">
      <stop offset="0" stop-color="#0e4b7a"/>
      <stop offset="0.669" stop-color="#f3f3f3"/>
      <stop offset="1" stop-color="#fff"/>
    </linearGradient>
    <linearGradient id="linear-gradient-2" x1="0.5" y1="1" x2="0.5" gradientUnits="objectBoundingBox">
      <stop offset="0.2" stop-color="gray" stop-opacity="0.4"/>
      <stop offset="0.46" stop-color="gray" stop-opacity="0.502"/>
      <stop offset="1" stop-opacity="0.6"/>
    </linearGradient>
    <linearGradient id="linear-gradient-3" x1="0.5" y1="1" x2="0.5" gradientUnits="objectBoundingBox">
      <stop offset="0" stop-color="gray" stop-opacity="0.251"/>
      <stop offset="0.54" stop-color="gray" stop-opacity="0.122"/>
      <stop offset="1" stop-color="gray" stop-opacity="0.102"/>
    </linearGradient>
  </defs>
  <g id="testworking" transform="translate(-623.704 -88.976)">
    <path id="backgroundimg" class="cls-1" d="M531.986,114.96c81.622,44.835,111,155.541,111,155.541V768H437.664S207.792,602.457,45.5,588.252-141.567,465.369-34.355,357.327c50.068-50.455-45.212-145.675,0-217.927,84.162-114.618,201.382,2.345,344.375,0S450.364,70.126,531.986,114.96Z" transform="translate(723.011)"/>
    <g id="undraw_working_late_pukg_1_" data-name="undraw_working_late_pukg (1)" transform="translate(726.042 196)">
      <path id="Path_1340" data-name="Path 1340" class="cls-2" d="M556.145,604.49c0,20.218-111.294,94.671-250.289,94.671S57.45,619.819,57.45,599.6s109.412,26.333,248.407,26.333S556.145,584.254,556.145,604.49Z" transform="translate(-51.85 -358.161)"/>
      <path id="Path_1341" data-name="Path 1341" class="cls-3" d="M550.786,314.089v.811c-.305,8.4-4.985,16.76-13.524,22.661-9.059,6.252-21.207,9.542-33.679,11.642-1.95.328-3.91.624-5.865.911-1,.137-1.991.273-2.98.4-27.764,3.645-56.112,4.343-84.327,5.012-29.514.729-59.056,1.449-88.6,1.823l-5.86.068c-44.829.483-89.64.077-134.306-2.465-13.862-.784-27.86-1.823-41.6-3.573q-2.939-.36-5.86-.788c-18.227-2.611-35.912-6.616-52.024-13.119a115.946,115.946,0,0,1-11.146-5.149c-10.121-5.372-18.655-12.167-22.879-20.505A28.762,28.762,0,0,1,45.214,296a37.01,37.01,0,0,1,1.016-5.865A52.257,52.257,0,0,1,51.986,276.6c6.58-11.128,16.464-21.1,24.985-31.551,18.191-22.269,30.038-50.407,13.251-73.232-4.816-6.557-11.779-12.3-15.7-19.161a30.858,30.858,0,0,1-3.846-12.039,43.322,43.322,0,0,1-.242-5.865,81.353,81.353,0,0,1,1.709-13.6c2.734-14,7.842-29.09,23.618-37.821,10.768-5.96,24.493-7.81,38.409-7.459q2.93.068,5.86.273c5.336.351,10.64,1,15.762,1.823,31.642,5.053,60.846,15.611,90.328,25.144,22.447,7.254,45.7,14.039,69.819,17.275,1.95.26,3.9.5,5.86.711,5.655.62,11.36,1.03,17.111,1.2,28.621.82,62.013-5.377,81.019-21.471,18.359-15.557,52.79-16.81,77.779-7.519l.374.141q2.821,1.075,5.468,2.315c18.414,8.658,30.749,23.485,32.49,39a33.859,33.859,0,0,1,.155,5.805.237.237,0,0,1,0,.059c-1.194,19.088-16.8,35.119-32.64,51.177-1.959,1.982-3.923,3.964-5.865,5.96a210.011,210.011,0,0,0-14.44,16.067,75.36,75.36,0,0,0-5.432,7.792,50.328,50.328,0,0,0-3.86,7.847,32.635,32.635,0,0,0-2.128,8.795,23,23,0,0,0,2.278,12.577l.041.091c4.229,8.384,13.178,14.326,23.54,19.594,1.909.975,3.873,1.923,5.865,2.862,11.237,5.3,23.344,10.23,32.549,16.778A48.8,48.8,0,0,1,543.017,296a35.256,35.256,0,0,1,2.442,2.811,24.67,24.67,0,0,1,5.322,14.9C550.786,313.843,550.786,313.966,550.786,314.089Z" transform="translate(-45.11 -75.83)"/>
      <path id="Path_1342" data-name="Path 1342" class="cls-4" d="M550.786,314.089v.811c-.305,8.4-4.985,16.76-13.524,22.661-9.059,6.252-21.207,9.542-33.679,11.642-1.95.328-3.91.624-5.865.911-1,.137-1.991.273-2.98.4-27.764,3.645-56.112,4.343-84.327,5.012-29.514.729-59.056,1.449-88.6,1.823l-5.86.068c-44.829.483-89.64.077-134.306-2.465-13.862-.784-27.86-1.823-41.6-3.573q-2.939-.36-5.86-.788c-18.227-2.611-35.912-6.616-52.024-13.119a115.946,115.946,0,0,1-11.146-5.149c-10.121-5.372-18.655-12.167-22.879-20.505A28.762,28.762,0,0,1,45.214,296a37.01,37.01,0,0,1,1.016-5.865A52.257,52.257,0,0,1,51.986,276.6c6.58-11.128,16.464-21.1,24.985-31.551,18.191-22.269,30.038-50.407,13.251-73.232-4.816-6.557-11.779-12.3-15.7-19.161a30.858,30.858,0,0,1-3.846-12.039,43.322,43.322,0,0,1-.242-5.865,81.353,81.353,0,0,1,1.709-13.6c2.734-14,7.842-29.09,23.618-37.821,10.768-5.96,24.493-7.81,38.409-7.459q2.93.068,5.86.273c5.336.351,10.64,1,15.762,1.823,31.642,5.053,60.846,15.611,90.328,25.144,22.447,7.254,45.7,14.039,69.819,17.275,1.95.26,3.9.5,5.86.711,5.655.62,11.36,1.03,17.111,1.2,28.621.82,62.013-5.377,81.019-21.471,18.359-15.557,52.79-16.81,77.779-7.519l.374.141q2.821,1.075,5.468,2.315c18.414,8.658,30.749,23.485,32.49,39a33.859,33.859,0,0,1,.155,5.805.237.237,0,0,1,0,.059c-1.194,19.088-16.8,35.119-32.64,51.177-1.959,1.982-3.923,3.964-5.865,5.96a210.011,210.011,0,0,0-14.44,16.067,75.36,75.36,0,0,0-5.432,7.792,50.328,50.328,0,0,0-3.86,7.847,32.635,32.635,0,0,0-2.128,8.795,23,23,0,0,0,2.278,12.577l.041.091c4.229,8.384,13.178,14.326,23.54,19.594,1.909.975,3.873,1.923,5.865,2.862,11.237,5.3,23.344,10.23,32.549,16.778A48.8,48.8,0,0,1,543.017,296a35.256,35.256,0,0,1,2.442,2.811,24.67,24.67,0,0,1,5.322,14.9C550.786,313.843,550.786,313.966,550.786,314.089Z" transform="translate(-45.11 -75.83)"/>
      <path id="Path_1343" data-name="Path 1343" class="cls-2" d="M1044.265,116.636v96.038c-1.96,1.987-3.923,3.969-5.865,5.965V114.18Z" transform="translate(-585.806 -96.705)"/>
      <path id="Path_1344" data-name="Path 1344" class="cls-2" d="M566.494,210.965a.26.26,0,0,1,0,.059H100.953a43.384,43.384,0,0,1-.242-5.865H566.339a33.846,33.846,0,0,1,.155,5.805Z" transform="translate(-75.39 -146.228)"/>
      <circle id="Ellipse_330" data-name="Ellipse 330" class="cls-5" cx="1.709" cy="1.709" r="1.709" transform="translate(108.231 31.013)"/>
      <circle id="Ellipse_331" data-name="Ellipse 331" class="cls-5" cx="1.709" cy="1.709" r="1.709" transform="translate(53.505 27.591)"/>
      <circle id="Ellipse_332" data-name="Ellipse 332" class="cls-5" cx="0.734" cy="0.734" r="0.734" transform="translate(128.509 31.988)"/>
      <circle id="Ellipse_333" data-name="Ellipse 333" class="cls-5" cx="0.734" cy="0.734" r="0.734" transform="translate(73.536 30.28)"/>
      <circle id="Ellipse_334" data-name="Ellipse 334" class="cls-5" cx="0.734" cy="0.734" r="0.734" transform="translate(72.807 81.52)"/>
      <circle id="Ellipse_335" data-name="Ellipse 335" class="cls-5" cx="0.734" cy="0.734" r="0.734" transform="translate(411.178 42.797)"/>
      <circle id="Ellipse_336" data-name="Ellipse 336" class="cls-5" cx="0.734" cy="0.734" r="0.734" transform="translate(162.712 43.471)"/>
      <circle id="Ellipse_337" data-name="Ellipse 337" class="cls-5" cx="0.734" cy="0.734" r="0.734" transform="translate(375.02 42.004)"/>
      <circle id="Ellipse_338" data-name="Ellipse 338" class="cls-5" cx="0.734" cy="0.734" r="0.734" transform="translate(467.372 44.205)"/>
      <path id="Path_1345" data-name="Path 1345" class="cls-3" d="M581.776,473.478v.811c-.232,8.466-4.921,16.91-13.524,22.852-9.059,6.252-21.207,9.542-33.679,11.642-1.95.328-3.91.624-5.865.911-1,.137-1.991.273-2.98.4-6.835.911-13.707,1.609-20.6,2.192-9.25.784-18.546,1.326-27.851,1.727-11.948.524-23.918.82-35.875,1.116-23.372.574-46.761,1.148-70.174,1.545l-8.307.137-10.134.137-5.86.068c-36.91.392-73.765.191-110.556-1.312q-3.673-.146-7.332-.319-8.2-.36-16.4-.834c-10.959-.62-22-1.4-32.932-2.565q-4.347-.456-8.658-1.007-2.939-.36-5.86-.788-3.253-.456-6.48-.993c-15.949-2.606-31.346-6.379-45.545-12.13A118.194,118.194,0,0,1,102,491.906v-80.2c2.023-2.347,4.033-4.693,5.965-7.068,2.324-2.853,4.557-5.792,6.607-8.808h44.109V368.65h77.693v59.757H362.92v-47.39h146a51.042,51.042,0,0,0-3.823,7.587v.255h-.169a32.637,32.637,0,0,0-2.128,8.794,23,23,0,0,0,2.278,12.577v.191l.041.091c4.229,8.384,13.178,14.326,23.54,19.594,1.909.975,3.873,1.923,5.865,2.862,11.123,5.249,23.107,10.134,32.276,16.587l.273.191a49.037,49.037,0,0,1,6.749,5.641c.068.064.128.128.187.191a35.226,35.226,0,0,1,2.442,2.812,24.7,24.7,0,0,1,5.322,14.7C581.776,473.232,581.776,473.355,581.776,473.478Z" transform="translate(-76.1 -235.219)"/>
      <path id="Path_1346" data-name="Path 1346" class="cls-6" d="M581.776,473.478v.811c-.232,8.466-4.921,16.91-13.524,22.852-9.059,6.252-21.207,9.542-33.679,11.642-1.95.328-3.91.624-5.865.911-1,.137-1.991.273-2.98.4-6.835.911-13.707,1.609-20.6,2.192-9.25.784-18.546,1.326-27.851,1.727-11.948.524-23.918.82-35.875,1.116-23.372.574-46.761,1.148-70.174,1.545l-8.307.137-10.134.137-5.86.068c-36.91.392-73.765.191-110.556-1.312q-3.673-.146-7.332-.319-8.2-.36-16.4-.834c-10.959-.62-22-1.4-32.932-2.565q-4.347-.456-8.658-1.007-2.939-.36-5.86-.788-3.253-.456-6.48-.993c-15.949-2.606-31.346-6.379-45.545-12.13A118.194,118.194,0,0,1,102,491.906v-80.2c2.023-2.347,4.033-4.693,5.965-7.068,2.324-2.853,4.557-5.792,6.607-8.808h44.109V368.65h77.693v59.757H362.92v-47.39h146a51.042,51.042,0,0,0-3.823,7.587v.255h-.169a32.637,32.637,0,0,0-2.128,8.794,23,23,0,0,0,2.278,12.577v.191l.041.091c4.229,8.384,13.178,14.326,23.54,19.594,1.909.975,3.873,1.923,5.865,2.862,11.123,5.249,23.107,10.134,32.276,16.587l.273.191a49.037,49.037,0,0,1,6.749,5.641c.068.064.128.128.187.191a35.226,35.226,0,0,1,2.442,2.812,24.7,24.7,0,0,1,5.322,14.7C581.776,473.232,581.776,473.355,581.776,473.478Z" transform="translate(-76.1 -235.219)"/>
      <rect id="Rectangle_508" data-name="Rectangle 508" class="cls-7" width="13.032" height="8.795" transform="translate(40.391 171.694)"/>
      <rect id="Rectangle_509" data-name="Rectangle 509" class="cls-7" width="13.032" height="8.795" transform="translate(61.242 171.694)"/>
      <rect id="Rectangle_510" data-name="Rectangle 510" class="cls-7" width="13.032" height="8.795" transform="translate(300.668 153.617)"/>
      <rect id="Rectangle_511" data-name="Rectangle 511" class="cls-7" width="13.032" height="8.795" transform="translate(335.85 153.617)"/>
      <rect id="Rectangle_512" data-name="Rectangle 512" class="cls-7" width="13.032" height="8.795" transform="translate(373.635 153.617)"/>
      <rect id="Rectangle_513" data-name="Rectangle 513" class="cls-7" width="13.032" height="8.795" transform="translate(300.668 180.493)"/>
      <rect id="Rectangle_514" data-name="Rectangle 514" class="cls-7" width="13.032" height="8.795" transform="translate(335.85 180.493)"/>
      <rect id="Rectangle_515" data-name="Rectangle 515" class="cls-3" width="13.032" height="8.795" transform="translate(373.635 180.493)"/>
      <rect id="Rectangle_516" data-name="Rectangle 516" class="cls-7" width="13.032" height="8.795" transform="translate(300.668 207.364)"/>
      <rect id="Rectangle_517" data-name="Rectangle 517" class="cls-7" width="13.032" height="8.795" transform="translate(335.85 207.364)"/>
      <rect id="Rectangle_518" data-name="Rectangle 518" class="cls-7" width="13.032" height="8.795" transform="translate(373.635 207.364)"/>
      <rect id="Rectangle_519" data-name="Rectangle 519" class="cls-7" width="13.032" height="8.795" transform="translate(300.668 234.24)"/>
      <rect id="Rectangle_520" data-name="Rectangle 520" class="cls-7" width="13.032" height="8.795" transform="translate(335.85 234.24)"/>
      <rect id="Rectangle_521" data-name="Rectangle 521" class="cls-7" width="13.032" height="8.795" transform="translate(373.635 234.24)"/>
      <rect id="Rectangle_522" data-name="Rectangle 522" class="cls-7" width="13.032" height="8.795" transform="translate(300.668 261.116)"/>
      <rect id="Rectangle_523" data-name="Rectangle 523" class="cls-7" width="13.032" height="8.795" transform="translate(335.85 261.116)"/>
      <rect id="Rectangle_524" data-name="Rectangle 524" class="cls-7" width="13.032" height="8.795" transform="translate(373.635 261.116)"/>
      <path id="Path_1347" data-name="Path 1347" class="cls-7" d="M975.2,413a32.64,32.64,0,0,0-2.128,8.795h-7.15V413Z" transform="translate(-546.353 -259.36)"/>
      <rect id="Rectangle_525" data-name="Rectangle 525" class="cls-3" width="13.032" height="8.795" transform="translate(419.567 180.493)"/>
      <rect id="Rectangle_526" data-name="Rectangle 526" class="cls-7" width="13.032" height="8.795" transform="translate(419.567 207.364)"/>
      <rect id="Rectangle_527" data-name="Rectangle 527" class="cls-7" width="13.032" height="8.795" transform="translate(419.567 234.24)"/>
      <rect id="Rectangle_528" data-name="Rectangle 528" class="cls-7" width="13.032" height="8.795" transform="translate(419.567 261.116)"/>
      <rect id="Rectangle_529" data-name="Rectangle 529" class="cls-7" width="13.032" height="8.795" transform="translate(112.711 143.355)"/>
      <rect id="Rectangle_530" data-name="Rectangle 530" class="cls-3" width="13.032" height="8.795" transform="translate(112.711 163.072)"/>
      <rect id="Rectangle_531" data-name="Rectangle 531" class="cls-7" width="13.032" height="8.795" transform="translate(112.711 182.785)"/>
      <rect id="Rectangle_532" data-name="Rectangle 532" class="cls-7" width="13.032" height="8.795" transform="translate(112.711 202.502)"/>
      <rect id="Rectangle_533" data-name="Rectangle 533" class="cls-7" width="13.032" height="8.795" transform="translate(112.711 222.215)"/>
      <rect id="Rectangle_534" data-name="Rectangle 534" class="cls-7" width="13.032" height="8.795" transform="translate(112.711 241.932)"/>
      <rect id="Rectangle_535" data-name="Rectangle 535" class="cls-7" width="13.032" height="8.795" transform="translate(112.711 261.644)"/>
      <rect id="Rectangle_536" data-name="Rectangle 536" class="cls-7" width="13.032" height="8.795" transform="translate(40.391 194.678)"/>
      <rect id="Rectangle_537" data-name="Rectangle 537" class="cls-7" width="13.032" height="8.795" transform="translate(61.242 194.678)"/>
      <rect id="Rectangle_538" data-name="Rectangle 538" class="cls-7" width="13.032" height="8.795" transform="translate(40.391 217.662)"/>
      <rect id="Rectangle_539" data-name="Rectangle 539" class="cls-7" width="13.032" height="8.795" transform="translate(61.242 217.662)"/>
      <rect id="Rectangle_540" data-name="Rectangle 540" class="cls-7" width="13.032" height="8.795" transform="translate(40.391 240.647)"/>
      <rect id="Rectangle_541" data-name="Rectangle 541" class="cls-7" width="13.032" height="8.795" transform="translate(61.242 240.647)"/>
      <rect id="Rectangle_542" data-name="Rectangle 542" class="cls-7" width="65.152" height="7.86" transform="translate(186.33 203.436)"/>
      <rect id="Rectangle_543" data-name="Rectangle 543" class="cls-7" width="65.152" height="7.86" transform="translate(186.33 228.516)"/>
      <rect id="Rectangle_544" data-name="Rectangle 544" class="cls-7" width="65.152" height="7.86" transform="translate(186.33 253.601)"/>
      <path id="Path_1348" data-name="Path 1348" class="cls-2" d="M246.46,76.193V351.421q-2.939-.36-5.86-.788V75.92C242.555,75.956,244.505,76.057,246.46,76.193Z" transform="translate(-151.543 -75.879)"/>
      <path id="Path_1349" data-name="Path 1349" class="cls-2" d="M645.36,174.3V410.568l-5.86.068V173.58Q642.425,173.976,645.36,174.3Z" transform="translate(-368.675 -129.038)"/>
      <path id="Path_1350" data-name="Path 1350" class="cls-2" d="M543.192,551.995H45.39a37.012,37.012,0,0,1,1.016-5.865H536.293a48.243,48.243,0,0,1,6.9,5.865Z" transform="translate(-45.286 -331.826)"/>
      <path id="Path_1351" data-name="Path 1351" class="cls-2" d="M1038.4,503.06c1.909.975,3.873,1.923,5.865,2.862v75.833c-1.95.328-3.91.624-5.865.911Z" transform="translate(-585.806 -308.382)"/>
      <path id="Path_1352" data-name="Path 1352" class="cls-5" d="M334.412,228.471h-1.121V227.35h-.2v1.121H331.97v.2h1.121v1.121h.2v-1.121h1.121Z" transform="translate(-180.723 -123.752)"/>
      <path id="Path_1353" data-name="Path 1353" class="cls-5" d="M845.692,177.341h-1.121V176.22h-.205v1.121H843.25v.2h1.116v1.121h.205v-1.121h1.121Z" transform="translate(-459.025 -95.921)"/>
      <path id="Path_1354" data-name="Path 1354" class="cls-5" d="M392.682,167.391h-1.121V166.27h-.205v1.121H390.24v.205h1.116v1.116h.205V167.6h1.121Z" transform="translate(-212.441 -90.505)"/>
      <circle id="Ellipse_339" data-name="Ellipse 339" class="cls-5" cx="0.734" cy="0.734" r="0.734" transform="translate(177.799 147.798)"/>
      <circle id="Ellipse_340" data-name="Ellipse 340" class="cls-5" cx="0.734" cy="0.734" r="0.734" transform="translate(345.11 82.254)"/>
      <circle id="Ellipse_341" data-name="Ellipse 341" class="cls-5" cx="0.734" cy="0.734" r="0.734" transform="translate(418.833 116.999)"/>
      <circle id="Ellipse_342" data-name="Ellipse 342" class="cls-5" cx="0.734" cy="0.734" r="0.734" transform="translate(303.374 123.292)"/>
      <path id="Path_1355" data-name="Path 1355" class="cls-8" d="M551.482,403.585s-15.634,3.782-21.822,10.859a21.053,21.053,0,0,1-8.325,5.286V409.053c3.577-6.006,7.181-12.686,7.181-12.686.164-.328,1.467-4.935,1.467-4.935,2.935-2.306-.164-10.362-.164-10.362s1.8-5.1.816-6.088-.164-3.618.652-4.771a5.952,5.952,0,0,0,.652-3.618c0-.984-1.3-2.47-3.422-3.29s.164-2.137,1.467-2.47,1.631-3.454.164-5.1.164-2.629.975-4.438-2.62-1.481-2.62-1.481V333.183h0s-.98-5.427-1.955-14.969-4.725-10.526-4.725-10.526a42.925,42.925,0,0,1-5.865-2.306,40.171,40.171,0,0,0-6.188-2.3,31.854,31.854,0,0,1-7.983-1.1,24.393,24.393,0,0,0-5.445-1.18l-.588-.292a21.339,21.339,0,0,1-9.884-10.481c-.1-.228-.191-.456-.283-.674a23.009,23.009,0,0,0,2.6-3.454v1.9h0v.041c2.6-4.589,10.134-5.637,10.85-10.877a5.473,5.473,0,0,0,.05-.72v-.56c-.1-1.463-.6-2.921-.693-4.4a8.419,8.419,0,0,1,0-1.271v.027c.337-4.069,3.4-7.61,4.807-11.561a13.859,13.859,0,0,0,.734-3.29v-.032c.036-.337.059-.679.068-1.021v-.961a15.392,15.392,0,0,0-5.081-11.118c-2.6-2.256-6.029-3.673-7.828-6.621-.839-1.367-1.249-2.989-2.164-4.311-1.723-2.5-4.885-3.513-7.879-3.873s-6.07-.242-8.931-1.18c-2.032-.665-3.873-1.846-5.924-2.438a11.333,11.333,0,0,0-12.171,4.388c-1.08,1.577-1.786,3.463-3.244,4.693-2.985,2.524-8.047,1.431-10.663,4.338-1.435,1.6-1.6,3.778-1.426,6v.082a5.038,5.038,0,0,0,.05.515v.242a.753.753,0,0,0,.032.26c.091.8.205,1.59.305,2.356a3.065,3.065,0,0,0,.041.351l.082.715a5,5,0,0,0,.046.519c.018.173.032.456.046.647a4.506,4.506,0,0,0,.032.51A35.16,35.16,0,0,1,435.59,266.8c-2.465,4.835-6.129,9.291-6.767,14.691a15.82,15.82,0,0,0-.073,2.666v.314c0,.1.027.319.041.478s.036.369.059.551a2.474,2.474,0,0,0,.041.314c.032.242.068.483.109.729l.027.155c.647,3.682,2.114,7.291,2.894,11.009a29.781,29.781,0,0,1,.583,4.16.059.059,0,0,0,0,.027c.027.456.05.889.064,1.335v1.823a28.923,28.923,0,0,1-3.8,1.167c-2.278.328-8.963,6.252-8.476,7.746s-2.989,11.848-3.085,12.162h0l-5.468,37.821s-2.9,2.8-2,4.607-.178,4.935-.178,4.935-4.9,2.137-3.814,3.454.592,3.782-.155,5.427-1.973,4.607,0,5.1.337,6.913.337,6.913,6.876-.793,6.379,3.29c-.164,1.3,4.807,4.871,6.881,6.3v19.658a60.075,60.075,0,0,1-8.143-2.766c-4.233-1.973-28.015-5.755-33.228,5.6S385,452.948,388.09,454.593c0,0,2.935,2.3,3.586,3.454s4.4,1.481,4.4,1.481,3.91,1.823,4.885,2.793c.72.729,6.676,2.62,13.734,4.1h0s-5.7,13.123,3.6,12.044,13.83-5.66,20.387-5.66c2.62,0,7.487-.369,12.385-.807a32.9,32.9,0,0,1,3.645.861,46.849,46.849,0,0,0,8.466,1.823s7.332,3.946,11.242,2.957a2.484,2.484,0,0,0,.884-.456h.091a5.126,5.126,0,0,0,2.356-2.019c4.889.5,10.48,1.212,12.558,2.023,4.051,1.563,33.027-.6,33.027-.6s18.719.369,24.082,1.991,3.459-16.564-6.439-18.61a40.607,40.607,0,0,0-8.024-.793,18,18,0,0,0,1.873-2.278c3.563-.324,5.924-.524,5.924-.524s9.446-4.607,14.823-7.4a33.822,33.822,0,0,0,9.114-7.236s4.721-2.962,6.676-4.1,2.93-4.935,2.93-4.935C589.107,399.138,551.482,403.585,551.482,403.585Zm-42.414-42.1v-1.659c.529.374.451.961,0,1.654Zm.155,11.633c.4.52.779.993,1.053,1.367,1.053,1.367-.852,2-.715,4.27.032.506.077,1.212.123,2h0c-.2-3.267-.365-5.956-.46-7.637Z" transform="translate(-225.551 -156.076)"/>
      <path id="Path_1356" data-name="Path 1356" class="cls-9" d="M424.472,658.574s-9.113-2.119-13.356-4.074-28.015-5.7-33.228,5.541,7.168,26.219,10.262,27.851S421.378,667.2,421.378,667.2l23.768,10.025,4.557-15.557Z" transform="translate(-225.584 -389.616)"/>
      <rect id="Rectangle_545" data-name="Rectangle 545" class="cls-9" width="103.47" height="35.994" rx="17.997" transform="translate(208.945 272.052)"/>
      <path id="Path_1357" data-name="Path 1357" class="cls-10" d="M607.17,690.855a17.958,17.958,0,0,1-3,9.952,18.228,18.228,0,0,1-2.278,2.78,17.94,17.94,0,0,1-12.727,5.272H521.7a18,18,0,0,1,0-36h67.472A18,18,0,0,1,607.17,690.855Z" transform="translate(-294.755 -400.808)"/>
      <path id="Path_1358" data-name="Path 1358" class="cls-11" d="M525.146,714.66s-10.376,2.666-18.842,2.547-48.069,16.336-48.069,16.336-5.7,13,3.6,11.921,13.83-5.587,20.387-5.587,27.186-2.278,27.186-2.278l19.849-14.664Z" transform="translate(-269.066 -423.561)"/>
      <path id="Path_1359" data-name="Path 1359" class="cls-11" d="M563.022,390l-18.61,3.668-1.208.242S528.491,390,528,389.668s-13.843-18.323-13.843-18.323,6.753.073,12.057-2.985c.191-.109.378-.228.565-.342a11.756,11.756,0,0,0,5.012-6.147c.1-.269.178-.547.255-.838a16.534,16.534,0,0,0-.155-8.011c-1.823-7.6,2.37-9.688,7.924-9.505,8.024.264,18.947,5.272,18.947,5.272a22.269,22.269,0,0,0,1.718,7.427c.087.219.182.456.283.665a21.207,21.207,0,0,0,9.884,10.367l.588.292c.592.283,1.217.551,1.864.793C587.291,373.71,563.022,390,563.022,390Z" transform="translate(-300.449 -221.533)"/>
      <path id="Path_1360" data-name="Path 1360" class="cls-10" d="M581.485,356.885a23.472,23.472,0,0,1-28.972,4.99,15.786,15.786,0,0,0,.1-8.849c-4.4-18.569,26.885-4.233,26.885-4.233A22.571,22.571,0,0,0,581.485,356.885Z" transform="translate(-321.15 -221.536)"/>
      <path id="Path_1361" data-name="Path 1361" class="cls-11" d="M573.332,308.627a23.3,23.3,0,0,1-3.554,12.408,22.969,22.969,0,0,1-2.6,3.422,23.321,23.321,0,0,1-15.885,7.564c-.456.032-.943.046-1.417.046a23.454,23.454,0,1,1,23.454-23.454Z" transform="translate(-307.122 -189.774)"/>
      <path id="Path_1362" data-name="Path 1362" class="cls-10" d="M563.022,418.406l-18.61,3.668-1.208.241s-14.714-3.91-15.2-4.238-13.843-18.323-13.843-18.323,6.753.073,12.057-2.985c.191-.109.378-.228.565-.342a21.844,21.844,0,0,0,15.876,6.94,22.929,22.929,0,0,0,3.326-.242c2.616-.4,5.254-.661,7.888-.911,5.044-.529,12.759-2.06,16.81-6.516l.588.292c.592.283,1.217.551,1.864.793C587.291,402.12,563.022,418.406,563.022,418.406Z" transform="translate(-300.449 -249.943)"/>
      <path id="Path_1363" data-name="Path 1363" class="cls-3" d="M557.764,466.27c.159,3.586,2.77,43.977,2.77,43.977H479.256l.551-25.431.456-20.341.146-6.676.652-23.126L478.7,432.6l-12.8-11.283h0c.1-.3,3.568-10.594,3.085-12.043s6.193-7.327,8.476-7.655a29.669,29.669,0,0,0,3.819-1.162c3.841-1.367,8.968-3.336,9.533-3.026.8.428,8.79-.314,9.113-.346h0a21.8,21.8,0,0,0,16.432,7.578,22.324,22.324,0,0,0,3.313-.264c2.616-.4,5.254-.661,7.888-.934,5.3-.551,13.538-2.215,17.4-7.2a24.662,24.662,0,0,1,5.445,1.167,32.326,32.326,0,0,0,7.983,1.094,40.506,40.506,0,0,1,6.188,2.278,43.3,43.3,0,0,0,5.865,2.278s3.746.975,4.725,10.421,1.969,14.823,1.969,14.823l-19.366,16.773S557.6,462.67,557.764,466.27Z" transform="translate(-274.18 -250.248)"/>
      <path id="Path_1364" data-name="Path 1364" class="cls-11" d="M417.3,519.373l2.848,4.561,10.667,3.759,7.332-13.37-6.758-4.561-10.831-4.233-6.188,3.582Z" transform="translate(-225.575 -275.173)"/>
      <path id="Path_1365" data-name="Path 1365" class="cls-9" d="M663.974,638.262s15.147-1.139,21.339-8.143,21.822-10.749,21.822-10.749,37.625-4.4,22.784,28.83c0,0-.975,3.746-2.93,4.885s-6.676,4.074-6.676,4.074L662.52,652.11Z" transform="translate(-381.205 -371.588)"/>
      <path id="Path_1366" data-name="Path 1366" class="cls-10" d="M658.423,696.32a17.958,17.958,0,0,1-3,9.952c-9.724.861-31.259,2.884-35.766,4.142-5.536,1.536-16.742-1.139-17.967-1.44l-.114-.027s-2.16-6.553-3.19-10.745c-.456-1.9-.7-3.322-.4-3.427.98-.324,9.938-2.77,9.774-1.367S634.65,682.9,634.65,682.9l.829,10.426C638.227,696.47,658.423,691.795,658.423,696.32Z" transform="translate(-346.008 -406.273)"/>
      <path id="Path_1367" data-name="Path 1367" class="cls-9" d="M687.45,688.184l-1.139,4.238a33.763,33.763,0,0,1-9.113,7.163c-5.377,2.771-14.823,7.332-14.823,7.332s-34.69,2.93-40.555,4.557-18.081-1.467-18.081-1.467-4.557-13.843-3.582-14.172,9.934-2.766,9.774-1.367,26.885-10.508,26.885-10.508Z" transform="translate(-347.184 -406.85)"/>
      <path id="Path_1368" data-name="Path 1368" class="cls-11" d="M579.92,754.584s17.051,1.189,21.107,2.734,33.027-.592,33.027-.592,18.719.365,24.082,1.968,3.459-16.4-6.439-18.423-23.845.952-23.845.952-15.739-2.028-17.648-2.278-14.481.114-14.481.114Z" transform="translate(-336.244 -436.732)"/>
      <path id="Path_1369" data-name="Path 1369" class="cls-10" d="M432.87,674.72s22.538,2.028,28.735,5.723Z" transform="translate(-256.201 -401.821)"/>
      <path id="Path_1370" data-name="Path 1370" class="cls-10" d="M712.025,642.28s-17.648,4.292-24.565,10.608Z" transform="translate(-394.78 -384.163)"/>
      <path id="Path_1371" data-name="Path 1371" class="cls-10" d="M435.75,663.47c.36.118,10.376,1.431,10.134,2.383S435.75,663.47,435.75,663.47Z" transform="translate(-257.768 -395.697)"/>
      <path id="Path_1372" data-name="Path 1372" class="cls-10" d="M401.21,706.553l1.3,4.889a21.1,21.1,0,0,1,3.582,3.418c.652,1.139,4.4,1.467,4.4,1.467s3.91,1.791,4.889,2.766,11.56,4.074,21.5,5.377,28.338,3.746,32.248,5.049a46.933,46.933,0,0,0,8.471,1.791s7.327,3.91,11.237,2.935,10.585-18.733,10.585-18.733-25.732-6.024-26.548-7.979S447.3,696.46,447.3,696.46l-14.659.346Z" transform="translate(-238.967 -413.654)"/>
      <path id="Path_1373" data-name="Path 1373" class="cls-9" d="M399.06,697.689l1.3,4.889A21.091,21.091,0,0,1,403.949,706c.652,1.139,4.4,1.467,4.4,1.467s3.91,1.791,4.885,2.771,11.565,4.069,21.5,5.372,28.343,3.746,32.253,5.049a47.085,47.085,0,0,0,8.466,1.786s7.332,3.905,11.241,2.93,10.585-18.733,10.585-18.733-25.737-6.024-26.548-7.979-37.138-16.773-37.138-16.773L422.2,679.28Z" transform="translate(-237.797 -404.303)"/>
      <path id="Path_1374" data-name="Path 1374" class="cls-3" d="M453.6,447.67l-2.848,1.631-5.468,37.461s-2.9,2.77-2,4.557-.178,4.885-.178,4.885-4.9,2.119-3.814,3.422.592,3.746-.155,5.372-1.973,4.557,0,5.049.337,6.835.337,6.835,6.876-.784,6.379,3.254c-.205,1.631,7.774,6.835,7.774,6.835s-9.068-16.45,11.246-14.172l1.745-9.273s1.745-5.222,0-6.835.392-9.364.392-9.364l.383-33.633Z" transform="translate(-259.035 -278.232)"/>
      <path id="Path_1375" data-name="Path 1375" class="cls-10" d="M462.44,553.84c.36.6,11.328,1.823,12.043,3.768S462.44,553.84,462.44,553.84Z" transform="translate(-272.296 -336.023)"/>
      <path id="Path_1376" data-name="Path 1376" class="cls-10" d="M454.85,569.569s1.49-4.652,5.012-3.818S454.85,569.569,454.85,569.569Z" transform="translate(-268.165 -342.452)"/>
      <path id="Path_1377" data-name="Path 1377" class="cls-10" d="M450.67,582.292s2.62-6.2,6.2-5.723S450.67,582.292,450.67,582.292Z" transform="translate(-265.89 -348.38)"/>
      <path id="Path_1378" data-name="Path 1378" class="cls-11" d="M674.611,579.71l-1.144,6.835s-11.724,21.5-13.843,21.827-13.67-14.331-13.67-14.331l-3.094-14.336,12.18-2.31,5.409-5.345S674.119,573.358,674.611,579.71Z" transform="translate(-370.503 -345.935)"/>
      <path id="Path_1379" data-name="Path 1379" class="cls-3" d="M679.77,456.437l4.4,3.094v16.45s3.422-.328,2.607,1.467-2.443,2.766-.975,4.4,1.139,4.721-.164,5.049-3.582,1.627-1.467,2.442,3.422,2.278,3.422,3.258a5.832,5.832,0,0,1-.651,3.582c-.816,1.139-1.627,3.746-.652,4.725s-.816,6.024-.816,6.024,3.1,7.983.164,10.262c0,0-1.3,4.557-1.467,4.885,0,0,2.055-15.853-18.437-9.15,0,0-.378-6.042-.519-8.28s1.768-2.894.715-4.229-3.686-4.4-2.442-5.213.816-2.278.323-3.422-2.21-1.139-.652-2.524,2.483-2.684,1.568-3.336-2.506-2.775-1.24-3.75,1.3-15.147,1.3-15.147S670,446.176,679.77,456.437Z" transform="translate(-381.203 -281.458)"/>
      <path id="Path_1380" data-name="Path 1380" class="cls-10" d="M695.84,520.428s6.261-1.7,6.466,0S695.84,520.428,695.84,520.428Z" transform="translate(-399.342 -317.424)"/>
      <path id="Path_1381" data-name="Path 1381" class="cls-10" d="M680.4,530.27s8.585-2.146,9.656-.478S680.4,530.27,680.4,530.27Z" transform="translate(-390.937 -322.587)"/>
      <path id="Path_1382" data-name="Path 1382" class="cls-10" d="M676.21,540.828s12.877-1.791,13.711.834S676.21,540.828,676.21,540.828Z" transform="translate(-388.657 -328.615)"/>
      <path id="Path_1383" data-name="Path 1383" class="cls-10" d="M680.4,553.84c.478.118,12.4.952,12.636,3.217S680.4,553.84,680.4,553.84Z" transform="translate(-390.937 -336.023)"/>
      <rect id="Rectangle_546" data-name="Rectangle 546" class="cls-2" width="102.108" height="57.994" rx="10.47" transform="translate(193.68 225.158)"/>
      <circle id="Ellipse_343" data-name="Ellipse 343" class="cls-5" cx="3.764" cy="3.764" r="3.764" transform="translate(240.97 250.393)"/>
      <path id="Path_1384" data-name="Path 1384" class="cls-10" d="M507.72,491.94s9.788,7.482,17.357,1.782C525.077,493.722,512.281,494.884,507.72,491.94Z" transform="translate(-296.943 -302.329)"/>
      <path id="Path_1385" data-name="Path 1385" class="cls-10" d="M616.48,496.36s9.783,7.478,17.352,1.777C633.832,498.137,621.041,499.3,616.48,496.36Z" transform="translate(-356.144 -304.735)"/>
      <path id="Path_1386" data-name="Path 1386" class="cls-10" d="M548.436,308.675a23.3,23.3,0,0,1-3.554,12.408c-.2-6.53-1.732-13.064-5.286-18.519-3.254-5.012-13.146-13.757-19.945-11.319a4.817,4.817,0,0,0-2.971,3.19c-.674,2.561,1.3,3.645,2.565,5.664a17.366,17.366,0,0,1,2.369,11.7,16.255,16.255,0,0,1-.342,1.622c-1.071,4.019-3.522,8.617-.993,11.911,1.763,2.278,5.555,3.089,6.07,5.924a3.456,3.456,0,0,1,.046.811c-.118,1.918-1.754,3.609-2.47,5.491-.838,2.219-.365,4.425.506,6.653,1.13,2.907,2.935,5.846,3.372,8.918s-.506,5.924-1.618,8.808a39.318,39.318,0,0,0-2.689,8.293c-.788,5.413,1.2,11.674-2.21,15.949a2.388,2.388,0,0,1-1.49,1.007c-2.183.228-1.823-3.7-3.568-5.012.187,2.278.365,4.657-.456,6.79s-2.98,3.946-5.24,3.586l-.779-5.117a14.778,14.778,0,0,1-5.423,3.395,39.523,39.523,0,0,1,5.66-15.311c-5.737,2.761-9.082,8.74-12.066,14.363-1.859,3.513-3.787,7.35-3.135,11.273.264,1.6.952,3.121,1.1,4.73s-.433,3.49-1.932,4.1a3.493,3.493,0,0,1-3.778-1.171l-.164-.2c-.091-.118-.178-.242-.26-.365a6.105,6.105,0,0,1-.433-.775,14.989,14.989,0,0,1-.911-2.994l-.1-.456c-1.517-6.657-2.884-13.524-1.773-20.259.41-2.479,1.157-4.939,1.066-7.455a13.669,13.669,0,0,0-.857-4.147c-1.331-3.727-3.891-7.15-5.35-10.9a.32.32,0,0,1-.036-.082c-.766-1.987-1.144-4.47.273-6.065a11.971,11.971,0,0,1,2.734-1.823c2.834-1.845,4.1-5.35,4.625-8.694a29.564,29.564,0,0,0,.355-4.557c3.841-1.367,8.968-3.336,9.533-3.026.8.428,8.79-.314,9.113-.346a11.973,11.973,0,0,0,5.6-6.489c.1-.269.178-.547.255-.838A23.454,23.454,0,1,1,548.44,308.7Z" transform="translate(-282.226 -189.821)"/>
      <path id="Path_1387" data-name="Path 1387" class="cls-2" d="M521.271,281.16c-1.075,4.019-3.522,8.617-.989,11.916,1.763,2.278,5.555,3.085,6.06,5.924.406,2.278-1.6,4.156-2.415,6.3-1.932,5.117,3.108,10.148,3.873,15.566.834,5.878-3.45,11.232-4.3,17.106-.788,5.413,1.2,11.67-2.21,15.949a2.36,2.36,0,0,1-1.49,1.007c-2.183.232-1.823-3.691-3.568-5.012.187,2.278.365,4.657-.456,6.79s-2.98,3.942-5.24,3.586l-.779-5.122a14.759,14.759,0,0,1-5.423,3.395,39.554,39.554,0,0,1,5.655-15.306c-5.737,2.761-9.077,8.74-12.062,14.358-1.864,3.513-3.787,7.355-3.14,11.278.264,1.6.952,3.117,1.1,4.73s-.433,3.486-1.932,4.1a3.559,3.559,0,0,1-3.942-1.367,10.274,10.274,0,0,1-1.609-4.138c-1.558-6.8-3.012-13.816-1.877-20.7.41-2.483,1.157-4.944,1.066-7.455-.2-5.5-4.256-10.025-6.234-15.142-.77-1.991-1.144-4.47.273-6.065a11.973,11.973,0,0,1,2.734-1.823c2.83-1.85,4.1-5.35,4.621-8.694a30.129,30.129,0,0,0-.305-10.882c-1.144-5.354-3.768-10.585-3.117-16.022.638-5.35,4.3-9.761,6.767-14.55a34.422,34.422,0,0,0,3.49-20.118c-.424-3.213-1.167-6.931,1.012-9.332,2.616-2.88,7.678-1.8,10.663-4.292,1.458-1.217,2.165-3.089,3.245-4.648a11.392,11.392,0,0,1,12.171-4.347c2.05.588,3.891,1.754,5.924,2.415,2.862.911,5.924.811,8.931,1.171s6.156,1.367,7.879,3.832c.911,1.312,1.326,2.912,2.164,4.27,1.8,2.916,5.231,4.32,7.829,6.557a15.192,15.192,0,0,1,4.274,16.227c-1.549,4.315-5.135,8.134-4.83,12.709.123,1.882.911,3.727.665,5.591-.72,5.19-8.252,6.225-10.854,10.772.21-7.455-1.221-15.133-5.29-21.38-3.254-5.012-13.146-13.761-19.945-11.324a4.835,4.835,0,0,0-2.971,3.19c-.674,2.556,1.3,3.645,2.565,5.664A17.225,17.225,0,0,1,521.271,281.16Z" transform="translate(-282.224 -158.533)"/>
      <g id="Group_30" data-name="Group 30" class="cls-12" transform="translate(198.469 86.856)">
        <path id="Path_1388" data-name="Path 1388" d="M495.037,377.055a29.874,29.874,0,0,0-.652-6.972c-.971-4.557-3-9.018-3.19-13.593-.264,5.094,2.119,10.025,3.19,15.037a29.909,29.909,0,0,1,.652,5.527Z" transform="translate(-486.406 -315.456)"/>
        <path id="Path_1389" data-name="Path 1389" d="M525.437,480.206c.4-.724.807-1.444,1.249-2.146-5.732,2.761-9.077,8.74-12.062,14.363-1.727,3.249-3.5,6.785-3.235,10.4.219-3.1,1.745-6.129,3.235-8.94C517.385,488.686,520.457,483.191,525.437,480.206Z" transform="translate(-497.395 -381.63)"/>
        <path id="Path_1390" data-name="Path 1390" d="M502.365,526.614a3.459,3.459,0,0,1-1.9,2.857,3.557,3.557,0,0,1-3.937-1.367,10.321,10.321,0,0,1-1.613-4.138,74.405,74.405,0,0,1-2.278-14.787c-.109,5.436,1.048,10.913,2.278,16.254a10.256,10.256,0,0,0,1.613,4.138,3.56,3.56,0,0,0,3.937,1.367c1.5-.615,2.087-2.488,1.937-4.1A.553.553,0,0,1,502.365,526.614Z" transform="translate(-487.195 -398.569)"/>
        <path id="Path_1391" data-name="Path 1391" d="M567.783,334.2a16.549,16.549,0,0,1-.529,3.463c-.793,2.976-2.342,6.275-2.064,9.113.219-2.479,1.4-5.176,2.064-7.66A16.469,16.469,0,0,0,567.783,334.2Z" transform="translate(-526.677 -303.323)"/>
        <path id="Path_1392" data-name="Path 1392" d="M513.6,275.572a34.2,34.2,0,0,0-.282-5.2c-.169-1.267-.383-2.616-.456-3.932a28.429,28.429,0,0,0,.456,5.4A34.124,34.124,0,0,1,513.6,275.572Z" transform="translate(-498.202 -266.44)"/>
        <path id="Path_1393" data-name="Path 1393" d="M577.487,384.054a.157.157,0,0,0-.032-.114c-.346,1.7-1.741,3.244-2.383,4.949a6.938,6.938,0,0,0-.4,3.19,6.55,6.55,0,0,1,.4-1.722C575.879,388.21,577.888,386.314,577.487,384.054Z" transform="translate(-531.833 -330.398)"/>
        <path id="Path_1394" data-name="Path 1394" d="M487.613,458.768c-.2-5.5-4.256-10.025-6.238-15.142a10.382,10.382,0,0,1-.638-2.506,8.466,8.466,0,0,0,.638,3.974c1.95,5.049,5.9,9.492,6.215,14.869C487.613,459.566,487.627,459.165,487.613,458.768Z" transform="translate(-480.709 -361.523)"/>
        <path id="Path_1395" data-name="Path 1395" d="M582.459,303.972c-3.258-5.012-13.146-13.761-19.945-11.324a4.839,4.839,0,0,0-2.976,3.19,3.451,3.451,0,0,0-.05,1.713.952.952,0,0,1,.05-.246,4.83,4.83,0,0,1,2.976-3.19c6.8-2.438,16.687,6.325,19.945,11.324,3.682,5.659,5.2,12.49,5.3,19.266C587.855,317.437,586.4,310.023,582.459,303.972Z" transform="translate(-523.545 -280.477)"/>
        <path id="Path_1396" data-name="Path 1396" d="M632.461,341.163c-.715,5.176-8.2,6.22-10.831,10.74V353.4c2.6-4.557,10.134-5.582,10.85-10.772a6.186,6.186,0,0,0,0-1.536A.4.4,0,0,1,632.461,341.163Z" transform="translate(-557.416 -307.074)"/>
        <path id="Path_1397" data-name="Path 1397" d="M648.748,296.17c-1.549,4.32-5.135,8.134-4.83,12.713v.2c.337-4.033,3.4-7.532,4.807-11.447a14.347,14.347,0,0,0,.8-5.577,13.932,13.932,0,0,1-.775,4.11Z" transform="translate(-569.538 -280.386)"/>
        <path id="Path_1398" data-name="Path 1398" d="M563.758,492.813a2.37,2.37,0,0,1-1.49,1.012c-2.183.232-1.823-3.691-3.568-5.012.046.52.087,1.044.114,1.568,1.622,1.4,1.322,5.135,3.454,4.908a2.347,2.347,0,0,0,1.49-1.007c1.946-2.442,2.133-5.527,2.082-8.731C565.79,488.22,565.4,490.767,563.758,492.813Z" transform="translate(-523.161 -385.707)"/>
        <path id="Path_1399" data-name="Path 1399" d="M544.017,503.827c-.829,2.137-2.98,3.946-5.245,3.586q-.387-2.556-.775-5.122a14.866,14.866,0,0,1-5.154,3.295c-.1.519-.2,1.043-.273,1.568A14.774,14.774,0,0,0,538,503.759q.387,2.565.775,5.122c2.278.355,4.415-1.449,5.245-3.586a11.677,11.677,0,0,0,.6-4.634A9.857,9.857,0,0,1,544.017,503.827Z" transform="translate(-508.938 -393.932)"/>
        <path id="Path_1400" data-name="Path 1400" d="M574.4,448.794a26.025,26.025,0,0,0-.2,4.151,20.761,20.761,0,0,1,.2-2.684c.816-5.6,4.739-10.727,4.384-16.281C578.468,439,575.142,443.69,574.4,448.794Z" transform="translate(-531.593 -357.636)"/>
      </g>
      <path id="Path_1401" data-name="Path 1401" class="cls-3" d="M871.645,637s-3.094,14.413,10.676,16.122l.852-1.6S872.51,641.5,871.645,637Z" transform="translate(-494.875 -381.289)"/>
      <path id="Path_1402" data-name="Path 1402" class="cls-3" d="M892.672,642.772l-3.19.679-.319.068s-8.544-6.935-8.435-22.419a38.733,38.733,0,0,0,4.078,6.457C888.184,632.036,892.034,638.019,892.672,642.772Z" transform="translate(-499.981 -372.634)"/>
      <path id="Path_1403" data-name="Path 1403" class="cls-3" d="M900.226,637.894a2.019,2.019,0,0,1-1.722.223c-8.2-1.923-5.445-28.708-5.445-28.708.456.214.952,3.645,2.843,8.02C899.219,625.172,902.864,635.953,900.226,637.894Z" transform="translate(-506.45 -366.271)"/>
      <path id="Path_1404" data-name="Path 1404" class="cls-3" d="M932.509,637s.533,14.413-13.237,16.122l-.852-1.6S931.657,641.5,932.509,637Z" transform="translate(-520.498 -381.289)"/>
      <path id="Path_1405" data-name="Path 1405" class="cls-3" d="M923.349,621.1c.1,15.493-11,22.419-11,22.419l-.319-.068-3.19-.679c.633-4.753,4.493-10.736,7.874-15.215a34.634,34.634,0,0,1,6.635-6.457Z" transform="translate(-515.283 -372.634)"/>
      <path id="Path_1406" data-name="Path 1406" class="cls-3" d="M909.613,636.507a5.1,5.1,0,0,1-1.823,1.4h0a3.513,3.513,0,0,1-.67.223c-2.023.456-2.734-.984-2.615-3.463.191-4.415,2.966-12.071,5.468-17.771a22.15,22.15,0,0,1,5.163-7.459C915.109,609.417,914.986,630.282,909.613,636.507Z" transform="translate(-512.917 -366.287)"/>
      <path id="Path_1407" data-name="Path 1407" class="cls-3" d="M905.328,588.77s-9.182,32.563-1.28,37.475S907.356,591.654,905.328,588.77Z" transform="translate(-510.928 -355.036)"/>
      <path id="Path_1408" data-name="Path 1408" class="cls-10" d="M871.645,637s-3.094,14.413,10.676,16.122l.852-1.6S872.51,641.5,871.645,637Z" transform="translate(-494.875 -381.289)"/>
      <path id="Path_1409" data-name="Path 1409" class="cls-10" d="M892.672,642.772l-3.19.679-.319.068s-8.544-6.935-8.435-22.419a38.733,38.733,0,0,0,4.078,6.457C888.184,632.036,892.034,638.019,892.672,642.772Z" transform="translate(-499.981 -372.634)"/>
      <path id="Path_1410" data-name="Path 1410" class="cls-10" d="M900.226,637.894a2.019,2.019,0,0,1-1.722.223c-8.2-1.923-5.445-28.708-5.445-28.708.456.214.952,3.645,2.843,8.02C899.219,625.172,902.864,635.953,900.226,637.894Z" transform="translate(-506.45 -366.271)"/>
      <path id="Path_1411" data-name="Path 1411" class="cls-10" d="M932.509,637s.533,14.413-13.237,16.122l-.852-1.6S931.657,641.5,932.509,637Z" transform="translate(-520.498 -381.289)"/>
      <path id="Path_1412" data-name="Path 1412" class="cls-10" d="M923.349,621.1c.1,15.493-11,22.419-11,22.419l-.319-.068-3.19-.679c.633-4.753,4.493-10.736,7.874-15.215a34.634,34.634,0,0,1,6.635-6.457Z" transform="translate(-515.283 -372.634)"/>
      <path id="Path_1413" data-name="Path 1413" class="cls-10" d="M909.613,636.507a5.1,5.1,0,0,1-1.823,1.4h0a3.513,3.513,0,0,1-.67.223c-2.023.456-2.734-.984-2.615-3.463.191-4.415,2.966-12.071,5.468-17.771a22.15,22.15,0,0,1,5.163-7.459C915.109,609.417,914.986,630.282,909.613,636.507Z" transform="translate(-512.917 -366.287)"/>
      <path id="Path_1414" data-name="Path 1414" class="cls-10" d="M905.328,588.77s-9.182,32.563-1.28,37.475S907.356,591.654,905.328,588.77Z" transform="translate(-510.928 -355.036)"/>
      <path id="Path_1415" data-name="Path 1415" class="cls-3" d="M871.9,637s-1.823,14.413,11.957,16.122l.852-1.6S872.771,641.5,871.9,637Z" transform="translate(-495.135 -381.289)"/>
      <path id="Path_1416" data-name="Path 1416" class="cls-3" d="M893.947,642.772l-3.19.679-.324.068s-9.824-6.935-9.715-22.419c0,0,2.515,2.7,5.359,6.457C889.459,632.036,893.309,638.019,893.947,642.772Z" transform="translate(-499.975 -372.634)"/>
      <path id="Path_1417" data-name="Path 1417" class="cls-10" d="M900.349,650.485l-3.19.679c-3.039-2.666-4.242-9.624-4.68-15.894C895.861,639.749,899.712,645.732,900.349,650.485Z" transform="translate(-506.378 -380.347)"/>
      <path id="Path_1418" data-name="Path 1418" class="cls-3" d="M901.91,637.894a2.019,2.019,0,0,1-1.722.223c-8.225-1.923-6.726-28.708-6.726-28.708.456.214,2.233,3.645,4.1,8.02C900.9,625.172,904.549,635.953,901.91,637.894Z" transform="translate(-506.854 -366.271)"/>
      <path id="Path_1419" data-name="Path 1419" class="cls-3" d="M934.039,637s1.823,14.413-11.957,16.122l-.852-1.6S933.187,641.5,934.039,637Z" transform="translate(-522.027 -381.289)"/>
      <path id="Path_1420" data-name="Path 1420" class="cls-3" d="M924.878,621.1c.1,15.493-9.72,22.419-9.72,22.419l-.319-.068-3.19-.679c.638-4.753,4.493-10.736,7.874-15.215C922.358,623.788,924.878,621.1,924.878,621.1Z" transform="translate(-516.812 -372.634)"/>
      <path id="Path_1421" data-name="Path 1421" class="cls-10" d="M919.51,635.27c-.41,5.851-1.481,12.3-4.078,15.3a5.231,5.231,0,0,1-.592.6l-3.19-.679C912.265,645.732,916.129,639.749,919.51,635.27Z" transform="translate(-516.813 -380.347)"/>
      <path id="Path_1422" data-name="Path 1422" class="cls-3" d="M912.418,636.507a5.1,5.1,0,0,1-1.823,1.4h0a3.551,3.551,0,0,1-.674.223c-2.023.456-2.734-.984-2.616-3.463.2-4.415,2.966-12.071,5.468-17.771,1.8-4.128,3.445-7.254,3.882-7.459C916.633,609.417,917.79,630.282,912.418,636.507Z" transform="translate(-514.441 -366.287)"/>
      <path id="Path_1423" data-name="Path 1423" class="cls-10" d="M906.384,647.474a2.278,2.278,0,0,1-1.3-.415c-3.869-2.41-3.946-11.456-3.026-20.05C905.377,634.752,909.023,645.533,906.384,647.474Z" transform="translate(-511.328 -375.851)"/>
      <path id="Path_1424" data-name="Path 1424" class="cls-10" d="M912.433,645.418c-.456.961-1.043,1.472-1.823,1.4h0a2.616,2.616,0,0,1-1.1-.415,5.87,5.87,0,0,1-2.187-2.825c.2-4.416,2.967-12.071,5.468-17.771C913.654,633.734,913.95,642.16,912.433,645.418Z" transform="translate(-514.455 -375.198)"/>
      <path id="Path_1425" data-name="Path 1425" class="cls-3" d="M906.5,588.77s-7.9,32.563,0,37.475S908.523,591.654,906.5,588.77Z" transform="translate(-512.095 -355.036)"/>
      <path id="Path_1426" data-name="Path 1426" class="cls-13" d="M859.572,591.66H826.69v5.445h5.017l.123.643,2.01,10.567h19.116l2.01-10.567.123-.643h4.484Z" transform="translate(-450.011 -322.055)"/>
      <path id="Path_1427" data-name="Path 1427" class="cls-10" d="M859.542,591.66H826.66v5.445h5.017l.123.643,2.009,10.567h19.116l2.01-10.567.123-.643h4.484Z" transform="translate(-449.995 -322.055)"/>
      <path id="Path_1428" data-name="Path 1428" class="cls-13" d="M863.807,598.69l-.551,2.884-2.01,10.567H842.131l-2.01-10.567-.551-2.884Z" transform="translate(-457.022 -325.882)"/>
      <path id="Path_1429" data-name="Path 1429" class="cls-10" d="M863.807,598.69l-.551,2.884H840.121l-.551-2.884Z" transform="translate(-457.022 -325.882)"/>
      <rect id="Rectangle_547" data-name="Rectangle 547" class="cls-13" width="32.882" height="5.445" transform="translate(377.959 269.605)"/>
      <path id="Path_1430" data-name="Path 1430" class="cls-3" d="M294.314,586.638a8.41,8.41,0,0,0-1.112,2.1c-.068.182-.137.392-.205.592a1.621,1.621,0,0,0-.387-.132,5.381,5.381,0,0,0-1.741-.15c0-.228.023-.456.032-.715.073-2.579-.232-6.165-2.688-4.648-2.356,1.467-.674,3.9.848,5.468.132.137.26.26.387.383-1.367,1-1.65,3.29-1.882,5.691s-2.278,5.012-3.618,6.516c-.132.15-.26.287-.383.415a4.912,4.912,0,0,0-3.928-1.012l-.182-.665c-1.094-3.951-3.367-10.795-6.266-12.3l.383-.483c1.23-1.613,2.616-4.005.57-4.616s-2.233,2.073-2.119,4.1a6.888,6.888,0,0,0,.059.715,3.021,3.021,0,0,0-2.146,1.043c-.1-.118-.2-.242-.314-.374-1.659-1.964-4.707-5.067-5.628-2.734-.857,2.187,1.823,5.012,3.709,6.68l.118.1c-1.267,5.14,4.256,9.323,7.236,11.155.132.087.26.164.383.237-4.1,4.835-6.639,13.9-6.639,13.9l11.51,2.092s7.623-6.575,6.648-12.759h.077c7.614-1.527,9.346-9.647,8.161-14.468l.132-.055a8.658,8.658,0,0,0,3.527-2.666C300.972,587.094,296.5,583.744,294.314,586.638Z" transform="translate(-164.188 -351.888)"/>
      <path id="Path_1431" data-name="Path 1431" class="cls-10" d="M294.314,586.638a8.41,8.41,0,0,0-1.112,2.1c-.068.182-.137.392-.205.592a1.621,1.621,0,0,0-.387-.132,5.381,5.381,0,0,0-1.741-.15c0-.228.023-.456.032-.715.073-2.579-.232-6.165-2.688-4.648-2.356,1.467-.674,3.9.848,5.468.132.137.26.26.387.383-1.367,1-1.65,3.29-1.882,5.691s-2.278,5.012-3.618,6.516c-.132.15-.26.287-.383.415a4.912,4.912,0,0,0-3.928-1.012l-.182-.665c-1.094-3.951-3.367-10.795-6.266-12.3l.383-.483c1.23-1.613,2.616-4.005.57-4.616s-2.233,2.073-2.119,4.1a6.888,6.888,0,0,0,.059.715,3.021,3.021,0,0,0-2.146,1.043c-.1-.118-.2-.242-.314-.374-1.659-1.964-4.707-5.067-5.628-2.734-.857,2.187,1.823,5.012,3.709,6.68l.118.1c-1.267,5.14,4.256,9.323,7.236,11.155.132.087.26.164.383.237-4.1,4.835-6.639,13.9-6.639,13.9l11.51,2.092s7.623-6.575,6.648-12.759h.077c7.614-1.527,9.346-9.647,8.161-14.468l.132-.055a8.658,8.658,0,0,0,3.527-2.666C300.972,587.094,296.5,583.744,294.314,586.638Z" transform="translate(-164.188 -351.888)"/>
      <path id="Path_1432" data-name="Path 1432" class="cls-3" d="M272.281,592.382l-1.344,3.937a21.717,21.717,0,0,1-1.691-1.367c-1.887-1.65-4.557-4.493-3.709-6.68.911-2.351,3.969.752,5.632,2.734C271.834,591.79,272.281,592.382,272.281,592.382Z" transform="translate(-165.029 -354.306)"/>
      <path id="Path_1433" data-name="Path 1433" class="cls-3" d="M284.872,587.751a19.46,19.46,0,0,1-1.308,1.54,20.148,20.148,0,0,1-.241-2.069c-.109-2.014.1-4.689,2.119-4.1S286.1,586.138,284.872,587.751Z" transform="translate(-174.785 -351.917)"/>
      <path id="Path_1434" data-name="Path 1434" class="cls-3" d="M320.184,588.762c-.046,1.294-.169,2.328-.169,2.328a17.112,17.112,0,0,1-1.677-1.5c-1.522-1.577-3.19-4.01-.843-5.468C319.951,582.6,320.252,586.183,320.184,588.762Z" transform="translate(-192.764 -352.308)"/>
      <path id="Path_1435" data-name="Path 1435" class="cls-3" d="M334.693,593.081a8.657,8.657,0,0,1-3.527,2.666,9.541,9.541,0,0,1-1.185.428l-1.581-2.224a15.943,15.943,0,0,1,.656-2.16,8.256,8.256,0,0,1,1.112-2.1C332.355,586.788,336.821,590.137,334.693,593.081Z" transform="translate(-199.335 -354.931)"/>
      <path id="Path_1436" data-name="Path 1436" class="cls-10" d="M275.793,595.26c.665.784,1.112,1.367,1.112,1.367l-1.344,3.937a21.7,21.7,0,0,1-1.691-1.367,7.711,7.711,0,0,1,1.513-3.459Q275.588,595.492,275.793,595.26Z" transform="translate(-169.653 -358.569)"/>
      <path id="Path_1437" data-name="Path 1437" class="cls-10" d="M284.9,592.749a19.479,19.479,0,0,1-1.308,1.54,20.174,20.174,0,0,1-.242-2.069A2.67,2.67,0,0,1,284.9,592.749Z" transform="translate(-174.813 -356.914)"/>
      <path id="Path_1438" data-name="Path 1438" class="cls-3" d="M286.263,609.2l-3.34,1.472a20.029,20.029,0,0,1-1.782-1.007c-3.513-2.16-10.576-7.6-5.842-14.007s8.685,5.085,10.239,10.708C286.012,608.052,286.263,609.2,286.263,609.2Z" transform="translate(-169.57 -357.758)"/>
      <path id="Path_1439" data-name="Path 1439" class="cls-10" d="M320.74,595.569a2.734,2.734,0,0,1,1.845-.829c-.046,1.294-.169,2.328-.169,2.328a17.115,17.115,0,0,1-1.677-1.5Z" transform="translate(-195.165 -358.286)"/>
      <path id="Path_1440" data-name="Path 1440" class="cls-10" d="M331.166,599.585a9.531,9.531,0,0,1-1.185.428L328.4,597.79a15.938,15.938,0,0,1,.656-2.16C330.077,596.227,330.829,597.712,331.166,599.585Z" transform="translate(-199.335 -358.77)"/>
      <path id="Path_1441" data-name="Path 1441" class="cls-3" d="M308.234,614.445c-.182.036-.374.073-.561.1-11.205,1.7-3.7-4.343-3.7-4.343s.506-.456,1.189-1.221c1.367-1.495,3.386-4.1,3.618-6.516.351-3.645.756-7.04,5.044-6.038C318.035,597.411,318.837,612.321,308.234,614.445Z" transform="translate(-184.701 -359.107)"/>
      <rect id="Rectangle_548" data-name="Rectangle 548" class="cls-13" width="21.408" height="5.628" transform="translate(101.92 283.234)"/>
      <rect id="Rectangle_549" data-name="Rectangle 549" class="cls-13" width="27.969" height="19.644" transform="translate(98.516 264.939)"/>
      <rect id="Rectangle_550" data-name="Rectangle 550" class="cls-10" width="21.408" height="5.628" transform="translate(101.92 283.234)"/>
      <rect id="Rectangle_551" data-name="Rectangle 551" class="cls-10" width="27.969" height="19.644" transform="translate(98.516 264.939)"/>
      <rect id="Rectangle_552" data-name="Rectangle 552" class="cls-13" width="21.408" height="5.628" transform="translate(103.324 283.234)"/>
      <path id="Path_1442" data-name="Path 1442" class="cls-10" d="M294.407,621.42c.456,1.681.725,2.834.725,2.834l-3.34,1.472a20.038,20.038,0,0,1-1.782-1.007A8.529,8.529,0,0,1,294.407,621.42Z" transform="translate(-178.438 -372.808)"/>
      <path id="Path_1443" data-name="Path 1443" class="cls-10" d="M308.234,629.654c-.182.036-.374.073-.561.1-11.205,1.7-3.7-4.343-3.7-4.343s.506-.456,1.189-1.221A7.424,7.424,0,0,1,308.234,629.654Z" transform="translate(-184.701 -374.316)"/>
      <path id="Path_1444" data-name="Path 1444" class="cls-3" d="M276.29,639.548s6.275-22.456,15.069-15.539-3.577,17.594-3.577,17.594Z" transform="translate(-170.97 -373.497)"/>
      <circle id="Ellipse_344" data-name="Ellipse 344" class="cls-10" cx="0.702" cy="0.702" r="0.702" transform="translate(107.785 240.724)"/>
      <circle id="Ellipse_345" data-name="Ellipse 345" class="cls-10" cx="0.702" cy="0.702" r="0.702" transform="translate(107.726 244.005)"/>
      <circle id="Ellipse_346" data-name="Ellipse 346" class="cls-10" cx="0.702" cy="0.702" r="0.702" transform="translate(128.131 241.367)"/>
      <circle id="Ellipse_347" data-name="Ellipse 347" class="cls-10" cx="0.702" cy="0.702" r="0.702" transform="translate(111.713 258.195)"/>
      <circle id="Ellipse_348" data-name="Ellipse 348" class="cls-10" cx="0.702" cy="0.702" r="0.702" transform="translate(126.668 246.821)"/>
      <circle id="Ellipse_349" data-name="Ellipse 349" class="cls-10" cx="0.702" cy="0.702" r="0.702" transform="translate(119.396 254.094)"/>
      <circle id="Ellipse_350" data-name="Ellipse 350" class="cls-10" cx="0.702" cy="0.702" r="0.702" transform="translate(110.191 242.128)"/>
      <circle id="Ellipse_351" data-name="Ellipse 351" class="cls-10" cx="0.702" cy="0.702" r="0.702" transform="translate(126.199 243.476)"/>
      <circle id="Ellipse_352" data-name="Ellipse 352" class="cls-10" cx="0.702" cy="0.702" r="0.702" transform="translate(123.793 248.931)"/>
      <circle id="Ellipse_353" data-name="Ellipse 353" class="cls-10" cx="0.702" cy="0.702" r="0.702" transform="translate(116.406 257.671)"/>
      <circle id="Ellipse_354" data-name="Ellipse 354" class="cls-10" cx="0.702" cy="0.702" r="0.702" transform="translate(114.88 254.207)"/>
      <circle id="Ellipse_355" data-name="Ellipse 355" class="cls-10" cx="0.702" cy="0.702" r="0.702" transform="translate(111.244 246.411)"/>
      <rect id="Rectangle_553" data-name="Rectangle 553" class="cls-10" width="21.408" height="2.055" transform="translate(103.324 283.234)"/>
      <rect id="Rectangle_554" data-name="Rectangle 554" class="cls-13" width="27.969" height="19.644" transform="translate(99.925 264.939)"/>
      <circle id="Ellipse_356" data-name="Ellipse 356" class="cls-10" cx="0.702" cy="0.702" r="0.702" transform="translate(117.345 260.838)"/>
      <circle id="Ellipse_357" data-name="Ellipse 357" class="cls-10" cx="0.702" cy="0.702" r="0.702" transform="translate(113.121 261.717)"/>
    </g>
  </g>
</svg>
