<svg xmlns="http://www.w3.org/2000/svg" xmlns:xlink="http://www.w3.org/1999/xlink" width="649.173" height="489.662" viewBox="0 0 649.173 489.662">
  <defs>
    <style>
      .cls-1, .cls-5 {
        fill: #648e73;
      }

      .cls-1, .cls-3, .cls-7 {
        opacity: 0.1;
      }

      .cls-2 {
        fill: #fff;
      }

      .cls-31, .cls-4 {
        opacity: 0.2;
      }

      .cls-6 {
        fill: #ffd2c6;
      }

      .cls-8 {
        fill: #626696;
      }

      .cls-9 {
        fill: #ffcde5;
      }

      .cls-10 {
        fill: #985c7e;
      }

      .cls-11 {
        fill: url(#linear-gradient);
      }

      .cls-12 {
        fill: #cc818c;
      }

      .cls-13 {
        fill: #444053;
      }

      .cls-14, .cls-27 {
        opacity: 0.05;
      }

      .cls-15 {
        fill: #ff748f;
      }

      .cls-16, .cls-18 {
        fill: #575988;
      }

      .cls-17 {
        fill: #dce6f2;
      }

      .cls-18 {
        opacity: 0.5;
      }

      .cls-19 {
        fill: #67647e;
      }

      .cls-20 {
        fill: #585268;
      }

      .cls-21 {
        fill: #e4aab4;
      }

      .cls-22 {
        fill: #ffd037;
      }

      .cls-23 {
        fill: #65617d;
      }

      .cls-24 {
        fill: #9d9cb5;
      }

      .cls-25 {
        fill: url(#linear-gradient-2);
      }

      .cls-26 {
        fill: #2d293d;
      }

      .cls-28 {
        fill: #ffcdd3;
      }

      .cls-29 {
        fill: #656691;
      }

      .cls-30 {
        fill: #a8a8a8;
      }
    </style>
    <linearGradient id="linear-gradient" x1="0.877" y1="1" x2="0.877" gradientUnits="objectBoundingBox">
      <stop offset="0" stop-color="gray" stop-opacity="0.251"/>
      <stop offset="0.54" stop-color="gray" stop-opacity="0.122"/>
      <stop offset="1" stop-color="gray" stop-opacity="0.102"/>
    </linearGradient>
    <linearGradient id="linear-gradient-2" x1="0.5" y1="1" x2="0.5" y2="0" xlink:href="#linear-gradient"/>
  </defs>
  <g id="undraw_work_chat_erdt_1_" data-name="undraw_work_chat_erdt (1)" transform="translate(-0.016 -0.004)">
    <path id="Path_32" data-name="Path 32" class="cls-1" d="M460.878,110.556c-27.855,23.645-63.986,22.116-95.648,9.811s-60.746-34.2-91.595-49.772A257.159,257.159,0,0,0,193.164,45.16c-39.317-5.457-83.223,1.2-110.615,39.413-30.505,42.569-28.163,119.348,4.818,158.4,16.786,19.875,38.763,29.632,57.927,45.171s36.914,41.292,35.282,71.25c-1.512,27.7-19.08,49.008-37.263,62.36-14.051,10.317-31.355,21.586-33.047,42.961-1.638,20.676,12.913,36.884,26.807,46.1,45.328,30.06,101.183,29.771,146.354-.759,16.1-10.9,30.9-25.386,47.791-33.866,44.358-22.284,93.239.145,140.211,8.354a233.313,233.313,0,0,0,119.251-10.528c23.26-8.33,46.61-21.08,62.95-44.786,11.787-17.1,19.128-38.757,26.018-60.138q11.022-34.191,21.194-68.877c4.065-13.883,8.071-28.03,9.125-42.876,1.9-26.91-6.119-53.513-17.045-76.219C666.984,127.2,623.294,89.283,575.979,79.653s-97.371,9.179-134.067,50.339" transform="translate(-61.06 -43.49)"/>
    <ellipse id="Ellipse_4" data-name="Ellipse 4" class="cls-1" cx="136.705" cy="6.24" rx="136.705" ry="6.24" transform="translate(158.153 314.494)"/>
    <path id="Path_33" data-name="Path 33" class="cls-2" d="M461.157,369.554A123.937,123.937,0,1,1,585.076,245.617,124.076,124.076,0,0,1,461.157,369.554Zm0-246.67A122.733,122.733,0,1,0,583.89,245.617,122.871,122.871,0,0,0,461.157,122.885Z" transform="translate(-170.888 -74.586)"/>
    <path id="Path_34" data-name="Path 34" class="cls-2" d="M479.52,360.108a96.124,96.124,0,1,1,96.124-96.124A96.241,96.241,0,0,1,479.52,360.108Zm0-191.043a94.919,94.919,0,1,0,94.919,94.919A95.029,95.029,0,0,0,479.52,169.065Z" transform="translate(-189.251 -92.953)"/>
    <path id="Path_35" data-name="Path 35" class="cls-2" d="M499.251,349.962A66.251,66.251,0,1,1,565.5,283.711,66.251,66.251,0,0,1,499.251,349.962Zm0-131.3A65.046,65.046,0,1,0,564.3,283.711a65.046,65.046,0,0,0-65.046-65.046Z" transform="translate(-208.982 -112.68)"/>
    <ellipse id="Ellipse_5" data-name="Ellipse 5" class="cls-1" cx="8.595" cy="2.843" rx="8.595" ry="2.843" transform="translate(581.64 239.974)"/>
    <ellipse id="Ellipse_6" data-name="Ellipse 6" class="cls-1" cx="50.616" cy="8.305" rx="50.616" ry="8.305" transform="translate(56.928 384.274)"/>
    <g id="Group_2" data-name="Group 2" class="cls-3" transform="translate(33.782 162.449)">
      <path id="Path_36" data-name="Path 36" d="M279.629,313.21H125.211a8.1,8.1,0,0,0-8.071,8.071V418.85a8.1,8.1,0,0,0,8.071,8.071H246.347s3.138,16.659-7.173,18.454c0,0,23.091,1.656,19.056-18.454h21.4a8.1,8.1,0,0,0,8.071-8.071V321.281A8.1,8.1,0,0,0,279.629,313.21Z" transform="translate(-117.14 -313.21)"/>
      <g id="Group_1" data-name="Group 1" class="cls-4" transform="translate(22.73 25.898)">
        <rect id="Rectangle_25" data-name="Rectangle 25" width="125.093" height="7.625" rx="3.812"/>
        <rect id="Rectangle_26" data-name="Rectangle 26" width="125.093" height="7.625" rx="3.812" transform="translate(0 34.077)"/>
        <rect id="Rectangle_27" data-name="Rectangle 27" width="104.905" height="7.625" rx="3.812" transform="translate(0 51.109)"/>
        <rect id="Rectangle_28" data-name="Rectangle 28" width="54.241" height="7.625" rx="3.812" transform="translate(0 17.038)"/>
      </g>
    </g>
    <path id="Path_37" data-name="Path 37" class="cls-2" d="M281.865,312.09H127.441a8.1,8.1,0,0,0-8.071,8.071V417.73a8.1,8.1,0,0,0,8.071,8.07H248.577s3.144,16.659-7.173,18.448c0,0,23.091,1.656,19.056-18.448h21.405a8.089,8.089,0,0,0,8.065-8.07V320.161a8.089,8.089,0,0,0-8.065-8.071Z" transform="translate(-84.245 -150.316)"/>
    <g id="Group_3" data-name="Group 3" class="cls-4" transform="translate(57.861 187.672)">
      <rect id="Rectangle_29" data-name="Rectangle 29" class="cls-5" width="125.093" height="7.625" rx="3.812"/>
      <rect id="Rectangle_30" data-name="Rectangle 30" class="cls-5" width="125.093" height="7.625" rx="3.812" transform="translate(0 34.077)"/>
      <rect id="Rectangle_31" data-name="Rectangle 31" class="cls-5" width="104.905" height="7.625" rx="3.812" transform="translate(0 51.115)"/>
      <rect id="Rectangle_32" data-name="Rectangle 32" class="cls-5" width="54.241" height="7.625" rx="3.812" transform="translate(0 17.038)"/>
    </g>
    <path id="Path_38" data-name="Path 38" class="cls-6" d="M273.557,302.922,265,321.123s-1.265,3.415-2.078,4.047-4.409,11.443-4.409,11.443l-9.173,14.178h0l-.6.964-3.614-.994-2.524-9.438.157-2.74v-.343s5.68-5.938,6.938-6.39c0,0,.988.114,2.885-4.487s3.614-5.6,3.614-5.6l.988-3.337,10.636-16.93s8.914-12.786,11.341-7.113S273.557,302.922,273.557,302.922Z" transform="translate(-133.256 -142.696)"/>
    <path id="Path_39" data-name="Path 39" class="cls-6" d="M218.888,520.714a2.048,2.048,0,0,1-.289.873c-.988,1.44-6.571,30.891-6.571,30.891.446,1.988-.807,5.951-1.626,7.751s-2.614,11.166-2.614,11.166-.446,20.176-1.614,23.326.373,9.907.373,9.907c-.114,3.108,1.753,6.39,2.861,8.065.084.108.151.217.217.307.361.518.6.813.6.813a4.691,4.691,0,0,0,1.259,1.56c.078.066.163.127.253.193a14.341,14.341,0,0,0,5.047,2.132l.175.036c.723.163,1.2.223,1.2.223l.446,2.409-4.77.988-9.094.6s-10.721.813-8.287-3.963a7.554,7.554,0,0,0,.44-1.012h0c.09-.229.175-.47.247-.711,1.464-4.589.476-10.167.476-10.167l-2.1-16.231c-3.415-15.129,2.7-31.975,2.7-31.975s-.536-1.349.638-4.77,0-10.9,0-10.9-.6-9.636-1.439-14.413a29.12,29.12,0,0,1-.325-6.065,30.3,30.3,0,0,1,.325-3.553l20.538-2.722S219.117,518.8,218.888,520.714Z" transform="translate(-114.121 -231.208)"/>
    <path id="Path_40" data-name="Path 40" class="cls-7" d="M219.635,684.307l-4.77.988-9.094.6s-10.721.813-8.287-3.963a7.559,7.559,0,0,0,.44-1.012h0c.09-.229.175-.47.247-.711a16.5,16.5,0,0,1,5.421,1.1c3.054,1.2,5.354-1.9,5.354-1.9l1.482-2.831.217-.41c.361.518.6.813.6.813a4.818,4.818,0,0,0,1.512,1.747l-.253.53-1.439,3.011s1.843.187,4.367.6a1.951,1.951,0,0,0,2.373-1.3l.175.036c.723.163,1.2.223,1.2.223Z" transform="translate(-115.169 -295.118)"/>
    <path id="Path_41" data-name="Path 41" class="cls-8" d="M223.535,687.042c-.361,1.62-10.4,2.12-10.4,2.12s-5.589-.542-7.155.765-6.179.994-6.36.994-2.608-.1-3.559-4.457c-.921-4.252,1.241-4.993,1.349-5.029h0a16.338,16.338,0,0,1,5.679,1.1c3.054,1.2,5.354-1.891,5.354-1.891l1.7-3.246c.361.518.6.813.6.813a4.758,4.758,0,0,0,1.512,1.753l-1.692,3.559s1.843.187,4.367.6a2.085,2.085,0,0,0,2.548-1.982,2.055,2.055,0,0,0,0-.271s1.572.452,3.505.994a3.614,3.614,0,0,1,2.554,4.174Z" transform="translate(-114.655 -295.607)"/>
    <path id="Path_42" data-name="Path 42" class="cls-6" d="M258.4,540.645c-.241,1.439-.488,5.168-.488,5.168.843,3.12-1.319,10.534-1.319,10.534l-1.078,4.216c.482,5.421-2.969,18.616-2.969,18.616s-2.313,12.25-3.517,17.538a14.581,14.581,0,0,0,.6,8.829c.06.145.1.217.1.217a1.008,1.008,0,0,0,.072.3c.03.1.078.289.126.428a6.5,6.5,0,0,0,1.2,2.012,6.1,6.1,0,0,0,.644.663l.036.036a13.034,13.034,0,0,0,3.83,2.355h0l.6.241a18.117,18.117,0,0,0,1.909.6h0a1.977,1.977,0,0,0,.217.048l-.488,2.831-6.36-1.626L243,610.883l-4.216-2.409s.048-.229.133-.669v-.072c.036-.187.072-.41.126-.662.717-3.674,2.349-14.093,1.53-21.742-1.018-9.486,2.933-22.579,3.9-25.7a15.581,15.581,0,0,0,.723-5.523c-1.566-2.289-1.927-11.407-1.927-11.407s-2.879-5.89-5.264-12.136a31.921,31.921,0,0,1-1.717-6.312,22.075,22.075,0,0,1-.349-4.613s19.345-17.653,21.465-.56c.072.6.139,1.132.2,1.674C259.459,536.375,258.628,539.254,258.4,540.645Z" transform="translate(-130.601 -229.674)"/>
    <path id="Path_43" data-name="Path 43" class="cls-7" d="M260.306,674.639l-.488,2.831-6.36-1.626-8.522-2.765-4.216-2.409s.048-.229.133-.669v-.072c.036-.187.072-.41.126-.662l.6-.06h.048a8.021,8.021,0,0,1,3.572.482c1.385.524,3.2,1.12,3.578.867a4.554,4.554,0,0,1,2.042-.361l.885-1.939.126-.3a6.434,6.434,0,0,0,1.2,2.012,6.8,6.8,0,0,0,.681.7l-.036.687-.048.97a12.394,12.394,0,0,0,3.06,1.415,1.771,1.771,0,0,0,.855,0h0l.6.241a18.117,18.117,0,0,0,1.909.6h0A1.984,1.984,0,0,0,260.306,674.639Z" transform="translate(-132.508 -291.853)"/>
    <path id="Path_44" data-name="Path 44" class="cls-8" d="M256.743,681.157c-1.777-.512-6.059-1.325-6.752-.693s-6.625,0-6.625,0a3.613,3.613,0,0,1-3.066-1.807c-1.2-1.921-.235-8.137-.235-8.137l.44-.042.735-.072h.048a7.932,7.932,0,0,1,3.572.482c1.385.518,3.2,1.114,3.578.867a4.469,4.469,0,0,1,2.042-.361l1.012-2.234a6.505,6.505,0,0,0,1.2,2.012,6.806,6.806,0,0,0,.681.7l-.084,1.656a12.474,12.474,0,0,0,3.06,1.409,1.2,1.2,0,0,0,1.47-.464.908.908,0,0,0,.108-.247h0a10.348,10.348,0,0,0,2.512.837h0a4.6,4.6,0,0,1,4.9,3.529C266.247,681.35,258.484,681.663,256.743,681.157Z" transform="translate(-132.102 -292.33)"/>
    <path id="Path_45" data-name="Path 45" class="cls-7" d="M220.618,520.7c-.4.114-.759.223-1.1.331a15.2,15.2,0,0,1-2.656.56c-5.679.8-15.057.319-18.026.132a30.292,30.292,0,0,1,.325-3.553L219.7,515.45S220.847,518.793,220.618,520.7Z" transform="translate(-115.852 -231.196)"/>
    <path id="Path_46" data-name="Path 46" class="cls-8" d="M237.324,497.221s-7.541,1.168-13.672,2.511c-2.048.446-3.939.909-5.336,1.367a16.394,16.394,0,0,1-2.656.56c-6.83.958-18.96.072-18.96.072-3.331-10.8,4.047-24.41,4.047-24.41-.175-1.084,1.536-4.409,1.536-4.409l.03-.108,1.048-3.855h28.012l.343,1.656.711,3.373,4.4,20.881Z" transform="translate(-114.657 -212.702)"/>
    <path id="Path_47" data-name="Path 47" class="cls-7" d="M257.6,520.742l-.169.072-3.276,1.451c-3.547,1.638-14.166,1.945-17.876,1.976a22.076,22.076,0,0,1-.349-4.613s19.345-17.653,21.465-.56C257.471,519.676,257.537,520.2,257.6,520.742Z" transform="translate(-130.601 -229.67)"/>
    <path id="Path_48" data-name="Path 48" class="cls-8" d="M246.6,502.113l-.687.3-3.276,1.458c-3.614,1.662-14.569,1.957-18.068,1.975h-.921c-1.62-.054-3.24-1.572-3.24-1.969,0-.217-.169-1.283-.313-2.2-.12-.735-.229-1.367-.229-1.367a84.126,84.126,0,0,1-10.9-5.643c-2.752-1.873-2.06-15.183-1.524-21.875.187-2.307.349-3.825.349-3.825l28.355,1.656,3.975.229,2.277.506.6.126s1.626,11.889,2.409,12.877.277,4.324.181,6.222a11.556,11.556,0,0,1-.265,2.409s1.168,3.337.891,5.2A10.378,10.378,0,0,0,246.6,502.113Z" transform="translate(-119.078 -212.71)"/>
    <circle id="Ellipse_7" data-name="Ellipse 7" class="cls-6" cx="11.618" cy="11.618" r="11.618" transform="translate(85.554 167.435)"/>
    <path id="Path_49" data-name="Path 49" class="cls-6" d="M206.7,348.8s.807,11-1.439,13.527a100.556,100.556,0,0,1-8.107,7.294l1.807,7.474,10.179,1.174,11.889-12.7-2.7-3.331s-2.072-7.029-.361-10.54S206.7,348.8,206.7,348.8Z" transform="translate(-115.18 -164.901)"/>
    <path id="Path_50" data-name="Path 50" class="cls-7" d="M249.34,380.234h0l-.6.964-3.614-.994-2.524-9.438.157-2.74.741-1.066s3.963.1,3.788,3.7C247.111,373.82,248.912,379.03,249.34,380.234Z" transform="translate(-133.256 -172.139)"/>
    <path id="Path_51" data-name="Path 51" class="cls-7" d="M242.853,472.913s-2.867.638-6.149,1.066-7.071.644-8.625-.259c-2.608-1.542-16.737-1.1-20.791-.946a4.639,4.639,0,0,0-.7.03l1.048-3.855H235.65l.343,1.656,3.975.229,2.277.506C242.624,472.275,242.853,472.913,242.853,472.913Z" transform="translate(-118.934 -212.702)"/>
    <path id="Path_52" data-name="Path 52" class="cls-9" d="M219.127,368.15s3.963.09,3.782,3.692,2.162,9.817,2.162,9.817l-.9,2.072s-1.259,5.041-.271,6.306,4.6,1.259,2.524,11.618c0,0-.446,7.745.632,10.269s1.078,8.552,2.7,11.076a60.874,60.874,0,0,1,3.788,8.378s-11.714,2.608-14.774.807-21.887-.885-21.887-.885.09-3.156,0-3.511a3.011,3.011,0,0,1,.452-2.3c.6-.855,1.62-2.295,1.078-3.553s1.355-3.12.361-5.071-2.2-2.343-1.957-3.409a4.62,4.62,0,0,0-1.1-3.409c-.717-.9-5.589-10.419-5.589-10.419l-.807-4.463s-6.27-4.6-6.155-6.758,2.373-5.156,2.373-5.156l6.023-5.92s3.331,3.614,6.571,2.343,10.233-7.294,10.233-7.294,2.493-1.349,2.674-2.337,1.71-.09,1.71-.09,2.253-1.235,2.7-.8a7.818,7.818,0,0,0,2.409.8Z" transform="translate(-109.614 -172.612)"/>
    <path id="Path_53" data-name="Path 53" class="cls-6" d="M167.234,399.3l-1.921,1.5a25.651,25.651,0,0,0-2.409,9.817,134.508,134.508,0,0,1-2.409,15.214l-3.782,6.764s-6.234,13.051-7.041,16.515-4.505,9.323-4.505,9.323-12.521,11.251-3.782,13.25,9-8.956,9-8.956,2.042-2.253,2.373-3.782,11.407-21.122,11.407-21.122,3.879-5.27,3.066-8.059c0,0,5.041-11.859,5.041-14.834a52.685,52.685,0,0,0-.807-7.378l.807-6.216Z" transform="translate(-91.768 -185.001)"/>
    <path id="Path_54" data-name="Path 54" class="cls-7" d="M222.32,440.53s-8.829,4.619-10.54,4.86,7.474-.964,7.474-.964Z" transform="translate(-120.914 -201.399)"/>
    <path id="Path_55" data-name="Path 55" class="cls-7" d="M230.244,446.51s-11.708,3.963-16.864,3.24C213.4,449.75,226.19,452.183,230.244,446.51Z" transform="translate(-121.635 -203.778)"/>
    <path id="Path_56" data-name="Path 56" class="cls-7" d="M231.515,448.66s-10.54,6.625-16.755,5.547c0,0,14.5,2.885,16.755,1.355l-6.487-1.807S232.238,449.949,231.515,448.66Z" transform="translate(-122.183 -204.633)"/>
    <path id="Path_57" data-name="Path 57" class="cls-7" d="M200.842,306.664a10.974,10.974,0,0,0-8.866,1.674c-1.807,1.421-3.011,3.614-5.041,4.65a29.655,29.655,0,0,1-3.294,1.162,9.5,9.5,0,0,0-5.8,10.239c.319,1.807,1.156,3.433,1.566,5.192.735,3.144.09,6.438-.711,9.564a100.641,100.641,0,0,1-10.028,24.832,2.6,2.6,0,0,0-.5,1.668,2.409,2.409,0,0,0,.6,1.066c4.162,4.818,10.937,6.462,17.3,6.679,2.343.078,4.818,0,6.854-1.138a10.36,10.36,0,0,0,3.343-3.066,16.262,16.262,0,0,0,3.12-10.486c-.175-3.011-1.2-6.077-.428-9a2.409,2.409,0,0,1,.542-1.1c.687-.7,1.807-.518,2.795-.632,2.644-.307,4.354-3.1,4.668-5.734s-.349-5.306-.361-7.962a16.677,16.677,0,0,1,3.138-9.805c.879-1.2,2.006-2.409,2.3-3.921.373-1.9-.729-3.294-1.68-4.818-1.476-2.337-2.2-5.065-4.445-6.848a12,12,0,0,0-5.071-2.216Z" transform="translate(-103.651 -148.052)"/>
    <path id="Path_58" data-name="Path 58" class="cls-10" d="M199.661,305.464a10.958,10.958,0,0,0-8.866,1.68c-1.807,1.415-3.011,3.614-5.041,4.65a29.108,29.108,0,0,1-3.288,1.156,9.51,9.51,0,0,0-5.806,10.239c.319,1.807,1.156,3.433,1.572,5.2.735,3.144.084,6.432-.711,9.558a100.7,100.7,0,0,1-10.01,24.832,2.548,2.548,0,0,0-.494,1.662,2.319,2.319,0,0,0,.6,1.066c4.168,4.818,10.937,6.462,17.3,6.679,2.343.084,4.818,0,6.854-1.132a10.384,10.384,0,0,0,3.343-3.072,16.262,16.262,0,0,0,3.1-10.462c-.175-3.011-1.2-6.077-.422-9a2.409,2.409,0,0,1,.536-1.1c.687-.7,1.807-.518,2.8-.6,2.644-.307,4.348-3.1,4.662-5.74s-.343-5.3-.361-7.962a16.677,16.677,0,0,1,3.132-9.835c.879-1.2,2-2.409,2.295-3.927.373-1.9-.723-3.288-1.674-4.818-1.476-2.337-2.2-5.065-4.451-6.842A11.938,11.938,0,0,0,199.661,305.464Z" transform="translate(-103.193 -147.575)"/>
    <path id="Path_59" data-name="Path 59" class="cls-7" d="M214.76,492.62s2.313,10.8,6.155,13.75Z" transform="translate(-122.183 -222.116)"/>
    <g id="Group_4" data-name="Group 4" class="cls-3" transform="translate(63.805 168.592)">
      <path id="Path_60" data-name="Path 60" d="M183.9,338.239c-.12-.422-.259-.843-.4-1.259C183.62,337.4,183.759,337.823,183.9,338.239Z" transform="translate(-173.556 -328.807)"/>
      <path id="Path_61" data-name="Path 61" d="M210.2,323.41a3.909,3.909,0,0,1-.048,1.018c-.3,1.524-1.421,2.71-2.3,3.927a16.629,16.629,0,0,0-3.138,9.8c0,2.662.669,5.318.355,7.962s-2.018,5.421-4.662,5.74c-.976.114-2.114-.072-2.795.6a2.409,2.409,0,0,0-.542,1.1c-.765,2.927.253,5.987.422,9a16.261,16.261,0,0,1-3.1,10.462,10.444,10.444,0,0,1-3.343,3.072,13.47,13.47,0,0,1-6.86,1.132c-6.252-.211-12.9-1.807-17.081-6.45a1.65,1.65,0,0,0-.1.867,2.319,2.319,0,0,0,.6,1.066c4.168,4.818,10.937,6.462,17.3,6.679,2.343.084,4.818,0,6.854-1.132a10.443,10.443,0,0,0,3.343-3.072,16.261,16.261,0,0,0,3.1-10.462c-.175-3.011-1.2-6.077-.422-9a2.409,2.409,0,0,1,.536-1.1c.687-.7,1.807-.518,2.8-.6,2.644-.307,4.348-3.1,4.662-5.74s-.343-5.3-.361-7.962a16.677,16.677,0,0,1,3.132-9.8c.879-1.2,2-2.409,2.295-3.927A4.463,4.463,0,0,0,210.2,323.41Z" transform="translate(-166.989 -323.41)"/>
    </g>
    <path id="Path_62" data-name="Path 62" class="cls-5" d="M568.836,807.45s-22.917-1.385-20.213,14.672a3.917,3.917,0,0,0,2.036,4.126s.042-1.2,2.349-.783a10.549,10.549,0,0,0,2.487.12,5.2,5.2,0,0,0,3.048-1.259h0s6.438-2.662,8.944-13.19c0,0,1.855-2.295,1.807-2.885l-3.867,1.65s1.319,2.789.277,5.107c0,0-.12-5-.867-4.884-.151,0-2.006.964-2.006.964s2.271,4.86.554,8.39c0,0,.651-5.987-1.265-8.034l-2.722,1.584s2.656,5.023.855,9.119c0,0,.464-6.282-1.427-8.727l-2.469,1.921s2.5,4.945.976,8.342c0,0-.2-7.312-1.512-7.83a14.817,14.817,0,0,0-2.481,2.68s1.7,3.614.644,5.487c0,0-.65-4.872-1.2-4.891,0,0-2.15,3.228-2.373,5.421a11.733,11.733,0,0,1,1.849-5.752,6.45,6.45,0,0,0-3.289,1.7s.331-2.283,3.818-2.481a16.462,16.462,0,0,1,2.253-2.6,14.123,14.123,0,0,0-5.571.644s1.849-2.156,6.21-1.2l2.409-1.987s-4.565-.6-6.5.066c0,0,2.228-1.909,7.161-.518l2.65-1.59a24.075,24.075,0,0,0-6.21-.536s2.445-1.319,6.986.114l1.9-.855s-2.855-.56-3.686-.644-.879-.319-.879-.319a9.854,9.854,0,0,1,5.354.6S568.9,807.7,568.836,807.45Z" transform="translate(-254.88 -347.319)"/>
    <ellipse id="Ellipse_8" data-name="Ellipse 8" class="cls-1" cx="16.219" cy="2.74" rx="16.219" ry="2.74" transform="translate(281.951 477.591)"/>
    <path id="Path_63" data-name="Path 63" class="cls-5" d="M866.949,774.85s-22.887-1.379-20.213,14.678a3.917,3.917,0,0,0,2.036,4.126s.042-1.2,2.349-.789a10.614,10.614,0,0,0,2.493.121,5.143,5.143,0,0,0,3.041-1.259h0s6.444-2.656,8.944-13.184c0,0,1.855-2.3,1.807-2.891l-3.891,1.686s1.319,2.789.283,5.107c0,0-.126-5.011-.867-4.891-.151,0-2.012.964-2.012.964s2.271,4.86.56,8.4c0,0,.65-5.987-1.271-8.04l-2.722,1.59s2.656,5.017.855,9.113c0,0,.464-6.282-1.427-8.727l-2.463,1.909s2.493,4.951.97,8.348c0,0-.2-7.318-1.506-7.866a15.1,15.1,0,0,0-2.487,2.686s1.71,3.614.65,5.481c0,0-.65-4.866-1.2-4.891,0,0-2.15,3.228-2.373,5.421a11.714,11.714,0,0,1,1.855-5.752,6.48,6.48,0,0,0-3.294,1.7s.337-2.277,3.824-2.481a16.464,16.464,0,0,1,2.253-2.6,14.155,14.155,0,0,0-5.577.644s1.855-2.156,6.209-1.174l2.409-1.987s-4.571-.6-6.5.066c0,0,2.228-1.9,7.161-.518l2.65-1.584a23.853,23.853,0,0,0-6.216-.536s2.445-1.319,6.992.108l1.9-.849s-2.855-.56-3.692-.65-.879-.319-.879-.319a9.871,9.871,0,0,1,5.36.6S867.021,775.1,866.949,774.85Z" transform="translate(-373.447 -334.353)"/>
    <ellipse id="Ellipse_9" data-name="Ellipse 9" class="cls-1" cx="16.219" cy="2.74" rx="16.219" ry="2.74" transform="translate(461.497 457.957)"/>
    <ellipse id="Ellipse_10" data-name="Ellipse 10" class="cls-1" cx="46.707" cy="7.661" rx="46.707" ry="7.661" transform="translate(464.087 255.435)"/>
    <path id="Path_64" data-name="Path 64" class="cls-11" d="M918.776,173.178a25.072,25.072,0,0,0,0-12.8v-6.023s2.18-11.811-7.528-19.387l-6.444-5.68s-3.614-3.1-4.656-3.294a4.729,4.729,0,0,0-.6-.09l-.193-.108a19.4,19.4,0,0,1-1.409-2.969,2.752,2.752,0,0,0,2.295-.783,3.011,3.011,0,0,0,.542-.9h0c.373-.837.434-1.849.753-2.74a6.4,6.4,0,0,1,1.2-1.969c-.066.108-.132.211-.193.319.909-1.132,2.1-2.108,2.951-3.307a7.193,7.193,0,0,0,.47-.735l-.126.151a16.552,16.552,0,0,0,1.891-6.432,5.805,5.805,0,0,0,.036-2.3,7.663,7.663,0,0,0-.644-1.458c-1.4-2.891-1.367-6.517-3.614-8.823-1.68-1.729-4.216-2.259-6.625-2.554s-4.921-.464-6.98-1.723a7.556,7.556,0,0,0-1.891-1.042,1.56,1.56,0,0,0-1.861.693,1.2,1.2,0,0,1-.247.5.8.8,0,0,1-.717.042L882,88.9l.036.163h-.078l.115.506a.281.281,0,0,1,.3.175l-.512.789a7.908,7.908,0,0,1-2.885-.6,1.34,1.34,0,0,0,0,.157h-.042c-.06.9.964,1.488,1.277,2.337a1.772,1.772,0,0,1,0,1.144,2.6,2.6,0,0,1-.6.915c-1.138,1.12-2.584.9-3.891,1.608a.831.831,0,0,0-.476.524.4.4,0,0,0-.042.289.674.674,0,0,0,.265.331,6.025,6.025,0,0,0,1.241.771l-.373.361a14.3,14.3,0,0,0,4.939,23.314c.048.247.084.5.12.771v.072l.036.343-4.306,1.807a3.427,3.427,0,0,1-3.084-1.981c-1-2.072-4.535,0-4.535,0s-10.8-.813-14.792,1.174c0,0-6.444-2.7-7.348-2.885s-2.271-.9-2.909-.723-1.452-1.2-1.9-1.084-.6-.9-2.084-1.259-2,.09-3.614-1.536-14.882-8.022-14.882-8.022l-5.987-4.872-6.354-5.047-.114.211c-.036-.151-.078-.307-.12-.47a60.219,60.219,0,0,0-2.355-7.408c-.41-.976-.6-2.21-1.138-1.56-.337.391-.915-.464-1.807-1.042a1.5,1.5,0,0,0-2.24.65h0c-4.945,7.751-6.715,8.311-3.849,11.148,2.548,2.53,4.246,4.764,6.33,5.421l.247.078a.349.349,0,0,1-.139,0l12.046,14.425s8.709,7.577,14.7,10.01,5.535,3.156,5.535,3.156,18.147,9.2,20.959,9.034,2.271,18.845,1.09,21.911-3.084,25.248-3.084,25.248-1.807,4.686.09,7.932c0,0,.422,6.216.042,7.7-1.656,2.548-4.011,6.872-4.4,11.323a6.478,6.478,0,0,1-.072.687,1.559,1.559,0,0,1-.428.349s.157-.036.4-.12a22.883,22.883,0,0,1-1.2,5.421,22.088,22.088,0,0,0-1.482,7.83V244.7l-1.2,8.884s-1.451,6.727,0,8.293a3.813,3.813,0,0,1,.8,2.764,5.119,5.119,0,0,0,.927,3.222,2.445,2.445,0,0,1,.6,2.072c-.482,1.56.711,18.147.711,18.147s-.349,4.571-.831,4.818.807,5.252.807,5.252-4.9,4.089-3.656,6.258l1.253,1.921-.331.325-.2.2a1.909,1.909,0,0,0-1.247-.235,46.744,46.744,0,0,1-4.933,4.391c-2.21,1.6-8.227,3.909-8.227,3.909l-4.746.385h-.09s-2.271-.211-1,3.307,12.648,2.409,12.648,2.409l6.625-1.048s11.853.054,15.244-.693c1.421-.319,1.759-1.072,1.668-1.843h0l-.036-.036a4.734,4.734,0,0,0-.97-1.994.944.944,0,0,0-.084-.1l.217-2.409c5.029-2.9-1.421-8.6-1.421-8.6a57.5,57.5,0,0,1,3.343-6.366c1.138-1.548,1.132-24.525,1.132-24.525s.6-8.3-.97-10.239a3.463,3.463,0,0,1,1.693-3.126c1.12-.765,4.505-11.3,7.161-20.044l1.674,10.305s-.361,4.927.729,6.372a2.451,2.451,0,0,1,.446,1.915,8.523,8.523,0,0,0,.247,4.174,2.7,2.7,0,0,0,.873,1.482c.97.482,1.03,2.2,1.391,2.56s2.6-.512,2.722.807a29.516,29.516,0,0,1,0,3.487l.729,21.4s-1.2,1.807-1.451,6.493a8.39,8.39,0,0,1-.873,3.831,1.957,1.957,0,0,0,.181,2.3l.211.241-.9.693a1.957,1.957,0,0,0-.554,2.409,1.933,1.933,0,0,0-.56,2.078,2.415,2.415,0,0,0,.157.337,3.391,3.391,0,0,0-1.807.891A14.812,14.812,0,0,1,873.545,315a60.173,60.173,0,0,0-5.1,4.36,7.311,7.311,0,0,1-2.975,2.409,4.815,4.815,0,0,1-.9.265c-2.409.488-1.632,2.981.3,3.373s8.348,2.373,13.341,1.2a4.662,4.662,0,0,0,3.656-.506A50.339,50.339,0,0,1,889,323.694s2.722,0,3.084-1.084a4.15,4.15,0,0,0,.157-1.054l.078-.072-.072-.066a14.193,14.193,0,0,0-.187-2.409c-.066-.41-.144-.783-.217-1.078-.235-.9-.663-2.066-.849-2.56a.91.91,0,0,0,.084-.126c1.036-1.753-.687-6.023-.687-6.023a11.514,11.514,0,0,1,2.054-2.409c.97-.717,3.511-19.472,3.511-19.472s-.12-4.818,1.2-6.974-1.807-15.268-1.807-15.268-1.331-3.011-.843-4.089-.488-5.047-.488-5.047v-4.734a5.2,5.2,0,0,0-.277-1.662c-.374-1.114-.928-3.252-.325-4.818.849-2.162,2.783-15.509,2.783-15.509s-1.512-5.884.7-10.57a10.115,10.115,0,0,1,.6-1.09c1.638-2.578,1.15-7.155.343-10.841-.126-.572-.259-1.12-.391-1.644-.06-.223-.12-.434-.175-.644l.259-.108a8.121,8.121,0,0,1,.078-.952,6.625,6.625,0,0,0,4.367-3.011s5.535-6.222,10.438-8.835,5.264-6.4,5.264-6.4c-.729-1.265,1.295-6.4,1.295-6.4ZM899.5,125.971Zm3.331,55.5-5.24,6.077a.128.128,0,0,1,0-.036c-1.361-1.891,1.271-6.131,1.271-6.131l4.33-9.7a5.868,5.868,0,0,1-.566,2.867c-1.2,1.626,2.174,4.33,2.174,4.33-1.813-.018-1.994,2.6-1.994,2.6Z" transform="translate(-353.603 -61.152)"/>
    <path id="Path_65" data-name="Path 65" class="cls-12" d="M811.442,103.132l-2.855,5.547a11.051,11.051,0,0,1-2.662-.554,10.1,10.1,0,0,1-6.252-5.421c-2.554-5.649,1.674-9.3,3.644-10.371s3.794-2.307,5.27,1.2a61.084,61.084,0,0,1,2.325,7.36C811.237,102.234,811.442,103.132,811.442,103.132Z" transform="translate(-354.499 -62.47)"/>
    <path id="Path_66" data-name="Path 66" class="cls-12" d="M955.764,147.248,951.2,154.06s-21.6,10.3-17.466-1.807c1.807-5.33,2.03-9.233,1.7-11.931v-.072a9.419,9.419,0,0,0-1.692-4.818s21.05-10.769,17.918-3.4a10.239,10.239,0,0,0-.747,4.848,16.516,16.516,0,0,0,2.271,6.727A22.291,22.291,0,0,0,955.764,147.248Z" transform="translate(-407.925 -77.677)"/>
    <path id="Path_67" data-name="Path 67" class="cls-13" d="M928.01,340.739s3.108,13.021,1.807,15.171-1.2,6.926-1.2,6.926-2.511,18.641-3.469,19.357a11.444,11.444,0,0,0-2.03,2.409s1.7,4.216.681,5.963a1.416,1.416,0,0,1-.681.6c-1.6.675-7.516-2.319-10.883-4.156a1.855,1.855,0,0,1-.891-1.066,1.9,1.9,0,0,1,.548-2.06,1.963,1.963,0,0,1,.548-2.409l.885-.687-.2-.241a1.957,1.957,0,0,1-.181-2.289,8.446,8.446,0,0,0,.861-3.8c.241-4.662,1.433-6.45,1.433-6.45l-.717-21.266a30.546,30.546,0,0,0,0-3.463c-.12-1.313-2.331-.446-2.686-.807s-.422-2.06-1.373-2.542a2.674,2.674,0,0,1-.867-1.47,8.565,8.565,0,0,1-.247-4.15,2.445,2.445,0,0,0-.44-1.9c-1.078-1.433-.717-6.33-.717-6.33l-1.65-10.239c-2.626,8.691-5.969,19.159-7.071,19.917a3.445,3.445,0,0,0-1.674,3.108c1.554,1.909.958,10.154.958,10.154s0,22.814-1.12,24.368a59.391,59.391,0,0,0-3.3,6.33s6.4,5.7,1.367,8.57l-.054.03c-5.137,2.867-15.768-5.131-15.768-5.131l1.108-1.108.325-.325-1.2-1.915c-1.235-2.15,3.614-6.21,3.614-6.21s-1.289-5.017-.813-5.258.813-4.782.813-4.782-1.174-16.484-.7-18.032a2.409,2.409,0,0,0-.566-2.06,5.144,5.144,0,0,1-.915-3.2,3.806,3.806,0,0,0-.783-2.746c-1.433-1.554,0-8.245,0-8.245l1.2-8.841V306.385a22.286,22.286,0,0,1,1.445-7.9,23.849,23.849,0,0,0,1.3-6.36c.391-4.529,2.825-8.932,4.463-11.443.867-1.325,1.512-2.12,1.512-2.12l38.227-1.5s.6,1.7,1.2,4.071c.133.518.265,1.06.385,1.632.8,3.674,1.283,8.221-.337,10.787a8.5,8.5,0,0,0-.6,1.078c-2.186,4.656-.693,10.5-.693,10.5s-1.909,13.25-2.746,15.412c-.6,1.524-.048,3.65.325,4.758a5.292,5.292,0,0,1,.271,1.65v4.7s.958,3.939.482,5.017S928.01,340.739,928.01,340.739Z" transform="translate(-386.711 -136.384)"/>
    <path id="Path_68" data-name="Path 68" class="cls-7" d="M960.071,297.877a9.9,9.9,0,0,0-.6,1.078l-2.15-.12c.2-1.108-1.259-11.5-1.259-11.5l4.336-.247C961.2,290.788,961.691,295.341,960.071,297.877Z" transform="translate(-417.013 -140.373)"/>
    <path id="Path_69" data-name="Path 69" class="cls-13" d="M960.661,297.327a8.494,8.494,0,0,0-.6,1.078l-2.156-.12c.211-1.108-1.253-11.5-1.253-11.5l4.33-.241C961.8,290.214,962.281,294.761,960.661,297.327Z" transform="translate(-417.248 -140.154)"/>
    <path id="Path_70" data-name="Path 70" class="cls-14" d="M960.661,297.327a8.494,8.494,0,0,0-.6,1.078l-2.156-.12c.211-1.108-1.253-11.5-1.253-11.5l4.33-.241C961.8,290.214,962.281,294.761,960.661,297.327Z" transform="translate(-417.248 -140.154)"/>
    <path id="Path_71" data-name="Path 71" class="cls-7" d="M944.575,462.414a1.415,1.415,0,0,1-.681.6c-1.6.675-7.516-2.319-10.883-4.156a1.855,1.855,0,0,1-.891-1.066c1.915-.349,3.174,1.807,3.174,1.807a2.825,2.825,0,0,1,3.939.958c1.644,2.409,5.168,1.4,5.168,1.4S944.473,462.119,944.575,462.414Z" transform="translate(-407.492 -208.25)"/>
    <path id="Path_72" data-name="Path 72" class="cls-15" d="M935.583,469.969c-.361,1.072-3.048,1.072-3.048,1.072a57.223,57.223,0,0,0-6.962,2.451,4.76,4.76,0,0,1-3.614.506c-4.933,1.138-11.263-.831-13.172-1.2s-2.662-2.867-.3-3.343a4.721,4.721,0,0,0,.885-.271,7.192,7.192,0,0,0,2.939-2.409,60.894,60.894,0,0,1,5.029-4.336,14.552,14.552,0,0,0,3.156-3.192c2.807-2.481,4.818.928,4.818.928a2.825,2.825,0,0,1,3.939.958c1.644,2.409,5.168,1.4,5.168,1.4s.6,1.614.927,2.776c.072.3.151.669.217,1.078A9.424,9.424,0,0,1,935.583,469.969Z" transform="translate(-397.506 -208.482)"/>
    <circle id="Ellipse_11" data-name="Ellipse 11" class="cls-16" cx="0.331" cy="0.331" r="0.331" transform="translate(529.531 253.272)"/>
    <circle id="Ellipse_12" data-name="Ellipse 12" class="cls-16" cx="0.331" cy="0.331" r="0.331" transform="translate(526.724 255.898)"/>
    <circle id="Ellipse_13" data-name="Ellipse 13" class="cls-16" cx="0.331" cy="0.331" r="0.331" transform="translate(523.869 258.259)"/>
    <circle id="Ellipse_14" data-name="Ellipse 14" class="cls-16" cx="0.331" cy="0.331" r="0.331" transform="translate(525.345 257.205)"/>
    <circle id="Ellipse_15" data-name="Ellipse 15" class="cls-16" cx="0.331" cy="0.331" r="0.331" transform="translate(528.187 254.501)"/>
    <path id="Path_73" data-name="Path 73" class="cls-17" d="M935.583,475.28c-.361,1.072-3.048,1.072-3.048,1.072a57.216,57.216,0,0,0-6.962,2.451,4.76,4.76,0,0,1-3.614.506c-4.933,1.138-11.263-.831-13.172-1.2s-2.662-2.867-.3-3.343a4.717,4.717,0,0,0,.885-.271,22.888,22.888,0,0,0,6.463,1.2c4.866.2,8.721,0,8.721,0l4.927-1.584A8.245,8.245,0,0,1,932.529,473a7.83,7.83,0,0,0,3.011-1.313A9.424,9.424,0,0,1,935.583,475.28Z" transform="translate(-397.506 -213.792)"/>
    <path id="Path_74" data-name="Path 74" class="cls-18" d="M933.549,479.821a4.072,4.072,0,0,1-.819-.084l.072-.349a5.173,5.173,0,0,0,2.951-.41,14.163,14.163,0,0,0,1.307-.6,15.189,15.189,0,0,1,1.554-.681l.488-.169c.271-.09.542-.181.8-.3.151-.06.3-.133.44-.2a4.9,4.9,0,0,1,1.108-.422,5.153,5.153,0,0,1,.6-.078,5.12,5.12,0,0,0,.542-.066,4.708,4.708,0,0,0,1.036-.385,5.026,5.026,0,0,1,1.114-.41l.265-.048a1.271,1.271,0,0,0,.771-.283l.259.247a1.609,1.609,0,0,1-.976.391l-.247.042a4.712,4.712,0,0,0-1.036.385,5.03,5.03,0,0,1-1.114.41,3.98,3.98,0,0,1-.6.072,5.258,5.258,0,0,0-.56.072,4.553,4.553,0,0,0-1.024.4l-.452.2c-.277.114-.554.211-.831.3l-.476.169c-.518.193-1.03.434-1.53.662s-.873.416-1.325.6A6.372,6.372,0,0,1,933.549,479.821Z" transform="translate(-407.735 -215.244)"/>
    <path id="Path_75" data-name="Path 75" class="cls-7" d="M936,381.569s2.481-3.614,6.721-3.553a23.009,23.009,0,0,0,6.059-.476,15.041,15.041,0,0,1-4.6,1.807A77.649,77.649,0,0,0,936,381.569Z" transform="translate(-409.035 -176.347)"/>
    <path id="Path_76" data-name="Path 76" class="cls-7" d="M938.38,384.435s2.24-1.554,3.523-1.614,2.409-.181,2.409-.181a6.8,6.8,0,0,1-1.969.958C941.247,383.9,938.38,384.435,938.38,384.435Z" transform="translate(-409.982 -178.375)"/>
    <path id="Path_77" data-name="Path 77" class="cls-7" d="M939.17,387.4s3.379.271,3.409,1.168" transform="translate(-410.296 -180.268)"/>
    <path id="Path_78" data-name="Path 78" class="cls-7" d="M887,299.608c.175.03,3.186-3.138,3.4-4.391a3.071,3.071,0,0,1,1.313-1.927s1.945.777.211,3.156A9.647,9.647,0,0,1,887,299.608Z" transform="translate(-389.547 -142.839)"/>
    <path id="Path_79" data-name="Path 79" class="cls-7" d="M951.988,131.971c-.687,1.626-1.295,1.747-1.162,3.325a11.976,11.976,0,0,1-2.734,2.15c-2.138,1.271-4.463,3.752-7.125,3.752a14.123,14.123,0,0,1-5.2-.982,9.418,9.418,0,0,0-1.693-4.818S955.108,124.605,951.988,131.971Z" transform="translate(-408.268 -77.656)"/>
    <path id="Path_80" data-name="Path 80" class="cls-12" d="M950.358,114.744A14.244,14.244,0,1,1,936.114,100.5,14.244,14.244,0,0,1,950.358,114.744Z" transform="translate(-403.415 -66.162)"/>
    <path id="Path_81" data-name="Path 81" class="cls-7" d="M955.764,154.426l-4.565,6.812s-21.6,10.3-17.466-1.807c1.807-5.33,2.03-9.233,1.7-11.931h.036a11.292,11.292,0,0,1,.428,2.746c.066,1.855.115,4.216,4.728,4.987a12.886,12.886,0,0,0,12.546-4.463A22.277,22.277,0,0,0,955.764,154.426Z" transform="translate(-407.925 -84.855)"/>
    <path id="Path_82" data-name="Path 82" class="cls-7" d="M815.934,109.485l-2.855,5.547a11.051,11.051,0,0,1-2.662-.554l-.247-.3c1.168.446,5.107-6.992,5.107-6.992l.126.1C815.729,108.587,815.934,109.485,815.934,109.485Z" transform="translate(-358.99 -68.823)"/>
    <path id="Path_83" data-name="Path 83" class="cls-7" d="M936.07,281.149c-9.221,4.005-41.13.6-41.13.6a4.023,4.023,0,0,0,.163-1.042c.867-1.325,1.512-2.12,1.512-2.12l38.227-1.5S935.461,278.782,936.07,281.149Z" transform="translate(-392.705 -136.396)"/>
    <path id="Path_84" data-name="Path 84" class="cls-19" d="M886.824,132.038l-4.252,1.807a3.4,3.4,0,0,1-3.047-1.975c-.982-2.06-4.475,0-4.475,0s-10.666-.807-14.605,1.168c0,0-6.36-2.692-7.227-2.867s-2.24-.9-2.867-.717-1.433-1.168-1.879-1.078-.632-.9-2.066-1.253-1.969.09-3.584-1.524-14.69-7.974-14.69-7.974l-5.914-4.818-6.27-5.017s-3.945,7.432-5.107,6.986l11.913,14.334s8.6,7.528,14.515,9.944,5.463,3.138,5.463,3.138,17.924,9.137,20.7,8.962,2.24,18.725,1.072,21.772-3.042,25.085-3.042,25.085-1.807,4.656.084,7.884c0,0,.452,6.625,0,7.793,0,0,32.108,3.433,41.214-.6,0,0,1.343-14.87,0-16.755s1.259-6.089,1.259-6.089L909.71,177.4l13.961-14.075s2.15-11.738-7.432-19.273l-6.366-5.643s-3.559-3.078-4.6-3.27-.656,0-.656,0a12.886,12.886,0,0,1-12.648,4.613c-4.613-.777-4.662-3.126-4.728-4.987a11.3,11.3,0,0,0-.422-2.728Z" transform="translate(-359.256 -69.062)"/>
    <path id="Path_85" data-name="Path 85" class="cls-7" d="M950.432,228.13s-19.713.807-23.652,6.992c0,0,5.107-2.409,9.673-1.7S950.432,228.13,950.432,228.13Z" transform="translate(-405.368 -116.923)"/>
    <path id="Path_86" data-name="Path 86" class="cls-7" d="M929.9,261.045s9.317.6,11.293-1.343,1.975-3.132,1.975-3.132Z" transform="translate(-406.609 -128.235)"/>
    <path id="Path_87" data-name="Path 87" class="cls-7" d="M967.157,196.6s-7.884,9.317,1.7,13.347Z" transform="translate(-420.214 -104.383)"/>
    <path id="Path_88" data-name="Path 88" class="cls-7" d="M891.67,166.7s2.867,5.848,4.3,6.24Z" transform="translate(-391.404 -92.491)"/>
    <path id="Path_89" data-name="Path 89" class="cls-7" d="M875.61,162.53s7.167,6.45,8.51,7.077C884.12,169.607,876.682,162.53,875.61,162.53Z" transform="translate(-385.017 -90.833)"/>
    <path id="Path_90" data-name="Path 90" class="cls-7" d="M920.466,152.27s-6.9,10.3-2.409,16.575C918.02,168.845,915.539,161.407,920.466,152.27Z" transform="translate(-401.294 -86.752)"/>
    <path id="Path_91" data-name="Path 91" class="cls-12" d="M937.177,278.054l-2.108,1.982-.3.277-2.439,2.307c-.181.133-.349.265-.524.385-9.938,7.125-11.931-3.7-11.931-3.7s-4.391,2.867-5.017.536,10.239-5.643,11.823-5.463a2.1,2.1,0,0,0,.434,0,6.811,6.811,0,0,0,2.229-.789c.163-.084.325-.169.482-.259a17.853,17.853,0,0,0,1.608-1.012Z" transform="translate(-400.618 -134.499)"/>
    <path id="Path_92" data-name="Path 92" class="cls-7" d="M953.638,114.743a14.245,14.245,0,0,1-6.964,12.246,8.315,8.315,0,0,1-.516-1.037c-.512-1.2-.825-2.463-1.337-3.656a11.409,11.409,0,0,0-2.409-3.487,1.524,1.524,0,0,0-.6-.44,1.728,1.728,0,0,0-1.307.361,5.914,5.914,0,0,1-1.987.873,2.114,2.114,0,0,1-1.994-.6,2.988,2.988,0,0,1-.313-2.487,30.878,30.878,0,0,0,.927-5.559,5.484,5.484,0,0,0-2.349-4.854c-1.445-.819-3.24-.6-4.848-1.054a5.213,5.213,0,0,1-.729-.253,14.25,14.25,0,0,1,24.447,9.95Z" transform="translate(-406.335 -66.161)"/>
    <path id="Path_93" data-name="Path 93" class="cls-20" d="M927.265,98.866c-.259.139-.542.385-.464.675a.663.663,0,0,0,.259.331,6.168,6.168,0,0,0,2.253,1.156c1.608.434,3.409.229,4.854,1.054a5.474,5.474,0,0,1,2.349,4.848,32.47,32.47,0,0,1-.934,5.559,3.012,3.012,0,0,0,.319,2.493,2.126,2.126,0,0,0,1.994.6,5.872,5.872,0,0,0,1.981-.867,1.717,1.717,0,0,1,1.307-.361,1.591,1.591,0,0,1,.639.434,11.312,11.312,0,0,1,2.409,3.493c.518,1.2.831,2.457,1.337,3.656a5.9,5.9,0,0,0,2.409,2.975,3.011,3.011,0,0,0,3.614-.379c.831-.915.807-2.3,1.2-3.475.711-2.03,2.7-3.307,3.939-5.059,1.4-1.969,1.807-4.457,2.162-6.842a5.748,5.748,0,0,0,.036-2.289,8.3,8.3,0,0,0-.632-1.445c-1.385-2.867-1.355-6.475-3.565-8.769-1.662-1.716-4.18-2.24-6.553-2.53s-4.86-.47-6.9-1.716a7.589,7.589,0,0,0-1.867-1.036,1.536,1.536,0,0,0-1.837.687,1.205,1.205,0,0,1-.247.5.783.783,0,0,1-.7.042l-3.156-.849.361,1.59a7.878,7.878,0,0,1-3.349-.6c-.06.9.952,1.482,1.265,2.319a2.144,2.144,0,0,1-.6,2.186C929.987,98.384,928.554,98.161,927.265,98.866Z" transform="translate(-405.371 -62.499)"/>
    <path id="Path_94" data-name="Path 94" class="cls-7" d="M895.818,456.146l-.126,1.433-.054.03c-5.137,2.867-15.768-5.131-15.768-5.131l1.108-1.108a1.927,1.927,0,0,1,.482,1.494l2.174.12,2.6,2.807s7.029.813,8.932.355Z" transform="translate(-386.711 -205.71)"/>
    <path id="Path_95" data-name="Path 95" class="cls-15" d="M882.085,463.922c-3.343.741-15.057.687-15.057.687l-6.541,1.042s-11.257,1.078-12.509-2.409.982-3.282.982-3.282h.084l4.686-.379s5.945-2.3,8.125-3.885a46.868,46.868,0,0,0,4.866-4.36s1.957-.379,1.921,1.885l2.174.12,2.6,2.8s7.029.819,8.932.361H883l-.3,3.463.084.108C883.2,460.609,885.073,463.253,882.085,463.922Z" transform="translate(-373.875 -205.687)"/>
    <circle id="Ellipse_16" data-name="Ellipse 16" class="cls-16" cx="0.331" cy="0.331" r="0.331" transform="translate(495.749 249.201)"/>
    <circle id="Ellipse_17" data-name="Ellipse 17" class="cls-16" cx="0.331" cy="0.331" r="0.331" transform="translate(487.329 252.857)"/>
    <circle id="Ellipse_18" data-name="Ellipse 18" class="cls-16" cx="0.331" cy="0.331" r="0.331" transform="translate(482.992 254.176)"/>
    <circle id="Ellipse_19" data-name="Ellipse 19" class="cls-16" cx="0.331" cy="0.331" r="0.331" transform="translate(489.539 252.158)"/>
    <circle id="Ellipse_20" data-name="Ellipse 20" class="cls-16" cx="0.331" cy="0.331" r="0.331" transform="translate(485.155 253.519)"/>
    <circle id="Ellipse_21" data-name="Ellipse 21" class="cls-16" cx="0.331" cy="0.331" r="0.331" transform="translate(491.774 251.122)"/>
    <circle id="Ellipse_22" data-name="Ellipse 22" class="cls-16" cx="0.331" cy="0.331" r="0.331" transform="translate(493.984 250.165)"/>
    <path id="Path_96" data-name="Path 96" class="cls-17" d="M882.085,469.631c-3.343.741-15.057.687-15.057.687l-6.541,1.042s-11.257,1.078-12.509-2.409.982-3.282.982-3.282h.084c.717.928,2.156,1.988,4.987,2.036l8.095.331,8.39-.6s7.83-.241,9.137-.506a18.987,18.987,0,0,0,3.132-1.15C883.2,466.319,885.073,468.963,882.085,469.631Z" transform="translate(-373.875 -211.396)"/>
    <path id="Path_97" data-name="Path 97" class="cls-18" d="M869.125,471.805a5.28,5.28,0,0,1-1.325-.163l.12-.325a6.5,6.5,0,0,0,3.337-.151c.4-.1.789-.217,1.2-.337a13.658,13.658,0,0,1,5.812-.656h.259a55.017,55.017,0,0,0,10.751-.482,4,4,0,0,0,2.3-.921l.259.253a4.361,4.361,0,0,1-2.5,1.024,55.841,55.841,0,0,1-10.841.482h-.253a17.588,17.588,0,0,0-3.559.1,18.5,18.5,0,0,0-2.138.536c-.4.12-.795.241-1.2.343a8.954,8.954,0,0,1-2.222.3Z" transform="translate(-381.911 -212.631)"/>
    <path id="Path_98" data-name="Path 98" class="cls-7" d="M947.078,278.054l-2.108,1.982-5.24-6.7a17.854,17.854,0,0,0,1.608-1.012Z" transform="translate(-410.519 -134.499)"/>
    <path id="Path_99" data-name="Path 99" class="cls-19" d="M970.575,190.5l4.12,5.734v6.023a25.081,25.081,0,0,1,0,12.726l.211,5.553s-2,5.107-1.283,6.36c0,0-.361,3.764-5.2,6.366s-10.305,8.733-10.305,8.733-2.06,3.945-7.613,3.048l-5.288,2.24-6.089-7.794,8.239-4.481s2.867-3.855,4.571-3.674l6.986-8.137s.181-2.6,1.969-2.6c0,0-3.313-2.686-2.15-4.3s.181-8.781.181-8.781Z" transform="translate(-410.28 -101.957)"/>
    <path id="Path_100" data-name="Path 100" class="cls-7" d="M978.55,233.8s9.408-.175,10.57,2.24S981.417,232.456,978.55,233.8Z" transform="translate(-425.958 -119.099)"/>
    <path id="Path_101" data-name="Path 101" class="cls-7" d="M942.917,280.678a2.473,2.473,0,0,1-.036.47,3.168,3.168,0,0,1-2.963,2.692h-.169a3.162,3.162,0,0,1-3.162-3.162,3.241,3.241,0,0,1,.175-1.03c-1.494-1.2-1.572-3.361-1.536-4.439a6.811,6.811,0,0,0,2.228-.789,14.816,14.816,0,0,0,1.56,3.186,3.011,3.011,0,0,1,.735-.09,3.162,3.162,0,0,1,3.168,3.162Z" transform="translate(-408.725 -135.334)"/>
    <path id="Path_102" data-name="Path 102" class="cls-16" d="M937.974,273.26s-2.12.476-2.12.861-.476,3.885,1.849,5.318,2.1-2,2.1-2S937.793,274.362,937.974,273.26Z" transform="translate(-408.961 -134.872)"/>
    <circle id="Ellipse_23" data-name="Ellipse 23" class="cls-21" cx="3.168" cy="3.168" r="3.168" transform="translate(528.218 142.176)"/>
    <circle id="Ellipse_24" data-name="Ellipse 24" class="cls-17" cx="2.716" cy="2.716" r="2.716" transform="translate(528.669 142.628)"/>
    <path id="Path_103" data-name="Path 103" class="cls-7" d="M922.827,286.84a15.689,15.689,0,0,0,15.292,2.036v2.686s-5.734,3.939-10.931,1.554S922.827,286.84,922.827,286.84Z" transform="translate(-403.776 -140.273)"/>
    <path id="Path_104" data-name="Path 104" class="cls-7" d="M922.827,285.65a15.675,15.675,0,0,0,15.292,2.018v2.686s-5.734,3.939-10.931,1.554S922.827,285.65,922.827,285.65Z" transform="translate(-403.776 -139.8)"/>
    <path id="Path_105" data-name="Path 105" class="cls-13" d="M922.827,285.65a15.675,15.675,0,0,0,15.292,2.018v2.686s-5.734,3.939-10.931,1.554S922.827,285.65,922.827,285.65Z" transform="translate(-403.776 -139.8)"/>
    <path id="Path_106" data-name="Path 106" class="cls-14" d="M923.129,285.65a15.689,15.689,0,0,0,15.292,2.036v2.686s-5.752,3.921-10.931,1.554S923.129,285.65,923.129,285.65Z" transform="translate(-403.897 -139.8)"/>
    <path id="Path_107" data-name="Path 107" class="cls-7" d="M888,451.32s8.962,1.644,10.275,2-.361.988-.361.988S889.7,452.844,888,451.32Z" transform="translate(-389.945 -205.691)"/>
    <path id="Path_108" data-name="Path 108" class="cls-7" d="M887.61,440.441c.145,0,6.089-1.674,7.372-4.541" transform="translate(-389.789 -199.558)"/>
    <path id="Path_109" data-name="Path 109" class="cls-7" d="M902,386.508s2.409,3.168,3.963,3.078S903.415,386.387,902,386.508Z" transform="translate(-395.513 -179.912)"/>
    <path id="Path_110" data-name="Path 110" class="cls-7" d="M904.22,395.24s1.012,2.24,2.505,1.524" transform="translate(-396.396 -183.386)"/>
    <path id="Path_111" data-name="Path 111" class="cls-14" d="M913.59,313.554l6.354,16.755s.9-10.781-1-14.009a5.6,5.6,0,0,0-5.354-2.746Z" transform="translate(-400.122 -150.888)"/>
    <g id="Group_5" data-name="Group 5" class="cls-3" transform="translate(521.352 29.387)">
      <path id="Path_112" data-name="Path 112" d="M938.848,92.792l-.054-.241-1.024-.271.114.5A7.338,7.338,0,0,0,938.848,92.792Z" transform="translate(-931.091 -92.28)"/>
      <path id="Path_113" data-name="Path 113" d="M934.059,97.493l.108-.1a2.138,2.138,0,0,0,.6-2.18,2.955,2.955,0,0,0-.506-.813,7.827,7.827,0,0,1-1.476-.434c-.06.9.952,1.476,1.265,2.319A1.806,1.806,0,0,1,934.059,97.493Z" transform="translate(-929.109 -92.952)"/>
      <path id="Path_114" data-name="Path 114" d="M948.555,128.961a5.921,5.921,0,0,1-2.409-2.975c-.512-1.2-.819-2.469-1.337-3.656a11.232,11.232,0,0,0-2.409-3.487,1.524,1.524,0,0,0-.632-.44,1.71,1.71,0,0,0-1.307.361,6.022,6.022,0,0,1-1.988.873,2.15,2.15,0,0,1-1.994-.6,2.988,2.988,0,0,1-.313-2.487,30.962,30.962,0,0,0,.934-5.565,5.38,5.38,0,0,0-2.355-4.818c-1.445-.825-3.24-.6-4.818-1.054a6.119,6.119,0,0,1-2.252-1.156l-.126-.114a3.846,3.846,0,0,0-.391.187c-.259.139-.536.385-.464.669a.718.718,0,0,0,.265.337,6.2,6.2,0,0,0,2.253,1.15c1.608.44,3.4.235,4.848,1.06a5.453,5.453,0,0,1,2.355,4.818,32.379,32.379,0,0,1-.934,5.559,3,3,0,0,0,.313,2.487,2.12,2.12,0,0,0,1.994.6,6.023,6.023,0,0,0,1.988-.867,1.741,1.741,0,0,1,1.307-.367,1.583,1.583,0,0,1,.6.44,11.371,11.371,0,0,1,2.409,3.487c.518,1.2.825,2.463,1.337,3.656a5.909,5.909,0,0,0,2.409,3.011,3.049,3.049,0,0,0,3.614-.379,2.844,2.844,0,0,0,.536-.9,3.072,3.072,0,0,1-3.433.169Z" transform="translate(-926.681 -96.878)"/>
      <path id="Path_115" data-name="Path 115" d="M971.54,135.343c.9-1.132,2.072-2.1,2.915-3.288a8.4,8.4,0,0,0,.464-.735C973.835,132.7,972.347,133.813,971.54,135.343Z" transform="translate(-944.522 -107.807)"/>
    </g>
    <g id="Group_7" data-name="Group 7" class="cls-3" transform="translate(345.269 39.999)">
      <path id="Path_116" data-name="Path 116" d="M784.27,109.9H641.77a7.468,7.468,0,0,0-7.45,7.444v90.035a7.468,7.468,0,0,0,7.45,7.444H753.553s2.9,15.376-6.625,17.026c0,0,21.309,1.53,17.587-17.026h19.749a7.462,7.462,0,0,0,7.444-7.444V117.344a7.462,7.462,0,0,0-7.438-7.444Z" transform="translate(-634.32 -109.9)"/>
      <g id="Group_6" data-name="Group 6" class="cls-4" transform="translate(20.977 23.898)">
        <rect id="Rectangle_33" data-name="Rectangle 33" width="115.433" height="7.035" rx="3.517"/>
        <rect id="Rectangle_34" data-name="Rectangle 34" width="95.251" height="7.035" rx="3.517" transform="translate(0 31.439)"/>
        <rect id="Rectangle_35" data-name="Rectangle 35" width="68.57" height="7.035" rx="3.517" transform="translate(0 15.72)"/>
      </g>
    </g>
    <path id="Path_117" data-name="Path 117" class="cls-2" d="M787.36,107.83H644.86a7.474,7.474,0,0,0-7.45,7.45v90.035a7.468,7.468,0,0,0,7.45,7.444H756.643s2.9,15.376-6.625,17.026c0,0,21.309,1.53,17.587-17.026h19.749a7.462,7.462,0,0,0,7.444-7.444V115.28A7.468,7.468,0,0,0,787.36,107.83Z" transform="translate(-290.28 -69.078)"/>
    <g id="Group_8" data-name="Group 8" class="cls-4" transform="translate(368.108 62.651)">
      <rect id="Rectangle_36" data-name="Rectangle 36" class="cls-5" width="115.433" height="7.035" rx="3.517"/>
      <rect id="Rectangle_37" data-name="Rectangle 37" class="cls-5" width="95.251" height="7.035" rx="3.517" transform="translate(0 31.445)"/>
      <rect id="Rectangle_38" data-name="Rectangle 38" class="cls-5" width="68.57" height="7.035" rx="3.517" transform="translate(0 15.726)"/>
    </g>
    <path id="Path_118" data-name="Path 118" class="cls-5" d="M138.287,596.48s2.144,2.807-.994,7.047-5.728,7.83-4.68,10.462c0,0,4.734-7.872,8.589-7.98S142.527,601.214,138.287,596.48Z" transform="translate(-89.418 -263.424)"/>
    <path id="Path_119" data-name="Path 119" class="cls-7" d="M138.368,596.48a3.541,3.541,0,0,1,.434.879c3.764,4.421,5.764,8.54,2.15,8.649-3.367.1-7.4,6.113-8.372,7.637a1.1,1.1,0,0,0,.114.343s4.734-7.872,8.589-7.98S142.608,601.214,138.368,596.48Z" transform="translate(-89.499 -263.424)"/>
    <path id="Path_120" data-name="Path 120" class="cls-22" d="M148.484,602c0,.988-.108,1.807-.247,1.807s-.247-.8-.247-1.807.139-.524.277-.524S148.484,601.01,148.484,602Z" transform="translate(-95.628 -265.364)"/>
    <path id="Path_121" data-name="Path 121" class="cls-22" d="M149.969,603.935c-.867.476-1.626.759-1.692.638s.6-.6,1.451-1.072.53-.126.6,0S150.837,603.465,149.969,603.935Z" transform="translate(-95.74 -266.121)"/>
    <path id="Path_122" data-name="Path 122" class="cls-5" d="M120.169,596.48s-2.144,2.807.994,7.047,5.728,7.83,4.68,10.462c0,0-4.734-7.872-8.589-7.98S115.929,601.214,120.169,596.48Z" transform="translate(-82.647 -263.424)"/>
    <path id="Path_123" data-name="Path 123" class="cls-7" d="M120.169,596.48a3.541,3.541,0,0,0-.434.879c-3.764,4.421-5.764,8.54-2.15,8.649,3.367.1,7.4,6.113,8.372,7.637-.03.115-.072.229-.114.343,0,0-4.734-7.872-8.589-7.98S115.929,601.214,120.169,596.48Z" transform="translate(-82.647 -263.424)"/>
    <path id="Path_124" data-name="Path 124" class="cls-22" d="M116.73,602c0,.988.108,1.807.247,1.807s.247-.8.247-1.807-.139-.524-.277-.524S116.73,601.01,116.73,602Z" transform="translate(-83.195 -265.364)"/>
    <path id="Path_125" data-name="Path 125" class="cls-22" d="M114.1,603.935c.867.476,1.626.759,1.692.638s-.6-.6-1.451-1.072-.53-.126-.6,0S113.223,603.465,114.1,603.935Z" transform="translate(-81.934 -266.121)"/>
    <ellipse id="Ellipse_25" data-name="Ellipse 25" class="cls-1" cx="22.453" cy="3.445" rx="22.453" ry="3.445" transform="translate(20.743 365.158)"/>
    <path id="Path_126" data-name="Path 126" class="cls-23" d="M136.717,618.407l-.108.873-.151,1.241-.066.518-.151,1.235-.06.518-.151,1.241-1.723,14.087c-.151,1.259-2.2,2.24-4.686,2.24h-8.95c-2.481,0-4.529-.982-4.686-2.24l-1.723-14.081-.151-1.241-.06-.518-.151-1.235-.066-.518-.151-1.241-.108-.873c-.084-.711,1.03-1.313,2.409-1.313h18.255C135.663,617.094,136.777,617.7,136.717,618.407Z" transform="translate(-81.939 -271.625)"/>
    <path id="Path_127" data-name="Path 127" class="cls-24" d="M75.593,577.23l-.151,1.241H52.851L52.7,577.23Z" transform="translate(-20.954 -229.574)"/>
    <path id="Path_128" data-name="Path 128" class="cls-24" d="M75.521,580.15l-.151,1.235H53.207l-.157-1.235Z" transform="translate(-21.093 -230.736)"/>
    <path id="Path_129" data-name="Path 129" class="cls-24" d="M75.447,583.06,75.3,584.3H53.561l-.151-1.241Z" transform="translate(-21.236 -231.893)"/>
    <ellipse id="Ellipse_26" data-name="Ellipse 26" class="cls-1" cx="50.616" cy="8.305" rx="50.616" ry="8.305" transform="translate(338.337 467.106)"/>
    <g id="Group_10" data-name="Group 10" class="cls-3" transform="translate(285.089 220.358)">
      <path id="Path_130" data-name="Path 130" d="M696.889,409.36H542.471a8.1,8.1,0,0,0-8.071,8.07V515a8.1,8.1,0,0,0,8.071,8.071H663.607s3.138,16.659-7.173,18.448c0,0,23.085,1.656,19.05-18.448h21.405A8.1,8.1,0,0,0,704.96,515V417.431a8.1,8.1,0,0,0-8.071-8.071Z" transform="translate(-534.4 -409.36)"/>
      <g id="Group_9" data-name="Group 9" class="cls-4" transform="translate(22.73 42.937)">
        <rect id="Rectangle_39" data-name="Rectangle 39" width="125.093" height="7.625" rx="3.812" transform="translate(0 17.038)"/>
        <rect id="Rectangle_40" data-name="Rectangle 40" width="54.241" height="7.625" rx="3.812"/>
      </g>
    </g>
    <path id="Path_131" data-name="Path 131" class="cls-2" d="M694.679,407.13H540.23a8.1,8.1,0,0,0-8.071,8.071V512.77a8.1,8.1,0,0,0,8.071,8.071H661.367s3.138,16.659-7.173,18.454c0,0,23.091,1.656,19.056-18.454h21.429a8.1,8.1,0,0,0,8.071-8.071V415.2a8.1,8.1,0,0,0-8.071-8.071Z" transform="translate(-248.42 -188.115)"/>
    <g id="Group_11" data-name="Group 11" class="cls-4" transform="translate(306.476 261.951)">
      <rect id="Rectangle_41" data-name="Rectangle 41" class="cls-5" width="125.093" height="7.625" rx="3.812" transform="translate(0 17.038)"/>
      <rect id="Rectangle_42" data-name="Rectangle 42" class="cls-5" width="54.241" height="7.625" rx="3.812"/>
    </g>
    <path id="Path_132" data-name="Path 132" class="cls-25" d="M670.829,647.924c-.729-3.09-1.2-5.806-1.2-5.806a11.967,11.967,0,0,0-1.343-5.9v-.843h0v-6.222a20.864,20.864,0,0,1,1.572-3.258c1.12-1.957,0-9.125,0-9.125s-4.156-10.106-3.144-16.515-8.534-28.47-8.534-28.47a28,28,0,0,1,.9-6.3,4.875,4.875,0,0,0,.12-1.319,1.445,1.445,0,0,0,0-.163v.054c-.145-4.216-3.487-12.154-3.487-12.154l.452-15.1s2.132-8.908-1.349-20.863c-1.2-4.168-1.994-7.51-2.487-10.082-.054-.3-.108-.6-.157-.843,7.167-1.09,12.648-2,12.648-2s-4.144-17.388-6.95-20.4-5.047-12.648-5.047-12.648-1.464-12.28.9-15.864,2.692-9.775,2.692-9.775,5.421-3.915,6.065-5.649a29.9,29.9,0,0,0,1.807-7.715c0-2.066-.675-3.915-.452-5s-1.572-5.216-.674-7.173a5.271,5.271,0,0,0,.361-1.885v-.054h0a26.635,26.635,0,0,0-.476-5.1,14.455,14.455,0,0,0-5.33-2.849l-.12-.47-.3-1.2c-.181-.12-.355-.223-.53-.319v-.446l-.054-1.765.849-3.963c1.656-6.9-7.552-7.932-7.552-7.932a4.818,4.818,0,0,0-2.608-2.283c-1.855-.65-.307,10.377.56,11.082.65.53,2.662,3.987,3.614,5.685h0l.157.283a3.372,3.372,0,0,0-.422.44l.349,2.409.054.367a10.032,10.032,0,0,0-1.47,2.505,5.35,5.35,0,0,1,1.349,3.915,11.9,11.9,0,0,0,.554,4.776c-.1-.114-1.283-1.4-2.463-1.084s-4.493,1.307-4.493,1.307-2.469.434-2.24.976-1.686,2.933-1.686,2.933l-6.625-6.288c-.06-.187-.132-.373-.193-.572a15.775,15.775,0,0,1-.6-2.752,15.752,15.752,0,0,0,2.12-.675,4.589,4.589,0,0,0,1.807-1.174,7.146,7.146,0,0,0,1.066-2.861,41.389,41.389,0,0,1,2.463-5.493,17.828,17.828,0,0,0,1.325-9.859,6.511,6.511,0,0,0-1.018-2.885c-1.084-1.494-3.048-2.1-4.481-3.288s-2.349-3.011-4.011-3.9a7.986,7.986,0,0,0-5.041-.434,27.157,27.157,0,0,0-9.4,3.421,4.841,4.841,0,0,1-3.144,1.036,4.237,4.237,0,0,1-2.271-1.668.111.111,0,0,1,.03-.09l-.072-.084a11.666,11.666,0,0,0-.982,4.921,7.022,7.022,0,0,0,.03.8v.506h0a1.2,1.2,0,0,1-.048.355,2.59,2.59,0,0,1-.6.9,4.72,4.72,0,0,0-.542.735,2.42,2.42,0,0,1,.09-.271,3.946,3.946,0,0,0-.687,2.1,2.072,2.072,0,0,0,.494,1.494,7.226,7.226,0,0,0,1.084.873,12.648,12.648,0,0,0,6.023,13.154c.078.187.157.379.229.572a15.838,15.838,0,0,1,1.2,7.227,2.627,2.627,0,0,1-.084.53c-.036.175-.163.181-.235.277h0s-10.956.108-13.539-2.228-6.511,5.7-6.511,5.7-3.927.759-4.71,0-5.39-.108-5.39-.108a9.907,9.907,0,0,0-6.818-2.493,20.263,20.263,0,0,0-5.023-2.795h0l-.12-.042h0a5.649,5.649,0,0,0-2.469-.313s-5.39-4.457-6.962-6.842-9.034-11.257-9.088-11.3v-.428l-.084-1.295a4.283,4.283,0,0,1-.669.06c-.042-.126-.09-.277-.151-.446a25.028,25.028,0,0,0-1.59-3.656s0-1.626.476-2.036-.2-6.384-.2-6.384-4.854-11.353-9.2-2.879c0,0-8.221,5.487-1.319,11.871,0,0,2.752,1.331,3.138,2.409.259.687,1.2,2.6,1.807,3.873l.283.572-.078.066.1,1.066.042.41c-1.3.741-2.18,1.47-1.969,2.024a12.248,12.248,0,0,1,.789,2.933s9.5,11.925,10.739,17.045c0,0,25.591,15.208,34.011,16.292l-1.457,7.607a60.83,60.83,0,0,0-.337,6.191c.108,1.632-1.012,9.034-1.012,9.034s-1.457,10.841-2.692,12.383-.982,8.028-.982,8.028a54.888,54.888,0,0,1-1.686,9.233,24.2,24.2,0,0,0-.337,9.239s-4.264,9.775,5.951,3.15c0,0,5.017-.313,10.793-.512v.6c0,.741,0,1.548-.036,2.409-.078,5.6-.108,13.316.145,19.159.452,10.317,3.614,30.746,3.614,30.746v10.239a14.089,14.089,0,0,0-.3,2.933,19.122,19.122,0,0,0,2.764,10.275l.789,6.842s1.843,4.511,1.879,7.227a4.173,4.173,0,0,1-.078.656,4.674,4.674,0,0,0-.09,1.048c-.1,3.108,1.771,10.54,1.771,10.54s.108,7.5,1.2,7.932c.958.373-1.283,4.324-1.951,5.457a.4.4,0,0,0-.042-.217l-.139.229a5.254,5.254,0,0,0-.349,1.891,2.728,2.728,0,0,0,1.247,2.638c2.132,1.3,3.276,2.409,1.464,2.825a19.442,19.442,0,0,0-1.976.416l-.1-.253a1.2,1.2,0,0,0-.735,1.313,5.469,5.469,0,0,0,.668,2.542,28.978,28.978,0,0,0,3.011,5.541l.867-.1a4.643,4.643,0,0,1-.5.928,3.578,3.578,0,0,1-1.271,1.126,3.831,3.831,0,0,1-1.536.524,4.342,4.342,0,0,0-3.18,1.548c-1.12,1.452-1.807,3.421.391,5.156l8.028,2.77s13.8,1.807,13.076-1.307-1.2-5.812-1.2-5.812a12.238,12.238,0,0,0-1.12-5.493,7.351,7.351,0,0,0-.488-.807l.488-.054s1.012-6.848,2.355-8.149c.313-.3.385-.53.307-.711.139-.373-.211-.6-.662-.717l-.1.271a6.574,6.574,0,0,0-1.343-.15s-.446-3.584,1.012-4.885a1.385,1.385,0,0,0,.283-1.066,5.986,5.986,0,0,0-.151-1.464l-.054.084a53.024,53.024,0,0,0-3.222-8.432s-.114-3.258.789-4.565-.114-17.707-.114-17.707.337-7.932-.675-11.624,1.235-8.04,1.235-8.04v-.241l.03-.054s-.054-.488-.132-1.247v.072c-.229-2.1-.656-5.9-.97-7.661-.452-2.5.108-14.455.108-14.455l2.024-5.107,3.614,8.805,3.818,11.732a9.982,9.982,0,0,1,1.933,4.987,2.46,2.46,0,0,1,0,.367,7.053,7.053,0,0,0-.042.789,6.95,6.95,0,0,0,1.162,4.174s1.012,5.541,2.584,6.956,1.572,4.126,1.572,4.126,1.9,8.04,2.807,9.456c.753,1.2.8,4.463.789,5.463h0v.3s.265,2.873.253,5.288v.861a.256.256,0,0,1,0-.066,8.824,8.824,0,0,1-.235,1.957.2.2,0,0,1-.036.114l.036-.41a20.7,20.7,0,0,0-.6,5.011c-.054,2.891.385,6.312,2.138,8.318,3.011,3.481,4.939,3.047,4.939,3.047s-1.458,4.342-3.258,5.21a1.018,1.018,0,0,0-.187.126,1.864,1.864,0,0,0-.048-.253,2.108,2.108,0,0,0-.524,1.62,11.545,11.545,0,0,0,2.222,6.438,3.5,3.5,0,0,0,1.518.885l-.283.175a6.2,6.2,0,0,1-.6.3,2.909,2.909,0,0,1-.916.235,4.3,4.3,0,0,0-3.18,1.548c-1.12,1.445-1.807,3.415.391,5.149l8.028,2.771S671.558,651.025,670.829,647.924Z" transform="translate(-252.75 -178.162)"/>
    <path id="Path_133" data-name="Path 133" class="cls-26" d="M661.594,821.932l-7.769-2.77c-2.144-1.735-1.458-3.7-.379-5.156a4.156,4.156,0,0,1,3.078-1.548,3.611,3.611,0,0,0,1.488-.524,3.486,3.486,0,0,0,1.2-1.126,5.68,5.68,0,0,0,.885-3.011s8.534-2.5,10.841,0a6.42,6.42,0,0,1,1.036,1.512,12.647,12.647,0,0,1,1.084,5.493s.44,2.716,1.138,5.812S661.594,821.932,661.594,821.932Z" transform="translate(-296.251 -347.027)"/>
    <path id="Path_134" data-name="Path 134" class="cls-26" d="M724.733,815.57l-7.769-2.77c-2.144-1.735-1.464-3.7-.379-5.15a4.113,4.113,0,0,1,3.078-1.548,2.728,2.728,0,0,0,.885-.235,4.562,4.562,0,0,0,.6-.3c2.168-1.2,2.114-4.126,2.114-4.126s8.528-2.5,10.841,0a5.822,5.822,0,0,1,.813,1.108,12.29,12.29,0,0,1,1.307,5.9s.434,2.716,1.138,5.812S724.733,815.57,724.733,815.57Z" transform="translate(-321.362 -344.501)"/>
    <path id="Path_135" data-name="Path 135" class="cls-7" d="M675.49,807.8a6.423,6.423,0,0,1,1.036,1.512h0L663.74,810.8a5.679,5.679,0,0,0,.885-3.011S673.16,805.3,675.49,807.8Z" transform="translate(-300.752 -347.027)"/>
    <path id="Path_136" data-name="Path 136" class="cls-7" d="M738.234,802.543v2.409c-1.982,3.276-11.6,2.56-14.395.916a4.568,4.568,0,0,0,.6-.3c2.168-1.2,2.114-4.126,2.114-4.126s8.528-2.5,10.841,0A5.824,5.824,0,0,1,738.234,802.543Z" transform="translate(-324.655 -344.501)"/>
    <path id="Path_137" data-name="Path 137" class="cls-16" d="M707.376,703.015a22.159,22.159,0,0,0-1.524,3.258v8.582c-2.168,3.614-13.467,2.409-14.991.434s-3.15-7.059-1.409-7.926,3.15-5.216,3.15-5.216-1.849.434-4.782-3.042-2.066-11.19-1.518-13.039,0-8.04,0-8.04.108-4.342-.765-5.758-2.716-9.45-2.716-9.45,0-2.716-1.518-4.132-2.5-6.95-2.5-6.95a7.137,7.137,0,0,1-1.1-4.668c.331-2.716-1.843-5.649-1.843-5.649l-3.692-11.732-3.481-8.8-1.939,5.1s-.548,11.949-.108,14.455,1.084,9.125,1.084,9.125-2.174,4.348-1.2,8.04.651,11.624.651,11.624.976,16.406.108,17.707-.759,4.565-.759,4.565,4.451,9.558,3.011,10.841-.982,4.891-.982,4.891,3.011,0,1.741,1.3-2.222,8.167-2.222,8.167l-13.136,1.518a27.289,27.289,0,0,1-2.945-5.541c-1.741-4.023.325-3.614,2.078-4.017s.638-1.524-1.421-2.825-.873-4.216-.873-4.216,3.15-5.324,2.066-5.764-1.2-7.926-1.2-7.926-2.174-8.914-1.632-11.3-1.741-8.149-1.741-8.149l-.759-6.848a18.834,18.834,0,0,1-2.409-12.925V638.155s-3.011-20.423-3.475-30.746c-.277-6.625-.2-15.629-.108-21.26.054-3.156.108-5.246.108-5.246l46.948-4.9a38.765,38.765,0,0,0,.849,6.968c.476,2.578,1.2,5.914,2.409,10.088,3.367,11.949,1.3,20.857,1.3,20.857l-.434,15.105s4.132,10.1,3.258,13.581a28.91,28.91,0,0,0-.867,6.3s9.233,22.056,8.257,28.464,3.011,16.514,3.011,16.514S708.46,701.057,707.376,703.015Z" transform="translate(-292.273 -255.278)"/>
    <path id="Path_138" data-name="Path 138" class="cls-14" d="M705.71,691.653,720,689.75S711.907,698.007,705.71,691.653Z" transform="translate(-317.444 -300.519)"/>
    <path id="Path_139" data-name="Path 139" class="cls-7" d="M724.278,666.57s.488,5.053-2.608,6.956C721.676,673.526,727.217,672.653,724.278,666.57Z" transform="translate(-323.792 -291.3)"/>
    <path id="Path_140" data-name="Path 140" class="cls-7" d="M713.418,639.88s-11.943,9.829-16.262,9.034S713.418,639.88,713.418,639.88Z" transform="translate(-313.805 -280.685)"/>
    <path id="Path_141" data-name="Path 141" class="cls-7" d="M670.138,700.58s-9.07,2.06-9.341,5.7S670.138,700.58,670.138,700.58Z" transform="translate(-299.579 -304.826)"/>
    <path id="Path_142" data-name="Path 142" class="cls-14" d="M673.129,775.8s-12.817,2.409-9.179,4.017a64.588,64.588,0,0,0,9.636,2.933S677.695,782.967,673.129,775.8Z" transform="translate(-300.577 -334.743)"/>
    <g id="Group_12" data-name="Group 12" class="cls-27" transform="translate(350.138 325.311)">
      <path id="Path_143" data-name="Path 143" d="M658.991,785.541a2.554,2.554,0,0,1-1.168-1.861l-.133.229s-1.2,2.933.867,4.216c.241.151.464.3.669.446.385-.072.795-.127,1.2-.223C662.165,787.926,661.057,786.842,658.991,785.541Z" transform="translate(-648.345 -663.188)"/>
      <path id="Path_144" data-name="Path 144" d="M687.1,783.844c.355-.325.343-1.162.126-2.234a6.058,6.058,0,0,0-.729,3.15A2.636,2.636,0,0,1,687.1,783.844Z" transform="translate(-659.938 -662.365)"/>
      <path id="Path_145" data-name="Path 145" d="M683.657,695.58a14.609,14.609,0,0,0-.867,3.993,15.727,15.727,0,0,1,.994-2.746S683.736,696.339,683.657,695.58Z" transform="translate(-658.466 -628.149)"/>
      <path id="Path_146" data-name="Path 146" d="M732.845,685.315a5,5,0,0,0,.12-1.2c-.163.807-.277,1.56-.355,2.222A5.843,5.843,0,0,1,732.845,685.315Z" transform="translate(-678.28 -623.587)"/>
      <path id="Path_147" data-name="Path 147" d="M683.527,758.119a6.928,6.928,0,0,0,.325-2.409,8.183,8.183,0,0,0-.6,3.047A2.935,2.935,0,0,1,683.527,758.119Z" transform="translate(-658.649 -652.064)"/>
      <path id="Path_148" data-name="Path 148" d="M675.855,793.72a42.752,42.752,0,0,0-1.494,6.673l-13.136,1.524a27.532,27.532,0,0,1-2.945-5.541c-.151-.355-.271-.669-.367-.958-.789.361-1.1,1.2-.066,3.565a27.79,27.79,0,0,0,2.939,5.541L673.94,803s.976-6.842,2.277-8.149C676.849,794.214,676.439,793.889,675.855,793.72Z" transform="translate(-648.285 -667.181)"/>
      <path id="Path_149" data-name="Path 149" d="M652.616,690.651s.108,7.5,1.2,7.932h0c.548-1.241.915-2.409.428-2.614-1.09-.434-1.2-7.932-1.2-7.932s-2.168-8.908-1.626-11.3-1.741-8.149-1.741-8.149l-.759-6.842a18.809,18.809,0,0,1-2.409-12.931v-10.54s-3.011-20.423-3.475-30.716c-.277-6.625-.2-15.659-.108-21.26,0-1.018.03-1.921.048-2.68l-.373.036s-.06,2.09-.108,5.252c-.1,5.625-.175,14.647.108,21.254.434,10.323,3.475,30.746,3.475,30.746v10.54a18.809,18.809,0,0,0,2.409,12.931l.765,6.8s2.283,5.758,1.741,8.149S652.616,690.651,652.616,690.651Z" transform="translate(-642.403 -583.62)"/>
      <path id="Path_150" data-name="Path 150" d="M721.867,799.052a12.647,12.647,0,0,1-2.078-5.161c-1.343,1.2.2,5.908,1.644,7.769,1.518,1.951,12.817,3.15,14.991-.434v-2.072C733.485,802.069,723.325,800.9,721.867,799.052Z" transform="translate(-672.976 -667.249)"/>
      <path id="Path_151" data-name="Path 151" d="M749.994,782.016a21.082,21.082,0,0,0-1.524,3.258v1.512c.247-.56.6-1.3,1.09-2.18a6.5,6.5,0,0,0,.476-2.686A.363.363,0,0,0,749.994,782.016Z" transform="translate(-684.588 -662.488)"/>
      <path id="Path_152" data-name="Path 152" d="M720.583,774.341a20.969,20.969,0,0,0,1.072-2.584s-1.849.434-4.782-3.011c-2.138-2.53-2.259-7.306-1.951-10.425-.548,1.843-1.415,9.558,1.518,13.033C718.36,773.6,719.806,774.2,720.583,774.341Z" transform="translate(-671.023 -653.102)"/>
      <path id="Path_153" data-name="Path 153" d="M702.613,705.458a58.052,58.052,0,0,1,.217,6.438,9.384,9.384,0,0,1,.223-1.012c.548-1.843,0-8.034,0-8.034s.108-4.348-.759-5.758-2.716-9.456-2.716-9.456,0-2.716-1.518-4.126-2.5-6.956-2.5-6.956a7.113,7.113,0,0,1-1.09-4.668c.325-2.716-1.843-5.649-1.843-5.649l-3.7-11.738-3.475-8.8-1.957,5.107s0,.644-.066,1.65l1.59-4.15,3.475,8.8,3.71,11.738s2.174,2.933,1.849,5.649a7.113,7.113,0,0,0,1.09,4.668s.976,5.541,2.493,6.956,1.524,4.126,1.524,4.126,1.849,8.04,2.716,9.456S702.613,705.458,702.613,705.458Z" transform="translate(-658.72 -608.31)"/>
    </g>
    <path id="Path_154" data-name="Path 154" class="cls-28" d="M723.381,406.24l-.819,3.963.048,1.765.036,1.307-4.535.464-.506-.94h0c-.94-1.7-2.885-5.156-3.517-5.686-.837-.7-2.331-11.732-.536-11.082a4.746,4.746,0,0,1,2.524,2.289S724.983,399.368,723.381,406.24Z" transform="translate(-320.227 -183.69)"/>
    <path id="Path_155" data-name="Path 155" class="cls-7" d="M725.881,423.508l-4.535.464-.506-.94h0a4.005,4.005,0,0,1,5-.825Z" transform="translate(-323.462 -193.899)"/>
    <path id="Path_156" data-name="Path 156" class="cls-17" d="M726.854,425.913l-5.981,1.385-.12-.891L720.41,424a4.113,4.113,0,0,1,5.788-.789l.3,1.2Z" transform="translate(-323.291 -194.16)"/>
    <path id="Path_157" data-name="Path 157" class="cls-28" d="M560.787,401.162l-6.378,3.421-.6-1.2c-.6-1.271-1.512-3.186-1.759-3.873-.379-1.054-3.042-2.409-3.042-2.409-6.679-6.384,1.277-11.871,1.277-11.871,4.216-8.474,8.908,2.879,8.908,2.879s.65,5.981.193,6.384-.464,2.036-.464,2.036a24.72,24.72,0,0,1,1.542,3.656C560.685,400.788,560.787,401.162,560.787,401.162Z" transform="translate(-254.058 -178.154)"/>
    <path id="Path_158" data-name="Path 158" class="cls-7" d="M565.72,413.093l-6.378,3.421-.6-1.2c.9-.747,4.1-3.337,5.143-3.222a8.024,8.024,0,0,0,1.512.042C565.618,412.72,565.72,413.093,565.72,413.093Z" transform="translate(-258.991 -190.086)"/>
    <path id="Path_159" data-name="Path 159" class="cls-17" d="M566.514,415.347l-7.167,3.535-.145-1.542-.1-1.066s4.156-3.559,5.384-3.427a6.482,6.482,0,0,0,1.873,0l.078,1.289Z" transform="translate(-259.134 -190.388)"/>
    <path id="Path_160" data-name="Path 160" class="cls-28" d="M684.3,440.771s-31.27,3.529-25.422,1.632c4.065-1.325,5.679-3.909,6.023-6.782a16.291,16.291,0,0,0-1.168-7.227,31.108,31.108,0,0,0-2.795-5.649s23.9-13.148,19.122-1.2a19.152,19.152,0,0,0-1.355,5.661,15.829,15.829,0,0,0,.6,5.728A17.026,17.026,0,0,0,684.3,440.771Z" transform="translate(-298.529 -191.853)"/>
    <path id="Path_161" data-name="Path 161" class="cls-7" d="M681.9,421.54a19.154,19.154,0,0,0-1.355,5.661c-2.253,1.891-4.722,1.765-7.89,1.765-2.409,0-5.131.6-7.083-.6a31.1,31.1,0,0,0-2.795-5.649S686.684,409.579,681.9,421.54Z" transform="translate(-300.37 -191.847)"/>
    <circle id="Ellipse_27" data-name="Ellipse 27" class="cls-28" cx="12.931" cy="12.931" r="12.931" transform="translate(358.929 212.088)"/>
    <path id="Path_162" data-name="Path 162" class="cls-7" d="M684.3,450.716s-31.27,3.529-25.422,1.632c4.065-1.325,5.679-3.909,6.023-6.782,1.554-1.686,4.68-2.9,6.691-3.547a9.341,9.341,0,0,1,5.667-.09,7.871,7.871,0,0,1,2.06.952,17.026,17.026,0,0,0,4.981,7.836Z" transform="translate(-298.529 -201.798)"/>
    <path id="Path_163" data-name="Path 163" class="cls-7" d="M727.081,427.171l-5.981,1.385-.12-.891a5.282,5.282,0,0,1,5.74-1.963Z" transform="translate(-323.517 -195.419)"/>
    <path id="Path_164" data-name="Path 164" class="cls-7" d="M566.582,416.2l-7.167,3.535-.145-1.542a52.693,52.693,0,0,1,7.227-3.2Z" transform="translate(-259.202 -191.241)"/>
    <path id="Path_165" data-name="Path 165" class="cls-7" d="M690.473,582.98c-12.106,1.915-29.343,4.4-32.077,3.572-2.265-.693-9.51-.6-15.816-.4.054-3.156.108-5.246.108-5.246l46.936-4.9A38.767,38.767,0,0,0,690.473,582.98Z" transform="translate(-292.336 -255.278)"/>
    <path id="Path_166" data-name="Path 166" class="cls-29" d="M668.181,516.355S628.31,523.2,624.028,521.9s-26.247.108-26.247.108c-9.883,6.625-5.758-3.15-5.758-3.15a24.324,24.324,0,0,1,.325-9.233,56.24,56.24,0,0,0,1.662-9.233s-.217-6.523.976-8.04,2.608-12.389,2.608-12.389,1.09-7.384.982-9.034a61.753,61.753,0,0,1,.325-6.191l1.409-7.607c-8.149-1.084-32.921-16.3-32.921-16.3-1.2-5.1-10.425-17.057-10.425-17.057a12.4,12.4,0,0,0-.765-2.933c-.65-1.735,9.131-5.21,9.131-5.21s7.276,8.908,8.8,11.3,6.733,6.842,6.733,6.842a5.3,5.3,0,0,1,2.409.313l.126.036h0a19.479,19.479,0,0,1,4.866,2.795,9.431,9.431,0,0,1,6.625,2.5s4.457-.65,5.216.108,4.565,0,4.565,0,3.8-8.04,6.3-5.7,13.1,2.228,13.1,2.228c1.415-1.879,4.854-3.228,7-3.921a9.384,9.384,0,0,1,5.667-.09,7.305,7.305,0,0,1,2.234,1.078l6.432,6.3s1.849-2.409,1.632-2.933,2.174-.976,2.174-.976,3.15-.982,4.342-1.307,2.289.97,2.409,1.084a12.738,12.738,0,0,1-.536-4.776,5.622,5.622,0,0,0-1.307-3.915c3.806-9.341,12.389-1.518,12.389-1.518s.976,5.107.108,7.059.867,6.089.651,7.173.434,2.933.434,5a29.313,29.313,0,0,1-1.741,7.709c-.656,1.735-5.866,5.649-5.866,5.649s-.325,6.2-2.608,9.781-.934,15.864-.934,15.864,2.174,9.582,4.909,12.648S668.181,516.355,668.181,516.355Z" transform="translate(-257.968 -191.496)"/>
    <path id="Path_167" data-name="Path 167" class="cls-7" d="M642.063,459.781s-1.2-3.584-2.283-3.909a25.851,25.851,0,0,1-3.15-1.415l.7-1.337s4.077,1.12,4.734,2.313S642.063,459.781,642.063,459.781Z" transform="translate(-289.97 -206.406)"/>
    <path id="Path_168" data-name="Path 168" class="cls-7" d="M602.859,449.127c-.217,1.084-9.889,2.066-9.889,2.066l4.891-4.9h0l.12.042h0a19.48,19.48,0,0,1,4.878,2.795Z" transform="translate(-272.605 -203.69)"/>
    <circle id="Ellipse_28" data-name="Ellipse 28" class="cls-16" cx="0.867" cy="0.867" r="0.867" transform="translate(301.405 229.663)"/>
    <circle id="Ellipse_29" data-name="Ellipse 29" class="cls-16" cx="0.867" cy="0.867" r="0.867" transform="translate(302.519 231.404)"/>
    <circle id="Ellipse_30" data-name="Ellipse 30" class="cls-16" cx="0.867" cy="0.867" r="0.867" transform="translate(303.609 233.006)"/>
    <circle id="Ellipse_31" data-name="Ellipse 31" class="cls-16" cx="0.867" cy="0.867" r="0.867" transform="translate(304.748 234.746)"/>
    <circle id="Ellipse_32" data-name="Ellipse 32" class="cls-16" cx="0.705" cy="0.705" r="0.705" transform="translate(407.322 234.812)"/>
    <circle id="Ellipse_33" data-name="Ellipse 33" class="cls-16" cx="0.705" cy="0.705" r="0.705" transform="translate(407.43 236.415)"/>
    <circle id="Ellipse_34" data-name="Ellipse 34" class="cls-16" cx="0.705" cy="0.705" r="0.705" transform="translate(407.527 238.017)"/>
    <path id="Path_169" data-name="Path 169" class="cls-7" d="M645.74,513.06c-.1-.126,24.386,30.8,43.4,12.931C689.14,525.991,659.1,530.062,645.74,513.06Z" transform="translate(-293.593 -230.246)"/>
    <path id="Path_170" data-name="Path 170" class="cls-7" d="M622.38,539.76s14.653.4,16.183,4.613v4.391a2.8,2.8,0,0,1-2.722,0c-1.476-.8-10.341-5.3-13.461-3.138Z" transform="translate(-284.302 -240.865)"/>
    <path id="Path_171" data-name="Path 171" class="cls-29" d="M622.83,539.76s14.015.379,15.479,4.4v4.174a2.686,2.686,0,0,1-2.608,0c-1.409-.759-9.883-5.053-12.871-3.011Z" transform="translate(-284.481 -240.865)"/>
    <path id="Path_172" data-name="Path 172" class="cls-7" d="M635.66,486.92a47.349,47.349,0,0,0,5.68,9.751,38.233,38.233,0,0,0,8.9,8.595S635.9,488.938,635.66,486.92Z" transform="translate(-289.584 -219.849)"/>
    <path id="Path_173" data-name="Path 173" class="cls-7" d="M627.7,458.65s2.445,10.552,8.745,14.142Z" transform="translate(-286.418 -208.606)"/>
    <path id="Path_174" data-name="Path 174" class="cls-7" d="M621.327,460.418c-.06-.193-2.168,8.348,8.125,13.076C629.475,473.493,625.079,472.006,621.327,460.418Z" transform="translate(-283.797 -209.308)"/>
    <path id="Path_175" data-name="Path 175" class="cls-7" d="M727.718,448.666c-.163,0,5.083,3.337,6.5,4.884C734.222,453.55,730.813,448.449,727.718,448.666Z" transform="translate(-326.196 -204.632)"/>
    <path id="Path_176" data-name="Path 176" class="cls-26" d="M665.583,417.294a2.753,2.753,0,0,0,1.012,1.747,2.789,2.789,0,0,0,1.2.271c3.945.241,8.046.416,11.69-1.1a4.421,4.421,0,0,0,1.807-1.174,7.288,7.288,0,0,0,1.036-2.861,37.542,37.542,0,0,1,2.409-5.493,18.424,18.424,0,0,0,1.277-9.859,6.536,6.536,0,0,0-.982-2.885c-1.048-1.494-2.951-2.1-4.336-3.282s-2.271-3.011-3.885-3.9a7.5,7.5,0,0,0-4.878-.434,25.743,25.743,0,0,0-9.167,3.421,4.551,4.551,0,0,1-3.011,1.036,4.207,4.207,0,0,1-2.24-1.716,12.044,12.044,0,0,0-.964,5.631,2.5,2.5,0,0,1,0,.849,2.621,2.621,0,0,1-.6.9c-.976,1.126-1.584,2.915-.6,4.053.416.5,1.06.771,1.47,1.277.729.909.482,2.21.464,3.379a1.722,1.722,0,0,0,.289,1.144,1.668,1.668,0,0,0,1.6.379,4.427,4.427,0,0,1,1.7-.163,2.8,2.8,0,0,1,1.476,1.138C664.114,411.957,664.818,414.505,665.583,417.294Z" transform="translate(-297.217 -180.554)"/>
    <g id="Group_13" data-name="Group 13" class="cls-3" transform="translate(357.596 210.378)">
      <path id="Path_177" data-name="Path 177" d="M681.686,423.171a4.373,4.373,0,0,1-1.807,1.2c-3.614,1.518-7.745,1.343-11.69,1.1a2.627,2.627,0,0,1-1.2-.271,2.734,2.734,0,0,1-1.012-1.747c-.765-2.783-1.469-5.33-3.294-7.643a2.794,2.794,0,0,0-1.476-1.138,4.312,4.312,0,0,0-1.7.163,1.68,1.68,0,0,1-1.578-.379,1.735,1.735,0,0,1-.289-1.15c0-1.162.265-2.469-.464-3.373-.41-.512-1.048-.777-1.47-1.277a2.554,2.554,0,0,1-.253-2.6c-.687,1.1-.988,2.505-.181,3.463.416.5,1.06.771,1.47,1.277.729.909.482,2.21.464,3.379a1.723,1.723,0,0,0,.289,1.144,1.668,1.668,0,0,0,1.6.379,4.427,4.427,0,0,1,1.7-.163,2.8,2.8,0,0,1,1.476,1.138c1.807,2.313,2.53,4.86,3.294,7.649a2.042,2.042,0,0,0,2.228,2.018c3.945.241,8.047.416,11.69-1.1a4.42,4.42,0,0,0,1.807-1.174,3.45,3.45,0,0,0,.56-1.048A1.833,1.833,0,0,1,681.686,423.171Z" transform="translate(-654.786 -398.068)"/>
      <path id="Path_178" data-name="Path 178" d="M657.636,399.054a1.806,1.806,0,0,0,.4-.65,2.511,2.511,0,0,0,0-.849,11.984,11.984,0,0,1,.6-4.68l-.072-.084a11.962,11.962,0,0,0-.964,5.631A3.7,3.7,0,0,1,657.636,399.054Z" transform="translate(-655.893 -392.79)"/>
    </g>
    <path id="Path_179" data-name="Path 179" class="cls-7" d="M668.84,449.379s16.153,2.138,17.6-.289" transform="translate(-302.78 -204.804)"/>
    <path id="Path_180" data-name="Path 180" class="cls-7" d="M721,438.47s8.968,0,10.943,3.379" transform="translate(-323.525 -200.58)"/>
    <path id="Path_181" data-name="Path 181" class="cls-5" d="M1039.7,425s1.12,1.464-.518,3.68-3.011,4.089-2.445,5.469c0,0,2.475-4.114,4.487-4.174S1041.914,427.445,1039.7,425Z" transform="translate(-449.048 -195.223)"/>
    <path id="Path_182" data-name="Path 182" class="cls-7" d="M1039.743,425a1.987,1.987,0,0,1,.229.458c1.964,2.313,3.011,4.463,1.12,4.517-1.759.054-3.867,3.2-4.373,3.993a.534.534,0,0,0,.06.181c.024.06,2.475-4.114,4.487-4.174S1041.96,427.445,1039.743,425Z" transform="translate(-449.094 -195.223)"/>
    <path id="Path_183" data-name="Path 183" class="cls-22" d="M1045.029,427.832c0,.518-.054.94-.126.94s-.132-.422-.132-.94.072-.271.145-.271S1045.029,427.32,1045.029,427.832Z" transform="translate(-452.295 -196.218)"/>
    <path id="Path_184" data-name="Path 184" class="cls-22" d="M1045.808,428.846c-.452.247-.849.4-.879.331s.3-.313.759-.56.271-.066.307,0S1046.266,428.6,1045.808,428.846Z" transform="translate(-452.358 -196.611)"/>
    <path id="Path_185" data-name="Path 185" class="cls-5" d="M1030.234,425s-1.126,1.464.518,3.68,3.011,4.089,2.445,5.469c0,0-2.475-4.114-4.493-4.174S1028.017,427.445,1030.234,425Z" transform="translate(-445.51 -195.223)"/>
    <path id="Path_186" data-name="Path 186" class="cls-7" d="M1030.234,425a1.836,1.836,0,0,0-.235.458c-1.964,2.313-3.011,4.463-1.12,4.517,1.759.054,3.873,3.2,4.379,3.993a.531.531,0,0,1-.06.181c-.024.06-2.475-4.114-4.493-4.174S1028.017,427.445,1030.234,425Z" transform="translate(-445.51 -195.223)"/>
    <path id="Path_187" data-name="Path 187" class="cls-22" d="M1028.43,427.834c0,.518.06.94.132.94a1.9,1.9,0,0,0,.126-.94c0-.512-.072-.271-.145-.271S1028.43,427.322,1028.43,427.834Z" transform="translate(-445.797 -196.219)"/>
    <path id="Path_188" data-name="Path 188" class="cls-22" d="M1027.057,428.846c.458.247.849.4.885.331s-.307-.313-.759-.56-.277-.066-.313,0S1026.606,428.6,1027.057,428.846Z" transform="translate(-445.141 -196.611)"/>
    <path id="Path_189" data-name="Path 189" class="cls-30" d="M1029,438.7s3.138-.1,4.083-.771,4.818-1.476,5.065-.4,4.716,5.372,1.2,5.421-8.233-.548-9.179-1.126S1029,438.7,1029,438.7Z" transform="translate(-446.023 -199.997)"/>
    <path id="Path_190" data-name="Path 190" class="cls-31" d="M1039.4,443.681c-3.541,0-8.233-.554-9.173-1.126-.723-.44-1.006-2.012-1.1-2.734H1029s.2,2.536,1.144,3.108,5.631,1.156,9.179,1.126c1.024,0,1.373-.373,1.355-.909C1040.546,443.47,1040.16,443.675,1039.4,443.681Z" transform="translate(-446.023 -201.117)"/>
  </g>
</svg>
