<svg xmlns="http://www.w3.org/2000/svg" xmlns:xlink="http://www.w3.org/1999/xlink" width="764.991" height="528.094" viewBox="0 0 764.991 528.094">
  <defs>
    <style>
      .cls-1, .cls-2 {
        fill: #63cfa4;
      }

      .cls-1, .cls-12, .cls-15 {
        opacity: 0.1;
      }

      .cls-3 {
        fill: #444053;
      }

      .cls-4 {
        fill: #3f3d56;
      }

      .cls-5 {
        fill: #fff;
      }

      .cls-6 {
        fill: #fa5959;
      }

      .cls-6, .cls-7, .cls-8 {
        opacity: 0.8;
      }

      .cls-7 {
        fill: #fed253;
      }

      .cls-8 {
        fill: #8ccf4d;
      }

      .cls-9 {
        opacity: 0.05;
      }

      .cls-10 {
        fill: url(#linear-gradient);
      }

      .cls-11 {
        fill: #fbbebe;
      }

      .cls-13 {
        fill: url(#linear-gradient-2);
      }

      .cls-14 {
        fill: #33313f;
      }
    </style>
    <linearGradient id="linear-gradient" y1="0.5" x2="1" y2="0.5" gradientUnits="objectBoundingBox">
      <stop offset="0" stop-color="gray" stop-opacity="0.251"/>
      <stop offset="0.54" stop-color="gray" stop-opacity="0.122"/>
      <stop offset="1" stop-color="gray" stop-opacity="0.102"/>
    </linearGradient>
    <linearGradient id="linear-gradient-2" x1="0.5" x2="0.5" y2="1" gradientUnits="objectBoundingBox">
      <stop offset="0" stop-color="#63cfa4"/>
      <stop offset="1" stop-color="#326852"/>
    </linearGradient>
  </defs>
  <g id="verificaion" transform="translate(0 0.006)">
    <path id="Path_385" data-name="Path 385" class="cls-1" d="M449.609,119.36c-49.035.066-96.233-13.835-141.377-29.277S218.29,57.35,170.167,50.023c-30.949-4.71-66.143-4.277-90.335,12.824C56.545,79.3,49.8,106.529,46.547,131.686c-2.447,18.925-3.575,38.788,5.589,56.1C58.5,199.8,69.389,209.709,77.064,221.162c26.79,39.844,10.679,90.742-15.357,131.511C49.5,371.8,35.2,390.137,25.969,410.361s-13.015,43.157-3.6,63.119c9.328,19.784,30.4,34.144,53.01,43.951,45.919,19.955,99.381,24.232,151.407,25.878,115.164,3.654,230.552-3.8,345.631-11.25,42.586-2.755,85.363-5.53,127.07-13.513,23.156-4.428,47-11,63.42-25.406,20.841-18.289,25.1-48.149,9.938-69.613-25.432-36-92.494-42.79-110.73-81.742-10.056-21.444-1.384-46.037,11.388-66.707C700.9,230.727,748.049,191,748.843,141.395c.544-34.065-23.976-67.3-60.6-82.1-38.388-15.507-90.729-11.519-117.624,17.384C542.962,106.451,492.9,119.314,449.609,119.36Z" transform="translate(-16.91 -47.46)"/>
    <path id="Path_386" data-name="Path 386" class="cls-2" d="M1001.022,691.3s-8.062-5.32-16.052-1.535c0,0,2.46,4.736,12.575,4.29Z" transform="translate(-349.939 -267.959)"/>
    <path id="Path_387" data-name="Path 387" class="cls-2" d="M1008.2,693.25s2.453,9.341-3.7,15.7c0,0-3.7-3.851,0-13.284Z" transform="translate(-356.091 -269.625)"/>
    <path id="Path_388" data-name="Path 388" class="cls-2" d="M1016.558,676.516s-.6-7.944-18.538-5.307c0,0-.085,5.123,6.212,7.55S1013.416,679.14,1016.558,676.516Z" transform="translate(-354.429 -261.858)"/>
    <path id="Path_389" data-name="Path 389" class="cls-2" d="M1025.241,679.5s7.583,2.434.82,19.26c0,0-5.005-1.115-5.9-7.813S1021.922,681.94,1025.241,679.5Z" transform="translate(-361.984 -264.895)"/>
    <path id="Path_390" data-name="Path 390" class="cls-2" d="M1034.35,656.115s1.03-13.074-17.3-11.736c0,0-1.312,11.808,14.071,14.878Z" transform="translate(-360.964 -252.78)"/>
    <path id="Path_391" data-name="Path 391" class="cls-2" d="M1050.981,633.933s-2.512-14.819-20.841-10.4c0,0-.066,12.811,17.849,13.933Z" transform="translate(-365.478 -245.357)"/>
    <path id="Path_392" data-name="Path 392" class="cls-2" d="M1063.679,610.833s-4.212-14.432-22.369-10.115c0,0,4.323,12.982,21.162,12.779Z" transform="translate(-369.321 -237.515)"/>
    <path id="Path_393" data-name="Path 393" class="cls-2" d="M1076.877,587.9s-4.113-14.976-21.647-10.5c0,0,5.851,14.228,20.486,13.028Z" transform="translate(-374.11 -229.483)"/>
    <path id="Path_394" data-name="Path 394" class="cls-2" d="M1086.259,564.474s-3.162-18.315-19.509-14.261c0,0,4.749,16.662,18.308,16.931Z" transform="translate(-378.073 -220.216)"/>
    <path id="Path_395" data-name="Path 395" class="cls-2" d="M1093.575,538.8s-3.8-18.459-20.335-13.12c0,0,6.481,17.449,19.161,15.645Z" transform="translate(-380.306 -211.645)"/>
    <path id="Path_396" data-name="Path 396" class="cls-2" d="M1099.134,512.5s-6.028-18.466-18.814-17.967c0,0,6.16,19.5,17.744,21.647Z" transform="translate(-382.741 -201.26)"/>
    <path id="Path_397" data-name="Path 397" class="cls-2" d="M1103.184,487.443s-6.56-22.225-16.964-20.513c0,0,4.539,16.99,16.6,23.976Z" transform="translate(-384.771 -191.735)"/>
    <path id="Path_398" data-name="Path 398" class="cls-2" d="M1105.219,459.9s-6.153-18.518-16.4-19.26c0,0,4.185,18.223,16.2,24.075Z" transform="translate(-385.665 -182.723)"/>
    <path id="Path_399" data-name="Path 399" class="cls-2" d="M1108.142,433.7s-7.668-18.538-14.432-18.958c0,0,3.332,18.256,13.776,22Z" transform="translate(-387.348 -173.813)"/>
    <path id="Path_400" data-name="Path 400" class="cls-2" d="M1110.973,407.685s-4.717-20.132-11.493-21.8c0,0,.925,16.472,10.811,23.314Z" transform="translate(-389.333 -163.884)"/>
    <path id="Path_401" data-name="Path 401" class="cls-2" d="M1115.42,377.3s-4.959-16.052-10.45-18.5c0,0,1.082,18.925,9.184,22.422Z" transform="translate(-391.221 -154.568)"/>
    <path id="Path_402" data-name="Path 402" class="cls-2" d="M1121.965,351.159l1-28.3s-10.266,21.333-1.738,33.265Z" transform="translate(-395.648 -142.204)"/>
    <path id="Path_403" data-name="Path 403" class="cls-2" d="M1134.115,311.648s7.393-20.663,9.184-21.818c0,0-14.5,13.408-13.08,30.654Z" transform="translate(-399.874 -130.841)"/>
    <path id="Path_404" data-name="Path 404" class="cls-2" d="M1042.642,662.148s13-1.7,12.615,16.675c0,0-11.749,1.915-15.586-13.284Z" transform="translate(-368.757 -258.911)"/>
    <path id="Path_405" data-name="Path 405" class="cls-2" d="M1061.278,639.06s15.022-.046,13.776,18.761c0,0-12.615,2.257-16.773-15.206Z" transform="translate(-375.159 -250.983)"/>
    <path id="Path_406" data-name="Path 406" class="cls-2" d="M1075,617.771s13.638-6.4,22.362,10.115c0,0-12.595,5.327-23.569-7.445Z" transform="translate(-380.495 -243.239)"/>
    <path id="Path_407" data-name="Path 407" class="cls-2" d="M1088.084,593.3s13.966-6.8,22.166,9.322c0,0-14.55,5.012-23.32-6.77Z" transform="translate(-385.015 -234.751)"/>
    <path id="Path_408" data-name="Path 408" class="cls-2" d="M1095.9,569.9s13.441-12.838,24.166.144c0,0-13.73,10.568-24.783,2.716Z" transform="translate(-387.888 -225.242)"/>
    <path id="Path_409" data-name="Path 409" class="cls-2" d="M1102.825,542.554s13.52-13.12,24.16.6c0,0-15.173,10.778-24.645,2.152Z" transform="translate(-390.316 -215.837)"/>
    <path id="Path_410" data-name="Path 410" class="cls-2" d="M1106.93,514.17s10.417-16.4,22.684-12.739c0,0-10.811,17.364-22.566,16.59Z" transform="translate(-391.896 -203.452)"/>
    <path id="Path_411" data-name="Path 411" class="cls-2" d="M1111.469,488.925s10.5-20.65,20.427-17.056c0,0-7.57,15.875-20.7,20.539Z" transform="translate(-393.364 -193.322)"/>
    <path id="Path_412" data-name="Path 412" class="cls-2" d="M1112.17,460.789s10.791-16.255,20.9-14.268c0,0-8.823,16.485-21.949,18.971Z" transform="translate(-393.337 -184.688)"/>
    <path id="Path_413" data-name="Path 413" class="cls-2" d="M1114,433.458s8.364-18.243,15.16-18.368c0,0-4.015,18.112-14.6,21.464Z" transform="translate(-394.328 -173.933)"/>
    <path id="Path_414" data-name="Path 414" class="cls-2" d="M1116.5,408.812s9.3-18.472,16.281-18.512c0,0-4.756,15.8-15.973,20.132Z" transform="translate(-395.188 -165.405)"/>
    <path id="Path_415" data-name="Path 415" class="cls-2" d="M1118.63,379.836s6.953-15.284,12.713-17.016c0,0-3.477,18.63-11.945,21.07Z" transform="translate(-395.921 -155.951)"/>
    <path id="Path_416" data-name="Path 416" class="cls-2" d="M1124.2,352.734l15.54-23.674s-3.982,23.353-17.81,28.207Z" transform="translate(-397.056 -144.337)"/>
    <path id="Path_417" data-name="Path 417" class="cls-2" d="M1137.7,318.408s18.059-12.464,18.715-14.478c0,0-9.184,17.456-26.239,20.539Z" transform="translate(-399.894 -135.692)"/>
    <path id="Path_418" data-name="Path 418" class="cls-2" d="M1143.039,307.006s20.736-19.935,26.03-19.916c0,0-17.1.781-26.528,18.853Z" transform="translate(-404.146 -129.899)"/>
    <path id="Path_419" data-name="Path 419" class="cls-3" d="M1118.94,366.327l.754.1c3.9-30.5,9.577-48.543,15.993-50.753l-.249-.722C1128.635,317.312,1122.915,335.082,1118.94,366.327Z" transform="translate(-396.027 -139.483)"/>
    <path id="Path_420" data-name="Path 420" class="cls-3" d="M1110.2,465.015l1.141.092c.243-2.847.427-5.76.551-8.666,1.089-25.242,2.775-48.425,4.992-65.8l-.656-.82c-2.224,17.416-4.388,41.294-5.477,66.576C1110.626,459.282,1110.443,462.182,1110.2,465.015Z" transform="translate(-393.02 -165.24)"/>
    <path id="Path_421" data-name="Path 421" class="cls-3" d="M976.677,641.425c.2-.085,20.29-9.059,41.143-30.457a165.452,165.452,0,0,0,30.077-42.639c9.643-19.634,15.521-43.761,17.489-67.2l-1.187.558c-4.428,52.61-28.378,88.558-47.421,108.139-20.65,21.208-40.52,30.09-40.717,30.175Z" transform="translate(-346.874 -203.532)"/>
    <path id="Path_422" data-name="Path 422" class="cls-4" d="M722.806,132.69H92.485a5.615,5.615,0,0,0-5.615,5.615v16.36H728.421v-16.36A5.615,5.615,0,0,0,722.806,132.69Z" transform="translate(-40.977 -76.783)"/>
    <path id="Path_423" data-name="Path 423" class="cls-5" d="M86.87,166.19V534.354a11.322,11.322,0,0,0,11.322,11.322H717.1a11.322,11.322,0,0,0,11.322-11.322V166.19Z" transform="translate(-40.977 -88.307)"/>
    <circle id="Ellipse_48" data-name="Ellipse 48" class="cls-6" cx="2.624" cy="2.624" r="2.624" transform="translate(53.43 64.107)"/>
    <circle id="Ellipse_49" data-name="Ellipse 49" class="cls-7" cx="2.624" cy="2.624" r="2.624" transform="translate(60.646 64.107)"/>
    <circle id="Ellipse_50" data-name="Ellipse 50" class="cls-8" cx="2.624" cy="2.624" r="2.624" transform="translate(67.861 64.107)"/>
    <rect id="Rectangle_103" data-name="Rectangle 103" class="cls-9" width="515.603" height="226.721" transform="translate(105.528 139.27)"/>
    <rect id="Rectangle_104" data-name="Rectangle 104" class="cls-4" width="507.731" height="221.722" transform="translate(109.464 140.988)"/>
    <path id="Path_424" data-name="Path 424" class="cls-2" d="M368.291,349.38A50.511,50.511,0,1,0,418.8,399.891a50.511,50.511,0,0,0-50.511-50.511ZM377.35,401.1v23.917H359.494V401.1a14.792,14.792,0,1,1,17.856,0Z" transform="translate(-120.414 -151.328)"/>
    <path id="Path_425" data-name="Path 425" class="cls-9" d="M368.291,349.38A50.511,50.511,0,1,0,418.8,399.891a50.511,50.511,0,0,0-50.511-50.511ZM377.35,401.1v23.917H359.494V401.1a14.792,14.792,0,1,1,17.856,0Z" transform="translate(-120.414 -151.328)"/>
    <path id="Path_426" data-name="Path 426" class="cls-2" d="M360.722,327.38a64.942,64.942,0,1,0,64.942,64.942,64.942,64.942,0,0,0-64.942-64.942Zm11.644,66.5v30.746H349.407V393.884a19.023,19.023,0,1,1,22.959,0Z" transform="translate(-112.846 -143.759)"/>
    <rect id="Rectangle_105" data-name="Rectangle 105" class="cls-5" width="209.915" height="22.303" transform="translate(339.714 240.042)"/>
    <rect id="Rectangle_106" data-name="Rectangle 106" class="cls-2" width="45.263" height="22.303" transform="translate(504.366 280.713)"/>
    <path id="Path_427" data-name="Path 427" class="cls-2" d="M561.292,427.472h-3.8l3.378-3.372a.335.335,0,0,0,0-.466.328.328,0,0,0-.466,0l-3.378,3.378v-3.8a.328.328,0,0,0-.328-.328.334.334,0,0,0-.328.328v3.8l-3.372-3.4a.328.328,0,0,0-.466,0,.335.335,0,0,0,0,.466l3.378,3.372h-3.8a.334.334,0,0,0-.328.328.328.328,0,0,0,.328.328h3.8l-3.378,3.378a.334.334,0,0,0,0,.466.341.341,0,0,0,.466,0l3.372-3.378v3.8a.328.328,0,0,0,.656,0v-3.8l3.378,3.378a.341.341,0,0,0,.466,0,.335.335,0,0,0,0-.466l-3.378-3.378h3.8a.318.318,0,1,0,0-.636Z" transform="translate(-200.914 -176.613)"/>
    <path id="Path_428" data-name="Path 428" class="cls-2" d="M582.292,427.472h-3.8l3.378-3.372a.335.335,0,0,0,0-.466.328.328,0,0,0-.466,0l-3.378,3.378v-3.8a.328.328,0,0,0-.328-.328.335.335,0,0,0-.328.328v3.8l-3.372-3.4a.328.328,0,0,0-.466,0,.334.334,0,0,0,0,.466l3.378,3.372h-3.8a.334.334,0,0,0-.328.328.328.328,0,0,0,.328.328h3.8l-3.378,3.378a.334.334,0,0,0,0,.466.341.341,0,0,0,.466,0l3.372-3.378v3.8a.328.328,0,0,0,.656,0v-3.8l3.378,3.378a.341.341,0,0,0,.466,0,.335.335,0,0,0,0-.466l-3.378-3.378h3.8a.318.318,0,1,0,0-.636Z" transform="translate(-208.139 -176.613)"/>
    <path id="Path_429" data-name="Path 429" class="cls-2" d="M603.292,427.472h-3.8l3.378-3.372a.335.335,0,0,0,0-.466.328.328,0,0,0-.466,0l-3.378,3.378v-3.8a.328.328,0,0,0-.328-.328.335.335,0,0,0-.328.328v3.8l-3.372-3.4a.328.328,0,0,0-.466,0,.335.335,0,0,0,0,.466l3.378,3.372h-3.8a.335.335,0,0,0-.328.328.328.328,0,0,0,.328.328h3.8l-3.378,3.378a.335.335,0,0,0,0,.466.341.341,0,0,0,.466,0l3.372-3.378v3.8a.328.328,0,0,0,.656,0v-3.8l3.378,3.378a.341.341,0,0,0,.466,0,.335.335,0,0,0,0-.466l-3.378-3.378h3.8a.318.318,0,1,0,0-.636Z" transform="translate(-215.363 -176.613)"/>
    <path id="Path_430" data-name="Path 430" class="cls-2" d="M624.292,427.472h-3.8l3.378-3.372a.335.335,0,0,0,0-.466.328.328,0,0,0-.466,0l-3.378,3.378v-3.8a.328.328,0,0,0-.328-.328.334.334,0,0,0-.328.328v3.8l-3.372-3.4a.328.328,0,0,0-.466,0,.334.334,0,0,0,0,.466l3.378,3.372h-3.8a.335.335,0,0,0-.328.328.328.328,0,0,0,.328.328h3.8l-3.378,3.378a.334.334,0,0,0,0,.466.341.341,0,0,0,.466,0l3.372-3.378v3.8a.328.328,0,1,0,.656,0v-3.8l3.378,3.378a.341.341,0,0,0,.466,0,.335.335,0,0,0,0-.466l-3.378-3.378h3.8a.318.318,0,1,0,0-.636Z" transform="translate(-222.587 -176.613)"/>
    <path id="Path_431" data-name="Path 431" class="cls-2" d="M645.292,427.472h-3.8l3.378-3.372a.335.335,0,0,0,0-.466.328.328,0,0,0-.466,0l-3.378,3.378v-3.8a.328.328,0,0,0-.328-.328.335.335,0,0,0-.328.328v3.8l-3.372-3.4a.328.328,0,0,0-.466,0,.334.334,0,0,0,0,.466l3.378,3.372h-3.8a.335.335,0,0,0-.328.328.328.328,0,0,0,.328.328h3.8l-3.378,3.378a.334.334,0,0,0,0,.466.341.341,0,0,0,.466,0l3.372-3.378v3.8a.328.328,0,1,0,.656,0v-3.8l3.378,3.378a.341.341,0,0,0,.466,0,.335.335,0,0,0,0-.466l-3.378-3.378h3.8a.318.318,0,1,0,0-.636Z" transform="translate(-229.812 -176.613)"/>
    <path id="Path_432" data-name="Path 432" class="cls-2" d="M666.292,427.472h-3.8l3.378-3.372a.334.334,0,0,0,0-.466.328.328,0,0,0-.466,0l-3.378,3.378v-3.8a.328.328,0,0,0-.328-.328.335.335,0,0,0-.328.328v3.8l-3.372-3.4a.328.328,0,0,0-.466,0,.335.335,0,0,0,0,.466l3.378,3.372h-3.8a.335.335,0,0,0-.328.328.328.328,0,0,0,.328.328h3.8l-3.378,3.378a.335.335,0,0,0,0,.466.341.341,0,0,0,.466,0l3.372-3.378v3.8a.328.328,0,0,0,.656,0v-3.8l3.378,3.378a.341.341,0,0,0,.466,0,.335.335,0,0,0,0-.466l-3.378-3.378h3.8a.318.318,0,1,0,0-.636Z" transform="translate(-237.036 -176.613)"/>
    <path id="Path_433" data-name="Path 433" class="cls-2" d="M687.292,427.472h-3.8l3.378-3.372a.335.335,0,0,0,0-.466.328.328,0,0,0-.466,0l-3.378,3.378v-3.8a.328.328,0,0,0-.328-.328.335.335,0,0,0-.328.328v3.8l-3.372-3.4a.328.328,0,0,0-.466,0,.334.334,0,0,0,0,.466l3.378,3.372h-3.8a.334.334,0,0,0-.328.328.328.328,0,0,0,.328.328h3.8l-3.378,3.378a.334.334,0,0,0,0,.466.341.341,0,0,0,.466,0l3.372-3.378v3.8a.328.328,0,0,0,.656,0v-3.8l3.378,3.378a.341.341,0,0,0,.466,0,.335.335,0,0,0,0-.466l-3.378-3.378h3.8a.318.318,0,1,0,0-.636Z" transform="translate(-244.261 -176.613)"/>
    <path id="Path_434" data-name="Path 434" class="cls-2" d="M708.292,427.472h-3.8l3.378-3.372a.335.335,0,0,0,0-.466.328.328,0,0,0-.466,0l-3.378,3.378v-3.8a.328.328,0,0,0-.328-.328.335.335,0,0,0-.328.328v3.8l-3.372-3.4a.328.328,0,0,0-.466,0,.335.335,0,0,0,0,.466l3.378,3.372h-3.8a.334.334,0,0,0-.328.328.328.328,0,0,0,.328.328h3.8l-3.378,3.378a.335.335,0,0,0,0,.466.341.341,0,0,0,.466,0l3.372-3.378v3.8a.328.328,0,0,0,.656,0v-3.8l3.378,3.378a.341.341,0,0,0,.466,0,.335.335,0,0,0,0-.466l-3.378-3.378h3.8a.318.318,0,1,0,0-.636Z" transform="translate(-251.485 -176.613)"/>
    <path id="Path_435" data-name="Path 435" class="cls-2" d="M729.292,427.472h-3.8l3.378-3.372a.334.334,0,0,0,0-.466.328.328,0,0,0-.466,0l-3.378,3.378v-3.8a.328.328,0,0,0-.328-.328.334.334,0,0,0-.328.328v3.8l-3.372-3.4a.328.328,0,0,0-.466,0,.335.335,0,0,0,0,.466l3.378,3.372h-3.8a.335.335,0,0,0-.328.328.328.328,0,0,0,.328.328h3.8l-3.378,3.378a.335.335,0,0,0,0,.466.341.341,0,0,0,.466,0l3.372-3.378v3.8a.328.328,0,0,0,.656,0v-3.8l3.378,3.378a.341.341,0,0,0,.466,0,.334.334,0,0,0,0-.466l-3.378-3.378h3.8a.318.318,0,1,0,0-.636Z" transform="translate(-258.709 -176.613)"/>
    <path id="Path_436" data-name="Path 436" class="cls-2" d="M750.292,427.472h-3.8l3.378-3.372a.335.335,0,0,0,0-.466.328.328,0,0,0-.466,0l-3.378,3.378v-3.8a.328.328,0,0,0-.328-.328.335.335,0,0,0-.328.328v3.8l-3.372-3.4a.328.328,0,0,0-.466,0,.334.334,0,0,0,0,.466l3.378,3.372h-3.8a.335.335,0,0,0-.328.328.328.328,0,0,0,.328.328h3.8l-3.378,3.378a.334.334,0,0,0,0,.466.341.341,0,0,0,.466,0l3.372-3.378v3.8a.328.328,0,1,0,.656,0v-3.8l3.378,3.378a.341.341,0,0,0,.466,0,.335.335,0,0,0,0-.466l-3.378-3.378h3.8a.318.318,0,1,0,0-.636Z" transform="translate(-265.934 -176.613)"/>
    <path id="Path_437" data-name="Path 437" class="cls-2" d="M771.292,427.472h-3.8l3.378-3.372a.335.335,0,0,0,0-.466.328.328,0,0,0-.466,0l-3.378,3.378v-3.8a.328.328,0,0,0-.328-.328.334.334,0,0,0-.328.328v3.8l-3.372-3.4a.328.328,0,0,0-.466,0,.335.335,0,0,0,0,.466l3.378,3.372h-3.8a.335.335,0,0,0-.328.328.328.328,0,0,0,.328.328h3.8l-3.378,3.378a.335.335,0,0,0,0,.466.341.341,0,0,0,.466,0l3.372-3.378v3.8a.328.328,0,0,0,.656,0v-3.8l3.378,3.378a.341.341,0,0,0,.466,0,.335.335,0,0,0,0-.466l-3.378-3.378h3.8a.318.318,0,1,0,0-.636Z" transform="translate(-273.158 -176.613)"/>
    <path id="Path_438" data-name="Path 438" class="cls-10" d="M885.04,522.572a11.744,11.744,0,0,0-.3-2.355c-.59-2.217-1.922-4.9-4.113-5.569a34.528,34.528,0,0,1-6.52-2.755c-.394-7.032,1.22-14.228-.538-21.044-.656-2.493-1.738-4.88-2.027-7.432-.361-3.175.505-6.56-.761-9.486a9.361,9.361,0,0,0-5.543-4.789,29.538,29.538,0,0,0-7.393-1.312c-3.149-.256-13.343-1.463-16.9,1.351h0a3.716,3.716,0,0,0-.656.656h0a2.626,2.626,0,0,0-.21.341l-.033.052a2.666,2.666,0,0,0-.177.426h0a3.311,3.311,0,0,0-.111.492v1.181c.046.59.131,1.181.131,1.765a3.8,3.8,0,0,1-.079.866,6.059,6.059,0,0,1-1.089,2.125h0l-.118.171c-.072.1-.144.2-.21.308s-.118.184-.171.276-.1.151-.151.236a3.216,3.216,0,0,0-.171.335c0,.066-.072.125-.1.19a3.23,3.23,0,0,0-.2.551,3.662,3.662,0,0,0-.039,1.745,6.5,6.5,0,0,0,.9,2.066c.164.269.341.531.525.794l.459.623a14.163,14.163,0,0,0-.138,1.837,13.571,13.571,0,0,0,5.181,10.665,40.179,40.179,0,0,1-.084,8.326c-.059.577-.131,1.161-.21,1.738s-.138.958-.217,1.437a6.658,6.658,0,0,1-2.867-.216,13.52,13.52,0,0,0-1.312-.505c-1.909-.479-3.857,1.423-5.746.846a.772.772,0,0,1-.085.262,2.571,2.571,0,0,0-1.312-.387,4.785,4.785,0,0,1-2.847-1.633l-2.5-2.355a2.76,2.76,0,0,1-.433-.485,3.4,3.4,0,0,1-.3-.807,9.3,9.3,0,0,0-2.421-3.47,1.639,1.639,0,0,0-.715-.518,1.105,1.105,0,0,0-.328,0,2.871,2.871,0,0,0-.216-.262,6.169,6.169,0,0,0-.544-.551c-1.194-1.1-1.312-2.047-2.348-3.28a31.5,31.5,0,0,1-2.453-3.706c-.085-.689-.2-1.4-.348-2.112a27.173,27.173,0,0,0-1.437-4.789l-1.312-2.906-.151.151c-.951-1.417-1.968-2.191-2.88-2.007-1.528.315-2.283,3.28-2.04,7.157l.525,3.936a1.213,1.213,0,0,0,.072.3,7.258,7.258,0,0,0-.144,1.417c0,.551.512.958.781,1.45a4.1,4.1,0,0,1,.656,2.237c-.033.282-.118.551-.131.827a3.182,3.182,0,0,0,.617,1.706l3.28,5.51.656,1.155.039.052a2.8,2.8,0,0,0,.879,1.01,12.013,12.013,0,0,0,1.082,3.982c.112.249.236.485.367.721a23.205,23.205,0,0,0,3.1,4.021l1.561,1.751c1.542,1.719,3.083,3.444,4.756,5.031a6.37,6.37,0,0,0,2.125,1.489,2.407,2.407,0,0,0,2.388-.348q0,1.22,0,2.44a1.371,1.371,0,0,1,1.036,2.158,54.1,54.1,0,0,1-4.854,10.273,21.863,21.863,0,0,1,4.067,3.1,18.284,18.284,0,0,1,2.119,2.867c.059.485.1.964.131,1.443.485,7.819-2.539,15.58-5.248,23.032a17.943,17.943,0,0,0-1.568,6.52,12.8,12.8,0,0,0-1.469,1.056,9.727,9.727,0,0,1,.269,4.159,7.368,7.368,0,0,1-.544,2.624,18.426,18.426,0,0,1-.945,1.686c-1.7,3-2.073,6.56-2.414,9.984-.2,2.066.6,4.592-.341,6.442a26.35,26.35,0,0,0-3.28,10.089,10.119,10.119,0,0,1-.3,2.355c-.2.656-.564,1.214-.748,1.856a7.944,7.944,0,0,0-.131,2.624,25.111,25.111,0,0,1-1.377,9.256c-.82,2.342-1.725,4.848-1.082,7.255a10.226,10.226,0,0,0-2.775,6.094,9.617,9.617,0,0,1-.21,1.738,8.452,8.452,0,0,1-.787,1.673,14.641,14.641,0,0,0-1.784,7.872,21.894,21.894,0,0,0-3.536,9.236c-.584,3.273-.84,6.606-1.588,9.84-1,4.277-2.8,8.6-3.155,12.982-2.125,1.358-3.044,3.988-3.45,6.475s-.472,5.1-1.515,7.393c-.538,1.194-1.312,2.263-1.824,3.483a16,16,0,0,0-.787,3,11.7,11.7,0,0,0-.2,4.92,7.415,7.415,0,0,1-1.922,1.463c.1-.407.19-.813.262-1.227-1.693,1.535-4.762,1-6.114,2.84a2.768,2.768,0,0,0,.656,3.8,5.249,5.249,0,0,0,1.358.584c3.28,1.05,6.652,2.106,10.023,1.548a2.992,2.992,0,0,0,1.135-.361,3.653,3.653,0,0,0,1.056-1.22q.758-1.2,1.509-2.4a31.156,31.156,0,0,0,3.68.859c.125,1.049.216,2.1.262,3.149.656.131,1.535.171,1.843-.44a1.594,1.594,0,0,0,.111-.728c0-.466.066-1.082.1-1.712h.131a12.462,12.462,0,0,0,5.805-1.174c-.7-5.812,1.614-11.493,3.621-16.99,2.119-5.786,3.936-11.677,5.766-17.567,1.312-4.146,2.762-8.16,4.047-12.313q2.427-7.872,4.874-15.744c.708-2.309,1.423-4.592,2.237-6.888a107.312,107.312,0,0,1,6.081-13.533c.656-1.24,1.312-2.466,1.85-3.752.656-1.568,1.122-3.208,1.646-4.828a74.8,74.8,0,0,1,4.12-9.7c.046-.085.079-.164.125-.243.531,2.171,1.063,4.375,1.417,6.56a24.928,24.928,0,0,1,.112,8.108,26.734,26.734,0,0,0-.84,5.5c.1,2.565,1.469,4.894,2.145,7.367a28.028,28.028,0,0,1,.735,5.641c.184,2.952,1.784,6.265.656,9-3.51,8.666-1.811,18.453-3.811,27.551-1.03,4.671-4.185,9.059-3.936,13.835q.262,5.084.892,10.141a9.654,9.654,0,0,0,.82,3.077,11.29,11.29,0,0,0,.9,1.469c-.289.112-.531.407-.741,1.03a4.047,4.047,0,0,0,1.456,4.592,6.377,6.377,0,0,0,1.9.656,9.985,9.985,0,0,0,2.742.38,6.394,6.394,0,0,0,.859-.1,31.264,31.264,0,0,0,3.1,1.115,6.75,6.75,0,0,0,.085.807,1,1,0,0,0,.341.741,1.023,1.023,0,0,0,.525.092h3.562v-.892a2.932,2.932,0,0,0,2.263-.735,3.5,3.5,0,0,0,.656-1.364q1.456-4.94,2.893-9.886a31.6,31.6,0,0,0,1.41-11.283c-1.266-12.09,1.515-24.219.61-36.341a87.056,87.056,0,0,1,1.115-21.8c.3-1.627.656-3.28.787-4.9.289-3.057-.066-6.147.151-9.184.072-1.063.216-2.119.348-3.175a152.465,152.465,0,0,0,1.41-19.778,62.3,62.3,0,0,0-.407-6.56,3.746,3.746,0,0,0,1.791-1.05c.584-.761.433-1.83.426-2.8,0-2.322.977-4.513,1.765-6.7a79.642,79.642,0,0,0,2.48-9.223,32.2,32.2,0,0,0,1.1-7.708q0-.394-.039-.787a2.034,2.034,0,0,0,.6-.656,3.81,3.81,0,0,0,.315-1.214c.236-1.673.479-3.352.715-5.031q.262-1.8.518-3.6l2.086-14.556c.177-1.266.361-2.526.538-3.785l.545-3.765c.059-.446.125-.892.171-1.312C886.739,529.184,885.21,525.616,885.04,522.572Zm-17.4,54.5a11.99,11.99,0,0,1-1.312-5.7h-.072a2.926,2.926,0,0,0-.085-1.85c-.2-.479-.558-.886-.774-1.364a5,5,0,0,1-.354-1.837,50.077,50.077,0,0,1,.938-11.9c.085-.459.177-.925.262-1.384a3.427,3.427,0,0,0,.748-.584,5.32,5.32,0,0,0,.846-1.312c.741-1.489,1.417-3,2.04-4.546.2-.5.5-1.076,1-1.2-.1,3.838.289,7.754-1.273,11.217a7.1,7.1,0,0,0-.656,1.771c-.144.977.262,1.968.118,2.939-.072.505-.289.971-.374,1.469a1.437,1.437,0,0,0,.38,1.391,1.149,1.149,0,0,0,.282.144c-.039.262-.072.531-.1.787-.052.538-.079,1.043-.112,1.358a42.327,42.327,0,0,0-.177,4.828c0,1.738.066,3.477.039,5.248a3.564,3.564,0,0,1-.249,1.489,2.586,2.586,0,0,1-.5.656A17.056,17.056,0,0,0,867.636,577.071Z" transform="translate(-281.299 -191.913)"/>
    <ellipse id="Ellipse_51" data-name="Ellipse 51" class="cls-11" cx="3.7" cy="10.476" rx="3.7" ry="10.476" transform="matrix(0.98, -0.201, 0.201, 0.98, 526.729, 289.261)"/>
    <path id="Path_439" data-name="Path 439" class="cls-4" d="M878.293,838.489a3.972,3.972,0,0,0,1.456,4.546,6.481,6.481,0,0,0,1.883.656,9.931,9.931,0,0,0,2.735.374c1.135-.052,2.224-.5,3.359-.656a.525.525,0,0,1,.387.052.558.558,0,0,1,.144.459,17.351,17.351,0,0,0,.144,1.929.991.991,0,0,0,.341.741,1.024,1.024,0,0,0,.525.092h3.555a34.674,34.674,0,0,0-1.017-9.276,2.074,2.074,0,0,0-.263-.656,2.171,2.171,0,0,0-1.135-.656,6.344,6.344,0,0,0-2.749-.479,8.052,8.052,0,0,0-3.083,1.509,4.7,4.7,0,0,1-3.5.846C879.893,837.656,878.9,836.666,878.293,838.489Z" transform="translate(-313.17 -318.599)"/>
    <path id="Path_440" data-name="Path 440" class="cls-11" d="M796.51,834.9a9.837,9.837,0,0,1-3.588,2.44l-.6.289a.418.418,0,0,0-.2.164.354.354,0,0,0,.066.3A4.244,4.244,0,0,0,797,839.842a2.552,2.552,0,0,0,1.056-.551,3.463,3.463,0,0,0,.813-2.112,4.324,4.324,0,0,0-.1-2.421C797.855,832.705,797.521,833.637,796.51,834.9Z" transform="translate(-283.591 -317.892)"/>
    <path id="Path_441" data-name="Path 441" class="cls-4" d="M808.035,843.183a1.6,1.6,0,0,1-.112.728c-.308.6-1.168.571-1.837.439a44.165,44.165,0,0,0-.807-6.625c-1.273-.059-2.191,1.148-2.873,2.23l-1.758,2.788a3.636,3.636,0,0,1-1.05,1.22,3.109,3.109,0,0,1-1.135.361c-3.359.557-6.75-.5-9.991-1.548a5.292,5.292,0,0,1-1.358-.577,2.775,2.775,0,0,1-.656-3.792c1.358-1.837,4.408-1.312,6.1-2.834a15.269,15.269,0,0,1-.866,3.129c2.263-.341,3.785-2.414,5.609-3.8a3.45,3.45,0,0,1,1.6-.761,3.524,3.524,0,0,1,1.312.138,15.39,15.39,0,0,1,5.773,2.84,6.223,6.223,0,0,1,2.066,2.152C808.376,840.277,808.035,842.114,808.035,843.183Z" transform="translate(-281.484 -318.09)"/>
    <circle id="Ellipse_52" data-name="Ellipse 52" class="cls-11" cx="13.553" cy="13.553" r="13.553" transform="translate(558.123 281.552)"/>
    <path id="Path_442" data-name="Path 442" class="cls-4" d="M921.72,617.07a32.143,32.143,0,0,1-1.1,7.668,79.135,79.135,0,0,1-2.48,9.184c-.781,2.184-1.758,4.375-1.751,6.691,0,.964.157,2.034-.433,2.795a4.081,4.081,0,0,1-1.916,1.1,2.394,2.394,0,0,0-1.614,1.437,10.135,10.135,0,0,1-1.364-3q-1.765-5.405-3.28-10.87a1.41,1.41,0,0,1,.092-1.312,1.625,1.625,0,0,1,.571-.321,5.9,5.9,0,0,0,1.817-1.168,2.659,2.659,0,0,0,.6-.781,3.535,3.535,0,0,0,.256-1.483c0-1.738,0-3.47-.046-5.208a43.515,43.515,0,0,1,.184-4.808c0-.315.059-.82.111-1.358.1-1.03.3-2.224.853-2.624.833-.558,3.326.19,4.271.321,1.627.223,3.28.485,4.867.794A12.991,12.991,0,0,1,921.72,617.07Z" transform="translate(-323.346 -241.948)"/>
    <path id="Path_443" data-name="Path 443" class="cls-4" d="M837.887,513.34c-.525,1.05-1.784,1.555-2.755,2.217l-3.326,2.283a2.218,2.218,0,0,1-1.647.564,2.165,2.165,0,0,1-1.227-1.148.229.229,0,0,0,0-.053l-.689-1.155-3.28-5.5a3.129,3.129,0,0,1-.61-1.692c0-.282.1-.544.125-.827a3.969,3.969,0,0,0-.656-2.23c-.262-.492-.787-.9-.774-1.45a5.247,5.247,0,0,1,.367-2.119,4.291,4.291,0,0,1,1.437-1.535c.308-.223.623-.433.951-.656a1.876,1.876,0,0,1,.571-.262c.544-.112,1.082.341,1.633.361,2.368,1.587,3.28,4.592,5.143,6.757,1.05,1.233,1.155,2.178,2.342,3.28.19.171.374.354.551.544a3.811,3.811,0,0,1,.59.853C836.85,512.139,838.156,512.8,837.887,513.34Z" transform="translate(-294.234 -203.062)"/>
    <path id="Path_444" data-name="Path 444" class="cls-11" d="M877.926,512.77a12.212,12.212,0,0,1,1.456,6.606,4.127,4.127,0,0,1-.571,1.738c-.945,1.45-2.926,1.712-4.651,1.8a2.742,2.742,0,0,0-2.02.656,1.837,1.837,0,0,0,.125,2.243,5.062,5.062,0,0,0,2.007,1.312c2.729,1.2,5.674,2.191,8.639,1.915,1.378-.131,2.716-.531,4.087-.735a42.908,42.908,0,0,1,4.5-.249c1.784-.066,3.562-.243,5.34-.42l4.71-.466a1.049,1.049,0,0,0,.7-.256c.348-.407-.1-1-.531-1.312-2.5-1.85-5.681-3.122-7.1-5.9a34.764,34.764,0,0,1-1.345-4.29,36.086,36.086,0,0,1-1.561-4.139,27.433,27.433,0,0,1-.216-3.818,5.123,5.123,0,0,0-1.312-3.49,5.469,5.469,0,0,0-3.568-1.148c-3.136-.138-6.475.61-8.7,2.821-.6.6-1.109,1.312-1.725,1.85s-1.456.7-1.05,1.4,1.207,1.148,1.64,1.771a15.084,15.084,0,0,1,1.148,2.112Z" transform="translate(-311.012 -204.105)"/>
    <path id="Path_445" data-name="Path 445" class="cls-4" d="M897.2,538.247a74.529,74.529,0,0,1-4.015,14.779,55.655,55.655,0,0,0-2.362,6.625c-.505,2.034-.407,4.211-.872,6.252-.577,2.539-1.155,5.084-1.62,7.642a50.1,50.1,0,0,0-.932,11.873,4.968,4.968,0,0,0,.354,1.83c.217.472.564.879.768,1.365a3.279,3.279,0,0,1-.184,2.624,7.6,7.6,0,0,1-1.351,2.047c-6.114,1.824-12.654,1.227-19.024,1.614-5.871.354-11.808,1.561-17.593.558-.656-2.624.439-5.373,1.378-7.931,2.722-7.432,5.733-15.173,5.248-22.959a23.807,23.807,0,0,0-.308-2.709c-.951-5.517.085-11.23,1.745-16.577a28.451,28.451,0,0,0,.748-10.351,18.892,18.892,0,0,1-.046-3.391,5.963,5.963,0,0,1,1.233-3.168c0-.046.059-.092.092-.138a.9.9,0,0,1,.492,0h0a.42.42,0,0,0,.328,0l.072-.046a.164.164,0,0,1,.19,0c.151.092.236.407.564.466a13.067,13.067,0,0,0,1.463.138,7.867,7.867,0,0,1,1.745.249h.079a5.123,5.123,0,0,0,2.545-.216,6.767,6.767,0,0,0,1.561-.6c.144-.157,1.05-.3,1.233-.413.6-.361.466-2.053.59-2.749a7.556,7.556,0,0,1,.492-2.034,3.464,3.464,0,0,1,2.807-1.633,14.953,14.953,0,0,1,3.365.3c2.447.348,4.953.289,7.354.853,1.207.282,2.526.708,3.634.157.3.072.348.335.348.656a4.2,4.2,0,0,1-.184.9c-.42,1.811,1,3.477,2.316,4.789a7.425,7.425,0,0,0,1.935,1.542c.656.3,1.312.426,1.968.754a3.581,3.581,0,0,1,1.312,1.2,5.012,5.012,0,0,1,.748,1.909,11.415,11.415,0,0,1-.217,3.8Z" transform="translate(-303.564 -210.5)"/>
    <path id="Path_446" data-name="Path 446" class="cls-12" d="M900.434,541.8a74.529,74.529,0,0,1-4.015,14.779,55.655,55.655,0,0,0-2.362,6.625c-.505,2.034-.407,4.211-.872,6.252-.577,2.539-1.155,5.084-1.62,7.642-.138.079-.282.151-.426.216a10.064,10.064,0,0,1-2.572.827,15.743,15.743,0,0,1-4.8-.157l-9.361-1.253c-3.739-.505-7.721-1.115-10.5-3.647a22.388,22.388,0,0,1-3.66-5,23.782,23.782,0,0,0-.308-2.709c-.951-5.517.085-11.23,1.745-16.577a28.451,28.451,0,0,0,.748-10.351,18.9,18.9,0,0,1-.046-3.391,5.963,5.963,0,0,1,1.233-3.168,4.7,4.7,0,0,1,.584-.131h0a2.9,2.9,0,0,1,.4-.052h.19a2.861,2.861,0,0,1,.656.079,11.844,11.844,0,0,1,1.312.505h.079a5.025,5.025,0,0,0,1.745.249c.866,0,1.758-.138,2.624-.2a4.841,4.841,0,0,1,3.109.558,18.657,18.657,0,0,1,1.732,1.581,7.438,7.438,0,0,0,2.184,1.187,23.215,23.215,0,0,0,17.462-.367,3.418,3.418,0,0,1,1.752-.446,3.28,3.28,0,0,1,1.259.538c.394.23.781.453,1.181.656a5.012,5.012,0,0,1,.748,1.909A11.416,11.416,0,0,1,900.434,541.8Z" transform="translate(-306.802 -214.049)"/>
    <path id="Path_447" data-name="Path 447" class="cls-13" d="M903.176,536.793a35.008,35.008,0,0,1-7.478-3.28,3.351,3.351,0,0,0-1.259-.538,3.521,3.521,0,0,0-1.758.446,23.2,23.2,0,0,1-17.456.367,7.589,7.589,0,0,1-2.184-1.187,19.612,19.612,0,0,0-1.732-1.581c-2.158-1.4-5.143.243-7.557-.656a13.37,13.37,0,0,0-1.312-.505c-1.909-.479-3.851,1.423-5.727.846a31.911,31.911,0,0,0-1.542,5.851,63.789,63.789,0,0,0-.426,6.9c0,1.384-.066,2.768,0,4.152a1.362,1.362,0,0,1,1.036,2.152A53.773,53.773,0,0,1,850.94,560a22.251,22.251,0,0,1,4.054,3.1c2.3,2.427,3.424,5.832,5.9,8.075,2.794,2.526,6.776,3.142,10.5,3.641l9.361,1.253a16,16,0,0,0,4.808.164,10.119,10.119,0,0,0,2.565-.833,4.591,4.591,0,0,0,1.43-.945,5.246,5.246,0,0,0,.846-1.312c.741-1.483,1.417-3,2.04-4.533.216-.544.544-1.181,1.135-1.227,3.477-3.136,6.757-6.35,10.233-9.485a22.681,22.681,0,0,0,3.733-3.936c1.725-2.552.157-6.166,0-9.249a11.676,11.676,0,0,0-.3-2.342C906.685,540.132,905.36,537.455,903.176,536.793Z" transform="translate(-303.831 -213.389)"/>
    <path id="Path_448" data-name="Path 448" class="cls-12" d="M840.972,519.024c-.525,1.05-1.784,1.555-2.755,2.217l-3.326,2.283a2.217,2.217,0,0,1-1.646.564,2.165,2.165,0,0,1-1.227-1.148v-.472a4.4,4.4,0,0,1,.21-1.568,4.886,4.886,0,0,1,1.469-1.889,12.03,12.03,0,0,1,4.31-2.624,1.476,1.476,0,0,1,.787-.079,1.036,1.036,0,0,1,.289.125,3.8,3.8,0,0,1,.59.853C839.935,517.824,841.24,518.487,840.972,519.024Z" transform="translate(-297.319 -208.747)"/>
    <path id="Path_449" data-name="Path 449" class="cls-13" d="M849.23,526.161a4.778,4.778,0,0,1-2.84-1.627l-2.486-2.309a2.323,2.323,0,0,1-.433-.485,3.4,3.4,0,0,1-.3-.807,9.256,9.256,0,0,0-2.414-3.464,1.575,1.575,0,0,0-.715-.512,1.437,1.437,0,0,0-.794.079,12,12,0,0,0-4.31,2.624,4.9,4.9,0,0,0-1.469,1.889,4.363,4.363,0,0,0-.21,1.568,12.045,12.045,0,0,0,1.141,5.012c.112.243.236.485.367.722a22.72,22.72,0,0,0,3.083,4.008l1.561,1.745c1.535,1.719,3.07,3.437,4.736,5.018a6.256,6.256,0,0,0,2.125,1.483,2.375,2.375,0,0,0,2.44-.394,3.53,3.53,0,0,0,.7-1.246,24.535,24.535,0,0,0,2.027-8.18,30.9,30.9,0,0,0-.144-3.391C851.192,526.7,850.346,526.233,849.23,526.161Z" transform="translate(-297.746 -208.969)"/>
    <path id="Path_450" data-name="Path 450" class="cls-14" d="M876.914,655.147a151.571,151.571,0,0,1-1.4,19.725c-.131,1.056-.275,2.112-.348,3.168-.216,3.063.138,6.14-.151,9.184-.151,1.646-.492,3.28-.781,4.887a86.9,86.9,0,0,0-1.115,21.746c.905,12.09-1.87,24.186-.61,36.243a29.3,29.3,0,0,1-.387,7.012,29.723,29.723,0,0,1-1.017,4.238q-1.437,4.927-2.886,9.84a3.413,3.413,0,0,1-.656,1.364,3.109,3.109,0,0,1-2.46.728c-3.785-.118-7.347-1.752-10.784-3.346a3.758,3.758,0,0,1-1.082-.656c-.715-.741-.656-1.909-.971-2.886a27.479,27.479,0,0,0-1.653-2.9,9.466,9.466,0,0,1-.715-2.985q-.656-5.038-.892-10.115c-.249-4.762,2.9-9.144,3.936-13.776,1.968-9.105.3-18.866,3.8-27.505,1.1-2.729-.5-6.035-.656-8.974a28.45,28.45,0,0,0-.735-5.628c-.656-2.466-2.04-4.789-2.139-7.347a26.989,26.989,0,0,1,.833-5.477,24.619,24.619,0,0,0-.111-8.088c-.348-2.2-.879-4.408-1.41-6.56l-.118.243a74.117,74.117,0,0,0-4.113,9.676c-.525,1.607-.984,3.247-1.64,4.808-.538,1.312-1.2,2.512-1.85,3.746a107.576,107.576,0,0,0-6.068,13.48c-.813,2.27-1.528,4.592-2.237,6.868L831.632,721.6c-1.312,4.139-2.749,8.141-4.034,12.273-1.817,5.9-3.634,11.755-5.746,17.528-1.968,5.477-4.31,11.152-3.608,16.938a12.463,12.463,0,0,1-5.792,1.174,33.915,33.915,0,0,1-9.84-2.388,7.649,7.649,0,0,1-3.4-2.021c-1.456-1.778-1.1-4.382-.656-6.645a16.053,16.053,0,0,1,.787-2.991c.5-1.207,1.312-2.276,1.824-3.47,1.03-2.289,1.1-4.88,1.5-7.367s1.312-5.11,3.437-6.461c.361-4.369,2.158-8.679,3.149-12.949.748-3.234,1-6.56,1.587-9.84a21.613,21.613,0,0,1,3.523-9.217,14.608,14.608,0,0,1,1.784-7.872,8.609,8.609,0,0,0,.781-1.673,9.612,9.612,0,0,0,.21-1.732,10.24,10.24,0,0,1,2.768-6.081c-.656-2.394.256-4.894,1.076-7.216a25.073,25.073,0,0,0,1.378-9.23,8.088,8.088,0,0,1,.125-2.624c.184-.656.544-1.214.754-1.843a10.5,10.5,0,0,0,.3-2.355,27.238,27.238,0,0,1,3.28-10.063c.945-1.85.144-4.362.341-6.422.341-3.424.715-6.967,2.414-9.951.315-.564.656-1.1.938-1.686a7.3,7.3,0,0,0,.544-2.624,9.661,9.661,0,0,0-.269-4.146c3.51-2.919,8.3-3.739,12.864-3.936s9.184.216,13.651-.754c1.312-.3,2.624-.7,4.008-.9,3.142-.459,6.33.256,9.433.964a11.236,11.236,0,0,0,1.312,5.687,61.054,61.054,0,0,1,4.861,23.432Z" transform="translate(-285.677 -246.118)"/>
    <path id="Path_451" data-name="Path 451" class="cls-12" d="M889.906,673.29l-7.537,16.951c-.348-2.2-.879-4.408-1.41-6.56l-.118.243v-.354l4.106-9.033Z" transform="translate(-314.117 -262.758)"/>
    <path id="Path_452" data-name="Path 452" class="cls-12" d="M923.641,617.07a2.833,2.833,0,0,1-1.5.558,7.273,7.273,0,0,1-2.453-.335l-5.9-1.476a2.9,2.9,0,0,1-.538-.19c.1-1.03.3-2.224.853-2.624.833-.558,3.326.19,4.271.321,1.627.223,3.28.485,4.867.794a13,13,0,0,1,.4,2.952Z" transform="translate(-325.266 -241.948)"/>
    <path id="Path_453" data-name="Path 453" class="cls-13" d="M928.312,558.712c.125.544.3,1.082.407,1.633a12.463,12.463,0,0,1-.138,4.06l-.538,3.752-.538,3.772-2.079,14.517-.512,3.595-.722,5.018a3.607,3.607,0,0,1-.315,1.207,2.513,2.513,0,0,1-2.053,1.214,7.439,7.439,0,0,1-2.453-.335l-5.9-1.482a1.849,1.849,0,0,1-.722-.3,1.423,1.423,0,0,1-.38-1.384c.085-.5.3-.964.374-1.463.144-.971-.262-1.968-.118-2.932a7.294,7.294,0,0,1,.656-1.765c1.968-4.349.827-9.426,1.5-14.15a21.45,21.45,0,0,1,4.552-10.128,29.069,29.069,0,0,1,5.025-4.933c.735-.571,1.9-1.745,2.827-1.968C928.364,556.4,928.115,557.885,928.312,558.712Z" transform="translate(-324.945 -222.621)"/>
    <path id="Path_454" data-name="Path 454" class="cls-14" d="M865.38,471.924c-.433,1.378.243,2.893-.066,4.3-.335,1.548-1.791,2.624-2.2,4.179-.656,2.368,1.351,4.526,2.821,6.494,5.445,7.308,4.73,17.423,2.867,26.338a135.988,135.988,0,0,1-6.2,20.991,16.084,16.084,0,0,1-3.339,5.858c3.017-.866,6.225-1.738,9.249-.9,3.831,1.063,7.137,4.782,11.021,3.936,2.335-.518,3.975-2.591,6.074-3.739,3.936-2.119,8.679-.787,13.067-.1a5.13,5.13,0,0,0,2.854-.144,4.742,4.742,0,0,0,1.732-1.594,16.175,16.175,0,0,0,3.372-8.725,11.191,11.191,0,0,0-3.221-8.613,18.421,18.421,0,0,1-2.762-2.624,8.147,8.147,0,0,1-1.082-3.975c-.518-7.216,1.24-14.582-.571-21.562-.656-2.486-1.725-4.867-2.014-7.413-.361-3.168.5-6.56-.761-9.459a9.277,9.277,0,0,0-5.53-4.776,30.3,30.3,0,0,0-7.373-1.312C879.72,468.775,866.883,467.233,865.38,471.924Z" transform="translate(-306.693 -192.339)"/>
    <g id="Group_40" data-name="Group 40" class="cls-15" transform="translate(552.567 278.082)">
      <path id="Path_455" data-name="Path 455" d="M870.566,518.345a135.728,135.728,0,0,1-6.166,20.906c.453-.9.833-1.843,1.194-2.781a135.28,135.28,0,0,0,6.2-20.991c1.87-8.921,2.585-19.023-2.86-26.338-1.312-1.745-3-3.634-2.939-5.681a6.991,6.991,0,0,0-1.115,2.06c-.656,2.368,1.351,4.526,2.821,6.494C873.144,499.315,872.429,509.43,870.566,518.345Z" transform="translate(-861.028 -475.536)"/>
      <path id="Path_456" data-name="Path 456" d="M868.52,476.516a6.384,6.384,0,0,0,1.154-2.211,11.235,11.235,0,0,0-.079-2.926,3.155,3.155,0,0,0-1.089,1.5C868.12,474.043,868.566,475.3,868.52,476.516Z" transform="translate(-862.386 -471.38)"/>
      <path id="Path_457" data-name="Path 457" d="M904.49,568.083a4.723,4.723,0,0,1-1.732,1.588,5.012,5.012,0,0,1-2.853.144c-4.389-.656-9.184-2.007-13.067.112-2.106,1.141-3.739,3.214-6.081,3.739-3.877.866-7.183-2.854-11.014-3.936-2.716-.754-5.576-.131-8.311.656a11.461,11.461,0,0,1-2.171,3.135c3.018-.866,6.225-1.738,9.249-.9,3.831,1.063,7.137,4.782,11.021,3.936,2.335-.518,3.975-2.591,6.074-3.739,3.936-2.119,8.679-.787,13.067-.1a5.13,5.13,0,0,0,2.854-.144,4.743,4.743,0,0,0,1.732-1.594,17.632,17.632,0,0,0,2.716-5.2A19.079,19.079,0,0,1,904.49,568.083Z" transform="translate(-859.26 -503.855)"/>
    </g>
  </g>
</svg>
